%TF.GenerationSoftware,KiCad,Pcbnew,8.0.5*%
%TF.CreationDate,2024-10-11T11:26:04-07:00*%
%TF.ProjectId,USB_SPDTK2,5553425f-5350-4445-944b-322e6b696361,rev?*%
%TF.SameCoordinates,Original*%
%TF.FileFunction,Other,Comment*%
%FSLAX46Y46*%
G04 Gerber Fmt 4.6, Leading zero omitted, Abs format (unit mm)*
G04 Created by KiCad (PCBNEW 8.0.5) date 2024-10-11 11:26:04*
%MOMM*%
%LPD*%
G01*
G04 APERTURE LIST*
%ADD10C,0.070000*%
%ADD11C,0.150000*%
G04 APERTURE END LIST*
D10*
X113246407Y-103168095D02*
X112846407Y-103168095D01*
X113246407Y-102939524D02*
X113017836Y-103110953D01*
X112846407Y-102939524D02*
X113074979Y-103168095D01*
X113036883Y-102768095D02*
X113036883Y-102634762D01*
X113246407Y-102577619D02*
X113246407Y-102768095D01*
X113246407Y-102768095D02*
X112846407Y-102768095D01*
X112846407Y-102768095D02*
X112846407Y-102577619D01*
X113036883Y-102406190D02*
X113036883Y-102272857D01*
X113246407Y-102215714D02*
X113246407Y-102406190D01*
X113246407Y-102406190D02*
X112846407Y-102406190D01*
X112846407Y-102406190D02*
X112846407Y-102215714D01*
X113246407Y-102044285D02*
X112846407Y-102044285D01*
X112846407Y-102044285D02*
X112846407Y-101891904D01*
X112846407Y-101891904D02*
X112865455Y-101853809D01*
X112865455Y-101853809D02*
X112884502Y-101834762D01*
X112884502Y-101834762D02*
X112922598Y-101815714D01*
X112922598Y-101815714D02*
X112979740Y-101815714D01*
X112979740Y-101815714D02*
X113017836Y-101834762D01*
X113017836Y-101834762D02*
X113036883Y-101853809D01*
X113036883Y-101853809D02*
X113055931Y-101891904D01*
X113055931Y-101891904D02*
X113055931Y-102044285D01*
X112846407Y-101568095D02*
X112846407Y-101491904D01*
X112846407Y-101491904D02*
X112865455Y-101453809D01*
X112865455Y-101453809D02*
X112903550Y-101415714D01*
X112903550Y-101415714D02*
X112979740Y-101396666D01*
X112979740Y-101396666D02*
X113113074Y-101396666D01*
X113113074Y-101396666D02*
X113189264Y-101415714D01*
X113189264Y-101415714D02*
X113227360Y-101453809D01*
X113227360Y-101453809D02*
X113246407Y-101491904D01*
X113246407Y-101491904D02*
X113246407Y-101568095D01*
X113246407Y-101568095D02*
X113227360Y-101606190D01*
X113227360Y-101606190D02*
X113189264Y-101644285D01*
X113189264Y-101644285D02*
X113113074Y-101663333D01*
X113113074Y-101663333D02*
X112979740Y-101663333D01*
X112979740Y-101663333D02*
X112903550Y-101644285D01*
X112903550Y-101644285D02*
X112865455Y-101606190D01*
X112865455Y-101606190D02*
X112846407Y-101568095D01*
X112846407Y-101225237D02*
X113170217Y-101225237D01*
X113170217Y-101225237D02*
X113208312Y-101206190D01*
X113208312Y-101206190D02*
X113227360Y-101187142D01*
X113227360Y-101187142D02*
X113246407Y-101149047D01*
X113246407Y-101149047D02*
X113246407Y-101072856D01*
X113246407Y-101072856D02*
X113227360Y-101034761D01*
X113227360Y-101034761D02*
X113208312Y-101015714D01*
X113208312Y-101015714D02*
X113170217Y-100996666D01*
X113170217Y-100996666D02*
X112846407Y-100996666D01*
X112846407Y-100863332D02*
X112846407Y-100634761D01*
X113246407Y-100749047D02*
X112846407Y-100749047D01*
D11*
%TO.C,H1*%
X121812000Y-110500000D02*
G75*
G02*
X116212000Y-110500000I-2800000J0D01*
G01*
X116212000Y-110500000D02*
G75*
G02*
X121812000Y-110500000I2800000J0D01*
G01*
%TO.C,H2*%
X132988000Y-110500000D02*
G75*
G02*
X127388000Y-110500000I-2800000J0D01*
G01*
X127388000Y-110500000D02*
G75*
G02*
X132988000Y-110500000I2800000J0D01*
G01*
%TD*%
M02*
