%TF.GenerationSoftware,KiCad,Pcbnew,8.0.3*%
%TF.CreationDate,2024-07-18T10:32:46-07:00*%
%TF.ProjectId,USB_SPDTK2,5553425f-5350-4445-944b-322e6b696361,rev?*%
%TF.SameCoordinates,Original*%
%TF.FileFunction,Copper,L1,Top*%
%TF.FilePolarity,Positive*%
%FSLAX46Y46*%
G04 Gerber Fmt 4.6, Leading zero omitted, Abs format (unit mm)*
G04 Created by KiCad (PCBNEW 8.0.3) date 2024-07-18 10:32:46*
%MOMM*%
%LPD*%
G01*
G04 APERTURE LIST*
G04 Aperture macros list*
%AMRoundRect*
0 Rectangle with rounded corners*
0 $1 Rounding radius*
0 $2 $3 $4 $5 $6 $7 $8 $9 X,Y pos of 4 corners*
0 Add a 4 corners polygon primitive as box body*
4,1,4,$2,$3,$4,$5,$6,$7,$8,$9,$2,$3,0*
0 Add four circle primitives for the rounded corners*
1,1,$1+$1,$2,$3*
1,1,$1+$1,$4,$5*
1,1,$1+$1,$6,$7*
1,1,$1+$1,$8,$9*
0 Add four rect primitives between the rounded corners*
20,1,$1+$1,$2,$3,$4,$5,0*
20,1,$1+$1,$4,$5,$6,$7,0*
20,1,$1+$1,$6,$7,$8,$9,0*
20,1,$1+$1,$8,$9,$2,$3,0*%
G04 Aperture macros list end*
%TA.AperFunction,SMDPad,CuDef*%
%ADD10RoundRect,0.155000X0.155000X-0.212500X0.155000X0.212500X-0.155000X0.212500X-0.155000X-0.212500X0*%
%TD*%
%TA.AperFunction,SMDPad,CuDef*%
%ADD11RoundRect,0.155000X-0.212500X-0.155000X0.212500X-0.155000X0.212500X0.155000X-0.212500X0.155000X0*%
%TD*%
%TA.AperFunction,SMDPad,CuDef*%
%ADD12RoundRect,0.075000X0.075000X-0.700000X0.075000X0.700000X-0.075000X0.700000X-0.075000X-0.700000X0*%
%TD*%
%TA.AperFunction,SMDPad,CuDef*%
%ADD13RoundRect,0.075000X0.700000X-0.075000X0.700000X0.075000X-0.700000X0.075000X-0.700000X-0.075000X0*%
%TD*%
%TA.AperFunction,SMDPad,CuDef*%
%ADD14R,1.100000X3.700000*%
%TD*%
%TA.AperFunction,SMDPad,CuDef*%
%ADD15RoundRect,0.155000X0.212500X0.155000X-0.212500X0.155000X-0.212500X-0.155000X0.212500X-0.155000X0*%
%TD*%
%TA.AperFunction,SMDPad,CuDef*%
%ADD16RoundRect,0.237500X0.287500X0.237500X-0.287500X0.237500X-0.287500X-0.237500X0.287500X-0.237500X0*%
%TD*%
%TA.AperFunction,SMDPad,CuDef*%
%ADD17RoundRect,0.160000X0.160000X-0.197500X0.160000X0.197500X-0.160000X0.197500X-0.160000X-0.197500X0*%
%TD*%
%TA.AperFunction,SMDPad,CuDef*%
%ADD18RoundRect,0.237500X0.300000X0.237500X-0.300000X0.237500X-0.300000X-0.237500X0.300000X-0.237500X0*%
%TD*%
%TA.AperFunction,SMDPad,CuDef*%
%ADD19R,1.250000X1.000000*%
%TD*%
%TA.AperFunction,SMDPad,CuDef*%
%ADD20RoundRect,0.160000X0.197500X0.160000X-0.197500X0.160000X-0.197500X-0.160000X0.197500X-0.160000X0*%
%TD*%
%TA.AperFunction,SMDPad,CuDef*%
%ADD21RoundRect,0.237500X0.237500X-0.300000X0.237500X0.300000X-0.237500X0.300000X-0.237500X-0.300000X0*%
%TD*%
%TA.AperFunction,SMDPad,CuDef*%
%ADD22RoundRect,0.237500X-0.237500X0.287500X-0.237500X-0.287500X0.237500X-0.287500X0.237500X0.287500X0*%
%TD*%
%TA.AperFunction,SMDPad,CuDef*%
%ADD23RoundRect,0.150000X-0.512500X-0.150000X0.512500X-0.150000X0.512500X0.150000X-0.512500X0.150000X0*%
%TD*%
%TA.AperFunction,SMDPad,CuDef*%
%ADD24RoundRect,0.160000X-0.160000X0.197500X-0.160000X-0.197500X0.160000X-0.197500X0.160000X0.197500X0*%
%TD*%
%TA.AperFunction,ComponentPad*%
%ADD25R,1.000000X1.000000*%
%TD*%
%TA.AperFunction,ComponentPad*%
%ADD26O,1.000000X1.000000*%
%TD*%
%TA.AperFunction,SMDPad,CuDef*%
%ADD27RoundRect,0.150000X-0.150000X0.512500X-0.150000X-0.512500X0.150000X-0.512500X0.150000X0.512500X0*%
%TD*%
%TA.AperFunction,SMDPad,CuDef*%
%ADD28RoundRect,0.250000X-0.412500X-0.650000X0.412500X-0.650000X0.412500X0.650000X-0.412500X0.650000X0*%
%TD*%
%TA.AperFunction,SMDPad,CuDef*%
%ADD29RoundRect,0.250000X0.650000X-1.000000X0.650000X1.000000X-0.650000X1.000000X-0.650000X-1.000000X0*%
%TD*%
%TA.AperFunction,SMDPad,CuDef*%
%ADD30RoundRect,0.160000X-0.197500X-0.160000X0.197500X-0.160000X0.197500X0.160000X-0.197500X0.160000X0*%
%TD*%
%TA.AperFunction,SMDPad,CuDef*%
%ADD31C,1.000000*%
%TD*%
%TA.AperFunction,SMDPad,CuDef*%
%ADD32R,1.800000X2.100000*%
%TD*%
%TA.AperFunction,ComponentPad*%
%ADD33C,3.600000*%
%TD*%
%TA.AperFunction,ConnectorPad*%
%ADD34C,5.600000*%
%TD*%
%TA.AperFunction,ConnectorPad*%
%ADD35C,0.787400*%
%TD*%
%TA.AperFunction,SMDPad,CuDef*%
%ADD36RoundRect,0.155000X-0.155000X0.212500X-0.155000X-0.212500X0.155000X-0.212500X0.155000X0.212500X0*%
%TD*%
%TA.AperFunction,SMDPad,CuDef*%
%ADD37RoundRect,0.237500X-0.300000X-0.237500X0.300000X-0.237500X0.300000X0.237500X-0.300000X0.237500X0*%
%TD*%
%TA.AperFunction,SMDPad,CuDef*%
%ADD38RoundRect,0.250000X0.337500X0.475000X-0.337500X0.475000X-0.337500X-0.475000X0.337500X-0.475000X0*%
%TD*%
%TA.AperFunction,SMDPad,CuDef*%
%ADD39RoundRect,0.100000X0.100000X0.575000X-0.100000X0.575000X-0.100000X-0.575000X0.100000X-0.575000X0*%
%TD*%
%TA.AperFunction,ComponentPad*%
%ADD40O,0.900000X1.600000*%
%TD*%
%TA.AperFunction,SMDPad,CuDef*%
%ADD41RoundRect,0.250000X0.550000X0.450000X-0.550000X0.450000X-0.550000X-0.450000X0.550000X-0.450000X0*%
%TD*%
%TA.AperFunction,SMDPad,CuDef*%
%ADD42RoundRect,0.250000X0.700000X0.700000X-0.700000X0.700000X-0.700000X-0.700000X0.700000X-0.700000X0*%
%TD*%
%TA.AperFunction,ViaPad*%
%ADD43C,0.800000*%
%TD*%
%TA.AperFunction,Conductor*%
%ADD44C,0.500000*%
%TD*%
%TA.AperFunction,Conductor*%
%ADD45C,0.254000*%
%TD*%
%TA.AperFunction,Conductor*%
%ADD46C,0.200000*%
%TD*%
%TA.AperFunction,Conductor*%
%ADD47C,2.000000*%
%TD*%
%TA.AperFunction,Conductor*%
%ADD48C,0.400600*%
%TD*%
%TA.AperFunction,Conductor*%
%ADD49C,0.250000*%
%TD*%
%TA.AperFunction,Conductor*%
%ADD50C,0.800000*%
%TD*%
G04 APERTURE END LIST*
D10*
%TO.P,C17,1*%
%TO.N,Net-(C17-Pad1)*%
X129800000Y-105367500D03*
%TO.P,C17,2*%
%TO.N,GND*%
X129800000Y-104232500D03*
%TD*%
D11*
%TO.P,C8,1*%
%TO.N,+3.3V*%
X133565000Y-88700000D03*
%TO.P,C8,2*%
%TO.N,GND*%
X134700000Y-88700000D03*
%TD*%
D12*
%TO.P,U4,1,VBAT*%
%TO.N,+3.3V*%
X123275000Y-99525000D03*
%TO.P,U4,2,PC13*%
%TO.N,unconnected-(U4-PC13-Pad2)*%
X123775000Y-99525000D03*
%TO.P,U4,3,PC14*%
%TO.N,unconnected-(U4-PC14-Pad3)*%
X124275000Y-99525000D03*
%TO.P,U4,4,PC15*%
%TO.N,unconnected-(U4-PC15-Pad4)*%
X124775000Y-99525000D03*
%TO.P,U4,5,PH0*%
%TO.N,Net-(U4-PH0)*%
X125275000Y-99525000D03*
%TO.P,U4,6,PH1*%
%TO.N,Net-(U4-PH1)*%
X125775000Y-99525000D03*
%TO.P,U4,7,NRST*%
%TO.N,Net-(J2-~{RESET})*%
X126275000Y-99525000D03*
%TO.P,U4,8,PC0*%
%TO.N,S1U*%
X126775000Y-99525000D03*
%TO.P,U4,9,PC1*%
%TO.N,S1D*%
X127275000Y-99525000D03*
%TO.P,U4,10,PC2*%
%TO.N,S2U*%
X127775000Y-99525000D03*
%TO.P,U4,11,PC3*%
%TO.N,S2D*%
X128275000Y-99525000D03*
%TO.P,U4,12,VSSA*%
%TO.N,GND*%
X128775000Y-99525000D03*
%TO.P,U4,13,VDDA*%
%TO.N,Net-(U4-VDDA)*%
X129275000Y-99525000D03*
%TO.P,U4,14,PA0*%
%TO.N,Net-(U4-PA0)*%
X129775000Y-99525000D03*
%TO.P,U4,15,PA1*%
%TO.N,unconnected-(U4-PA1-Pad15)*%
X130275000Y-99525000D03*
%TO.P,U4,16,PA2*%
%TO.N,unconnected-(U4-PA2-Pad16)*%
X130775000Y-99525000D03*
D13*
%TO.P,U4,17,PA3*%
%TO.N,unconnected-(U4-PA3-Pad17)*%
X132700000Y-97600000D03*
%TO.P,U4,18,VSS*%
%TO.N,GND*%
X132700000Y-97100000D03*
%TO.P,U4,19,VDD*%
%TO.N,+3.3V*%
X132700000Y-96600000D03*
%TO.P,U4,20,PA4*%
%TO.N,unconnected-(U4-PA4-Pad20)*%
X132700000Y-96100000D03*
%TO.P,U4,21,PA5*%
%TO.N,unconnected-(U4-PA5-Pad21)*%
X132700000Y-95600000D03*
%TO.P,U4,22,PA6*%
%TO.N,unconnected-(U4-PA6-Pad22)*%
X132700000Y-95100000D03*
%TO.P,U4,23,PA7*%
%TO.N,unconnected-(U4-PA7-Pad23)*%
X132700000Y-94600000D03*
%TO.P,U4,24,PC4*%
%TO.N,SW_Enable*%
X132700000Y-94100000D03*
%TO.P,U4,25,PC5*%
%TO.N,unconnected-(U4-PC5-Pad25)*%
X132700000Y-93600000D03*
%TO.P,U4,26,PB0*%
%TO.N,Net-(U4-PB0)*%
X132700000Y-93100000D03*
%TO.P,U4,27,PB1*%
%TO.N,unconnected-(U4-PB1-Pad27)*%
X132700000Y-92600000D03*
%TO.P,U4,28,PB2*%
%TO.N,/Controller/BOOT1*%
X132700000Y-92100000D03*
%TO.P,U4,29,PB10*%
%TO.N,/Controller/SPI2_SCK*%
X132700000Y-91600000D03*
%TO.P,U4,30,VCAP1*%
%TO.N,Net-(U4-VCAP1)*%
X132700000Y-91100000D03*
%TO.P,U4,31,VSS*%
%TO.N,GND*%
X132700000Y-90600000D03*
%TO.P,U4,32,VDD*%
%TO.N,+3.3V*%
X132700000Y-90100000D03*
D12*
%TO.P,U4,33,PB12*%
%TO.N,unconnected-(U4-PB12-Pad33)*%
X130775000Y-88175000D03*
%TO.P,U4,34,PB13*%
%TO.N,unconnected-(U4-PB13-Pad34)*%
X130275000Y-88175000D03*
%TO.P,U4,35,PB14*%
%TO.N,/Controller/SPI2_MISO*%
X129775000Y-88175000D03*
%TO.P,U4,36,PB15*%
%TO.N,/Controller/SPI2_MOSI*%
X129275000Y-88175000D03*
%TO.P,U4,37,PC6*%
%TO.N,unconnected-(U4-PC6-Pad37)*%
X128775000Y-88175000D03*
%TO.P,U4,38,PC7*%
%TO.N,unconnected-(U4-PC7-Pad38)*%
X128275000Y-88175000D03*
%TO.P,U4,39,PC8*%
%TO.N,Aux0*%
X127775000Y-88175000D03*
%TO.P,U4,40,PC9*%
%TO.N,Aux1*%
X127275000Y-88175000D03*
%TO.P,U4,41,PA8*%
%TO.N,Net-(U4-PA8)*%
X126775000Y-88175000D03*
%TO.P,U4,42,PA9*%
%TO.N,Net-(U4-PA9)*%
X126275000Y-88175000D03*
%TO.P,U4,43,PA10*%
%TO.N,Net-(U4-PA10)*%
X125775000Y-88175000D03*
%TO.P,U4,44,PA11*%
%TO.N,/Controller/USB-*%
X125275000Y-88175000D03*
%TO.P,U4,45,PA12*%
%TO.N,/Controller/USB+*%
X124775000Y-88175000D03*
%TO.P,U4,46,PA13*%
%TO.N,/Controller/JTMS*%
X124275000Y-88175000D03*
%TO.P,U4,47,VSS*%
%TO.N,GND*%
X123775000Y-88175000D03*
%TO.P,U4,48,VDD*%
%TO.N,+3.3V*%
X123275000Y-88175000D03*
D13*
%TO.P,U4,49,PA14*%
%TO.N,/Controller/JTCK*%
X121350000Y-90100000D03*
%TO.P,U4,50,PA15*%
%TO.N,/Controller/JTDI*%
X121350000Y-90600000D03*
%TO.P,U4,51,PC10*%
%TO.N,Aux2*%
X121350000Y-91100000D03*
%TO.P,U4,52,PC11*%
%TO.N,Aux3*%
X121350000Y-91600000D03*
%TO.P,U4,53,PC12*%
%TO.N,unconnected-(U4-PC12-Pad53)*%
X121350000Y-92100000D03*
%TO.P,U4,54,PD2*%
%TO.N,HVEnable*%
X121350000Y-92600000D03*
%TO.P,U4,55,PB3*%
%TO.N,/Controller/JTDO*%
X121350000Y-93100000D03*
%TO.P,U4,56,PB4*%
%TO.N,unconnected-(U4-PB4-Pad56)*%
X121350000Y-93600000D03*
%TO.P,U4,57,PB5*%
%TO.N,unconnected-(U4-PB5-Pad57)*%
X121350000Y-94100000D03*
%TO.P,U4,58,PB6*%
%TO.N,unconnected-(U4-PB6-Pad58)*%
X121350000Y-94600000D03*
%TO.P,U4,59,PB7*%
%TO.N,unconnected-(U4-PB7-Pad59)*%
X121350000Y-95100000D03*
%TO.P,U4,60,BOOT0*%
%TO.N,Net-(U4-BOOT0)*%
X121350000Y-95600000D03*
%TO.P,U4,61,PB8*%
%TO.N,unconnected-(U4-PB8-Pad61)*%
X121350000Y-96100000D03*
%TO.P,U4,62,PB9*%
%TO.N,/Controller/~{SPI2NSS}*%
X121350000Y-96600000D03*
%TO.P,U4,63,VSS*%
%TO.N,GND*%
X121350000Y-97100000D03*
%TO.P,U4,64,VDD*%
%TO.N,+3.3V*%
X121350000Y-97600000D03*
%TD*%
D11*
%TO.P,C5,1*%
%TO.N,GND*%
X137900000Y-93500000D03*
%TO.P,C5,2*%
%TO.N,Net-(U2-VOUT)*%
X139035000Y-93500000D03*
%TD*%
D14*
%TO.P,L1,1,1*%
%TO.N,Net-(U1-VIN)*%
X136800000Y-70900000D03*
%TO.P,L1,2,2*%
%TO.N,Net-(D1-A)*%
X133800000Y-70900000D03*
%TD*%
D15*
%TO.P,C7,1*%
%TO.N,+3.3V*%
X121400000Y-101400000D03*
%TO.P,C7,2*%
%TO.N,GND*%
X120265000Y-101400000D03*
%TD*%
D16*
%TO.P,D3,1,K*%
%TO.N,GND*%
X140375000Y-99700000D03*
%TO.P,D3,2,A*%
%TO.N,Net-(D3-A)*%
X138625000Y-99700000D03*
%TD*%
D17*
%TO.P,R3,1*%
%TO.N,HVEnable*%
X138100000Y-77395000D03*
%TO.P,R3,2*%
%TO.N,Net-(U1-VIN)*%
X138100000Y-76200000D03*
%TD*%
D18*
%TO.P,C14,1*%
%TO.N,GND*%
X114962500Y-95400000D03*
%TO.P,C14,2*%
%TO.N,Net-(J2-~{RESET})*%
X113237500Y-95400000D03*
%TD*%
D19*
%TO.P,SW2,1,1*%
%TO.N,Net-(U4-BOOT0)*%
X116575000Y-82100000D03*
%TO.P,SW2,2,2*%
%TO.N,+3.3V*%
X108825000Y-82100000D03*
%TD*%
D17*
%TO.P,R2,1*%
%TO.N,Net-(U1-VIN)*%
X139400000Y-70197500D03*
%TO.P,R2,2*%
%TO.N,VBUS*%
X139400000Y-69002500D03*
%TD*%
D20*
%TO.P,R5,1*%
%TO.N,GND*%
X135497500Y-78900000D03*
%TO.P,R5,2*%
%TO.N,Net-(U1-FB)*%
X134302500Y-78900000D03*
%TD*%
D21*
%TO.P,C1,1*%
%TO.N,GND*%
X138900000Y-73562500D03*
%TO.P,C1,2*%
%TO.N,Net-(U1-VIN)*%
X138900000Y-71837500D03*
%TD*%
D22*
%TO.P,D6,1,K*%
%TO.N,GND*%
X130200000Y-83250000D03*
%TO.P,D6,2,A*%
%TO.N,Net-(D6-A)*%
X130200000Y-85000000D03*
%TD*%
D23*
%TO.P,U1,1,SW*%
%TO.N,Net-(D1-A)*%
X133962500Y-75450000D03*
%TO.P,U1,2,GND*%
%TO.N,GND*%
X133962500Y-76400000D03*
%TO.P,U1,3,FB*%
%TO.N,Net-(U1-FB)*%
X133962500Y-77350000D03*
%TO.P,U1,4,EN*%
%TO.N,HVEnable*%
X136237500Y-77350000D03*
%TO.P,U1,5,VIN*%
%TO.N,Net-(U1-VIN)*%
X136237500Y-75450000D03*
%TD*%
D11*
%TO.P,C19,1*%
%TO.N,GND*%
X139065000Y-103800000D03*
%TO.P,C19,2*%
%TO.N,+3.3V*%
X140200000Y-103800000D03*
%TD*%
D24*
%TO.P,R1,1*%
%TO.N,VBUS*%
X128000000Y-72202500D03*
%TO.P,R1,2*%
%TO.N,+VSW*%
X128000000Y-73397500D03*
%TD*%
D22*
%TO.P,D4,1,K*%
%TO.N,GND*%
X134000000Y-83250000D03*
%TO.P,D4,2,A*%
%TO.N,Net-(D4-A)*%
X134000000Y-85000000D03*
%TD*%
D25*
%TO.P,J3,1,Pin_1*%
%TO.N,unconnected-(J3-Pin_1-Pad1)*%
X111430000Y-66190000D03*
D26*
%TO.P,J3,2,Pin_2*%
%TO.N,unconnected-(J3-Pin_2-Pad2)*%
X112700000Y-66190000D03*
%TO.P,J3,3,Pin_3*%
%TO.N,unconnected-(J3-Pin_3-Pad3)*%
X111430000Y-67460000D03*
%TO.P,J3,4,Pin_4*%
%TO.N,unconnected-(J3-Pin_4-Pad4)*%
X112700000Y-67460000D03*
%TO.P,J3,5,Pin_5*%
%TO.N,S1U_OUT*%
X111430000Y-68730000D03*
%TO.P,J3,6,Pin_6*%
%TO.N,S1D_OUT*%
X112700000Y-68730000D03*
%TO.P,J3,7,Pin_7*%
%TO.N,S2U_OUT*%
X111430000Y-70000000D03*
%TO.P,J3,8,Pin_8*%
%TO.N,S2D_OUT*%
X112700000Y-70000000D03*
%TO.P,J3,9,Pin_9*%
%TO.N,unconnected-(J3-Pin_9-Pad9)*%
X111430000Y-71270000D03*
%TO.P,J3,10,Pin_10*%
%TO.N,unconnected-(J3-Pin_10-Pad10)*%
X112700000Y-71270000D03*
%TO.P,J3,11,Pin_11*%
%TO.N,unconnected-(J3-Pin_11-Pad11)*%
X111430000Y-72540000D03*
%TO.P,J3,12,Pin_12*%
%TO.N,unconnected-(J3-Pin_12-Pad12)*%
X112700000Y-72540000D03*
%TO.P,J3,13,Pin_13*%
%TO.N,+VSW*%
X111430000Y-73810000D03*
%TO.P,J3,14,Pin_14*%
%TO.N,GND*%
X112700000Y-73810000D03*
%TO.P,J3,15,Pin_15*%
%TO.N,+VSW*%
X111430000Y-75080000D03*
%TO.P,J3,16,Pin_16*%
%TO.N,GND*%
X112700000Y-75080000D03*
%TD*%
D27*
%TO.P,U2,1,VIN*%
%TO.N,VBUS*%
X140050000Y-88362500D03*
%TO.P,U2,2,GND*%
%TO.N,GND*%
X139100000Y-88362500D03*
%TO.P,U2,3,ON/~{OFF}*%
%TO.N,Net-(U2-ON{slash}~{OFF})*%
X138150000Y-88362500D03*
%TO.P,U2,4,BP*%
%TO.N,Net-(U2-BP)*%
X138150000Y-90637500D03*
%TO.P,U2,5,VOUT*%
%TO.N,Net-(U2-VOUT)*%
X140050000Y-90637500D03*
%TD*%
D28*
%TO.P,C20,1*%
%TO.N,+VSW*%
X110737500Y-78700000D03*
%TO.P,C20,2*%
%TO.N,GND*%
X113862500Y-78700000D03*
%TD*%
D29*
%TO.P,D1,1,K*%
%TO.N,+VSW*%
X130500000Y-74800000D03*
%TO.P,D1,2,A*%
%TO.N,Net-(D1-A)*%
X130500000Y-70800000D03*
%TD*%
D30*
%TO.P,R10,1*%
%TO.N,GND*%
X117602500Y-95600000D03*
%TO.P,R10,2*%
%TO.N,Net-(U4-BOOT0)*%
X118797500Y-95600000D03*
%TD*%
D11*
%TO.P,C12,1*%
%TO.N,GND*%
X120265000Y-100100000D03*
%TO.P,C12,2*%
%TO.N,+3.3V*%
X121400000Y-100100000D03*
%TD*%
D31*
%TO.P,FID2,*%
%TO.N,*%
X139400000Y-66000000D03*
%TD*%
D20*
%TO.P,R4,1*%
%TO.N,Net-(U1-FB)*%
X131897500Y-77200000D03*
%TO.P,R4,2*%
%TO.N,+VSW*%
X130702500Y-77200000D03*
%TD*%
%TO.P,R15,1*%
%TO.N,+3.3V*%
X135800000Y-92100000D03*
%TO.P,R15,2*%
%TO.N,/Controller/BOOT1*%
X134605000Y-92100000D03*
%TD*%
D32*
%TO.P,Y1,1,1*%
%TO.N,Net-(U4-PH0)*%
X125450000Y-102650000D03*
%TO.P,Y1,2,2*%
%TO.N,GND*%
X125450000Y-105550000D03*
%TO.P,Y1,3,3*%
%TO.N,Net-(C17-Pad1)*%
X127750000Y-105550000D03*
%TO.P,Y1,4,4*%
%TO.N,GND*%
X127750000Y-102650000D03*
%TD*%
D22*
%TO.P,D5,1,K*%
%TO.N,GND*%
X132100000Y-83250000D03*
%TO.P,D5,2,A*%
%TO.N,Net-(D5-A)*%
X132100000Y-85000000D03*
%TD*%
D33*
%TO.P,H1,1,1*%
%TO.N,GND*%
X119012000Y-110500000D03*
D34*
X119012000Y-110500000D03*
%TD*%
D15*
%TO.P,C18,1*%
%TO.N,GND*%
X135800000Y-90800000D03*
%TO.P,C18,2*%
%TO.N,Net-(U4-VCAP1)*%
X134665000Y-90800000D03*
%TD*%
D35*
%TO.P,J2,1,VTref*%
%TO.N,+3.3V*%
X113700000Y-104470000D03*
%TO.P,J2,2,SWDIO/TMS*%
%TO.N,/Controller/JTMS*%
X113700000Y-103200000D03*
%TO.P,J2,3,GND*%
%TO.N,GND*%
X113700000Y-101930000D03*
%TO.P,J2,4,SWCLK/TCK*%
%TO.N,/Controller/JTCK*%
X113700000Y-100660000D03*
%TO.P,J2,5,GND*%
%TO.N,GND*%
X113700000Y-99390000D03*
%TO.P,J2,6,SWO/TDO*%
%TO.N,/Controller/JTDO*%
X112430000Y-99390000D03*
%TO.P,J2,7,KEY*%
%TO.N,unconnected-(J2-KEY-Pad7)*%
X112430000Y-100660000D03*
%TO.P,J2,8,NC/TDI*%
%TO.N,/Controller/JTDI*%
X112430000Y-101930000D03*
%TO.P,J2,9,GNDDetect*%
%TO.N,GND*%
X112430000Y-103200000D03*
%TO.P,J2,10,~{RESET}*%
%TO.N,Net-(J2-~{RESET})*%
X112430000Y-104470000D03*
%TD*%
D36*
%TO.P,C16,1*%
%TO.N,Net-(U4-PH0)*%
X123300000Y-103432500D03*
%TO.P,C16,2*%
%TO.N,GND*%
X123300000Y-104567500D03*
%TD*%
D37*
%TO.P,C4,1*%
%TO.N,GND*%
X138337500Y-85800000D03*
%TO.P,C4,2*%
%TO.N,VBUS*%
X140062500Y-85800000D03*
%TD*%
D38*
%TO.P,C3,1*%
%TO.N,GND*%
X132137500Y-80500000D03*
%TO.P,C3,2*%
%TO.N,+VSW*%
X130062500Y-80500000D03*
%TD*%
D23*
%TO.P,U5,1,DO*%
%TO.N,/Controller/SPI2_MISO*%
X137125000Y-105150000D03*
%TO.P,U5,2,Vss*%
%TO.N,GND*%
X137125000Y-106100000D03*
%TO.P,U5,3,DI*%
%TO.N,/Controller/SPI2_MOSI*%
X137125000Y-107050000D03*
%TO.P,U5,4,CLK*%
%TO.N,/Controller/SPI2_SCK*%
X139400000Y-107050000D03*
%TO.P,U5,5,CS*%
%TO.N,/Controller/~{SPI2NSS}*%
X139400000Y-106100000D03*
%TO.P,U5,6,Vcc*%
%TO.N,+3.3V*%
X139400000Y-105150000D03*
%TD*%
D30*
%TO.P,R8,1*%
%TO.N,+3.3V*%
X110002500Y-95300000D03*
%TO.P,R8,2*%
%TO.N,Net-(J2-~{RESET})*%
X111197500Y-95300000D03*
%TD*%
D31*
%TO.P,FID1,*%
%TO.N,*%
X109900000Y-111500000D03*
%TD*%
D20*
%TO.P,R6,1*%
%TO.N,Net-(U2-VOUT)*%
X140500000Y-94900000D03*
%TO.P,R6,2*%
%TO.N,+3.3V*%
X139305000Y-94900000D03*
%TD*%
D33*
%TO.P,H2,1,1*%
%TO.N,GND*%
X130188000Y-110500000D03*
D34*
X130188000Y-110500000D03*
%TD*%
D16*
%TO.P,D7,1,K*%
%TO.N,GND*%
X140375000Y-97000000D03*
%TO.P,D7,2,A*%
%TO.N,Net-(D7-A)*%
X138625000Y-97000000D03*
%TD*%
D11*
%TO.P,C2,1*%
%TO.N,+VSW*%
X130665000Y-78800000D03*
%TO.P,C2,2*%
%TO.N,Net-(U1-FB)*%
X131800000Y-78800000D03*
%TD*%
D20*
%TO.P,R7,1*%
%TO.N,VBUS*%
X139300000Y-83200000D03*
%TO.P,R7,2*%
%TO.N,Net-(U2-ON{slash}~{OFF})*%
X138105000Y-83200000D03*
%TD*%
D11*
%TO.P,C6,1*%
%TO.N,GND*%
X137365000Y-92100000D03*
%TO.P,C6,2*%
%TO.N,Net-(U2-BP)*%
X138500000Y-92100000D03*
%TD*%
D39*
%TO.P,J1,1,VBUS*%
%TO.N,VBUS*%
X125300000Y-67800000D03*
%TO.P,J1,2,D-*%
%TO.N,/Controller/USB-*%
X124650000Y-67800000D03*
%TO.P,J1,3,D+*%
%TO.N,/Controller/USB+*%
X124000000Y-67800000D03*
%TO.P,J1,4,ID*%
%TO.N,unconnected-(J1-ID-Pad4)*%
X123350000Y-67800000D03*
%TO.P,J1,5,GND*%
%TO.N,GND*%
X122700000Y-67800000D03*
D40*
%TO.P,J1,6,Shield*%
X127300000Y-65125000D03*
D41*
X127200000Y-67575000D03*
D42*
X125200000Y-65125000D03*
X122800000Y-65125000D03*
D41*
X120800000Y-67575000D03*
D40*
X120700000Y-65125000D03*
%TD*%
D19*
%TO.P,SW1,1,1*%
%TO.N,Net-(J2-~{RESET})*%
X116575000Y-88500000D03*
%TO.P,SW1,2,2*%
%TO.N,GND*%
X108825000Y-88500000D03*
%TD*%
D43*
%TO.N,GND*%
X118496000Y-69950200D03*
X139064000Y-102577000D03*
X116000000Y-102700000D03*
X123679000Y-89465200D03*
X131351000Y-90836800D03*
X130200000Y-81875500D03*
X134300000Y-97100000D03*
X125900000Y-93200000D03*
X125700000Y-97100000D03*
X114004000Y-81047800D03*
X118300000Y-102700000D03*
X128826000Y-100937000D03*
X113700000Y-84700000D03*
X115166000Y-93926700D03*
X113700000Y-84700000D03*
X115200000Y-97200000D03*
%TO.N,+VSW*%
X129052000Y-72232800D03*
%TO.N,VBUS*%
X128000000Y-71187100D03*
%TO.N,+3.3V*%
X122000000Y-88100000D03*
X119249000Y-104049000D03*
X110002000Y-93108700D03*
X123200000Y-102400000D03*
X121400000Y-98732500D03*
X131000000Y-97000000D03*
X121300000Y-104100000D03*
X108825000Y-86658500D03*
X134619000Y-98843500D03*
%TO.N,Net-(U4-VDDA)*%
X129445000Y-97748700D03*
%TO.N,Net-(J2-~{RESET})*%
X126275000Y-98117900D03*
X117645000Y-99745300D03*
%TO.N,Net-(C17-Pad1)*%
X127558000Y-107225000D03*
%TO.N,/Controller/USB+*%
X122921000Y-70265100D03*
%TO.N,/Controller/USB-*%
X124825000Y-71599900D03*
%TO.N,Net-(D3-A)*%
X138306000Y-101097000D03*
%TO.N,Net-(D4-A)*%
X135099000Y-84476300D03*
%TO.N,Net-(D5-A)*%
X131354959Y-85933059D03*
%TO.N,Net-(D6-A)*%
X131075000Y-84125000D03*
%TO.N,Net-(D7-A)*%
X138625000Y-95906000D03*
%TO.N,/Controller/JTMS*%
X123150000Y-92015300D03*
X118083000Y-97334300D03*
%TO.N,/Controller/JTDI*%
X119600000Y-91500000D03*
X109516000Y-98084700D03*
%TO.N,/Controller/JTDO*%
X119400000Y-92600000D03*
X113600000Y-96700000D03*
%TO.N,/Controller/JTCK*%
X119419000Y-90465700D03*
X117462000Y-90570000D03*
%TO.N,S2U*%
X122441000Y-79126700D03*
X122441000Y-84613200D03*
X127701000Y-92037000D03*
%TO.N,S1U*%
X115376000Y-90993000D03*
X115333000Y-86500700D03*
X127282000Y-100909000D03*
%TO.N,S1D_OUT*%
X118250000Y-79038100D03*
%TO.N,S2D*%
X123790000Y-80135700D03*
X119753000Y-94870900D03*
X122888000Y-95694400D03*
%TO.N,S1U_OUT*%
X110597000Y-75940700D03*
%TO.N,S1D*%
X126699000Y-92065100D03*
%TO.N,HVEnable*%
X133661000Y-86525400D03*
X127924000Y-90456200D03*
%TO.N,Net-(U4-PA0)*%
X129817000Y-100802000D03*
%TO.N,Net-(U4-PH1)*%
X126177000Y-100956000D03*
%TO.N,Net-(U4-PA8)*%
X127411000Y-89552500D03*
%TO.N,Net-(U4-PA9)*%
X126275000Y-86792300D03*
%TO.N,Net-(U4-PA10)*%
X126409000Y-89729400D03*
%TO.N,/Controller/BOOT1*%
X135771000Y-94244700D03*
%TO.N,Net-(U4-PB0)*%
X134895000Y-93686100D03*
%TO.N,/Controller/~{SPI2NSS}*%
X126858000Y-107951000D03*
X138410000Y-107958000D03*
X122500000Y-108000000D03*
X131054000Y-106705000D03*
%TO.N,SW_Enable*%
X132108000Y-89170000D03*
X129123000Y-82064700D03*
X134756000Y-95396100D03*
X120095000Y-78545500D03*
X119723000Y-81841800D03*
%TO.N,/Controller/SPI2_SCK*%
X136253000Y-97645900D03*
X136215000Y-95646000D03*
X140947000Y-101933000D03*
X131317000Y-91944200D03*
%TO.N,/Controller/SPI2_MOSI*%
X136668000Y-107975000D03*
X129475000Y-93209000D03*
%TD*%
D44*
%TO.N,Net-(U1-VIN)*%
X138100000Y-76200000D02*
X139855000Y-74444900D01*
X138860000Y-71797800D02*
X137698000Y-71797800D01*
X139400000Y-71797800D02*
X138860000Y-71797800D01*
X137698000Y-71797800D02*
X136800000Y-70900000D01*
X139855000Y-74444900D02*
X139855000Y-72252900D01*
X136238000Y-75450000D02*
X137350000Y-75450000D01*
X139400000Y-71797800D02*
X139400000Y-70197500D01*
X139855000Y-72252900D02*
X139400000Y-71797800D01*
X137350000Y-75450000D02*
X138100000Y-76200000D01*
%TO.N,GND*%
X139100000Y-86562500D02*
X139100000Y-88362500D01*
X136145000Y-89500000D02*
X138549000Y-89500000D01*
X120265000Y-100100000D02*
X120265000Y-98304200D01*
X113678000Y-81232400D02*
X113678000Y-84678000D01*
X138338000Y-85800000D02*
X139100000Y-86562500D01*
X120800000Y-67575000D02*
X122475000Y-67575000D01*
D45*
X120248000Y-97356400D02*
X120248000Y-98287200D01*
X121350000Y-97100000D02*
X120504000Y-97100000D01*
D44*
X127300000Y-66376700D02*
X127200000Y-66476700D01*
D45*
X132700000Y-90600000D02*
X131587800Y-90600000D01*
D44*
X112700000Y-77537500D02*
X113862000Y-78700000D01*
X135942000Y-90800000D02*
X136004000Y-90738400D01*
X113678000Y-84678000D02*
X113700000Y-84700000D01*
X114962000Y-95400000D02*
X114962000Y-94129800D01*
X140375000Y-99700000D02*
X140375000Y-101267000D01*
X128967000Y-101078000D02*
X128967000Y-101154000D01*
X109902000Y-88500000D02*
X108825000Y-88500000D01*
X109989000Y-88412800D02*
X109902000Y-88500000D01*
X129102000Y-103534000D02*
X129800000Y-104232000D01*
X120265000Y-102700000D02*
X120265000Y-110207000D01*
X133050000Y-83250000D02*
X134000000Y-83250000D01*
D45*
X128775000Y-100886000D02*
X128826000Y-100937000D01*
D44*
X113678000Y-88412800D02*
X109989000Y-88412800D01*
X124098000Y-105550000D02*
X124098000Y-105366000D01*
X139100000Y-88948900D02*
X139100000Y-88362500D01*
D46*
X123775000Y-88175000D02*
X123775000Y-89369600D01*
D45*
X118300000Y-102700000D02*
X120265000Y-102700000D01*
X128775000Y-99525000D02*
X128775000Y-100886000D01*
D44*
X127750000Y-102650000D02*
X129102000Y-102650000D01*
X136004000Y-90302800D02*
X136145000Y-90161200D01*
X132100000Y-83250000D02*
X130200000Y-83250000D01*
X140375000Y-97000000D02*
X140375000Y-99700000D01*
X136004000Y-90738400D02*
X137365000Y-92100000D01*
X132138000Y-83212500D02*
X132138000Y-80500000D01*
X113678000Y-94115400D02*
X114962000Y-95400000D01*
X123186000Y-110500000D02*
X122881000Y-110500000D01*
X135091000Y-75043700D02*
X135091000Y-76400000D01*
X113678000Y-84722000D02*
X113678000Y-88412800D01*
X135091000Y-76400000D02*
X135091000Y-78081100D01*
X133012000Y-83212500D02*
X132575000Y-83212500D01*
X133050000Y-85932100D02*
X132809000Y-86172700D01*
D47*
X119972000Y-110500000D02*
X122881000Y-110500000D01*
D44*
X135091000Y-78081100D02*
X135498000Y-78487500D01*
X134588000Y-106100000D02*
X130188000Y-110500000D01*
X133050000Y-83250000D02*
X133050000Y-85932100D01*
X139065000Y-103800000D02*
X139065000Y-102578000D01*
X125450000Y-105550000D02*
X125450000Y-108236000D01*
X118496000Y-69950200D02*
X119146000Y-69950200D01*
X132809000Y-86172700D02*
X132809000Y-86878100D01*
X117602000Y-95641700D02*
X120265000Y-98304200D01*
X135498000Y-78487500D02*
X135498000Y-78899500D01*
X120800000Y-67575000D02*
X119146000Y-69229100D01*
X129102000Y-101289000D02*
X129102000Y-102650000D01*
X122475000Y-66237300D02*
X122800000Y-65912300D01*
X114004000Y-81047800D02*
X113862000Y-81047800D01*
D46*
X114012000Y-99390000D02*
X113700000Y-99390000D01*
D44*
X125700000Y-93400000D02*
X125900000Y-93200000D01*
D45*
X114470000Y-102700000D02*
X116000000Y-102700000D01*
X120504000Y-97100000D02*
X120248000Y-97356400D01*
D44*
X137125000Y-106100000D02*
X134588000Y-106100000D01*
X136004000Y-90738400D02*
X136004000Y-90302800D01*
X113862000Y-81047800D02*
X113678000Y-81232400D01*
D46*
X131351000Y-90836800D02*
X131163000Y-90836800D01*
D44*
X137365000Y-92965000D02*
X137365000Y-92100000D01*
X127200000Y-66476700D02*
X127200000Y-67575000D01*
X127300000Y-65125000D02*
X125200000Y-65125000D01*
X136145000Y-89500000D02*
X135345000Y-88700000D01*
X124098000Y-105366000D02*
X123300000Y-104568000D01*
X135800000Y-90800000D02*
X135942000Y-90800000D01*
X135498000Y-78900000D02*
X135498000Y-81752500D01*
X133962500Y-76400000D02*
X135091000Y-76400000D01*
D45*
X120248000Y-98287200D02*
X120265000Y-98304200D01*
D44*
X127300000Y-65125000D02*
X127300000Y-66376700D01*
X128826000Y-100937000D02*
X128967000Y-101078000D01*
X113678000Y-88412800D02*
X113678000Y-94115400D01*
X120800000Y-66476700D02*
X120800000Y-67575000D01*
X132809000Y-86878100D02*
X133308000Y-87377100D01*
X120700000Y-66376700D02*
X120800000Y-66476700D01*
D46*
X123775000Y-89369600D02*
X123679000Y-89465200D01*
D44*
X136145000Y-90161200D02*
X136145000Y-89500000D01*
X112700000Y-75080000D02*
X112700000Y-77537500D01*
X132575000Y-83212500D02*
X132138000Y-83212500D01*
X135498000Y-81752500D02*
X134000000Y-83250000D01*
X136572000Y-73562500D02*
X135091000Y-75043700D01*
D46*
X115200000Y-97200000D02*
X115200000Y-98202100D01*
D44*
X135345000Y-88700000D02*
X134700000Y-88700000D01*
D46*
X132700000Y-97100000D02*
X134300000Y-97100000D01*
D44*
X112700000Y-75080000D02*
X112700000Y-73810000D01*
X125700000Y-97100000D02*
X125700000Y-93400000D01*
X125450000Y-108236000D02*
X123186000Y-110500000D01*
X114962000Y-94129800D02*
X115166000Y-93926700D01*
X122475000Y-65450000D02*
X122475000Y-66237300D01*
X125200000Y-65125000D02*
X122800000Y-65125000D01*
X120700000Y-65125000D02*
X120700000Y-66376700D01*
X119146000Y-69229100D02*
X119146000Y-69950200D01*
D45*
X113700000Y-101930000D02*
X114470000Y-102700000D01*
D48*
X122511000Y-67610700D02*
X122700000Y-67800000D01*
D44*
X122800000Y-65912300D02*
X122800000Y-65125000D01*
X138549000Y-89500000D02*
X139100000Y-88948900D01*
X128967000Y-101154000D02*
X129102000Y-101289000D01*
X133050000Y-83250000D02*
X133012000Y-83212500D01*
X137900000Y-93500000D02*
X137365000Y-92965000D01*
X122475000Y-67575000D02*
X122511000Y-67610700D01*
X120265000Y-101400000D02*
X120265000Y-102700000D01*
X112430000Y-103200000D02*
X113700000Y-101930000D01*
D47*
X122881000Y-110500000D02*
X123186000Y-110500000D01*
D44*
X125450000Y-105550000D02*
X124098000Y-105550000D01*
D46*
X115200000Y-98202100D02*
X114012000Y-99390000D01*
D44*
X117445000Y-81047800D02*
X114004000Y-81047800D01*
X133308000Y-87377100D02*
X133498000Y-87377100D01*
D47*
X123186000Y-110500000D02*
X130188000Y-110500000D01*
D44*
X130200000Y-83250000D02*
X130200000Y-81875500D01*
X119146000Y-79346700D02*
X117445000Y-81047800D01*
X113700000Y-84700000D02*
X113678000Y-84722000D01*
X140375000Y-101267000D02*
X139064000Y-102577000D01*
X113862000Y-78700000D02*
X113862000Y-81047800D01*
X139065000Y-102578000D02*
X139064000Y-102577000D01*
X134700000Y-88578700D02*
X134700000Y-88700000D01*
X133498000Y-87377100D02*
X134700000Y-88578700D01*
D45*
X131587800Y-90600000D02*
X131351000Y-90836800D01*
D44*
X120265000Y-101400000D02*
X120265000Y-100100000D01*
X122475000Y-66237300D02*
X122475000Y-67575000D01*
X138900000Y-73562500D02*
X136572000Y-73562500D01*
X129102000Y-102650000D02*
X129102000Y-103534000D01*
X119146000Y-69950200D02*
X119146000Y-79346700D01*
%TO.N,+VSW*%
X111482000Y-74497000D02*
X111430000Y-74445000D01*
X129052000Y-73397500D02*
X128000000Y-73397500D01*
X130702000Y-77752200D02*
X130702000Y-77200000D01*
X130665000Y-77789700D02*
X130665000Y-78800000D01*
X129052000Y-73397500D02*
X129052000Y-72232800D01*
X111430000Y-74445000D02*
X111430000Y-73810000D01*
X110738000Y-78700000D02*
X111482000Y-77955700D01*
X111482000Y-77955700D02*
X111482000Y-74497000D01*
X130062000Y-79951000D02*
X130062000Y-79402500D01*
X130500000Y-74800000D02*
X129098000Y-73397500D01*
X130665000Y-75872200D02*
X130500000Y-75707200D01*
X130665000Y-77789700D02*
X130702000Y-77752200D01*
X111430000Y-75080000D02*
X111430000Y-74445000D01*
X130665000Y-74965000D02*
X130665000Y-75872200D01*
X130062000Y-79951500D02*
X130062000Y-80499500D01*
X130062000Y-79951500D02*
X130062000Y-79951000D01*
X130062000Y-79402500D02*
X130665000Y-78800000D01*
X129098000Y-73397500D02*
X129052000Y-73397500D01*
X130665000Y-75872200D02*
X130665000Y-77789700D01*
D49*
%TO.N,Net-(U1-FB)*%
X134302000Y-77690000D02*
X134302000Y-78899500D01*
X131898000Y-77350000D02*
X133962000Y-77350000D01*
X131800000Y-78048700D02*
X131800000Y-78800000D01*
X131898000Y-77951200D02*
X131898000Y-77350000D01*
X131800000Y-78048700D02*
X131898000Y-77951200D01*
X131800000Y-77297500D02*
X131800000Y-78048700D01*
X134132000Y-77520100D02*
X134302000Y-77690000D01*
D44*
%TO.N,VBUS*%
X127681000Y-70284200D02*
X127182000Y-69785300D01*
X140062000Y-86399200D02*
X140050000Y-86411700D01*
X140056000Y-85800000D02*
X140056000Y-84878100D01*
X139530000Y-69002500D02*
X139400000Y-69002500D01*
X127681000Y-70732500D02*
X127681000Y-70284200D01*
X127762000Y-70813800D02*
X127681000Y-70732500D01*
X140056000Y-84878100D02*
X140062000Y-84884600D01*
X140050000Y-86411700D02*
X140050000Y-85806300D01*
X130464000Y-68112600D02*
X138510000Y-68112600D01*
X128000000Y-71187100D02*
X128000000Y-72202500D01*
D48*
X125300000Y-68351300D02*
X125300000Y-67800000D01*
X125427000Y-68478700D02*
X125300000Y-68351300D01*
D44*
X140563000Y-70035400D02*
X139530000Y-69002500D01*
X140056000Y-83956300D02*
X139300000Y-83200000D01*
X140056000Y-84878100D02*
X140056000Y-83956300D01*
X128000000Y-71051300D02*
X128000000Y-71187100D01*
X126734000Y-69785300D02*
X125427000Y-68478700D01*
X140050000Y-88362500D02*
X140050000Y-86411700D01*
X140062000Y-84884600D02*
X140062000Y-85641900D01*
X127182000Y-69785300D02*
X126734000Y-69785300D01*
X127762000Y-70813800D02*
X128000000Y-71051300D01*
X140563000Y-81937400D02*
X140563000Y-70035400D01*
X127762000Y-70813800D02*
X130464000Y-68112600D01*
X140062000Y-85641900D02*
X140062000Y-86399200D01*
X138510000Y-68112600D02*
X139400000Y-69002500D01*
X139300000Y-83200000D02*
X140563000Y-81937400D01*
%TO.N,Net-(U2-VOUT)*%
X140050000Y-93500000D02*
X139035000Y-93500000D01*
X140500000Y-94900000D02*
X140500000Y-93950000D01*
X140050000Y-90637500D02*
X140050000Y-93500000D01*
X140500000Y-93950000D02*
X140050000Y-93500000D01*
D49*
%TO.N,Net-(U2-BP)*%
X138150000Y-90637500D02*
X138500000Y-90987500D01*
X138500000Y-90987500D02*
X138500000Y-92100000D01*
D44*
%TO.N,+3.3V*%
X139400000Y-104955000D02*
X139400000Y-105150000D01*
X116314000Y-104057000D02*
X119240000Y-104057000D01*
X116306000Y-104049000D02*
X116314000Y-104057000D01*
D46*
X122075000Y-88175000D02*
X122000000Y-88100000D01*
D45*
X130900000Y-96900000D02*
X130900000Y-92895700D01*
X131400000Y-96600000D02*
X131000000Y-97000000D01*
D44*
X114121000Y-104049000D02*
X116306000Y-104049000D01*
D46*
X133726000Y-96600000D02*
X133956000Y-96370000D01*
D44*
X137602000Y-94900000D02*
X137454000Y-95047700D01*
D45*
X121350000Y-98682500D02*
X121400000Y-98732500D01*
D46*
X132700000Y-96600000D02*
X133726000Y-96600000D01*
D45*
X121350000Y-97600000D02*
X121350000Y-98682500D01*
D46*
X132700000Y-90100000D02*
X133565000Y-89235000D01*
D44*
X136386000Y-93244100D02*
X136386000Y-92686300D01*
X110002000Y-93656500D02*
X110002000Y-93657000D01*
X119240000Y-104057000D02*
X119249000Y-104049000D01*
D45*
X130200000Y-90700000D02*
X130800000Y-90100000D01*
X130800000Y-90100000D02*
X132700000Y-90100000D01*
D44*
X137454000Y-98843500D02*
X137454000Y-103417000D01*
X113700000Y-104470000D02*
X114121000Y-104049000D01*
X137454000Y-98843500D02*
X134619000Y-98843500D01*
X110002000Y-93108700D02*
X110002000Y-93656500D01*
X140200000Y-104155000D02*
X139400000Y-104955000D01*
X137602000Y-94459600D02*
X136386000Y-93244100D01*
X108825000Y-82100000D02*
X108825000Y-86658500D01*
X110002000Y-93657000D02*
X110002000Y-95300000D01*
D46*
X123275000Y-88175000D02*
X122075000Y-88175000D01*
D44*
X119300000Y-104100000D02*
X119249000Y-104049000D01*
X138992000Y-104955000D02*
X139400000Y-104955000D01*
D45*
X130900000Y-92895700D02*
X130200000Y-92195700D01*
D44*
X121400000Y-101400000D02*
X121400000Y-104000000D01*
X136386000Y-92686300D02*
X135800000Y-92100000D01*
D45*
X132700000Y-96600000D02*
X131400000Y-96600000D01*
D46*
X133956000Y-96370000D02*
X134644000Y-96370000D01*
D44*
X121400000Y-101400000D02*
X121400000Y-100100000D01*
X137454000Y-103417000D02*
X138992000Y-104955000D01*
D46*
X133565000Y-89235000D02*
X133565000Y-88700000D01*
D44*
X139305000Y-94900000D02*
X137602000Y-94900000D01*
D45*
X131000000Y-97000000D02*
X130900000Y-96900000D01*
D44*
X140200000Y-103800000D02*
X140200000Y-104155000D01*
X137602000Y-94900000D02*
X137602000Y-94459600D01*
X121400000Y-100100000D02*
X121400000Y-98732500D01*
D46*
X132046000Y-90119300D02*
X132016000Y-90150000D01*
X135230000Y-96956200D02*
X135230000Y-98232500D01*
D45*
X130200000Y-92195700D02*
X130200000Y-90700000D01*
D46*
X134644000Y-96370000D02*
X135230000Y-96956200D01*
D44*
X121400000Y-104000000D02*
X121300000Y-104100000D01*
D45*
X123275000Y-102325000D02*
X123200000Y-102400000D01*
D44*
X137454000Y-95047700D02*
X137454000Y-98843500D01*
D45*
X123275000Y-99525000D02*
X123275000Y-102325000D01*
D46*
X135230000Y-98232500D02*
X134619000Y-98843500D01*
D49*
%TO.N,Net-(U4-VDDA)*%
X129275000Y-99525000D02*
X129275000Y-97918700D01*
X129275000Y-97918700D02*
X129445000Y-97748700D01*
%TO.N,Net-(J2-~{RESET})*%
X116484000Y-89326700D02*
X116477000Y-89334200D01*
X116055000Y-98155300D02*
X117645000Y-99745300D01*
X115507000Y-96206100D02*
X116055000Y-96754100D01*
X116477000Y-88598400D02*
X116477000Y-89334200D01*
X111198000Y-95300000D02*
X108265000Y-98232300D01*
X108265000Y-98232300D02*
X108265000Y-100944000D01*
X114315000Y-96206100D02*
X115507000Y-96206100D01*
X116477000Y-95236500D02*
X115507000Y-96206100D01*
X111791000Y-104470000D02*
X112430000Y-104470000D01*
X126275000Y-99525000D02*
X126275000Y-98117900D01*
X116575000Y-89326700D02*
X116484000Y-89326700D01*
X116477000Y-89334200D02*
X116477000Y-95236500D01*
X111396000Y-95400000D02*
X113237500Y-95400000D01*
X116055000Y-96754100D02*
X116055000Y-98155300D01*
X108265000Y-100944000D02*
X111791000Y-104470000D01*
X116575000Y-88500000D02*
X116575000Y-89326700D01*
X113509000Y-95400000D02*
X114315000Y-96206100D01*
%TO.N,Net-(U4-PH0)*%
X125275000Y-101098000D02*
X125275000Y-99525000D01*
X125450000Y-101273000D02*
X125275000Y-101098000D01*
X123707000Y-103166000D02*
X123566000Y-103166000D01*
X124223000Y-102650000D02*
X125450000Y-102650000D01*
X123707000Y-103166000D02*
X124223000Y-102650000D01*
X123566000Y-103166000D02*
X123300000Y-103432000D01*
X125450000Y-102650000D02*
X125450000Y-101273000D01*
X123441000Y-103432000D02*
X123707000Y-103166000D01*
%TO.N,Net-(C17-Pad1)*%
X128621000Y-105368000D02*
X127750000Y-106238000D01*
X127750000Y-106238000D02*
X127750000Y-106927000D01*
X129799500Y-105368000D02*
X128621000Y-105368000D01*
X127558000Y-107119000D02*
X127558000Y-107225000D01*
X127750000Y-106927000D02*
X127558000Y-107119000D01*
%TO.N,Net-(U4-VCAP1)*%
X134365000Y-91100000D02*
X132700000Y-91100000D01*
X134665000Y-90800000D02*
X134365000Y-91100000D01*
D50*
%TO.N,Net-(D1-A)*%
X130500000Y-70800000D02*
X133700000Y-70800000D01*
D49*
X133962000Y-73792400D02*
X133962000Y-74620900D01*
X133962000Y-74620900D02*
X133962500Y-74621400D01*
X133962000Y-74620900D02*
X133962000Y-74897300D01*
X133962000Y-73791900D02*
X133962000Y-73792400D01*
X133800000Y-70900000D02*
X133800000Y-73076700D01*
X133962500Y-74621400D02*
X133962500Y-75450000D01*
X133962000Y-73239200D02*
X133962000Y-73791900D01*
X133800000Y-73076700D02*
X133962000Y-73239200D01*
%TO.N,/Controller/USB+*%
X124100000Y-70265000D02*
X122921000Y-70265000D01*
X122921000Y-70265000D02*
X122921000Y-70265100D01*
D46*
X124100000Y-78318200D02*
X124800000Y-79018200D01*
X124800000Y-79018200D02*
X124800000Y-86987499D01*
X124775000Y-87012499D02*
X124775000Y-88175000D01*
X124800000Y-86987499D02*
X124775000Y-87012499D01*
X124100000Y-68912501D02*
X124100000Y-78318200D01*
X124000000Y-68812501D02*
X124100000Y-68912501D01*
X124000000Y-67800000D02*
X124000000Y-68812501D01*
D49*
%TO.N,/Controller/USB-*%
X124825000Y-73247400D02*
X124825000Y-71599900D01*
D46*
X125275000Y-87012499D02*
X125275000Y-88175000D01*
X124650000Y-68812501D02*
X124550000Y-68912501D01*
D49*
X124550000Y-73522100D02*
X124825000Y-73247400D01*
D46*
X124550000Y-78131800D02*
X125250000Y-78831800D01*
X124650000Y-67800000D02*
X124650000Y-68812501D01*
X125250000Y-78831800D02*
X125250000Y-86987499D01*
X125250000Y-86987499D02*
X125275000Y-87012499D01*
X124550000Y-68912501D02*
X124550000Y-78131800D01*
D49*
%TO.N,Net-(D3-A)*%
X138625000Y-99700000D02*
X138625000Y-100778000D01*
X138625000Y-100778000D02*
X138306000Y-101097000D01*
%TO.N,Net-(D4-A)*%
X134578000Y-85000000D02*
X135100000Y-84477500D01*
X134000000Y-85000000D02*
X134578000Y-85000000D01*
X135100000Y-84477500D02*
X135099000Y-84476300D01*
%TO.N,Net-(D5-A)*%
X131354959Y-85745041D02*
X131354959Y-85933059D01*
X132100000Y-85000000D02*
X131354959Y-85745041D01*
%TO.N,Net-(D6-A)*%
X131075000Y-84125000D02*
X130200000Y-85000000D01*
%TO.N,Net-(D7-A)*%
X138625000Y-97000000D02*
X138625000Y-95906000D01*
%TO.N,/Controller/JTMS*%
X124532000Y-89275000D02*
X124275000Y-89017800D01*
X124275000Y-89017800D02*
X124275000Y-88175000D01*
X113700000Y-103200000D02*
X114047000Y-103547000D01*
X123150000Y-92015300D02*
X124532000Y-90633100D01*
X118871000Y-101038000D02*
X118871000Y-98122600D01*
X118871000Y-98122600D02*
X118083000Y-97334300D01*
X116363000Y-103547000D02*
X118871000Y-101038000D01*
X114047000Y-103547000D02*
X116363000Y-103547000D01*
X124532000Y-90633100D02*
X124532000Y-89275000D01*
%TO.N,/Controller/JTDI*%
X110902000Y-102942000D02*
X108717000Y-100757000D01*
X112430000Y-101930000D02*
X111418000Y-102942000D01*
X111418000Y-102942000D02*
X110902000Y-102942000D01*
X119700000Y-91407200D02*
X119693000Y-91407200D01*
X121350000Y-90600000D02*
X120507000Y-90600000D01*
X119693000Y-91407200D02*
X119600000Y-91500000D01*
X120507000Y-90600000D02*
X119700000Y-91407200D01*
X108717000Y-98884000D02*
X109516000Y-98084700D01*
X108717000Y-100757000D02*
X108717000Y-98884000D01*
D46*
%TO.N,/Controller/JTDO*%
X112430000Y-99390000D02*
X112898000Y-98921700D01*
X112898000Y-98921700D02*
X112898000Y-97401700D01*
X119400000Y-92600000D02*
X119900000Y-93100000D01*
X112898000Y-97401700D02*
X113600000Y-96700000D01*
X119900000Y-93100000D02*
X121350000Y-93100000D01*
D49*
%TO.N,/Controller/JTCK*%
X116900000Y-91131600D02*
X116900000Y-97177400D01*
X121350000Y-90100000D02*
X119785000Y-90100000D01*
X116579000Y-101849000D02*
X114889000Y-101849000D01*
X119785000Y-90100000D02*
X119419000Y-90465700D01*
X114889000Y-101849000D02*
X113700000Y-100660000D01*
X116900000Y-97177400D02*
X118400000Y-98677400D01*
X117462000Y-90570000D02*
X116900000Y-91131600D01*
X118400000Y-100029000D02*
X116579000Y-101849000D01*
X118400000Y-98677400D02*
X118400000Y-100029000D01*
%TO.N,S2U*%
X122441000Y-84613200D02*
X122441000Y-79126700D01*
X127775000Y-99525000D02*
X127775000Y-92111100D01*
X127775000Y-92111100D02*
X127701000Y-92037000D01*
%TO.N,S1U*%
X126775000Y-100402000D02*
X126775000Y-99525000D01*
X127282000Y-100909000D02*
X126775000Y-100402000D01*
X115333000Y-90950300D02*
X115376000Y-90993000D01*
X115333000Y-86500700D02*
X115333000Y-90950300D01*
%TO.N,S1D_OUT*%
X118250000Y-74280000D02*
X118250000Y-79038100D01*
X112700000Y-68730000D02*
X118250000Y-74280000D01*
%TO.N,S2D*%
X128275000Y-93156700D02*
X128429000Y-93002900D01*
X128275000Y-99525000D02*
X128275000Y-93156700D01*
X119753000Y-94870900D02*
X118654000Y-93771900D01*
X128429000Y-91737200D02*
X127959000Y-91267800D01*
X122888000Y-94848100D02*
X122888000Y-95694400D01*
X118654000Y-90711700D02*
X118654000Y-89625300D01*
X128429000Y-93002900D02*
X128429000Y-91737200D01*
X118732000Y-90789700D02*
X118654000Y-90711700D01*
X118654000Y-93771900D02*
X118654000Y-92188300D01*
X126468000Y-91267800D02*
X122888000Y-94848100D01*
X118654000Y-92188300D02*
X118732000Y-92110300D01*
X118732000Y-92110300D02*
X118732000Y-90789700D01*
X127959000Y-91267800D02*
X126468000Y-91267800D01*
X123790000Y-84489800D02*
X123790000Y-80135700D01*
X118654000Y-89625300D02*
X123790000Y-84489800D01*
%TO.N,S1U_OUT*%
X110597000Y-69562800D02*
X111430000Y-68730000D01*
X110597000Y-75940700D02*
X110597000Y-69562800D01*
%TO.N,S1D*%
X127275000Y-99525000D02*
X127275000Y-92641000D01*
X127275000Y-92641000D02*
X126699000Y-92065100D01*
%TO.N,HVEnable*%
X126191000Y-90456200D02*
X127924000Y-90456200D01*
X136937000Y-77350000D02*
X136982000Y-77395000D01*
X123905000Y-92742000D02*
X126191000Y-90456200D01*
X122849000Y-92742000D02*
X123905000Y-92742000D01*
X136982000Y-77395000D02*
X138100000Y-77395000D01*
X121350000Y-92600000D02*
X122707000Y-92600000D01*
X136982000Y-77395000D02*
X136982000Y-83621400D01*
X136238000Y-77350000D02*
X136937000Y-77350000D01*
X136982000Y-83621400D02*
X134078000Y-86525400D01*
X122707000Y-92600000D02*
X122849000Y-92742000D01*
X134078000Y-86525400D02*
X133661000Y-86525400D01*
%TO.N,Net-(U2-ON{slash}~{OFF})*%
X137432000Y-83962100D02*
X137433000Y-83960600D01*
X137432000Y-87644400D02*
X137432000Y-83962100D01*
X137433000Y-83960600D02*
X137433000Y-83871600D01*
X138150000Y-88362500D02*
X137432000Y-87644400D01*
X137433000Y-83871600D02*
X138105000Y-83200000D01*
%TO.N,Net-(U4-PA0)*%
X129775000Y-100760000D02*
X129817000Y-100802000D01*
X129775000Y-99525000D02*
X129775000Y-100760000D01*
%TO.N,Net-(U4-BOOT0)*%
X121350000Y-95600000D02*
X118798000Y-95600000D01*
X116575000Y-82100000D02*
X118187000Y-83711600D01*
X118187000Y-83711600D02*
X118187000Y-90777400D01*
X118798000Y-95599700D02*
X118500000Y-95302200D01*
X118187000Y-94988800D02*
X118500000Y-95302200D01*
X118500000Y-95302200D02*
X118649000Y-95451100D01*
X118187000Y-90777400D02*
X118355000Y-90945800D01*
X118355000Y-90945800D02*
X118355000Y-91954200D01*
X118355000Y-91954200D02*
X118187000Y-92122600D01*
X118187000Y-92122600D02*
X118187000Y-94988800D01*
%TO.N,Net-(U4-PH1)*%
X125775000Y-99525000D02*
X125775000Y-100554000D01*
X125775000Y-100554000D02*
X126177000Y-100956000D01*
%TO.N,Net-(U4-PA8)*%
X126775000Y-89034400D02*
X127293000Y-89552500D01*
X127293000Y-89552500D02*
X127411000Y-89552500D01*
X126775000Y-88175000D02*
X126775000Y-89034400D01*
%TO.N,Net-(U4-PA9)*%
X126275000Y-88175000D02*
X126275000Y-86792300D01*
%TO.N,Net-(U4-PA10)*%
X125775000Y-89095500D02*
X126409000Y-89729400D01*
X125775000Y-88175000D02*
X125775000Y-89095500D01*
%TO.N,/Controller/BOOT1*%
X134605000Y-92100000D02*
X132700000Y-92100000D01*
X134605000Y-92100000D02*
X135771000Y-93266100D01*
X135771000Y-93266100D02*
X135771000Y-94244700D01*
%TO.N,Net-(U4-PB0)*%
X132700000Y-93100000D02*
X134309000Y-93100000D01*
X134309000Y-93100000D02*
X134895000Y-93686100D01*
%TO.N,/Controller/~{SPI2NSS}*%
X129304000Y-106705000D02*
X128058000Y-107951000D01*
X131054000Y-106705000D02*
X129304000Y-106705000D01*
X138686000Y-106375000D02*
X139125000Y-106375000D01*
X121350000Y-96600000D02*
X122242000Y-96600000D01*
X128058000Y-107951000D02*
X126858000Y-107951000D01*
X122242000Y-96600000D02*
X122500000Y-96858000D01*
X122500000Y-101891000D02*
X122345000Y-102046000D01*
X138961000Y-106100000D02*
X138686000Y-106375000D01*
X138410000Y-106651000D02*
X138410000Y-107958000D01*
X122500000Y-96858000D02*
X122500000Y-101891000D01*
X122345000Y-102046000D02*
X122345000Y-107845000D01*
X122345000Y-107845000D02*
X122500000Y-108000000D01*
X139125000Y-106375000D02*
X139400000Y-106100000D01*
X138686000Y-106375000D02*
X138410000Y-106651000D01*
%TO.N,SW_Enable*%
X119723000Y-78918100D02*
X119723000Y-81841800D01*
X132108000Y-89170000D02*
X132108000Y-88124200D01*
X130051000Y-86067100D02*
X129888000Y-86067100D01*
X132700000Y-94100000D02*
X133586000Y-94100000D01*
X120095000Y-78545500D02*
X119723000Y-78918100D01*
X132108000Y-88124200D02*
X130051000Y-86067100D01*
X133586000Y-94100000D02*
X134756000Y-95269800D01*
X129888000Y-86067100D02*
X129123000Y-85302200D01*
X129123000Y-85302200D02*
X129123000Y-82064700D01*
X134756000Y-95269800D02*
X134756000Y-95396100D01*
%TO.N,/Controller/SPI2_SCK*%
X140947000Y-105909000D02*
X140947000Y-101933000D01*
X132700000Y-91600000D02*
X131662000Y-91600000D01*
X136215000Y-97608100D02*
X136253000Y-97645900D01*
X136215000Y-95646000D02*
X136215000Y-97608100D01*
X131662000Y-91600000D02*
X131317000Y-91944200D01*
X140031000Y-106825000D02*
X139625000Y-106825000D01*
X140031000Y-106825000D02*
X140947000Y-105909000D01*
X139806000Y-107050000D02*
X140031000Y-106825000D01*
X139625000Y-106825000D02*
X139400000Y-107050000D01*
%TO.N,/Controller/SPI2_MOSI*%
X129275000Y-88175000D02*
X129275000Y-93009100D01*
X137125000Y-107050000D02*
X137125000Y-107518000D01*
X129275000Y-93009100D02*
X129475000Y-93209000D01*
X137125000Y-107518000D02*
X136668000Y-107975000D01*
%TO.N,/Controller/SPI2_MISO*%
X130521000Y-95802600D02*
X130200000Y-96123600D01*
X130521000Y-93052700D02*
X130521000Y-95802600D01*
X137125000Y-104532000D02*
X137125000Y-105150000D01*
X129775000Y-88175000D02*
X129775000Y-92306700D01*
X130200000Y-97607200D02*
X137125000Y-104532000D01*
X129775000Y-92306700D02*
X130521000Y-93052700D01*
X130200000Y-96123600D02*
X130200000Y-97607200D01*
%TD*%
M02*
