%TF.GenerationSoftware,KiCad,Pcbnew,8.0.5*%
%TF.CreationDate,2024-10-11T11:26:04-07:00*%
%TF.ProjectId,USB_SPDTK2,5553425f-5350-4445-944b-322e6b696361,rev?*%
%TF.SameCoordinates,Original*%
%TF.FileFunction,Copper,L1,Top*%
%TF.FilePolarity,Positive*%
%FSLAX46Y46*%
G04 Gerber Fmt 4.6, Leading zero omitted, Abs format (unit mm)*
G04 Created by KiCad (PCBNEW 8.0.5) date 2024-10-11 11:26:04*
%MOMM*%
%LPD*%
G01*
G04 APERTURE LIST*
G04 Aperture macros list*
%AMRoundRect*
0 Rectangle with rounded corners*
0 $1 Rounding radius*
0 $2 $3 $4 $5 $6 $7 $8 $9 X,Y pos of 4 corners*
0 Add a 4 corners polygon primitive as box body*
4,1,4,$2,$3,$4,$5,$6,$7,$8,$9,$2,$3,0*
0 Add four circle primitives for the rounded corners*
1,1,$1+$1,$2,$3*
1,1,$1+$1,$4,$5*
1,1,$1+$1,$6,$7*
1,1,$1+$1,$8,$9*
0 Add four rect primitives between the rounded corners*
20,1,$1+$1,$2,$3,$4,$5,0*
20,1,$1+$1,$4,$5,$6,$7,0*
20,1,$1+$1,$6,$7,$8,$9,0*
20,1,$1+$1,$8,$9,$2,$3,0*%
G04 Aperture macros list end*
%TA.AperFunction,SMDPad,CuDef*%
%ADD10RoundRect,0.155000X0.155000X-0.212500X0.155000X0.212500X-0.155000X0.212500X-0.155000X-0.212500X0*%
%TD*%
%TA.AperFunction,SMDPad,CuDef*%
%ADD11RoundRect,0.155000X-0.212500X-0.155000X0.212500X-0.155000X0.212500X0.155000X-0.212500X0.155000X0*%
%TD*%
%TA.AperFunction,SMDPad,CuDef*%
%ADD12RoundRect,0.075000X0.075000X-0.700000X0.075000X0.700000X-0.075000X0.700000X-0.075000X-0.700000X0*%
%TD*%
%TA.AperFunction,SMDPad,CuDef*%
%ADD13RoundRect,0.075000X0.700000X-0.075000X0.700000X0.075000X-0.700000X0.075000X-0.700000X-0.075000X0*%
%TD*%
%TA.AperFunction,SMDPad,CuDef*%
%ADD14R,1.100000X3.700000*%
%TD*%
%TA.AperFunction,SMDPad,CuDef*%
%ADD15RoundRect,0.155000X0.212500X0.155000X-0.212500X0.155000X-0.212500X-0.155000X0.212500X-0.155000X0*%
%TD*%
%TA.AperFunction,SMDPad,CuDef*%
%ADD16RoundRect,0.237500X0.287500X0.237500X-0.287500X0.237500X-0.287500X-0.237500X0.287500X-0.237500X0*%
%TD*%
%TA.AperFunction,SMDPad,CuDef*%
%ADD17RoundRect,0.160000X0.160000X-0.197500X0.160000X0.197500X-0.160000X0.197500X-0.160000X-0.197500X0*%
%TD*%
%TA.AperFunction,SMDPad,CuDef*%
%ADD18RoundRect,0.237500X0.300000X0.237500X-0.300000X0.237500X-0.300000X-0.237500X0.300000X-0.237500X0*%
%TD*%
%TA.AperFunction,SMDPad,CuDef*%
%ADD19R,1.250000X1.000000*%
%TD*%
%TA.AperFunction,SMDPad,CuDef*%
%ADD20RoundRect,0.160000X0.197500X0.160000X-0.197500X0.160000X-0.197500X-0.160000X0.197500X-0.160000X0*%
%TD*%
%TA.AperFunction,SMDPad,CuDef*%
%ADD21RoundRect,0.237500X0.237500X-0.300000X0.237500X0.300000X-0.237500X0.300000X-0.237500X-0.300000X0*%
%TD*%
%TA.AperFunction,SMDPad,CuDef*%
%ADD22RoundRect,0.237500X-0.237500X0.287500X-0.237500X-0.287500X0.237500X-0.287500X0.237500X0.287500X0*%
%TD*%
%TA.AperFunction,SMDPad,CuDef*%
%ADD23RoundRect,0.150000X-0.512500X-0.150000X0.512500X-0.150000X0.512500X0.150000X-0.512500X0.150000X0*%
%TD*%
%TA.AperFunction,SMDPad,CuDef*%
%ADD24RoundRect,0.160000X-0.160000X0.197500X-0.160000X-0.197500X0.160000X-0.197500X0.160000X0.197500X0*%
%TD*%
%TA.AperFunction,ComponentPad*%
%ADD25R,1.000000X1.000000*%
%TD*%
%TA.AperFunction,ComponentPad*%
%ADD26O,1.000000X1.000000*%
%TD*%
%TA.AperFunction,SMDPad,CuDef*%
%ADD27RoundRect,0.150000X-0.150000X0.512500X-0.150000X-0.512500X0.150000X-0.512500X0.150000X0.512500X0*%
%TD*%
%TA.AperFunction,SMDPad,CuDef*%
%ADD28RoundRect,0.250000X0.650000X-1.000000X0.650000X1.000000X-0.650000X1.000000X-0.650000X-1.000000X0*%
%TD*%
%TA.AperFunction,SMDPad,CuDef*%
%ADD29RoundRect,0.160000X-0.197500X-0.160000X0.197500X-0.160000X0.197500X0.160000X-0.197500X0.160000X0*%
%TD*%
%TA.AperFunction,SMDPad,CuDef*%
%ADD30C,1.000000*%
%TD*%
%TA.AperFunction,SMDPad,CuDef*%
%ADD31R,1.800000X2.100000*%
%TD*%
%TA.AperFunction,ComponentPad*%
%ADD32C,3.600000*%
%TD*%
%TA.AperFunction,ConnectorPad*%
%ADD33C,5.600000*%
%TD*%
%TA.AperFunction,ConnectorPad*%
%ADD34C,0.787400*%
%TD*%
%TA.AperFunction,SMDPad,CuDef*%
%ADD35RoundRect,0.155000X-0.155000X0.212500X-0.155000X-0.212500X0.155000X-0.212500X0.155000X0.212500X0*%
%TD*%
%TA.AperFunction,SMDPad,CuDef*%
%ADD36RoundRect,0.237500X-0.300000X-0.237500X0.300000X-0.237500X0.300000X0.237500X-0.300000X0.237500X0*%
%TD*%
%TA.AperFunction,SMDPad,CuDef*%
%ADD37RoundRect,0.250000X0.337500X0.475000X-0.337500X0.475000X-0.337500X-0.475000X0.337500X-0.475000X0*%
%TD*%
%TA.AperFunction,SMDPad,CuDef*%
%ADD38RoundRect,0.100000X0.100000X0.575000X-0.100000X0.575000X-0.100000X-0.575000X0.100000X-0.575000X0*%
%TD*%
%TA.AperFunction,ComponentPad*%
%ADD39O,0.900000X1.600000*%
%TD*%
%TA.AperFunction,SMDPad,CuDef*%
%ADD40RoundRect,0.250000X0.550000X0.450000X-0.550000X0.450000X-0.550000X-0.450000X0.550000X-0.450000X0*%
%TD*%
%TA.AperFunction,SMDPad,CuDef*%
%ADD41RoundRect,0.250000X0.700000X0.700000X-0.700000X0.700000X-0.700000X-0.700000X0.700000X-0.700000X0*%
%TD*%
%TA.AperFunction,ViaPad*%
%ADD42C,0.800000*%
%TD*%
%TA.AperFunction,Conductor*%
%ADD43C,0.800000*%
%TD*%
%TA.AperFunction,Conductor*%
%ADD44C,0.500000*%
%TD*%
%TA.AperFunction,Conductor*%
%ADD45C,0.600000*%
%TD*%
%TA.AperFunction,Conductor*%
%ADD46C,0.254000*%
%TD*%
%TA.AperFunction,Conductor*%
%ADD47C,0.200000*%
%TD*%
%TA.AperFunction,Conductor*%
%ADD48C,0.400000*%
%TD*%
%TA.AperFunction,Conductor*%
%ADD49C,0.400600*%
%TD*%
%TA.AperFunction,Conductor*%
%ADD50C,0.127000*%
%TD*%
%TA.AperFunction,Conductor*%
%ADD51C,0.250000*%
%TD*%
G04 APERTURE END LIST*
D10*
%TO.P,C18,1*%
%TO.N,Net-(C18-Pad1)*%
X129800000Y-105367500D03*
%TO.P,C18,2*%
%TO.N,GND*%
X129800000Y-104232500D03*
%TD*%
D11*
%TO.P,C8,1*%
%TO.N,+3.3V*%
X133565000Y-88700000D03*
%TO.P,C8,2*%
%TO.N,GND*%
X134700000Y-88700000D03*
%TD*%
D12*
%TO.P,U4,1,VBAT*%
%TO.N,+3.3V*%
X123275000Y-99525000D03*
%TO.P,U4,2,PC13*%
%TO.N,unconnected-(U4-PC13-Pad2)*%
X123775000Y-99525000D03*
%TO.P,U4,3,PC14*%
%TO.N,unconnected-(U4-PC14-Pad3)*%
X124275000Y-99525000D03*
%TO.P,U4,4,PC15*%
%TO.N,unconnected-(U4-PC15-Pad4)*%
X124775000Y-99525000D03*
%TO.P,U4,5,PH0*%
%TO.N,Net-(U4-PH0)*%
X125275000Y-99525000D03*
%TO.P,U4,6,PH1*%
%TO.N,Net-(U4-PH1)*%
X125775000Y-99525000D03*
%TO.P,U4,7,NRST*%
%TO.N,Net-(J2-~{RESET})*%
X126275000Y-99525000D03*
%TO.P,U4,8,PC0*%
%TO.N,S1U*%
X126775000Y-99525000D03*
%TO.P,U4,9,PC1*%
%TO.N,S1D*%
X127275000Y-99525000D03*
%TO.P,U4,10,PC2*%
%TO.N,S2U*%
X127775000Y-99525000D03*
%TO.P,U4,11,PC3*%
%TO.N,S2D*%
X128275000Y-99525000D03*
%TO.P,U4,12,VSSA*%
%TO.N,GND*%
X128775000Y-99525000D03*
%TO.P,U4,13,VDDA*%
%TO.N,Net-(U4-VDDA)*%
X129275000Y-99525000D03*
%TO.P,U4,14,PA0*%
%TO.N,Net-(U4-PA0)*%
X129775000Y-99525000D03*
%TO.P,U4,15,PA1*%
%TO.N,unconnected-(U4-PA1-Pad15)*%
X130275000Y-99525000D03*
%TO.P,U4,16,PA2*%
%TO.N,unconnected-(U4-PA2-Pad16)*%
X130775000Y-99525000D03*
D13*
%TO.P,U4,17,PA3*%
%TO.N,unconnected-(U4-PA3-Pad17)*%
X132700000Y-97600000D03*
%TO.P,U4,18,VSS*%
%TO.N,GND*%
X132700000Y-97100000D03*
%TO.P,U4,19,VDD*%
%TO.N,+3.3V*%
X132700000Y-96600000D03*
%TO.P,U4,20,PA4*%
%TO.N,unconnected-(U4-PA4-Pad20)*%
X132700000Y-96100000D03*
%TO.P,U4,21,PA5*%
%TO.N,unconnected-(U4-PA5-Pad21)*%
X132700000Y-95600000D03*
%TO.P,U4,22,PA6*%
%TO.N,unconnected-(U4-PA6-Pad22)*%
X132700000Y-95100000D03*
%TO.P,U4,23,PA7*%
%TO.N,unconnected-(U4-PA7-Pad23)*%
X132700000Y-94600000D03*
%TO.P,U4,24,PC4*%
%TO.N,SW_Enable*%
X132700000Y-94100000D03*
%TO.P,U4,25,PC5*%
%TO.N,unconnected-(U4-PC5-Pad25)*%
X132700000Y-93600000D03*
%TO.P,U4,26,PB0*%
%TO.N,Net-(U4-PB0)*%
X132700000Y-93100000D03*
%TO.P,U4,27,PB1*%
%TO.N,unconnected-(U4-PB1-Pad27)*%
X132700000Y-92600000D03*
%TO.P,U4,28,PB2*%
%TO.N,/Controller/BOOT1*%
X132700000Y-92100000D03*
%TO.P,U4,29,PB10*%
%TO.N,/Controller/SPI2_SCK*%
X132700000Y-91600000D03*
%TO.P,U4,30,VCAP1*%
%TO.N,Net-(U4-VCAP1)*%
X132700000Y-91100000D03*
%TO.P,U4,31,VSS*%
%TO.N,GND*%
X132700000Y-90600000D03*
%TO.P,U4,32,VDD*%
%TO.N,+3.3V*%
X132700000Y-90100000D03*
D12*
%TO.P,U4,33,PB12*%
%TO.N,unconnected-(U4-PB12-Pad33)*%
X130775000Y-88175000D03*
%TO.P,U4,34,PB13*%
%TO.N,unconnected-(U4-PB13-Pad34)*%
X130275000Y-88175000D03*
%TO.P,U4,35,PB14*%
%TO.N,/Controller/SPI2_MISO*%
X129775000Y-88175000D03*
%TO.P,U4,36,PB15*%
%TO.N,/Controller/SPI2_MOSI*%
X129275000Y-88175000D03*
%TO.P,U4,37,PC6*%
%TO.N,unconnected-(U4-PC6-Pad37)*%
X128775000Y-88175000D03*
%TO.P,U4,38,PC7*%
%TO.N,unconnected-(U4-PC7-Pad38)*%
X128275000Y-88175000D03*
%TO.P,U4,39,PC8*%
%TO.N,Aux0*%
X127775000Y-88175000D03*
%TO.P,U4,40,PC9*%
%TO.N,Aux1*%
X127275000Y-88175000D03*
%TO.P,U4,41,PA8*%
%TO.N,Net-(U4-PA8)*%
X126775000Y-88175000D03*
%TO.P,U4,42,PA9*%
%TO.N,Net-(U4-PA9)*%
X126275000Y-88175000D03*
%TO.P,U4,43,PA10*%
%TO.N,Net-(U4-PA10)*%
X125775000Y-88175000D03*
%TO.P,U4,44,PA11*%
%TO.N,/Controller/USB-*%
X125275000Y-88175000D03*
%TO.P,U4,45,PA12*%
%TO.N,/Controller/USB+*%
X124775000Y-88175000D03*
%TO.P,U4,46,PA13*%
%TO.N,/Controller/JTMS*%
X124275000Y-88175000D03*
%TO.P,U4,47,VSS*%
%TO.N,GND*%
X123775000Y-88175000D03*
%TO.P,U4,48,VDD*%
%TO.N,+3.3V*%
X123275000Y-88175000D03*
D13*
%TO.P,U4,49,PA14*%
%TO.N,/Controller/JTCK*%
X121350000Y-90100000D03*
%TO.P,U4,50,PA15*%
%TO.N,/Controller/JTDI*%
X121350000Y-90600000D03*
%TO.P,U4,51,PC10*%
%TO.N,Aux2*%
X121350000Y-91100000D03*
%TO.P,U4,52,PC11*%
%TO.N,Aux3*%
X121350000Y-91600000D03*
%TO.P,U4,53,PC12*%
%TO.N,unconnected-(U4-PC12-Pad53)*%
X121350000Y-92100000D03*
%TO.P,U4,54,PD2*%
%TO.N,HVEnable*%
X121350000Y-92600000D03*
%TO.P,U4,55,PB3*%
%TO.N,/Controller/JTDO*%
X121350000Y-93100000D03*
%TO.P,U4,56,PB4*%
%TO.N,unconnected-(U4-PB4-Pad56)*%
X121350000Y-93600000D03*
%TO.P,U4,57,PB5*%
%TO.N,unconnected-(U4-PB5-Pad57)*%
X121350000Y-94100000D03*
%TO.P,U4,58,PB6*%
%TO.N,unconnected-(U4-PB6-Pad58)*%
X121350000Y-94600000D03*
%TO.P,U4,59,PB7*%
%TO.N,unconnected-(U4-PB7-Pad59)*%
X121350000Y-95100000D03*
%TO.P,U4,60,BOOT0*%
%TO.N,Net-(U4-BOOT0)*%
X121350000Y-95600000D03*
%TO.P,U4,61,PB8*%
%TO.N,unconnected-(U4-PB8-Pad61)*%
X121350000Y-96100000D03*
%TO.P,U4,62,PB9*%
%TO.N,/Controller/~{SPI2NSS}*%
X121350000Y-96600000D03*
%TO.P,U4,63,VSS*%
%TO.N,GND*%
X121350000Y-97100000D03*
%TO.P,U4,64,VDD*%
%TO.N,+3.3V*%
X121350000Y-97600000D03*
%TD*%
D11*
%TO.P,C5,1*%
%TO.N,GND*%
X137900000Y-93500000D03*
%TO.P,C5,2*%
%TO.N,Net-(U2-VOUT)*%
X139035000Y-93500000D03*
%TD*%
D14*
%TO.P,L1,1,1*%
%TO.N,Net-(U1-VIN)*%
X136800000Y-70900000D03*
%TO.P,L1,2,2*%
%TO.N,Net-(D1-A)*%
X133800000Y-70900000D03*
%TD*%
D15*
%TO.P,C7,1*%
%TO.N,+3.3V*%
X121400000Y-101400000D03*
%TO.P,C7,2*%
%TO.N,GND*%
X120265000Y-101400000D03*
%TD*%
D16*
%TO.P,D3,1,K*%
%TO.N,GND*%
X140375000Y-99700000D03*
%TO.P,D3,2,A*%
%TO.N,Net-(D3-A)*%
X138625000Y-99700000D03*
%TD*%
D17*
%TO.P,R3,1*%
%TO.N,HVEnable*%
X138100000Y-77395000D03*
%TO.P,R3,2*%
%TO.N,Net-(U1-VIN)*%
X138100000Y-76200000D03*
%TD*%
D18*
%TO.P,C15,1*%
%TO.N,GND*%
X114962500Y-95400000D03*
%TO.P,C15,2*%
%TO.N,Net-(J2-~{RESET})*%
X113237500Y-95400000D03*
%TD*%
D19*
%TO.P,SW2,1,1*%
%TO.N,Net-(U4-BOOT0)*%
X116775000Y-84100000D03*
%TO.P,SW2,2,2*%
%TO.N,+3.3V*%
X109025000Y-84100000D03*
%TD*%
D17*
%TO.P,R2,1*%
%TO.N,Net-(U1-VIN)*%
X139400000Y-70197500D03*
%TO.P,R2,2*%
%TO.N,VBUS*%
X139400000Y-69002500D03*
%TD*%
D20*
%TO.P,R5,1*%
%TO.N,GND*%
X135497500Y-78900000D03*
%TO.P,R5,2*%
%TO.N,Net-(U1-FB)*%
X134302500Y-78900000D03*
%TD*%
D21*
%TO.P,C1,1*%
%TO.N,GND*%
X138900000Y-73562500D03*
%TO.P,C1,2*%
%TO.N,Net-(U1-VIN)*%
X138900000Y-71837500D03*
%TD*%
D22*
%TO.P,D6,1,K*%
%TO.N,GND*%
X130200000Y-83250000D03*
%TO.P,D6,2,A*%
%TO.N,Net-(D6-A)*%
X130200000Y-85000000D03*
%TD*%
D23*
%TO.P,U1,1,SW*%
%TO.N,Net-(D1-A)*%
X133962500Y-75450000D03*
%TO.P,U1,2,GND*%
%TO.N,GND*%
X133962500Y-76400000D03*
%TO.P,U1,3,FB*%
%TO.N,Net-(U1-FB)*%
X133962500Y-77350000D03*
%TO.P,U1,4,EN*%
%TO.N,HVEnable*%
X136237500Y-77350000D03*
%TO.P,U1,5,VIN*%
%TO.N,Net-(U1-VIN)*%
X136237500Y-75450000D03*
%TD*%
D11*
%TO.P,C20,1*%
%TO.N,GND*%
X139065000Y-103800000D03*
%TO.P,C20,2*%
%TO.N,+3.3V*%
X140200000Y-103800000D03*
%TD*%
D24*
%TO.P,R1,1*%
%TO.N,VBUS*%
X128000000Y-72202500D03*
%TO.P,R1,2*%
%TO.N,+VSW*%
X128000000Y-73397500D03*
%TD*%
D22*
%TO.P,D4,1,K*%
%TO.N,GND*%
X134000000Y-83250000D03*
%TO.P,D4,2,A*%
%TO.N,Net-(D4-A)*%
X134000000Y-85000000D03*
%TD*%
D25*
%TO.P,J3,1,Pin_1*%
%TO.N,unconnected-(J3-Pin_1-Pad1)*%
X111675000Y-67750000D03*
D26*
%TO.P,J3,2,Pin_2*%
%TO.N,unconnected-(J3-Pin_2-Pad2)*%
X112945000Y-67750000D03*
%TO.P,J3,3,Pin_3*%
%TO.N,unconnected-(J3-Pin_3-Pad3)*%
X111675000Y-69020000D03*
%TO.P,J3,4,Pin_4*%
%TO.N,unconnected-(J3-Pin_4-Pad4)*%
X112945000Y-69020000D03*
%TO.P,J3,5,Pin_5*%
%TO.N,S1U_OUT*%
X111675000Y-70290000D03*
%TO.P,J3,6,Pin_6*%
%TO.N,S1D_OUT*%
X112945000Y-70290000D03*
%TO.P,J3,7,Pin_7*%
%TO.N,S2U_OUT*%
X111675000Y-71560000D03*
%TO.P,J3,8,Pin_8*%
%TO.N,S2D_OUT*%
X112945000Y-71560000D03*
%TO.P,J3,9,Pin_9*%
%TO.N,unconnected-(J3-Pin_9-Pad9)*%
X111675000Y-72830000D03*
%TO.P,J3,10,Pin_10*%
%TO.N,unconnected-(J3-Pin_10-Pad10)*%
X112945000Y-72830000D03*
%TO.P,J3,11,Pin_11*%
%TO.N,unconnected-(J3-Pin_11-Pad11)*%
X111675000Y-74100000D03*
%TO.P,J3,12,Pin_12*%
%TO.N,unconnected-(J3-Pin_12-Pad12)*%
X112945000Y-74100000D03*
%TO.P,J3,13,Pin_13*%
%TO.N,+VSW*%
X111675000Y-75370000D03*
%TO.P,J3,14,Pin_14*%
%TO.N,GND*%
X112945000Y-75370000D03*
%TO.P,J3,15,Pin_15*%
%TO.N,+VSW*%
X111675000Y-76640000D03*
%TO.P,J3,16,Pin_16*%
%TO.N,GND*%
X112945000Y-76640000D03*
%TD*%
D27*
%TO.P,U2,1,VIN*%
%TO.N,VBUS*%
X140050000Y-88362500D03*
%TO.P,U2,2,GND*%
%TO.N,GND*%
X139100000Y-88362500D03*
%TO.P,U2,3,ON/~{OFF}*%
%TO.N,Net-(U2-ON{slash}~{OFF})*%
X138150000Y-88362500D03*
%TO.P,U2,4,BP*%
%TO.N,Net-(U2-BP)*%
X138150000Y-90637500D03*
%TO.P,U2,5,VOUT*%
%TO.N,Net-(U2-VOUT)*%
X140050000Y-90637500D03*
%TD*%
D28*
%TO.P,D1,1,K*%
%TO.N,+VSW*%
X130500000Y-74800000D03*
%TO.P,D1,2,A*%
%TO.N,Net-(D1-A)*%
X130500000Y-70800000D03*
%TD*%
D29*
%TO.P,R10,1*%
%TO.N,GND*%
X117602500Y-95600000D03*
%TO.P,R10,2*%
%TO.N,Net-(U4-BOOT0)*%
X118797500Y-95600000D03*
%TD*%
D11*
%TO.P,C12,1*%
%TO.N,GND*%
X120265000Y-100100000D03*
%TO.P,C12,2*%
%TO.N,+3.3V*%
X121400000Y-100100000D03*
%TD*%
D30*
%TO.P,FID2,*%
%TO.N,*%
X139400000Y-66000000D03*
%TD*%
D20*
%TO.P,R4,1*%
%TO.N,Net-(U1-FB)*%
X131897500Y-77200000D03*
%TO.P,R4,2*%
%TO.N,+VSW*%
X130702500Y-77200000D03*
%TD*%
%TO.P,R16,1*%
%TO.N,+3.3V*%
X135800000Y-92100000D03*
%TO.P,R16,2*%
%TO.N,/Controller/BOOT1*%
X134605000Y-92100000D03*
%TD*%
D31*
%TO.P,Y1,1,1*%
%TO.N,Net-(U4-PH0)*%
X125300000Y-102650000D03*
%TO.P,Y1,2,2*%
%TO.N,GND*%
X125300000Y-105550000D03*
%TO.P,Y1,3,3*%
%TO.N,Net-(C18-Pad1)*%
X127600000Y-105550000D03*
%TO.P,Y1,4,4*%
%TO.N,GND*%
X127600000Y-102650000D03*
%TD*%
D22*
%TO.P,D5,1,K*%
%TO.N,GND*%
X132100000Y-83250000D03*
%TO.P,D5,2,A*%
%TO.N,Net-(D5-A)*%
X132100000Y-85000000D03*
%TD*%
D32*
%TO.P,H1,1,1*%
%TO.N,GND*%
X119012000Y-110500000D03*
D33*
X119012000Y-110500000D03*
%TD*%
D15*
%TO.P,C19,1*%
%TO.N,GND*%
X135800000Y-90800000D03*
%TO.P,C19,2*%
%TO.N,Net-(U4-VCAP1)*%
X134665000Y-90800000D03*
%TD*%
D34*
%TO.P,J2,1,VTref*%
%TO.N,+3.3V*%
X113700000Y-104470000D03*
%TO.P,J2,2,SWDIO/TMS*%
%TO.N,/Controller/JTMS*%
X113700000Y-103200000D03*
%TO.P,J2,3,GND*%
%TO.N,GND*%
X113700000Y-101930000D03*
%TO.P,J2,4,SWCLK/TCK*%
%TO.N,/Controller/JTCK*%
X113700000Y-100660000D03*
%TO.P,J2,5,GND*%
%TO.N,GND*%
X113700000Y-99390000D03*
%TO.P,J2,6,SWO/TDO*%
%TO.N,/Controller/JTDO*%
X112430000Y-99390000D03*
%TO.P,J2,7,KEY*%
%TO.N,unconnected-(J2-KEY-Pad7)*%
X112430000Y-100660000D03*
%TO.P,J2,8,NC/TDI*%
%TO.N,/Controller/JTDI*%
X112430000Y-101930000D03*
%TO.P,J2,9,GNDDetect*%
%TO.N,GND*%
X112430000Y-103200000D03*
%TO.P,J2,10,~{RESET}*%
%TO.N,Net-(J2-~{RESET})*%
X112430000Y-104470000D03*
%TD*%
D35*
%TO.P,C17,1*%
%TO.N,Net-(U4-PH0)*%
X123300000Y-103432500D03*
%TO.P,C17,2*%
%TO.N,GND*%
X123300000Y-104567500D03*
%TD*%
D36*
%TO.P,C4,1*%
%TO.N,GND*%
X138337500Y-85800000D03*
%TO.P,C4,2*%
%TO.N,VBUS*%
X140062500Y-85800000D03*
%TD*%
D37*
%TO.P,C3,1*%
%TO.N,GND*%
X132137500Y-80500000D03*
%TO.P,C3,2*%
%TO.N,+VSW*%
X130062500Y-80500000D03*
%TD*%
D23*
%TO.P,U5,1,DO*%
%TO.N,/Controller/SPI2_MISO*%
X137125000Y-105150000D03*
%TO.P,U5,2,Vss*%
%TO.N,GND*%
X137125000Y-106100000D03*
%TO.P,U5,3,DI*%
%TO.N,/Controller/SPI2_MOSI*%
X137125000Y-107050000D03*
%TO.P,U5,4,CLK*%
%TO.N,/Controller/SPI2_SCK*%
X139400000Y-107050000D03*
%TO.P,U5,5,CS*%
%TO.N,/Controller/~{SPI2NSS}*%
X139400000Y-106100000D03*
%TO.P,U5,6,Vcc*%
%TO.N,+3.3V*%
X139400000Y-105150000D03*
%TD*%
D29*
%TO.P,R8,1*%
%TO.N,+3.3V*%
X110002500Y-95300000D03*
%TO.P,R8,2*%
%TO.N,Net-(J2-~{RESET})*%
X111197500Y-95300000D03*
%TD*%
D30*
%TO.P,FID1,*%
%TO.N,*%
X109900000Y-111500000D03*
%TD*%
D20*
%TO.P,R6,1*%
%TO.N,Net-(U2-VOUT)*%
X140500000Y-94900000D03*
%TO.P,R6,2*%
%TO.N,+3.3V*%
X139305000Y-94900000D03*
%TD*%
D32*
%TO.P,H2,1,1*%
%TO.N,GND*%
X130188000Y-110500000D03*
D33*
X130188000Y-110500000D03*
%TD*%
D16*
%TO.P,D7,1,K*%
%TO.N,GND*%
X140375000Y-97000000D03*
%TO.P,D7,2,A*%
%TO.N,Net-(D7-A)*%
X138625000Y-97000000D03*
%TD*%
D11*
%TO.P,C2,1*%
%TO.N,+VSW*%
X130665000Y-78800000D03*
%TO.P,C2,2*%
%TO.N,Net-(U1-FB)*%
X131800000Y-78800000D03*
%TD*%
D20*
%TO.P,R7,1*%
%TO.N,VBUS*%
X139300000Y-83200000D03*
%TO.P,R7,2*%
%TO.N,Net-(U2-ON{slash}~{OFF})*%
X138105000Y-83200000D03*
%TD*%
D11*
%TO.P,C6,1*%
%TO.N,GND*%
X137365000Y-92100000D03*
%TO.P,C6,2*%
%TO.N,Net-(U2-BP)*%
X138500000Y-92100000D03*
%TD*%
D38*
%TO.P,J1,1,VBUS*%
%TO.N,VBUS*%
X125300000Y-67800000D03*
%TO.P,J1,2,D-*%
%TO.N,/Controller/USB-*%
X124650000Y-67800000D03*
%TO.P,J1,3,D+*%
%TO.N,/Controller/USB+*%
X124000000Y-67800000D03*
%TO.P,J1,4,ID*%
%TO.N,unconnected-(J1-ID-Pad4)*%
X123350000Y-67800000D03*
%TO.P,J1,5,GND*%
%TO.N,GND*%
X122700000Y-67800000D03*
D39*
%TO.P,J1,6,Shield*%
X127300000Y-65125000D03*
D40*
X127200000Y-67575000D03*
D41*
X125200000Y-65125000D03*
X122800000Y-65125000D03*
D40*
X120800000Y-67575000D03*
D39*
X120700000Y-65125000D03*
%TD*%
D19*
%TO.P,SW1,1,1*%
%TO.N,Net-(J2-~{RESET})*%
X116775000Y-89500000D03*
%TO.P,SW1,2,2*%
%TO.N,GND*%
X109025000Y-89500000D03*
%TD*%
D42*
%TO.N,GND*%
X128697285Y-98229721D03*
X122038000Y-79492100D03*
X139100000Y-87000000D03*
X108825000Y-87355000D03*
X130900000Y-96700000D03*
X127500000Y-84300000D03*
X120963027Y-70553873D03*
X139100000Y-89641100D03*
X135000000Y-102000000D03*
X123096000Y-80550800D03*
X140056000Y-73779900D03*
X112074000Y-84787500D03*
X133563000Y-82032600D03*
X131468723Y-90607231D03*
X131150000Y-102050000D03*
X135498000Y-79824600D03*
X139065000Y-102855000D03*
X125300000Y-107100000D03*
X111470000Y-102318000D03*
X115500000Y-98100000D03*
X120265000Y-99151800D03*
X135832000Y-106775000D03*
X117844000Y-96265100D03*
X123843000Y-97726000D03*
X115752000Y-95691924D03*
X112073982Y-79000009D03*
X135291000Y-76400000D03*
X140375000Y-95883200D03*
X123763000Y-89409600D03*
X122525000Y-101063000D03*
X137009000Y-91143200D03*
X135800000Y-89015900D03*
%TO.N,+VSW*%
X129414000Y-72695900D03*
%TO.N,VBUS*%
X139980000Y-82423000D03*
X128643000Y-69681100D03*
%TO.N,+3.3V*%
X122900000Y-98100000D03*
X131979000Y-89130600D03*
X109917000Y-91596800D03*
X139000000Y-101072000D03*
X136454000Y-94366700D03*
X122720000Y-89290900D03*
X131327000Y-95734500D03*
%TO.N,Net-(U4-VDDA)*%
X129900000Y-98000000D03*
%TO.N,Net-(J2-~{RESET})*%
X117200000Y-97900000D03*
X125346783Y-98088157D03*
%TO.N,Net-(C18-Pad1)*%
X127800000Y-104300000D03*
%TO.N,/Controller/USB+*%
X123036000Y-69898900D03*
%TO.N,/Controller/USB-*%
X124825000Y-71525300D03*
%TO.N,Net-(D3-A)*%
X137775352Y-100699996D03*
%TO.N,Net-(D4-A)*%
X134599000Y-82202400D03*
%TO.N,Net-(D5-A)*%
X132744000Y-86131500D03*
%TO.N,Net-(D6-A)*%
X129300000Y-84230000D03*
%TO.N,Net-(D7-A)*%
X138383000Y-95685600D03*
%TO.N,/Controller/JTMS*%
X114099000Y-90085600D03*
X118823000Y-96559700D03*
%TO.N,/Controller/JTDI*%
X113290000Y-96625300D03*
X119257000Y-93287909D03*
%TO.N,/Controller/JTDO*%
X119588250Y-94284292D03*
X114760000Y-96899600D03*
%TO.N,/Controller/JTCK*%
X119400000Y-90500000D03*
X117043000Y-91327000D03*
%TO.N,S2U*%
X121800000Y-75500000D03*
X110776000Y-93664900D03*
X127661000Y-100943000D03*
%TO.N,S1U*%
X126600000Y-90900000D03*
%TO.N,S2D_OUT*%
X123368000Y-82982600D03*
%TO.N,S1D_OUT*%
X118600000Y-76599996D03*
%TO.N,S2D*%
X127518015Y-90490338D03*
%TO.N,S2U_OUT*%
X116162000Y-72221200D03*
%TO.N,S1D*%
X119179000Y-87613000D03*
X126755000Y-93615464D03*
X118304000Y-83235400D03*
%TO.N,HVEnable*%
X135186000Y-87769700D03*
X123820000Y-92976924D03*
%TO.N,Net-(U4-PA0)*%
X129821000Y-101079000D03*
%TO.N,Net-(U4-PH1)*%
X125800000Y-100900000D03*
%TO.N,Net-(U4-PA8)*%
X133937000Y-86145700D03*
%TO.N,Net-(U4-PA9)*%
X127300002Y-83200000D03*
%TO.N,Net-(U4-PA10)*%
X128200002Y-82200000D03*
%TO.N,/Controller/BOOT1*%
X131300000Y-92100000D03*
X135453000Y-94189900D03*
%TO.N,Net-(U4-PB0)*%
X131308000Y-93424500D03*
%TO.N,/Controller/~{SPI2NSS}*%
X140706000Y-105180000D03*
X119273000Y-102716000D03*
%TO.N,SW_Enable*%
X133800000Y-105514000D03*
%TO.N,/Controller/SPI2_MISO*%
X128342000Y-93456300D03*
X125712754Y-97125766D03*
X129850000Y-93456300D03*
X136812000Y-103120430D03*
%TD*%
D43*
%TO.N,Net-(U1-VIN)*%
X138900000Y-71901000D02*
X136800000Y-71901000D01*
D44*
X136238000Y-75362000D02*
X136700000Y-74900000D01*
X138900000Y-71837500D02*
X139400000Y-71337500D01*
X136800000Y-71901000D02*
X136800000Y-73201700D01*
X138100000Y-76200000D02*
X136987500Y-76200000D01*
D43*
X136800000Y-74800000D02*
X136700000Y-74900000D01*
D44*
X136238000Y-75450000D02*
X136238000Y-75362000D01*
X136700000Y-75912500D02*
X136700000Y-74900000D01*
X139400000Y-71337500D02*
X139400000Y-70197500D01*
D43*
X136800000Y-73201700D02*
X136800000Y-74800000D01*
X136800000Y-70900000D02*
X136800000Y-73201700D01*
D44*
X136987500Y-76200000D02*
X136700000Y-75912500D01*
%TO.N,GND*%
X117844000Y-96265100D02*
X117602000Y-96023100D01*
X132138000Y-82534300D02*
X132138000Y-82533800D01*
X127200000Y-65125000D02*
X127200000Y-67575000D01*
X112945000Y-78128991D02*
X112945000Y-76640000D01*
X135100000Y-106043000D02*
X135100000Y-102100000D01*
X120800000Y-66426700D02*
X120800000Y-67575000D01*
X135111000Y-78100800D02*
X135498000Y-78487500D01*
X132138000Y-81178100D02*
X132138000Y-81008500D01*
D45*
X129150000Y-103350000D02*
X130500000Y-102000000D01*
D46*
X131475954Y-90600000D02*
X131468723Y-90607231D01*
X133545592Y-90600000D02*
X134700000Y-89445592D01*
D44*
X108825000Y-87355000D02*
X108825000Y-89300000D01*
X139100000Y-89641100D02*
X139100000Y-88362500D01*
D45*
X129150000Y-103350000D02*
X128450000Y-102650000D01*
D44*
X136507000Y-106100000D02*
X135832000Y-106775000D01*
X123300000Y-104568000D02*
X122525000Y-104568000D01*
D45*
X130500000Y-102000000D02*
X131200000Y-102000000D01*
D44*
X137973430Y-101763430D02*
X136940319Y-101763430D01*
D47*
X121350000Y-97100000D02*
X123217000Y-97100000D01*
D44*
X140375000Y-99700000D02*
X140375000Y-99123900D01*
X139988000Y-98736900D02*
X140375000Y-99123900D01*
X140375000Y-97000000D02*
X140375000Y-95883200D01*
X140375000Y-99123900D02*
X140375000Y-97000000D01*
X117602000Y-95917300D02*
X117602000Y-95916800D01*
D47*
X113700000Y-99390000D02*
X114060000Y-99390000D01*
D44*
X115484376Y-95424300D02*
X114962500Y-95424300D01*
X132138000Y-81516600D02*
X132138000Y-81178100D01*
X127200000Y-65125000D02*
X125200000Y-65125000D01*
X138082000Y-98736900D02*
X139988000Y-98736900D01*
X135832000Y-106775000D02*
X135100000Y-106043000D01*
D47*
X132700000Y-97100000D02*
X131300000Y-97100000D01*
D44*
X127500000Y-84300000D02*
X128550000Y-83250000D01*
D47*
X131300000Y-97100000D02*
X130900000Y-96700000D01*
X123217000Y-97100000D02*
X123843000Y-97726000D01*
D44*
X133780000Y-83212500D02*
X133563000Y-82995400D01*
X112074000Y-84787500D02*
X112074000Y-79000027D01*
X135484100Y-88700000D02*
X135800000Y-89015900D01*
X139065000Y-103800000D02*
X139065000Y-102855000D01*
X121498000Y-66426700D02*
X122800000Y-65125000D01*
X135498000Y-78809800D02*
X135498000Y-78854900D01*
X137900000Y-93500000D02*
X137365000Y-92965000D01*
X135291000Y-76400000D02*
X135076000Y-76400000D01*
X117602000Y-95705700D02*
X117602000Y-95679200D01*
D47*
X114060000Y-99390000D02*
X115350000Y-98100000D01*
D44*
X135800000Y-89015900D02*
X135800000Y-90800000D01*
X112073982Y-79000009D02*
X112945000Y-78128991D01*
X122525000Y-104568000D02*
X122525000Y-101063000D01*
X139100000Y-86562500D02*
X139100000Y-87000000D01*
X135076000Y-76400000D02*
X135111000Y-76435000D01*
D45*
X129800000Y-104232000D02*
X129800000Y-104000000D01*
D47*
X128697285Y-98229721D02*
X128775000Y-98307436D01*
D46*
X132700000Y-90600000D02*
X133545592Y-90600000D01*
D44*
X120750000Y-66426700D02*
X120800000Y-66426700D01*
D47*
X125300000Y-105400000D02*
X127600000Y-103100000D01*
X123775000Y-88175000D02*
X123775000Y-89398000D01*
D44*
X120800000Y-70390846D02*
X120963027Y-70553873D01*
X123763000Y-89409600D02*
X123763000Y-90163000D01*
X137125000Y-106100000D02*
X136507000Y-106100000D01*
X120700000Y-66376700D02*
X120750000Y-66426700D01*
X135100000Y-102100000D02*
X135000000Y-102000000D01*
D46*
X127750000Y-102650000D02*
X128775000Y-101625000D01*
D44*
X117602000Y-95679200D02*
X117602000Y-95678700D01*
X134700000Y-88700000D02*
X135484100Y-88700000D01*
X137009000Y-91743800D02*
X137365000Y-92100000D01*
X117602000Y-95758600D02*
X117602000Y-95758100D01*
X135076000Y-76400000D02*
X133962500Y-76400000D01*
X136940319Y-101763430D02*
X136890803Y-101713914D01*
X112945000Y-76640000D02*
X112945000Y-75370000D01*
X117602000Y-95758100D02*
X117602000Y-95705700D01*
X135498000Y-79246700D02*
X135498000Y-79131100D01*
X123763000Y-90163000D02*
X124800000Y-91200000D01*
D45*
X128450000Y-102650000D02*
X127750000Y-102650000D01*
D44*
X112074000Y-79000027D02*
X112073982Y-79000009D01*
X140056000Y-73779900D02*
X139117000Y-73779900D01*
D45*
X125300000Y-105550000D02*
X125300000Y-107100000D01*
D44*
X135498000Y-78900000D02*
X135498000Y-79015000D01*
X119012000Y-108081000D02*
X122525000Y-104568000D01*
X135498000Y-79824600D02*
X133563000Y-81759600D01*
X120800000Y-67575000D02*
X120800000Y-70390846D01*
D45*
X125300000Y-105550000D02*
X123850000Y-105550000D01*
D44*
X135498000Y-78809300D02*
X135498000Y-78809800D01*
X132138000Y-83212500D02*
X132138000Y-82534300D01*
D48*
X134700000Y-89445592D02*
X134700000Y-88700000D01*
D44*
X132138000Y-82533800D02*
X132138000Y-81517100D01*
D45*
X123850000Y-105550000D02*
X123300000Y-105000000D01*
D44*
X133563000Y-82995400D02*
X133563000Y-82032600D01*
X123096000Y-80550800D02*
X122038000Y-79492100D01*
X117602000Y-95916800D02*
X117602000Y-95811500D01*
D46*
X128775000Y-101625000D02*
X128775000Y-99525000D01*
D44*
X132138000Y-83212500D02*
X133780000Y-83212500D01*
X120265000Y-100100000D02*
X120265000Y-99151800D01*
D47*
X128775000Y-98307436D02*
X128775000Y-99525000D01*
X123775000Y-89398000D02*
X123763000Y-89409600D01*
D44*
X136890803Y-99928097D02*
X138082000Y-98736900D01*
X135498000Y-79593400D02*
X135498000Y-79592900D01*
X122699000Y-65225600D02*
X122699000Y-66730100D01*
X139100000Y-87000000D02*
X139100000Y-88362500D01*
X120700000Y-65125000D02*
X120700000Y-66376700D01*
D45*
X131150000Y-102050000D02*
X131100000Y-102100000D01*
D44*
X117602000Y-95678700D02*
X117602000Y-95652800D01*
X137009000Y-91143200D02*
X137009000Y-91743800D01*
D47*
X120265000Y-101400000D02*
X120265000Y-100100000D01*
D46*
X132700000Y-90600000D02*
X131475954Y-90600000D01*
D44*
X115752000Y-95691924D02*
X115484376Y-95424300D01*
X124800000Y-91200000D02*
X124800000Y-96769000D01*
X117602000Y-95811500D02*
X117602000Y-95758600D01*
X139065000Y-102855000D02*
X137973430Y-101763430D01*
X132138000Y-81008000D02*
X132138000Y-80839000D01*
X137365000Y-92965000D02*
X137365000Y-92100000D01*
X135498000Y-79824600D02*
X135498000Y-79593400D01*
D45*
X131100000Y-102100000D02*
X131000000Y-102100000D01*
D44*
X136890803Y-101713914D02*
X136890803Y-99928097D01*
X135111000Y-76435000D02*
X135111000Y-78100800D01*
X120800000Y-66426700D02*
X121498000Y-66426700D01*
X117602000Y-96023100D02*
X117602000Y-95917300D01*
X132138000Y-81008500D02*
X132138000Y-81008000D01*
D47*
X115350000Y-98100000D02*
X115500000Y-98100000D01*
D44*
X135498000Y-79015000D02*
X135498000Y-79015500D01*
X135498000Y-79362300D02*
X135498000Y-79246700D01*
X132138000Y-81517100D02*
X132138000Y-81516600D01*
X122750000Y-65175300D02*
X125150000Y-65175300D01*
D49*
X122699000Y-66730100D02*
X122699000Y-67799400D01*
D44*
X135498000Y-78487500D02*
X135498000Y-78809300D01*
X124800000Y-96769000D02*
X123843000Y-97726000D01*
D45*
X123300000Y-105000000D02*
X123300000Y-104567500D01*
D44*
X135498000Y-79592900D02*
X135498000Y-79362300D01*
D45*
X129800000Y-104000000D02*
X129150000Y-103350000D01*
D44*
X133563000Y-81759600D02*
X133563000Y-82032600D01*
X132100000Y-83250000D02*
X130200000Y-83250000D01*
X128550000Y-83250000D02*
X130200000Y-83250000D01*
X138338000Y-85800000D02*
X139100000Y-86562500D01*
X111548000Y-102318000D02*
X111470000Y-102318000D01*
D49*
X122699000Y-67799400D02*
X122700000Y-67800000D01*
D44*
X135498000Y-79015500D02*
X135498000Y-79131100D01*
X113700000Y-101930000D02*
X112430000Y-103200000D01*
D45*
X131200000Y-102000000D02*
X131150000Y-102050000D01*
D44*
X112430000Y-103200000D02*
X111548000Y-102318000D01*
%TO.N,+VSW*%
X130665000Y-78800000D02*
X130062000Y-79402500D01*
X129098000Y-73397500D02*
X130500000Y-74800000D01*
X129414000Y-73080700D02*
X129098000Y-73397500D01*
X130062000Y-79951200D02*
X130062000Y-80088400D01*
X130665000Y-74965000D02*
X130665000Y-77200000D01*
X130665000Y-77200000D02*
X130665000Y-78800000D01*
X129414000Y-72695900D02*
X129414000Y-73080700D01*
X130062000Y-79402500D02*
X130062000Y-79676800D01*
X128000000Y-73397500D02*
X129098000Y-73397500D01*
X130062000Y-79677300D02*
X130062000Y-79951200D01*
X130062000Y-79676800D02*
X130062000Y-79677300D01*
D50*
%TO.N,Net-(U1-FB)*%
X134302000Y-78295500D02*
X134302000Y-78597700D01*
D51*
X134302000Y-78295000D02*
X134302000Y-77690000D01*
D50*
X134302000Y-78295000D02*
X134302000Y-78295500D01*
D51*
X133962000Y-77350000D02*
X132048000Y-77350000D01*
X131800000Y-77297500D02*
X131800000Y-78800000D01*
D50*
X134302000Y-78597700D02*
X134302000Y-78598200D01*
D51*
X134302000Y-78295500D02*
X134302000Y-78295000D01*
X134302000Y-78598200D02*
X134302000Y-78597700D01*
X134302000Y-77690000D02*
X134132000Y-77520100D01*
X134302000Y-78749100D02*
X134302000Y-78598200D01*
D50*
X134302000Y-78598200D02*
X134302000Y-78749100D01*
D51*
X134302000Y-78597700D02*
X134302000Y-78295500D01*
D49*
%TO.N,VBUS*%
X125427000Y-68478700D02*
X125300000Y-68351300D01*
D44*
X139980000Y-82520400D02*
X139300000Y-83200000D01*
D43*
X130600000Y-67500000D02*
X137897500Y-67500000D01*
D44*
X140056000Y-83956300D02*
X139300000Y-83200000D01*
D49*
X125300000Y-68351300D02*
X125300000Y-67800000D01*
D44*
X140056000Y-85800000D02*
X140056000Y-83956300D01*
X139980000Y-82423000D02*
X139980000Y-82520400D01*
D43*
X128643000Y-69457000D02*
X130600000Y-67500000D01*
D44*
X128643000Y-69681100D02*
X127636000Y-70687500D01*
X140050000Y-88362500D02*
X140050000Y-85806300D01*
X125427000Y-68478700D02*
X127636000Y-70687500D01*
D43*
X128643000Y-69681100D02*
X128643000Y-69457000D01*
D44*
X128000000Y-71051300D02*
X128000000Y-72202500D01*
D43*
X137897500Y-67500000D02*
X139400000Y-69002500D01*
D44*
X127636000Y-70687500D02*
X128000000Y-71051300D01*
%TO.N,Net-(U2-VOUT)*%
X140500000Y-94900000D02*
X140500000Y-93950000D01*
X140050000Y-90637500D02*
X140050000Y-93500000D01*
X140050000Y-93500000D02*
X139035000Y-93500000D01*
X140500000Y-93950000D02*
X140050000Y-93500000D01*
D51*
%TO.N,Net-(U2-BP)*%
X138500000Y-90987500D02*
X138500000Y-92100000D01*
X138150000Y-90637500D02*
X138500000Y-90987500D01*
D44*
%TO.N,+3.3V*%
X119373000Y-103820000D02*
X121400000Y-101793000D01*
X131979000Y-89130600D02*
X132266000Y-89130600D01*
X139305000Y-94900000D02*
X138772000Y-94366700D01*
X140200000Y-103800000D02*
X140200000Y-102272000D01*
X140200000Y-104350000D02*
X140200000Y-103800000D01*
X132266000Y-89130600D02*
X132700000Y-89565000D01*
X109917000Y-91596800D02*
X109917000Y-95214600D01*
D46*
X122720000Y-88729900D02*
X122720000Y-89290900D01*
D45*
X121400000Y-101400000D02*
X121400000Y-100100000D01*
D44*
X136454000Y-92754400D02*
X135800000Y-92100000D01*
D45*
X122700000Y-100100000D02*
X121400000Y-100100000D01*
X123125000Y-99675000D02*
X123125000Y-99525000D01*
D47*
X131893000Y-96600000D02*
X131327000Y-96034700D01*
D45*
X122700000Y-100100000D02*
X123125000Y-99675000D01*
D47*
X132700000Y-96600000D02*
X131893000Y-96600000D01*
D44*
X136454000Y-94366700D02*
X136454000Y-92754400D01*
X121400000Y-101793000D02*
X121400000Y-101400000D01*
D47*
X123275000Y-98475000D02*
X122900000Y-98100000D01*
D48*
X132700000Y-89565000D02*
X133565000Y-88700000D01*
D44*
X109917000Y-95214600D02*
X109960000Y-95257300D01*
X138772000Y-94366700D02*
X136454000Y-94366700D01*
D47*
X123275000Y-99525000D02*
X123275000Y-98475000D01*
D44*
X140200000Y-102272000D02*
X139000000Y-101072000D01*
D47*
X131327000Y-96034700D02*
X131327000Y-95734500D01*
X122400000Y-97600000D02*
X122900000Y-98100000D01*
D46*
X132700000Y-89565000D02*
X132700000Y-90100000D01*
D44*
X113700000Y-104470000D02*
X114350000Y-103820000D01*
X114350000Y-103820000D02*
X119373000Y-103820000D01*
X110200000Y-91313800D02*
X109917000Y-91596800D01*
X139400000Y-105150000D02*
X140200000Y-104350000D01*
X110200000Y-84143800D02*
X110200000Y-91313800D01*
D46*
X123275000Y-88175000D02*
X122720000Y-88729900D01*
D44*
X109068800Y-84143800D02*
X110200000Y-84143800D01*
D47*
X121350000Y-97600000D02*
X122400000Y-97600000D01*
%TO.N,Net-(U4-VDDA)*%
X129275000Y-98625000D02*
X129275000Y-99525000D01*
X129900000Y-98000000D02*
X129275000Y-98625000D01*
D51*
%TO.N,Net-(J2-~{RESET})*%
X108296000Y-99015600D02*
X108296000Y-101014000D01*
X115742000Y-90533000D02*
X116775000Y-89500000D01*
X111198000Y-95300000D02*
X111793000Y-95300000D01*
X111752000Y-104470000D02*
X112430000Y-104470000D01*
X116543000Y-97243000D02*
X117200000Y-97900000D01*
X111793000Y-95300000D02*
X111893000Y-95400000D01*
X126275000Y-98645400D02*
X125717757Y-98088157D01*
X113237500Y-95400000D02*
X111893000Y-95400000D01*
X111893000Y-95574500D02*
X111522000Y-95945800D01*
X108296000Y-101014000D02*
X111752000Y-104470000D01*
X115742000Y-94545100D02*
X114092000Y-94545100D01*
X111522000Y-95945800D02*
X111365000Y-95945800D01*
X111893000Y-95400000D02*
X111893000Y-95574500D01*
X111365000Y-95945800D02*
X108296000Y-99015600D01*
X114092000Y-94545100D02*
X113238000Y-95400000D01*
X115742000Y-94545100D02*
X115742000Y-90533000D01*
X115742000Y-94545100D02*
X116543000Y-95346100D01*
X126275000Y-99525000D02*
X126275000Y-98645400D01*
X116543000Y-95346100D02*
X116543000Y-97243000D01*
X125717757Y-98088157D02*
X125346783Y-98088157D01*
D47*
%TO.N,Net-(U4-PH0)*%
X125007000Y-100600000D02*
X125007000Y-102207000D01*
X123300500Y-103432000D02*
X124518000Y-103432000D01*
X125275000Y-100332000D02*
X125007000Y-100600000D01*
X125275000Y-99525000D02*
X125275000Y-100332000D01*
%TO.N,Net-(C18-Pad1)*%
X127800000Y-105500000D02*
X127800000Y-104300000D01*
X129799500Y-105368000D02*
X127932000Y-105368000D01*
D51*
%TO.N,Net-(U4-VCAP1)*%
X134665000Y-90800000D02*
X134365000Y-91100000D01*
X134365000Y-91100000D02*
X132700000Y-91100000D01*
D50*
%TO.N,Net-(D1-A)*%
X133962000Y-74897500D02*
X133962000Y-74898000D01*
D45*
X133800000Y-73076700D02*
X133962000Y-73239200D01*
X133962000Y-74345100D02*
X133962000Y-74897500D01*
D51*
X133962000Y-75174000D02*
X133962000Y-75312000D01*
D50*
X133962000Y-74344600D02*
X133962000Y-74345100D01*
D51*
X133962000Y-74345100D02*
X133962000Y-74897500D01*
D45*
X133800000Y-70900000D02*
X133800000Y-73076700D01*
D51*
X133962000Y-74344600D02*
X133962000Y-74345100D01*
X133962000Y-74898000D02*
X133962000Y-75174000D01*
D50*
X133962000Y-75174000D02*
X133962000Y-75312000D01*
D45*
X133962000Y-73239200D02*
X133962000Y-74344600D01*
D50*
X133962000Y-74898000D02*
X133962000Y-75174000D01*
D51*
X133962000Y-74897500D02*
X133962000Y-74898000D01*
D43*
X130600000Y-70900000D02*
X133800000Y-70900000D01*
D45*
X133962000Y-74898000D02*
X133962000Y-75174000D01*
D51*
%TO.N,/Controller/USB+*%
X124100000Y-70227700D02*
X123365000Y-70227700D01*
D47*
X124100000Y-78318200D02*
X124800000Y-79018200D01*
X124800000Y-79018200D02*
X124800000Y-86987499D01*
X124775000Y-87012499D02*
X124775000Y-88175000D01*
X124800000Y-86987499D02*
X124775000Y-87012499D01*
X124100000Y-68912501D02*
X124100000Y-78318200D01*
D51*
X123365000Y-70227700D02*
X123036000Y-69898900D01*
D47*
X124000000Y-68812501D02*
X124100000Y-68912501D01*
X124000000Y-67800000D02*
X124000000Y-68812501D01*
%TO.N,/Controller/USB-*%
X125275000Y-87012499D02*
X125275000Y-88175000D01*
X124650000Y-68812501D02*
X124550000Y-68912501D01*
X124550000Y-78131800D02*
X125250000Y-78831800D01*
X124650000Y-67800000D02*
X124650000Y-68812501D01*
D51*
X124550000Y-71800300D02*
X124825000Y-71525300D01*
D47*
X125250000Y-78831800D02*
X125250000Y-86987499D01*
X125250000Y-86987499D02*
X125275000Y-87012499D01*
X124550000Y-68912501D02*
X124550000Y-78131800D01*
D51*
%TO.N,Net-(D3-A)*%
X137775352Y-100549648D02*
X137775352Y-100699996D01*
X138625000Y-99700000D02*
X137775352Y-100549648D01*
D50*
%TO.N,Net-(D4-A)*%
X134738000Y-84261500D02*
X134738000Y-82341800D01*
X134000000Y-85000000D02*
X134738000Y-84261500D01*
X134738000Y-82341800D02*
X134599000Y-82202400D01*
D51*
%TO.N,Net-(D5-A)*%
X132744000Y-86131500D02*
X132100000Y-85487000D01*
X132100000Y-85487000D02*
X132100000Y-85000000D01*
%TO.N,Net-(D6-A)*%
X130200000Y-85000000D02*
X129430000Y-84230000D01*
X129430000Y-84230000D02*
X129300000Y-84230000D01*
%TO.N,Net-(D7-A)*%
X138625000Y-97000000D02*
X138625000Y-95927500D01*
X138625000Y-95927500D02*
X138383000Y-95685600D01*
%TO.N,/Controller/JTMS*%
X113800000Y-78800000D02*
X112871000Y-79729000D01*
X115855200Y-78800000D02*
X113800000Y-78800000D01*
X115734000Y-103200000D02*
X118320000Y-100614000D01*
X124275000Y-87219800D02*
X115855200Y-78800000D01*
X112871000Y-79729000D02*
X112871000Y-88857200D01*
X113700000Y-103200000D02*
X115734000Y-103200000D01*
X124275000Y-88175000D02*
X124275000Y-87219800D01*
X118320000Y-100614000D02*
X118320000Y-97062300D01*
X112871000Y-88857200D02*
X114099000Y-90085600D01*
X118320000Y-97062300D02*
X118823000Y-96559700D01*
%TO.N,/Controller/JTDI*%
X119257000Y-91839000D02*
X119257000Y-93287909D01*
X112430000Y-101930000D02*
X112084000Y-101584000D01*
X108755000Y-99247700D02*
X111377000Y-96625400D01*
X120496000Y-90600000D02*
X119257000Y-91839000D01*
X108755000Y-100824000D02*
X108755000Y-99247700D01*
X113290000Y-96625400D02*
X113290000Y-96625300D01*
X110994000Y-101584000D02*
X110737000Y-101842000D01*
X110737000Y-101842000D02*
X109772000Y-101842000D01*
X112084000Y-101584000D02*
X110994000Y-101584000D01*
X121350000Y-90600000D02*
X120496000Y-90600000D01*
X109772000Y-101842000D02*
X108755000Y-100824000D01*
X111377000Y-96625400D02*
X113290000Y-96625400D01*
D47*
%TO.N,/Controller/JTDO*%
X121350000Y-93100000D02*
X120542590Y-93100000D01*
X113232000Y-97768200D02*
X113800000Y-97200000D01*
X114459000Y-97200000D02*
X114760000Y-96899600D01*
X113232000Y-98588300D02*
X113232000Y-97768200D01*
X112430000Y-99390000D02*
X113232000Y-98588300D01*
X113800000Y-97200000D02*
X114459000Y-97200000D01*
X119588250Y-94054340D02*
X119588250Y-94284292D01*
X120542590Y-93100000D02*
X119588250Y-94054340D01*
D51*
%TO.N,/Controller/JTCK*%
X119400000Y-90500000D02*
X119800000Y-90100000D01*
X119800000Y-90100000D02*
X121350000Y-90100000D01*
X116920000Y-95965328D02*
X116920000Y-91450000D01*
X117027000Y-96072328D02*
X116920000Y-95965328D01*
X117943000Y-97389405D02*
X117027000Y-96473405D01*
X114830000Y-101790000D02*
X116419000Y-101790000D01*
X117943000Y-100266000D02*
X117943000Y-97389405D01*
X113700000Y-100660000D02*
X114830000Y-101790000D01*
X116419000Y-101790000D02*
X117943000Y-100266000D01*
X117027000Y-96473405D02*
X117027000Y-96072328D01*
X116920000Y-91450000D02*
X117043000Y-91327000D01*
%TO.N,S2U*%
X127775000Y-100828000D02*
X127661000Y-100943000D01*
X109700000Y-65200000D02*
X114500000Y-65200000D01*
X109400000Y-65500000D02*
X109700000Y-65200000D01*
X109400000Y-79595000D02*
X109400000Y-65500000D01*
X117100000Y-70800000D02*
X121800000Y-75500000D01*
X127775000Y-99525000D02*
X127775000Y-100828000D01*
X117100000Y-67800000D02*
X117100000Y-70800000D01*
X110776000Y-80971000D02*
X109400000Y-79595000D01*
X110776000Y-93664900D02*
X110776000Y-80971000D01*
X114500000Y-65200000D02*
X117100000Y-67800000D01*
%TO.N,S1U*%
X125977000Y-91523000D02*
X126600000Y-90900000D01*
X126775000Y-99525000D02*
X126775000Y-95384672D01*
X125977000Y-94586672D02*
X125977000Y-91523000D01*
X126775000Y-95384672D02*
X125977000Y-94586672D01*
%TO.N,S2D_OUT*%
X123368000Y-82982600D02*
X113770000Y-73384600D01*
X113770000Y-73384600D02*
X113770000Y-72385000D01*
X113770000Y-72385000D02*
X112945000Y-71560000D01*
%TO.N,S1D_OUT*%
X115700002Y-73045002D02*
X112945000Y-70290000D01*
X115700002Y-73699998D02*
X118600000Y-76599996D01*
X115700002Y-73699998D02*
X115700002Y-73045002D01*
D50*
%TO.N,S2D*%
X127548500Y-93286785D02*
X127518015Y-93256300D01*
X128275000Y-99525000D02*
X128275000Y-98745767D01*
X127548500Y-93944143D02*
X127548500Y-93286785D01*
X127700000Y-98170767D02*
X127700000Y-94095643D01*
X127700000Y-94095643D02*
X127548500Y-93944143D01*
X127518015Y-93256300D02*
X127518015Y-90490338D01*
X128275000Y-98745767D02*
X127700000Y-98170767D01*
D51*
%TO.N,S2U_OUT*%
X109800000Y-65800000D02*
X109800000Y-69685000D01*
X114400000Y-65800000D02*
X109800000Y-65800000D01*
X116162000Y-72221200D02*
X116162000Y-67562000D01*
X116162000Y-67562000D02*
X114400000Y-65800000D01*
X109800000Y-69685000D02*
X111675000Y-71560000D01*
%TO.N,S1D*%
X127275000Y-94135464D02*
X126755000Y-93615464D01*
X127275000Y-99525000D02*
X127275000Y-94135464D01*
X119179000Y-84110400D02*
X118304000Y-83235400D01*
X119179000Y-87613000D02*
X119179000Y-84110400D01*
D50*
%TO.N,HVEnable*%
X136959000Y-77350000D02*
X136598000Y-77350000D01*
D51*
X138055000Y-77350000D02*
X136959000Y-77350000D01*
X136412000Y-77524400D02*
X137000000Y-78112400D01*
X123443076Y-92600000D02*
X123820000Y-92976924D01*
X137000000Y-78112400D02*
X137000000Y-85955700D01*
X136959000Y-77350000D02*
X136598000Y-77350000D01*
X137000000Y-85955700D02*
X135186000Y-87769700D01*
X121350000Y-92600000D02*
X123443076Y-92600000D01*
%TO.N,Net-(U2-ON{slash}~{OFF})*%
X137430000Y-87642900D02*
X137430000Y-83874600D01*
X137430000Y-83874600D02*
X138105000Y-83200000D01*
X138150000Y-88362500D02*
X137430000Y-87642900D01*
%TO.N,Net-(U4-PA0)*%
X129775000Y-101034000D02*
X129821000Y-101079000D01*
X129775000Y-99525000D02*
X129775000Y-101034000D01*
D46*
%TO.N,Net-(U4-BOOT0)*%
X118400000Y-95202500D02*
X118400000Y-85725000D01*
X118400000Y-85725000D02*
X116775000Y-84100000D01*
D51*
X118798000Y-95600000D02*
X121350000Y-95600000D01*
D46*
X118797500Y-95600000D02*
X118400000Y-95202500D01*
D47*
%TO.N,Net-(U4-PH1)*%
X125800000Y-100900000D02*
X125800000Y-99550000D01*
D51*
%TO.N,Net-(U4-PA8)*%
X127174000Y-86897000D02*
X126775000Y-87296400D01*
X126775000Y-87296400D02*
X126775000Y-88175000D01*
X133937000Y-86145700D02*
X133185000Y-86897000D01*
X133185000Y-86897000D02*
X127174000Y-86897000D01*
%TO.N,Net-(U4-PA9)*%
X127300002Y-83200000D02*
X126275000Y-84225002D01*
X126275000Y-84225002D02*
X126275000Y-88175000D01*
%TO.N,Net-(U4-PA10)*%
X125775000Y-88175000D02*
X125775000Y-83612000D01*
X127187000Y-82200000D02*
X128200002Y-82200000D01*
X125775000Y-83612000D02*
X127187000Y-82200000D01*
%TO.N,/Controller/BOOT1*%
X135453000Y-94189900D02*
X135453000Y-92947600D01*
X135453000Y-92947600D02*
X134605000Y-92100000D01*
D47*
X132700000Y-92100000D02*
X131300000Y-92100000D01*
D51*
%TO.N,Net-(U4-PB0)*%
X131633000Y-93100000D02*
X131308000Y-93424500D01*
X132700000Y-93100000D02*
X131633000Y-93100000D01*
%TO.N,/Controller/~{SPI2NSS}*%
X120498000Y-96600000D02*
X121350000Y-96600000D01*
X119273000Y-102716000D02*
X119273000Y-97825100D01*
X140706000Y-105226000D02*
X140706000Y-105180000D01*
X119273000Y-97825100D02*
X120498000Y-96600000D01*
X139832000Y-106100000D02*
X140706000Y-105226000D01*
%TO.N,SW_Enable*%
X132700000Y-94100000D02*
X133575000Y-94100000D01*
X133998000Y-94523000D02*
X133998000Y-105316000D01*
X133575000Y-94100000D02*
X133998000Y-94523000D01*
X133998000Y-105316000D02*
X133800000Y-105514000D01*
%TO.N,/Controller/SPI2_SCK*%
X133822000Y-91809400D02*
X133613000Y-91600000D01*
X134726000Y-93975400D02*
X133822000Y-93072000D01*
X138131000Y-103230277D02*
X137166153Y-102265430D01*
X134726000Y-100259047D02*
X134726000Y-93975400D01*
X133822000Y-93072000D02*
X133822000Y-91809400D01*
X137166153Y-102265430D02*
X136732383Y-102265430D01*
X138131000Y-106204000D02*
X138131000Y-103230277D01*
X136732383Y-102265430D02*
X134726000Y-100259047D01*
X138977000Y-107050000D02*
X138131000Y-106204000D01*
X133613000Y-91600000D02*
X132700000Y-91600000D01*
%TO.N,/Controller/SPI2_MOSI*%
X129123000Y-93155400D02*
X129123000Y-96123000D01*
X133045000Y-105868153D02*
X134724847Y-107548000D01*
X133045000Y-100045000D02*
X133045000Y-105868153D01*
X134724847Y-107548000D02*
X136627000Y-107548000D01*
X129123000Y-96123000D02*
X133045000Y-100045000D01*
X129275000Y-88175000D02*
X129275000Y-93003700D01*
X136627000Y-107548000D02*
X137125000Y-107050000D01*
X129275000Y-93003700D02*
X129123000Y-93155400D01*
%TO.N,/Controller/SPI2_MISO*%
X128342000Y-90105170D02*
X127872168Y-89635338D01*
X129850000Y-93456300D02*
X129775000Y-93381300D01*
X125600000Y-90390847D02*
X125600000Y-97013012D01*
X129775000Y-93381300D02*
X129775000Y-88175000D01*
X137125000Y-105150000D02*
X136812000Y-104837000D01*
X125600000Y-97013012D02*
X125712754Y-97125766D01*
X136812000Y-104837000D02*
X136812000Y-103120430D01*
X128342000Y-93456300D02*
X128342000Y-90105170D01*
X126355509Y-89635338D02*
X125600000Y-90390847D01*
X127872168Y-89635338D02*
X126355509Y-89635338D01*
%TD*%
M02*
