M48
; DRILL file {KiCad 8.0.3} date 2024-07-18T10:32:46-0700
; FORMAT={-:-/ absolute / inch / decimal}
; #@! TF.CreationDate,2024-07-18T10:32:46-07:00
; #@! TF.GenerationSoftware,Kicad,Pcbnew,8.0.3
; #@! TF.FileFunction,Plated,1,2,PTH
FMAT,2
INCH
; #@! TA.AperFunction,Plated,PTH,ViaDrill
T1C0.0157
; #@! TA.AperFunction,Plated,PTH,ComponentDrill
T2C0.0197
; #@! TA.AperFunction,Plated,PTH,ComponentDrill
T3C0.0256
; #@! TA.AperFunction,Plated,PTH,ComponentDrill
T4C0.1260
%
G90
G05
T1
X4.2844Y-3.4118
X4.3117Y-3.8616
X4.3308Y-3.6657
X4.3542Y-2.9898
X4.4724Y-3.8071
X4.4764Y-3.3346
X4.4764Y-3.3346
X4.4883Y-3.1909
X4.5341Y-3.6979
X4.5354Y-3.8268
X4.5407Y-3.4055
X4.5424Y-3.5824
X4.5669Y-4.0433
X4.6245Y-3.5657
X4.6317Y-3.927
X4.6489Y-3.8321
X4.6555Y-3.1117
X4.6575Y-4.0433
X4.6652Y-2.7539
X4.6948Y-4.0964
X4.7008Y-3.6457
X4.7015Y-3.5616
X4.7087Y-3.6024
X4.7135Y-3.2221
X4.7147Y-3.7351
X4.7281Y-3.0923
X4.7756Y-4.0984
X4.7795Y-3.8871
X4.8031Y-3.4685
X4.8205Y-3.1152
X4.8205Y-3.3312
X4.8228Y-4.252
X4.8381Y-3.7675
X4.8394Y-2.7663
X4.8484Y-3.6226
X4.8504Y-4.0315
X4.8693Y-3.5223
X4.8736Y-3.1549
X4.9144Y-2.8189
X4.9488Y-3.8228
X4.9567Y-3.6693
X4.9676Y-3.9746
X4.9715Y-3.417
X4.9715Y-3.8629
X4.9767Y-3.5327
X4.9881Y-3.6246
X4.9944Y-4.25
X5.0111Y-3.9728
X5.0162Y-3.5257
X5.022Y-4.2215
X5.0276Y-3.6235
X5.0364Y-3.5613
X5.0394Y-2.8026
X5.0719Y-3.9739
X5.0808Y-2.8438
X5.0836Y-3.2309
X5.0963Y-3.8484
X5.0974Y-3.6696
X5.1109Y-3.9686
X5.126Y-3.2234
X5.1575Y-3.8189
X5.1596Y-4.201
X5.1604Y-3.312
X5.17Y-3.6199
X5.1713Y-3.5763
X5.1715Y-3.3832
X5.2011Y-3.5106
X5.2622Y-3.4065
X5.2874Y-3.8228
X5.3Y-3.8915
X5.3054Y-3.7558
X5.3108Y-3.6884
X5.3189Y-3.3258
X5.3453Y-3.7104
X5.3628Y-3.7656
X5.3643Y-3.8443
X5.3806Y-4.251
X5.4451Y-3.9802
X5.4492Y-4.2503
X5.4577Y-3.7758
X5.475Y-4.0385
X5.5491Y-4.0131
T3
X4.387Y-2.6059
X4.387Y-2.6559
X4.387Y-2.7059
X4.387Y-2.7559
X4.387Y-2.8059
X4.387Y-2.8559
X4.387Y-2.9059
X4.387Y-2.9559
X4.437Y-2.6059
X4.437Y-2.6559
X4.437Y-2.7059
X4.437Y-2.7559
X4.437Y-2.8059
X4.437Y-2.8559
X4.437Y-2.9059
X4.437Y-2.9559
T4
X4.6855Y-4.3504
X5.1255Y-4.3504
T2
G00X4.752Y-2.5502
M15
G01X4.752Y-2.5778
M16
G05
G00X5.0118Y-2.5502
M15
G01X5.0118Y-2.5778
M16
G05
M30
