M48
; DRILL file {KiCad 8.0.5} date 2024-10-11T11:26:04-0700
; FORMAT={-:-/ absolute / inch / decimal}
; #@! TF.CreationDate,2024-10-11T11:26:04-07:00
; #@! TF.GenerationSoftware,Kicad,Pcbnew,8.0.5
; #@! TF.FileFunction,Plated,1,2,PTH
FMAT,2
INCH
; #@! TA.AperFunction,Plated,PTH,ViaDrill
T1C0.0157
; #@! TA.AperFunction,Plated,PTH,ComponentDrill
T2C0.0197
; #@! TA.AperFunction,Plated,PTH,ComponentDrill
T3C0.0256
; #@! TA.AperFunction,Plated,PTH,ComponentDrill
T4C0.1260
%
G90
G05
T1
X4.2844Y-3.4392
X4.3274Y-3.6062
X4.3613Y-3.6876
X4.3886Y-4.0283
X4.4124Y-3.1102
X4.4124Y-3.3381
X4.4602Y-3.8041
X4.4921Y-3.5467
X4.5181Y-3.8149
X4.5472Y-3.8622
X4.5572Y-3.7674
X4.5733Y-2.8434
X4.608Y-3.5956
X4.6142Y-3.8543
X4.6395Y-3.79
X4.6576Y-3.277
X4.6693Y-3.0157
X4.6781Y-3.8016
X4.6921Y-3.4493
X4.6952Y-3.6728
X4.6958Y-4.0439
X4.7008Y-3.563
X4.7082Y-3.712
X4.7348Y-3.9036
X4.7623Y-2.7777
X4.7953Y-2.9724
X4.8046Y-3.1296
X4.8238Y-3.9789
X4.8315Y-3.5154
X4.8386Y-3.8622
X4.8439Y-2.7519
X4.8463Y-3.1713
X4.857Y-3.267
X4.8726Y-3.5201
X4.8748Y-3.6605
X4.8757Y-3.8475
X4.9144Y-2.816
X4.9331Y-4.2165
X4.9349Y-3.8617
X4.9493Y-3.8238
X4.9528Y-3.9724
X4.9843Y-3.5787
X4.9904Y-3.6856
X5.0118Y-3.2756
X5.0197Y-3.3189
X5.0204Y-3.5626
X5.026Y-3.9741
X5.0315Y-4.1063
X5.0472Y-3.2362
X5.0528Y-3.6794
X5.0647Y-2.7434
X5.0668Y-3.8673
X5.0906Y-3.3161
X5.095Y-2.862
X5.1111Y-3.9795
X5.1122Y-3.6794
X5.1142Y-3.8583
X5.1535Y-3.8071
X5.1634Y-4.0177
X5.1693Y-3.626
X5.1696Y-3.6781
X5.1704Y-3.7691
X5.1759Y-3.5672
X5.196Y-3.5091
X5.2261Y-3.391
X5.2584Y-3.2296
X5.2677Y-4.1541
X5.2731Y-3.3916
X5.2992Y-3.2363
X5.315Y-4.0157
X5.3223Y-3.4555
X5.3264Y-3.0079
X5.3328Y-3.7083
X5.3346Y-3.1427
X5.3465Y-3.5046
X5.3477Y-4.2037
X5.3722Y-3.7152
X5.3863Y-4.0599
X5.3941Y-3.5883
X5.4242Y-3.9646
X5.4481Y-3.7671
X5.4724Y-3.9792
X5.475Y-4.0494
X5.4764Y-3.4252
X5.4764Y-3.5292
X5.511Y-3.245
X5.514Y-2.9047
X5.5266Y-3.7749
X5.5396Y-4.1409
T3
X4.3967Y-2.6673
X4.3967Y-2.7173
X4.3967Y-2.7673
X4.3967Y-2.8173
X4.3967Y-2.8673
X4.3967Y-2.9173
X4.3967Y-2.9673
X4.3967Y-3.0173
X4.4467Y-2.6673
X4.4467Y-2.7173
X4.4467Y-2.7673
X4.4467Y-2.8173
X4.4467Y-2.8673
X4.4467Y-2.9173
X4.4467Y-2.9673
X4.4467Y-3.0173
T4
X4.6855Y-4.3504
X5.1255Y-4.3504
T2
G00X4.752Y-2.5502
M15
G01X4.752Y-2.5778
M16
G05
G00X5.0118Y-2.5502
M15
G01X5.0118Y-2.5778
M16
G05
M30
