%TF.GenerationSoftware,KiCad,Pcbnew,8.0.3*%
%TF.CreationDate,2024-07-18T10:32:46-07:00*%
%TF.ProjectId,USB_SPDTK2,5553425f-5350-4445-944b-322e6b696361,rev?*%
%TF.SameCoordinates,Original*%
%TF.FileFunction,Legend,Bot*%
%TF.FilePolarity,Positive*%
%FSLAX46Y46*%
G04 Gerber Fmt 4.6, Leading zero omitted, Abs format (unit mm)*
G04 Created by KiCad (PCBNEW 8.0.3) date 2024-07-18 10:32:46*
%MOMM*%
%LPD*%
G01*
G04 APERTURE LIST*
G04 Aperture macros list*
%AMRoundRect*
0 Rectangle with rounded corners*
0 $1 Rounding radius*
0 $2 $3 $4 $5 $6 $7 $8 $9 X,Y pos of 4 corners*
0 Add a 4 corners polygon primitive as box body*
4,1,4,$2,$3,$4,$5,$6,$7,$8,$9,$2,$3,0*
0 Add four circle primitives for the rounded corners*
1,1,$1+$1,$2,$3*
1,1,$1+$1,$4,$5*
1,1,$1+$1,$6,$7*
1,1,$1+$1,$8,$9*
0 Add four rect primitives between the rounded corners*
20,1,$1+$1,$2,$3,$4,$5,0*
20,1,$1+$1,$4,$5,$6,$7,0*
20,1,$1+$1,$6,$7,$8,$9,0*
20,1,$1+$1,$8,$9,$2,$3,0*%
G04 Aperture macros list end*
%ADD10C,0.150000*%
%ADD11C,0.120000*%
%ADD12R,1.000000X1.000000*%
%ADD13O,1.000000X1.000000*%
%ADD14C,3.600000*%
%ADD15C,5.600000*%
%ADD16C,2.374900*%
%ADD17C,0.990600*%
%ADD18O,0.900000X1.600000*%
%ADD19RoundRect,0.160000X-0.197500X-0.160000X0.197500X-0.160000X0.197500X0.160000X-0.197500X0.160000X0*%
%ADD20RoundRect,0.155000X0.212500X0.155000X-0.212500X0.155000X-0.212500X-0.155000X0.212500X-0.155000X0*%
%ADD21RoundRect,0.155000X-0.212500X-0.155000X0.212500X-0.155000X0.212500X0.155000X-0.212500X0.155000X0*%
%ADD22RoundRect,0.237500X0.300000X0.237500X-0.300000X0.237500X-0.300000X-0.237500X0.300000X-0.237500X0*%
%ADD23RoundRect,0.175000X0.325000X-0.175000X0.325000X0.175000X-0.325000X0.175000X-0.325000X-0.175000X0*%
%ADD24RoundRect,0.150000X0.150000X-0.200000X0.150000X0.200000X-0.150000X0.200000X-0.150000X-0.200000X0*%
%ADD25RoundRect,0.160000X0.197500X0.160000X-0.197500X0.160000X-0.197500X-0.160000X0.197500X-0.160000X0*%
%ADD26C,3.000000*%
%ADD27R,1.500000X0.600000*%
%ADD28RoundRect,0.160000X0.160000X-0.197500X0.160000X0.197500X-0.160000X0.197500X-0.160000X-0.197500X0*%
G04 APERTURE END LIST*
D10*
X136166666Y-101354819D02*
X136499999Y-100878628D01*
X136738094Y-101354819D02*
X136738094Y-100354819D01*
X136738094Y-100354819D02*
X136357142Y-100354819D01*
X136357142Y-100354819D02*
X136261904Y-100402438D01*
X136261904Y-100402438D02*
X136214285Y-100450057D01*
X136214285Y-100450057D02*
X136166666Y-100545295D01*
X136166666Y-100545295D02*
X136166666Y-100688152D01*
X136166666Y-100688152D02*
X136214285Y-100783390D01*
X136214285Y-100783390D02*
X136261904Y-100831009D01*
X136261904Y-100831009D02*
X136357142Y-100878628D01*
X136357142Y-100878628D02*
X136738094Y-100878628D01*
X135690475Y-101354819D02*
X135499999Y-101354819D01*
X135499999Y-101354819D02*
X135404761Y-101307200D01*
X135404761Y-101307200D02*
X135357142Y-101259580D01*
X135357142Y-101259580D02*
X135261904Y-101116723D01*
X135261904Y-101116723D02*
X135214285Y-100926247D01*
X135214285Y-100926247D02*
X135214285Y-100545295D01*
X135214285Y-100545295D02*
X135261904Y-100450057D01*
X135261904Y-100450057D02*
X135309523Y-100402438D01*
X135309523Y-100402438D02*
X135404761Y-100354819D01*
X135404761Y-100354819D02*
X135595237Y-100354819D01*
X135595237Y-100354819D02*
X135690475Y-100402438D01*
X135690475Y-100402438D02*
X135738094Y-100450057D01*
X135738094Y-100450057D02*
X135785713Y-100545295D01*
X135785713Y-100545295D02*
X135785713Y-100783390D01*
X135785713Y-100783390D02*
X135738094Y-100878628D01*
X135738094Y-100878628D02*
X135690475Y-100926247D01*
X135690475Y-100926247D02*
X135595237Y-100973866D01*
X135595237Y-100973866D02*
X135404761Y-100973866D01*
X135404761Y-100973866D02*
X135309523Y-100926247D01*
X135309523Y-100926247D02*
X135261904Y-100878628D01*
X135261904Y-100878628D02*
X135214285Y-100783390D01*
X130610357Y-94899580D02*
X130657976Y-94947200D01*
X130657976Y-94947200D02*
X130800833Y-94994819D01*
X130800833Y-94994819D02*
X130896071Y-94994819D01*
X130896071Y-94994819D02*
X131038928Y-94947200D01*
X131038928Y-94947200D02*
X131134166Y-94851961D01*
X131134166Y-94851961D02*
X131181785Y-94756723D01*
X131181785Y-94756723D02*
X131229404Y-94566247D01*
X131229404Y-94566247D02*
X131229404Y-94423390D01*
X131229404Y-94423390D02*
X131181785Y-94232914D01*
X131181785Y-94232914D02*
X131134166Y-94137676D01*
X131134166Y-94137676D02*
X131038928Y-94042438D01*
X131038928Y-94042438D02*
X130896071Y-93994819D01*
X130896071Y-93994819D02*
X130800833Y-93994819D01*
X130800833Y-93994819D02*
X130657976Y-94042438D01*
X130657976Y-94042438D02*
X130610357Y-94090057D01*
X129657976Y-94994819D02*
X130229404Y-94994819D01*
X129943690Y-94994819D02*
X129943690Y-93994819D01*
X129943690Y-93994819D02*
X130038928Y-94137676D01*
X130038928Y-94137676D02*
X130134166Y-94232914D01*
X130134166Y-94232914D02*
X130229404Y-94280533D01*
X128705595Y-94994819D02*
X129277023Y-94994819D01*
X128991309Y-94994819D02*
X128991309Y-93994819D01*
X128991309Y-93994819D02*
X129086547Y-94137676D01*
X129086547Y-94137676D02*
X129181785Y-94232914D01*
X129181785Y-94232914D02*
X129277023Y-94280533D01*
X124342857Y-98519580D02*
X124390476Y-98567200D01*
X124390476Y-98567200D02*
X124533333Y-98614819D01*
X124533333Y-98614819D02*
X124628571Y-98614819D01*
X124628571Y-98614819D02*
X124771428Y-98567200D01*
X124771428Y-98567200D02*
X124866666Y-98471961D01*
X124866666Y-98471961D02*
X124914285Y-98376723D01*
X124914285Y-98376723D02*
X124961904Y-98186247D01*
X124961904Y-98186247D02*
X124961904Y-98043390D01*
X124961904Y-98043390D02*
X124914285Y-97852914D01*
X124914285Y-97852914D02*
X124866666Y-97757676D01*
X124866666Y-97757676D02*
X124771428Y-97662438D01*
X124771428Y-97662438D02*
X124628571Y-97614819D01*
X124628571Y-97614819D02*
X124533333Y-97614819D01*
X124533333Y-97614819D02*
X124390476Y-97662438D01*
X124390476Y-97662438D02*
X124342857Y-97710057D01*
X123390476Y-98614819D02*
X123961904Y-98614819D01*
X123676190Y-98614819D02*
X123676190Y-97614819D01*
X123676190Y-97614819D02*
X123771428Y-97757676D01*
X123771428Y-97757676D02*
X123866666Y-97852914D01*
X123866666Y-97852914D02*
X123961904Y-97900533D01*
X122771428Y-97614819D02*
X122676190Y-97614819D01*
X122676190Y-97614819D02*
X122580952Y-97662438D01*
X122580952Y-97662438D02*
X122533333Y-97710057D01*
X122533333Y-97710057D02*
X122485714Y-97805295D01*
X122485714Y-97805295D02*
X122438095Y-97995771D01*
X122438095Y-97995771D02*
X122438095Y-98233866D01*
X122438095Y-98233866D02*
X122485714Y-98424342D01*
X122485714Y-98424342D02*
X122533333Y-98519580D01*
X122533333Y-98519580D02*
X122580952Y-98567200D01*
X122580952Y-98567200D02*
X122676190Y-98614819D01*
X122676190Y-98614819D02*
X122771428Y-98614819D01*
X122771428Y-98614819D02*
X122866666Y-98567200D01*
X122866666Y-98567200D02*
X122914285Y-98519580D01*
X122914285Y-98519580D02*
X122961904Y-98424342D01*
X122961904Y-98424342D02*
X123009523Y-98233866D01*
X123009523Y-98233866D02*
X123009523Y-97995771D01*
X123009523Y-97995771D02*
X122961904Y-97805295D01*
X122961904Y-97805295D02*
X122914285Y-97710057D01*
X122914285Y-97710057D02*
X122866666Y-97662438D01*
X122866666Y-97662438D02*
X122771428Y-97614819D01*
X123866666Y-89499580D02*
X123914285Y-89547200D01*
X123914285Y-89547200D02*
X124057142Y-89594819D01*
X124057142Y-89594819D02*
X124152380Y-89594819D01*
X124152380Y-89594819D02*
X124295237Y-89547200D01*
X124295237Y-89547200D02*
X124390475Y-89451961D01*
X124390475Y-89451961D02*
X124438094Y-89356723D01*
X124438094Y-89356723D02*
X124485713Y-89166247D01*
X124485713Y-89166247D02*
X124485713Y-89023390D01*
X124485713Y-89023390D02*
X124438094Y-88832914D01*
X124438094Y-88832914D02*
X124390475Y-88737676D01*
X124390475Y-88737676D02*
X124295237Y-88642438D01*
X124295237Y-88642438D02*
X124152380Y-88594819D01*
X124152380Y-88594819D02*
X124057142Y-88594819D01*
X124057142Y-88594819D02*
X123914285Y-88642438D01*
X123914285Y-88642438D02*
X123866666Y-88690057D01*
X123390475Y-89594819D02*
X123199999Y-89594819D01*
X123199999Y-89594819D02*
X123104761Y-89547200D01*
X123104761Y-89547200D02*
X123057142Y-89499580D01*
X123057142Y-89499580D02*
X122961904Y-89356723D01*
X122961904Y-89356723D02*
X122914285Y-89166247D01*
X122914285Y-89166247D02*
X122914285Y-88785295D01*
X122914285Y-88785295D02*
X122961904Y-88690057D01*
X122961904Y-88690057D02*
X123009523Y-88642438D01*
X123009523Y-88642438D02*
X123104761Y-88594819D01*
X123104761Y-88594819D02*
X123295237Y-88594819D01*
X123295237Y-88594819D02*
X123390475Y-88642438D01*
X123390475Y-88642438D02*
X123438094Y-88690057D01*
X123438094Y-88690057D02*
X123485713Y-88785295D01*
X123485713Y-88785295D02*
X123485713Y-89023390D01*
X123485713Y-89023390D02*
X123438094Y-89118628D01*
X123438094Y-89118628D02*
X123390475Y-89166247D01*
X123390475Y-89166247D02*
X123295237Y-89213866D01*
X123295237Y-89213866D02*
X123104761Y-89213866D01*
X123104761Y-89213866D02*
X123009523Y-89166247D01*
X123009523Y-89166247D02*
X122961904Y-89118628D01*
X122961904Y-89118628D02*
X122914285Y-89023390D01*
X112805357Y-79759580D02*
X112852976Y-79807200D01*
X112852976Y-79807200D02*
X112995833Y-79854819D01*
X112995833Y-79854819D02*
X113091071Y-79854819D01*
X113091071Y-79854819D02*
X113233928Y-79807200D01*
X113233928Y-79807200D02*
X113329166Y-79711961D01*
X113329166Y-79711961D02*
X113376785Y-79616723D01*
X113376785Y-79616723D02*
X113424404Y-79426247D01*
X113424404Y-79426247D02*
X113424404Y-79283390D01*
X113424404Y-79283390D02*
X113376785Y-79092914D01*
X113376785Y-79092914D02*
X113329166Y-78997676D01*
X113329166Y-78997676D02*
X113233928Y-78902438D01*
X113233928Y-78902438D02*
X113091071Y-78854819D01*
X113091071Y-78854819D02*
X112995833Y-78854819D01*
X112995833Y-78854819D02*
X112852976Y-78902438D01*
X112852976Y-78902438D02*
X112805357Y-78950057D01*
X111852976Y-79854819D02*
X112424404Y-79854819D01*
X112138690Y-79854819D02*
X112138690Y-78854819D01*
X112138690Y-78854819D02*
X112233928Y-78997676D01*
X112233928Y-78997676D02*
X112329166Y-79092914D01*
X112329166Y-79092914D02*
X112424404Y-79140533D01*
X110948214Y-78854819D02*
X111424404Y-78854819D01*
X111424404Y-78854819D02*
X111472023Y-79331009D01*
X111472023Y-79331009D02*
X111424404Y-79283390D01*
X111424404Y-79283390D02*
X111329166Y-79235771D01*
X111329166Y-79235771D02*
X111091071Y-79235771D01*
X111091071Y-79235771D02*
X110995833Y-79283390D01*
X110995833Y-79283390D02*
X110948214Y-79331009D01*
X110948214Y-79331009D02*
X110900595Y-79426247D01*
X110900595Y-79426247D02*
X110900595Y-79664342D01*
X110900595Y-79664342D02*
X110948214Y-79759580D01*
X110948214Y-79759580D02*
X110995833Y-79807200D01*
X110995833Y-79807200D02*
X111091071Y-79854819D01*
X111091071Y-79854819D02*
X111329166Y-79854819D01*
X111329166Y-79854819D02*
X111424404Y-79807200D01*
X111424404Y-79807200D02*
X111472023Y-79759580D01*
X127954819Y-70741905D02*
X126954819Y-70741905D01*
X126954819Y-70741905D02*
X126954819Y-70980000D01*
X126954819Y-70980000D02*
X127002438Y-71122857D01*
X127002438Y-71122857D02*
X127097676Y-71218095D01*
X127097676Y-71218095D02*
X127192914Y-71265714D01*
X127192914Y-71265714D02*
X127383390Y-71313333D01*
X127383390Y-71313333D02*
X127526247Y-71313333D01*
X127526247Y-71313333D02*
X127716723Y-71265714D01*
X127716723Y-71265714D02*
X127811961Y-71218095D01*
X127811961Y-71218095D02*
X127907200Y-71122857D01*
X127907200Y-71122857D02*
X127954819Y-70980000D01*
X127954819Y-70980000D02*
X127954819Y-70741905D01*
X127050057Y-71694286D02*
X127002438Y-71741905D01*
X127002438Y-71741905D02*
X126954819Y-71837143D01*
X126954819Y-71837143D02*
X126954819Y-72075238D01*
X126954819Y-72075238D02*
X127002438Y-72170476D01*
X127002438Y-72170476D02*
X127050057Y-72218095D01*
X127050057Y-72218095D02*
X127145295Y-72265714D01*
X127145295Y-72265714D02*
X127240533Y-72265714D01*
X127240533Y-72265714D02*
X127383390Y-72218095D01*
X127383390Y-72218095D02*
X127954819Y-71646667D01*
X127954819Y-71646667D02*
X127954819Y-72265714D01*
X128342857Y-99259580D02*
X128390476Y-99307200D01*
X128390476Y-99307200D02*
X128533333Y-99354819D01*
X128533333Y-99354819D02*
X128628571Y-99354819D01*
X128628571Y-99354819D02*
X128771428Y-99307200D01*
X128771428Y-99307200D02*
X128866666Y-99211961D01*
X128866666Y-99211961D02*
X128914285Y-99116723D01*
X128914285Y-99116723D02*
X128961904Y-98926247D01*
X128961904Y-98926247D02*
X128961904Y-98783390D01*
X128961904Y-98783390D02*
X128914285Y-98592914D01*
X128914285Y-98592914D02*
X128866666Y-98497676D01*
X128866666Y-98497676D02*
X128771428Y-98402438D01*
X128771428Y-98402438D02*
X128628571Y-98354819D01*
X128628571Y-98354819D02*
X128533333Y-98354819D01*
X128533333Y-98354819D02*
X128390476Y-98402438D01*
X128390476Y-98402438D02*
X128342857Y-98450057D01*
X127390476Y-99354819D02*
X127961904Y-99354819D01*
X127676190Y-99354819D02*
X127676190Y-98354819D01*
X127676190Y-98354819D02*
X127771428Y-98497676D01*
X127771428Y-98497676D02*
X127866666Y-98592914D01*
X127866666Y-98592914D02*
X127961904Y-98640533D01*
X127057142Y-98354819D02*
X126438095Y-98354819D01*
X126438095Y-98354819D02*
X126771428Y-98735771D01*
X126771428Y-98735771D02*
X126628571Y-98735771D01*
X126628571Y-98735771D02*
X126533333Y-98783390D01*
X126533333Y-98783390D02*
X126485714Y-98831009D01*
X126485714Y-98831009D02*
X126438095Y-98926247D01*
X126438095Y-98926247D02*
X126438095Y-99164342D01*
X126438095Y-99164342D02*
X126485714Y-99259580D01*
X126485714Y-99259580D02*
X126533333Y-99307200D01*
X126533333Y-99307200D02*
X126628571Y-99354819D01*
X126628571Y-99354819D02*
X126914285Y-99354819D01*
X126914285Y-99354819D02*
X127009523Y-99307200D01*
X127009523Y-99307200D02*
X127057142Y-99259580D01*
X129942857Y-91384819D02*
X130276190Y-90908628D01*
X130514285Y-91384819D02*
X130514285Y-90384819D01*
X130514285Y-90384819D02*
X130133333Y-90384819D01*
X130133333Y-90384819D02*
X130038095Y-90432438D01*
X130038095Y-90432438D02*
X129990476Y-90480057D01*
X129990476Y-90480057D02*
X129942857Y-90575295D01*
X129942857Y-90575295D02*
X129942857Y-90718152D01*
X129942857Y-90718152D02*
X129990476Y-90813390D01*
X129990476Y-90813390D02*
X130038095Y-90861009D01*
X130038095Y-90861009D02*
X130133333Y-90908628D01*
X130133333Y-90908628D02*
X130514285Y-90908628D01*
X128990476Y-91384819D02*
X129561904Y-91384819D01*
X129276190Y-91384819D02*
X129276190Y-90384819D01*
X129276190Y-90384819D02*
X129371428Y-90527676D01*
X129371428Y-90527676D02*
X129466666Y-90622914D01*
X129466666Y-90622914D02*
X129561904Y-90670533D01*
X128657142Y-90384819D02*
X127990476Y-90384819D01*
X127990476Y-90384819D02*
X128419047Y-91384819D01*
X132633333Y-97701009D02*
X132966666Y-97701009D01*
X132966666Y-98224819D02*
X132966666Y-97224819D01*
X132966666Y-97224819D02*
X132490476Y-97224819D01*
X131776190Y-97701009D02*
X131633333Y-97748628D01*
X131633333Y-97748628D02*
X131585714Y-97796247D01*
X131585714Y-97796247D02*
X131538095Y-97891485D01*
X131538095Y-97891485D02*
X131538095Y-98034342D01*
X131538095Y-98034342D02*
X131585714Y-98129580D01*
X131585714Y-98129580D02*
X131633333Y-98177200D01*
X131633333Y-98177200D02*
X131728571Y-98224819D01*
X131728571Y-98224819D02*
X132109523Y-98224819D01*
X132109523Y-98224819D02*
X132109523Y-97224819D01*
X132109523Y-97224819D02*
X131776190Y-97224819D01*
X131776190Y-97224819D02*
X131680952Y-97272438D01*
X131680952Y-97272438D02*
X131633333Y-97320057D01*
X131633333Y-97320057D02*
X131585714Y-97415295D01*
X131585714Y-97415295D02*
X131585714Y-97510533D01*
X131585714Y-97510533D02*
X131633333Y-97605771D01*
X131633333Y-97605771D02*
X131680952Y-97653390D01*
X131680952Y-97653390D02*
X131776190Y-97701009D01*
X131776190Y-97701009D02*
X132109523Y-97701009D01*
X130585714Y-98224819D02*
X131157142Y-98224819D01*
X130871428Y-98224819D02*
X130871428Y-97224819D01*
X130871428Y-97224819D02*
X130966666Y-97367676D01*
X130966666Y-97367676D02*
X131061904Y-97462914D01*
X131061904Y-97462914D02*
X131157142Y-97510533D01*
X129942857Y-79799580D02*
X129990476Y-79847200D01*
X129990476Y-79847200D02*
X130133333Y-79894819D01*
X130133333Y-79894819D02*
X130228571Y-79894819D01*
X130228571Y-79894819D02*
X130371428Y-79847200D01*
X130371428Y-79847200D02*
X130466666Y-79751961D01*
X130466666Y-79751961D02*
X130514285Y-79656723D01*
X130514285Y-79656723D02*
X130561904Y-79466247D01*
X130561904Y-79466247D02*
X130561904Y-79323390D01*
X130561904Y-79323390D02*
X130514285Y-79132914D01*
X130514285Y-79132914D02*
X130466666Y-79037676D01*
X130466666Y-79037676D02*
X130371428Y-78942438D01*
X130371428Y-78942438D02*
X130228571Y-78894819D01*
X130228571Y-78894819D02*
X130133333Y-78894819D01*
X130133333Y-78894819D02*
X129990476Y-78942438D01*
X129990476Y-78942438D02*
X129942857Y-78990057D01*
X129561904Y-78990057D02*
X129514285Y-78942438D01*
X129514285Y-78942438D02*
X129419047Y-78894819D01*
X129419047Y-78894819D02*
X129180952Y-78894819D01*
X129180952Y-78894819D02*
X129085714Y-78942438D01*
X129085714Y-78942438D02*
X129038095Y-78990057D01*
X129038095Y-78990057D02*
X128990476Y-79085295D01*
X128990476Y-79085295D02*
X128990476Y-79180533D01*
X128990476Y-79180533D02*
X129038095Y-79323390D01*
X129038095Y-79323390D02*
X129609523Y-79894819D01*
X129609523Y-79894819D02*
X128990476Y-79894819D01*
X128038095Y-79894819D02*
X128609523Y-79894819D01*
X128323809Y-79894819D02*
X128323809Y-78894819D01*
X128323809Y-78894819D02*
X128419047Y-79037676D01*
X128419047Y-79037676D02*
X128514285Y-79132914D01*
X128514285Y-79132914D02*
X128609523Y-79180533D01*
X118671904Y-86874819D02*
X118671904Y-87684342D01*
X118671904Y-87684342D02*
X118624285Y-87779580D01*
X118624285Y-87779580D02*
X118576666Y-87827200D01*
X118576666Y-87827200D02*
X118481428Y-87874819D01*
X118481428Y-87874819D02*
X118290952Y-87874819D01*
X118290952Y-87874819D02*
X118195714Y-87827200D01*
X118195714Y-87827200D02*
X118148095Y-87779580D01*
X118148095Y-87779580D02*
X118100476Y-87684342D01*
X118100476Y-87684342D02*
X118100476Y-86874819D01*
X117195714Y-86874819D02*
X117386190Y-86874819D01*
X117386190Y-86874819D02*
X117481428Y-86922438D01*
X117481428Y-86922438D02*
X117529047Y-86970057D01*
X117529047Y-86970057D02*
X117624285Y-87112914D01*
X117624285Y-87112914D02*
X117671904Y-87303390D01*
X117671904Y-87303390D02*
X117671904Y-87684342D01*
X117671904Y-87684342D02*
X117624285Y-87779580D01*
X117624285Y-87779580D02*
X117576666Y-87827200D01*
X117576666Y-87827200D02*
X117481428Y-87874819D01*
X117481428Y-87874819D02*
X117290952Y-87874819D01*
X117290952Y-87874819D02*
X117195714Y-87827200D01*
X117195714Y-87827200D02*
X117148095Y-87779580D01*
X117148095Y-87779580D02*
X117100476Y-87684342D01*
X117100476Y-87684342D02*
X117100476Y-87446247D01*
X117100476Y-87446247D02*
X117148095Y-87351009D01*
X117148095Y-87351009D02*
X117195714Y-87303390D01*
X117195714Y-87303390D02*
X117290952Y-87255771D01*
X117290952Y-87255771D02*
X117481428Y-87255771D01*
X117481428Y-87255771D02*
X117576666Y-87303390D01*
X117576666Y-87303390D02*
X117624285Y-87351009D01*
X117624285Y-87351009D02*
X117671904Y-87446247D01*
X130654819Y-86057142D02*
X130178628Y-85723809D01*
X130654819Y-85485714D02*
X129654819Y-85485714D01*
X129654819Y-85485714D02*
X129654819Y-85866666D01*
X129654819Y-85866666D02*
X129702438Y-85961904D01*
X129702438Y-85961904D02*
X129750057Y-86009523D01*
X129750057Y-86009523D02*
X129845295Y-86057142D01*
X129845295Y-86057142D02*
X129988152Y-86057142D01*
X129988152Y-86057142D02*
X130083390Y-86009523D01*
X130083390Y-86009523D02*
X130131009Y-85961904D01*
X130131009Y-85961904D02*
X130178628Y-85866666D01*
X130178628Y-85866666D02*
X130178628Y-85485714D01*
X130654819Y-87009523D02*
X130654819Y-86438095D01*
X130654819Y-86723809D02*
X129654819Y-86723809D01*
X129654819Y-86723809D02*
X129797676Y-86628571D01*
X129797676Y-86628571D02*
X129892914Y-86533333D01*
X129892914Y-86533333D02*
X129940533Y-86438095D01*
X129988152Y-87866666D02*
X130654819Y-87866666D01*
X129607200Y-87628571D02*
X130321485Y-87390476D01*
X130321485Y-87390476D02*
X130321485Y-88009523D01*
X113140357Y-87184819D02*
X113473690Y-86708628D01*
X113711785Y-87184819D02*
X113711785Y-86184819D01*
X113711785Y-86184819D02*
X113330833Y-86184819D01*
X113330833Y-86184819D02*
X113235595Y-86232438D01*
X113235595Y-86232438D02*
X113187976Y-86280057D01*
X113187976Y-86280057D02*
X113140357Y-86375295D01*
X113140357Y-86375295D02*
X113140357Y-86518152D01*
X113140357Y-86518152D02*
X113187976Y-86613390D01*
X113187976Y-86613390D02*
X113235595Y-86661009D01*
X113235595Y-86661009D02*
X113330833Y-86708628D01*
X113330833Y-86708628D02*
X113711785Y-86708628D01*
X112187976Y-87184819D02*
X112759404Y-87184819D01*
X112473690Y-87184819D02*
X112473690Y-86184819D01*
X112473690Y-86184819D02*
X112568928Y-86327676D01*
X112568928Y-86327676D02*
X112664166Y-86422914D01*
X112664166Y-86422914D02*
X112759404Y-86470533D01*
X111616547Y-86613390D02*
X111711785Y-86565771D01*
X111711785Y-86565771D02*
X111759404Y-86518152D01*
X111759404Y-86518152D02*
X111807023Y-86422914D01*
X111807023Y-86422914D02*
X111807023Y-86375295D01*
X111807023Y-86375295D02*
X111759404Y-86280057D01*
X111759404Y-86280057D02*
X111711785Y-86232438D01*
X111711785Y-86232438D02*
X111616547Y-86184819D01*
X111616547Y-86184819D02*
X111426071Y-86184819D01*
X111426071Y-86184819D02*
X111330833Y-86232438D01*
X111330833Y-86232438D02*
X111283214Y-86280057D01*
X111283214Y-86280057D02*
X111235595Y-86375295D01*
X111235595Y-86375295D02*
X111235595Y-86422914D01*
X111235595Y-86422914D02*
X111283214Y-86518152D01*
X111283214Y-86518152D02*
X111330833Y-86565771D01*
X111330833Y-86565771D02*
X111426071Y-86613390D01*
X111426071Y-86613390D02*
X111616547Y-86613390D01*
X111616547Y-86613390D02*
X111711785Y-86661009D01*
X111711785Y-86661009D02*
X111759404Y-86708628D01*
X111759404Y-86708628D02*
X111807023Y-86803866D01*
X111807023Y-86803866D02*
X111807023Y-86994342D01*
X111807023Y-86994342D02*
X111759404Y-87089580D01*
X111759404Y-87089580D02*
X111711785Y-87137200D01*
X111711785Y-87137200D02*
X111616547Y-87184819D01*
X111616547Y-87184819D02*
X111426071Y-87184819D01*
X111426071Y-87184819D02*
X111330833Y-87137200D01*
X111330833Y-87137200D02*
X111283214Y-87089580D01*
X111283214Y-87089580D02*
X111235595Y-86994342D01*
X111235595Y-86994342D02*
X111235595Y-86803866D01*
X111235595Y-86803866D02*
X111283214Y-86708628D01*
X111283214Y-86708628D02*
X111330833Y-86661009D01*
X111330833Y-86661009D02*
X111426071Y-86613390D01*
X132954819Y-80657142D02*
X132478628Y-80323809D01*
X132954819Y-80085714D02*
X131954819Y-80085714D01*
X131954819Y-80085714D02*
X131954819Y-80466666D01*
X131954819Y-80466666D02*
X132002438Y-80561904D01*
X132002438Y-80561904D02*
X132050057Y-80609523D01*
X132050057Y-80609523D02*
X132145295Y-80657142D01*
X132145295Y-80657142D02*
X132288152Y-80657142D01*
X132288152Y-80657142D02*
X132383390Y-80609523D01*
X132383390Y-80609523D02*
X132431009Y-80561904D01*
X132431009Y-80561904D02*
X132478628Y-80466666D01*
X132478628Y-80466666D02*
X132478628Y-80085714D01*
X132954819Y-81609523D02*
X132954819Y-81038095D01*
X132954819Y-81323809D02*
X131954819Y-81323809D01*
X131954819Y-81323809D02*
X132097676Y-81228571D01*
X132097676Y-81228571D02*
X132192914Y-81133333D01*
X132192914Y-81133333D02*
X132240533Y-81038095D01*
X131954819Y-81942857D02*
X131954819Y-82561904D01*
X131954819Y-82561904D02*
X132335771Y-82228571D01*
X132335771Y-82228571D02*
X132335771Y-82371428D01*
X132335771Y-82371428D02*
X132383390Y-82466666D01*
X132383390Y-82466666D02*
X132431009Y-82514285D01*
X132431009Y-82514285D02*
X132526247Y-82561904D01*
X132526247Y-82561904D02*
X132764342Y-82561904D01*
X132764342Y-82561904D02*
X132859580Y-82514285D01*
X132859580Y-82514285D02*
X132907200Y-82466666D01*
X132907200Y-82466666D02*
X132954819Y-82371428D01*
X132954819Y-82371428D02*
X132954819Y-82085714D01*
X132954819Y-82085714D02*
X132907200Y-81990476D01*
X132907200Y-81990476D02*
X132859580Y-81942857D01*
X125854819Y-101957142D02*
X125378628Y-101623809D01*
X125854819Y-101385714D02*
X124854819Y-101385714D01*
X124854819Y-101385714D02*
X124854819Y-101766666D01*
X124854819Y-101766666D02*
X124902438Y-101861904D01*
X124902438Y-101861904D02*
X124950057Y-101909523D01*
X124950057Y-101909523D02*
X125045295Y-101957142D01*
X125045295Y-101957142D02*
X125188152Y-101957142D01*
X125188152Y-101957142D02*
X125283390Y-101909523D01*
X125283390Y-101909523D02*
X125331009Y-101861904D01*
X125331009Y-101861904D02*
X125378628Y-101766666D01*
X125378628Y-101766666D02*
X125378628Y-101385714D01*
X125854819Y-102909523D02*
X125854819Y-102338095D01*
X125854819Y-102623809D02*
X124854819Y-102623809D01*
X124854819Y-102623809D02*
X124997676Y-102528571D01*
X124997676Y-102528571D02*
X125092914Y-102433333D01*
X125092914Y-102433333D02*
X125140533Y-102338095D01*
X125854819Y-103861904D02*
X125854819Y-103290476D01*
X125854819Y-103576190D02*
X124854819Y-103576190D01*
X124854819Y-103576190D02*
X124997676Y-103480952D01*
X124997676Y-103480952D02*
X125092914Y-103385714D01*
X125092914Y-103385714D02*
X125140533Y-103290476D01*
X135942857Y-92354819D02*
X136276190Y-91878628D01*
X136514285Y-92354819D02*
X136514285Y-91354819D01*
X136514285Y-91354819D02*
X136133333Y-91354819D01*
X136133333Y-91354819D02*
X136038095Y-91402438D01*
X136038095Y-91402438D02*
X135990476Y-91450057D01*
X135990476Y-91450057D02*
X135942857Y-91545295D01*
X135942857Y-91545295D02*
X135942857Y-91688152D01*
X135942857Y-91688152D02*
X135990476Y-91783390D01*
X135990476Y-91783390D02*
X136038095Y-91831009D01*
X136038095Y-91831009D02*
X136133333Y-91878628D01*
X136133333Y-91878628D02*
X136514285Y-91878628D01*
X134990476Y-92354819D02*
X135561904Y-92354819D01*
X135276190Y-92354819D02*
X135276190Y-91354819D01*
X135276190Y-91354819D02*
X135371428Y-91497676D01*
X135371428Y-91497676D02*
X135466666Y-91592914D01*
X135466666Y-91592914D02*
X135561904Y-91640533D01*
X134133333Y-91354819D02*
X134323809Y-91354819D01*
X134323809Y-91354819D02*
X134419047Y-91402438D01*
X134419047Y-91402438D02*
X134466666Y-91450057D01*
X134466666Y-91450057D02*
X134561904Y-91592914D01*
X134561904Y-91592914D02*
X134609523Y-91783390D01*
X134609523Y-91783390D02*
X134609523Y-92164342D01*
X134609523Y-92164342D02*
X134561904Y-92259580D01*
X134561904Y-92259580D02*
X134514285Y-92307200D01*
X134514285Y-92307200D02*
X134419047Y-92354819D01*
X134419047Y-92354819D02*
X134228571Y-92354819D01*
X134228571Y-92354819D02*
X134133333Y-92307200D01*
X134133333Y-92307200D02*
X134085714Y-92259580D01*
X134085714Y-92259580D02*
X134038095Y-92164342D01*
X134038095Y-92164342D02*
X134038095Y-91926247D01*
X134038095Y-91926247D02*
X134085714Y-91831009D01*
X134085714Y-91831009D02*
X134133333Y-91783390D01*
X134133333Y-91783390D02*
X134228571Y-91735771D01*
X134228571Y-91735771D02*
X134419047Y-91735771D01*
X134419047Y-91735771D02*
X134514285Y-91783390D01*
X134514285Y-91783390D02*
X134561904Y-91831009D01*
X134561904Y-91831009D02*
X134609523Y-91926247D01*
X135854819Y-83257142D02*
X135378628Y-82923809D01*
X135854819Y-82685714D02*
X134854819Y-82685714D01*
X134854819Y-82685714D02*
X134854819Y-83066666D01*
X134854819Y-83066666D02*
X134902438Y-83161904D01*
X134902438Y-83161904D02*
X134950057Y-83209523D01*
X134950057Y-83209523D02*
X135045295Y-83257142D01*
X135045295Y-83257142D02*
X135188152Y-83257142D01*
X135188152Y-83257142D02*
X135283390Y-83209523D01*
X135283390Y-83209523D02*
X135331009Y-83161904D01*
X135331009Y-83161904D02*
X135378628Y-83066666D01*
X135378628Y-83066666D02*
X135378628Y-82685714D01*
X135854819Y-84209523D02*
X135854819Y-83638095D01*
X135854819Y-83923809D02*
X134854819Y-83923809D01*
X134854819Y-83923809D02*
X134997676Y-83828571D01*
X134997676Y-83828571D02*
X135092914Y-83733333D01*
X135092914Y-83733333D02*
X135140533Y-83638095D01*
X134950057Y-84590476D02*
X134902438Y-84638095D01*
X134902438Y-84638095D02*
X134854819Y-84733333D01*
X134854819Y-84733333D02*
X134854819Y-84971428D01*
X134854819Y-84971428D02*
X134902438Y-85066666D01*
X134902438Y-85066666D02*
X134950057Y-85114285D01*
X134950057Y-85114285D02*
X135045295Y-85161904D01*
X135045295Y-85161904D02*
X135140533Y-85161904D01*
X135140533Y-85161904D02*
X135283390Y-85114285D01*
X135283390Y-85114285D02*
X135854819Y-84542857D01*
X135854819Y-84542857D02*
X135854819Y-85161904D01*
D11*
%TO.C,R9*%
X136167621Y-99320000D02*
X135832379Y-99320000D01*
X136167621Y-100080000D02*
X135832379Y-100080000D01*
%TO.C,C11*%
X129851665Y-95340000D02*
X130083335Y-95340000D01*
X129851665Y-96060000D02*
X130083335Y-96060000D01*
%TO.C,C10*%
X123815835Y-96640000D02*
X123584165Y-96640000D01*
X123815835Y-97360000D02*
X123584165Y-97360000D01*
%TO.C,C9*%
X123584165Y-89940000D02*
X123815835Y-89940000D01*
X123584165Y-90660000D02*
X123815835Y-90660000D01*
%TO.C,C15*%
X111916233Y-77390000D02*
X112208767Y-77390000D01*
X111916233Y-78410000D02*
X112208767Y-78410000D01*
%TO.C,D2*%
X123240000Y-70850000D02*
X123240000Y-72150000D01*
X126360000Y-72120000D02*
X126360000Y-70850000D01*
X126640000Y-72740000D02*
X126310000Y-72500000D01*
X126640000Y-72260000D01*
X126640000Y-72740000D01*
G36*
X126640000Y-72740000D02*
G01*
X126310000Y-72500000D01*
X126640000Y-72260000D01*
X126640000Y-72740000D01*
G37*
%TO.C,C13*%
X128851665Y-97340000D02*
X129083335Y-97340000D01*
X128851665Y-98060000D02*
X129083335Y-98060000D01*
%TO.C,R17*%
X129132379Y-91720000D02*
X129467621Y-91720000D01*
X129132379Y-92480000D02*
X129467621Y-92480000D01*
%TO.C,FB1*%
X131653733Y-98690000D02*
X131946267Y-98690000D01*
X131653733Y-99710000D02*
X131946267Y-99710000D01*
%TO.C,C21*%
X129184165Y-80240000D02*
X129415835Y-80240000D01*
X129184165Y-80960000D02*
X129415835Y-80960000D01*
%TO.C,U6*%
X119300000Y-73950000D02*
X119300000Y-73470000D01*
X119300000Y-86530000D02*
X119300000Y-86050000D01*
X123900000Y-73470000D02*
X119300000Y-73470000D01*
X123900000Y-73470000D02*
X123900000Y-73950000D01*
X123900000Y-86530000D02*
X119300000Y-86530000D01*
X123900000Y-86530000D02*
X123900000Y-86050000D01*
X117115000Y-86605000D02*
X116635000Y-86605000D01*
X116875000Y-86275000D01*
X117115000Y-86605000D01*
G36*
X117115000Y-86605000D02*
G01*
X116635000Y-86605000D01*
X116875000Y-86275000D01*
X117115000Y-86605000D01*
G37*
%TO.C,R14*%
X129820000Y-83932379D02*
X129820000Y-84267621D01*
X130580000Y-83932379D02*
X130580000Y-84267621D01*
%TO.C,R18*%
X112329879Y-87520000D02*
X112665121Y-87520000D01*
X112329879Y-88280000D02*
X112665121Y-88280000D01*
%TO.C,R13*%
X131820000Y-83832379D02*
X131820000Y-84167621D01*
X132580000Y-83832379D02*
X132580000Y-84167621D01*
%TO.C,R11*%
X126520000Y-102732379D02*
X126520000Y-103067621D01*
X127280000Y-102732379D02*
X127280000Y-103067621D01*
%TO.C,R16*%
X135367621Y-92720000D02*
X135032379Y-92720000D01*
X135367621Y-93480000D02*
X135032379Y-93480000D01*
%TO.C,R12*%
X133620000Y-83807379D02*
X133620000Y-84142621D01*
X134380000Y-83807379D02*
X134380000Y-84142621D01*
%TD*%
%LPC*%
D12*
%TO.C,J3*%
X111430000Y-66190000D03*
D13*
X112700000Y-66190000D03*
X111430000Y-67460000D03*
X112700000Y-67460000D03*
X111430000Y-68730000D03*
X112700000Y-68730000D03*
X111430000Y-70000000D03*
X112700000Y-70000000D03*
X111430000Y-71270000D03*
X112700000Y-71270000D03*
X111430000Y-72540000D03*
X112700000Y-72540000D03*
X111430000Y-73810000D03*
X112700000Y-73810000D03*
X111430000Y-75080000D03*
X112700000Y-75080000D03*
%TD*%
D14*
%TO.C,H1*%
X119012000Y-110500000D03*
D15*
X119012000Y-110500000D03*
%TD*%
D16*
%TO.C,J2*%
X110525000Y-105740000D03*
D17*
X113065000Y-105740000D03*
D16*
X115605000Y-105740000D03*
X110525000Y-100025000D03*
X115605000Y-100025000D03*
D17*
X112049000Y-98120000D03*
X114081000Y-98120000D03*
%TD*%
D14*
%TO.C,H2*%
X130188000Y-110500000D03*
D15*
X130188000Y-110500000D03*
%TD*%
D18*
%TO.C,J1*%
X127300000Y-65125000D03*
X120700000Y-65125000D03*
%TD*%
D19*
%TO.C,R9*%
X135402500Y-99700000D03*
X136597500Y-99700000D03*
%TD*%
D20*
%TO.C,C11*%
X130535000Y-95700000D03*
X129400000Y-95700000D03*
%TD*%
D21*
%TO.C,C10*%
X123132500Y-97000000D03*
X124267500Y-97000000D03*
%TD*%
D20*
%TO.C,C9*%
X124267500Y-90300000D03*
X123132500Y-90300000D03*
%TD*%
D22*
%TO.C,C15*%
X112925000Y-77900000D03*
X111200000Y-77900000D03*
%TD*%
D23*
%TO.C,D2*%
X125550000Y-72500000D03*
D24*
X123850000Y-72500000D03*
X123850000Y-70500000D03*
X125750000Y-70500000D03*
%TD*%
D20*
%TO.C,C13*%
X129535000Y-97700000D03*
X128400000Y-97700000D03*
%TD*%
D25*
%TO.C,R17*%
X129897500Y-92100000D03*
X128702500Y-92100000D03*
%TD*%
D22*
%TO.C,FB1*%
X132662500Y-99200000D03*
X130937500Y-99200000D03*
%TD*%
D20*
%TO.C,C21*%
X129867500Y-80600000D03*
X128732500Y-80600000D03*
%TD*%
D26*
%TO.C,FID3*%
X109900000Y-111500000D03*
%TD*%
D27*
%TO.C,U6*%
X116850000Y-85715000D03*
X116850000Y-84445000D03*
X116850000Y-83175000D03*
X116850000Y-81905000D03*
X116850000Y-80635000D03*
X116850000Y-79365000D03*
X116850000Y-78095000D03*
X116850000Y-76825000D03*
X116850000Y-75555000D03*
X116850000Y-74285000D03*
X126350000Y-74285000D03*
X126350000Y-75555000D03*
X126350000Y-76825000D03*
X126350000Y-78095000D03*
X126350000Y-79365000D03*
X126350000Y-80635000D03*
X126350000Y-81905000D03*
X126350000Y-83175000D03*
X126350000Y-84445000D03*
X126350000Y-85715000D03*
%TD*%
D28*
%TO.C,R14*%
X130200000Y-84697500D03*
X130200000Y-83502500D03*
%TD*%
D25*
%TO.C,R18*%
X113095000Y-87900000D03*
X111900000Y-87900000D03*
%TD*%
D28*
%TO.C,R13*%
X132200000Y-84597500D03*
X132200000Y-83402500D03*
%TD*%
%TO.C,R11*%
X126900000Y-103497500D03*
X126900000Y-102302500D03*
%TD*%
D19*
%TO.C,R16*%
X134602500Y-93100000D03*
X135797500Y-93100000D03*
%TD*%
D28*
%TO.C,R12*%
X134000000Y-84572500D03*
X134000000Y-83377500D03*
%TD*%
D26*
%TO.C,FID4*%
X139400000Y-66000000D03*
%TD*%
%LPD*%
M02*
