%TF.GenerationSoftware,KiCad,Pcbnew,8.0.3*%
%TF.CreationDate,2024-07-18T10:32:46-07:00*%
%TF.ProjectId,USB_SPDTK2,5553425f-5350-4445-944b-322e6b696361,rev?*%
%TF.SameCoordinates,Original*%
%TF.FileFunction,Copper,L2,Bot*%
%TF.FilePolarity,Positive*%
%FSLAX46Y46*%
G04 Gerber Fmt 4.6, Leading zero omitted, Abs format (unit mm)*
G04 Created by KiCad (PCBNEW 8.0.3) date 2024-07-18 10:32:46*
%MOMM*%
%LPD*%
G01*
G04 APERTURE LIST*
G04 Aperture macros list*
%AMRoundRect*
0 Rectangle with rounded corners*
0 $1 Rounding radius*
0 $2 $3 $4 $5 $6 $7 $8 $9 X,Y pos of 4 corners*
0 Add a 4 corners polygon primitive as box body*
4,1,4,$2,$3,$4,$5,$6,$7,$8,$9,$2,$3,0*
0 Add four circle primitives for the rounded corners*
1,1,$1+$1,$2,$3*
1,1,$1+$1,$4,$5*
1,1,$1+$1,$6,$7*
1,1,$1+$1,$8,$9*
0 Add four rect primitives between the rounded corners*
20,1,$1+$1,$2,$3,$4,$5,0*
20,1,$1+$1,$4,$5,$6,$7,0*
20,1,$1+$1,$6,$7,$8,$9,0*
20,1,$1+$1,$8,$9,$2,$3,0*%
G04 Aperture macros list end*
%TA.AperFunction,ComponentPad*%
%ADD10R,1.000000X1.000000*%
%TD*%
%TA.AperFunction,ComponentPad*%
%ADD11O,1.000000X1.000000*%
%TD*%
%TA.AperFunction,ComponentPad*%
%ADD12C,3.600000*%
%TD*%
%TA.AperFunction,ConnectorPad*%
%ADD13C,5.600000*%
%TD*%
%TA.AperFunction,ComponentPad*%
%ADD14O,0.900000X1.600000*%
%TD*%
%TA.AperFunction,SMDPad,CuDef*%
%ADD15RoundRect,0.160000X-0.197500X-0.160000X0.197500X-0.160000X0.197500X0.160000X-0.197500X0.160000X0*%
%TD*%
%TA.AperFunction,SMDPad,CuDef*%
%ADD16RoundRect,0.155000X0.212500X0.155000X-0.212500X0.155000X-0.212500X-0.155000X0.212500X-0.155000X0*%
%TD*%
%TA.AperFunction,SMDPad,CuDef*%
%ADD17RoundRect,0.155000X-0.212500X-0.155000X0.212500X-0.155000X0.212500X0.155000X-0.212500X0.155000X0*%
%TD*%
%TA.AperFunction,SMDPad,CuDef*%
%ADD18RoundRect,0.237500X0.300000X0.237500X-0.300000X0.237500X-0.300000X-0.237500X0.300000X-0.237500X0*%
%TD*%
%TA.AperFunction,SMDPad,CuDef*%
%ADD19RoundRect,0.175000X0.325000X-0.175000X0.325000X0.175000X-0.325000X0.175000X-0.325000X-0.175000X0*%
%TD*%
%TA.AperFunction,SMDPad,CuDef*%
%ADD20RoundRect,0.150000X0.150000X-0.200000X0.150000X0.200000X-0.150000X0.200000X-0.150000X-0.200000X0*%
%TD*%
%TA.AperFunction,SMDPad,CuDef*%
%ADD21RoundRect,0.160000X0.197500X0.160000X-0.197500X0.160000X-0.197500X-0.160000X0.197500X-0.160000X0*%
%TD*%
%TA.AperFunction,SMDPad,CuDef*%
%ADD22C,1.000000*%
%TD*%
%TA.AperFunction,SMDPad,CuDef*%
%ADD23R,1.500000X0.600000*%
%TD*%
%TA.AperFunction,SMDPad,CuDef*%
%ADD24RoundRect,0.160000X0.160000X-0.197500X0.160000X0.197500X-0.160000X0.197500X-0.160000X-0.197500X0*%
%TD*%
%TA.AperFunction,ViaPad*%
%ADD25C,0.800000*%
%TD*%
%TA.AperFunction,Conductor*%
%ADD26C,0.500000*%
%TD*%
%TA.AperFunction,Conductor*%
%ADD27C,0.200000*%
%TD*%
%TA.AperFunction,Conductor*%
%ADD28C,0.400000*%
%TD*%
%TA.AperFunction,Conductor*%
%ADD29C,0.254000*%
%TD*%
%TA.AperFunction,Conductor*%
%ADD30C,0.250000*%
%TD*%
G04 APERTURE END LIST*
D10*
%TO.P,J3,1,Pin_1*%
%TO.N,unconnected-(J3-Pin_1-Pad1)*%
X111430000Y-66190000D03*
D11*
%TO.P,J3,2,Pin_2*%
%TO.N,unconnected-(J3-Pin_2-Pad2)*%
X112700000Y-66190000D03*
%TO.P,J3,3,Pin_3*%
%TO.N,unconnected-(J3-Pin_3-Pad3)*%
X111430000Y-67460000D03*
%TO.P,J3,4,Pin_4*%
%TO.N,unconnected-(J3-Pin_4-Pad4)*%
X112700000Y-67460000D03*
%TO.P,J3,5,Pin_5*%
%TO.N,S1U_OUT*%
X111430000Y-68730000D03*
%TO.P,J3,6,Pin_6*%
%TO.N,S1D_OUT*%
X112700000Y-68730000D03*
%TO.P,J3,7,Pin_7*%
%TO.N,S2U_OUT*%
X111430000Y-70000000D03*
%TO.P,J3,8,Pin_8*%
%TO.N,S2D_OUT*%
X112700000Y-70000000D03*
%TO.P,J3,9,Pin_9*%
%TO.N,unconnected-(J3-Pin_9-Pad9)*%
X111430000Y-71270000D03*
%TO.P,J3,10,Pin_10*%
%TO.N,unconnected-(J3-Pin_10-Pad10)*%
X112700000Y-71270000D03*
%TO.P,J3,11,Pin_11*%
%TO.N,unconnected-(J3-Pin_11-Pad11)*%
X111430000Y-72540000D03*
%TO.P,J3,12,Pin_12*%
%TO.N,unconnected-(J3-Pin_12-Pad12)*%
X112700000Y-72540000D03*
%TO.P,J3,13,Pin_13*%
%TO.N,+VSW*%
X111430000Y-73810000D03*
%TO.P,J3,14,Pin_14*%
%TO.N,GND*%
X112700000Y-73810000D03*
%TO.P,J3,15,Pin_15*%
%TO.N,+VSW*%
X111430000Y-75080000D03*
%TO.P,J3,16,Pin_16*%
%TO.N,GND*%
X112700000Y-75080000D03*
%TD*%
D12*
%TO.P,H1,1,1*%
%TO.N,GND*%
X119012000Y-110500000D03*
D13*
X119012000Y-110500000D03*
%TD*%
D12*
%TO.P,H2,1,1*%
%TO.N,GND*%
X130188000Y-110500000D03*
D13*
X130188000Y-110500000D03*
%TD*%
D14*
%TO.P,J1,6,Shield*%
%TO.N,GND*%
X127300000Y-65125000D03*
X120700000Y-65125000D03*
%TD*%
D15*
%TO.P,R9,1*%
%TO.N,Net-(U4-PA0)*%
X135402500Y-99700000D03*
%TO.P,R9,2*%
%TO.N,Net-(D3-A)*%
X136597500Y-99700000D03*
%TD*%
D16*
%TO.P,C11,1*%
%TO.N,+3.3V*%
X130535000Y-95700000D03*
%TO.P,C11,2*%
%TO.N,GND*%
X129400000Y-95700000D03*
%TD*%
D17*
%TO.P,C10,1*%
%TO.N,+3.3V*%
X123132500Y-97000000D03*
%TO.P,C10,2*%
%TO.N,GND*%
X124267500Y-97000000D03*
%TD*%
D16*
%TO.P,C9,1*%
%TO.N,GND*%
X124267500Y-90300000D03*
%TO.P,C9,2*%
%TO.N,+3.3V*%
X123132500Y-90300000D03*
%TD*%
D18*
%TO.P,C15,1*%
%TO.N,GND*%
X112925000Y-77900000D03*
%TO.P,C15,2*%
%TO.N,+VSW*%
X111200000Y-77900000D03*
%TD*%
D19*
%TO.P,D2,1,GND*%
%TO.N,GND*%
X125550000Y-72500000D03*
D20*
%TO.P,D2,2,I/O1*%
%TO.N,/Controller/USB-*%
X123850000Y-72500000D03*
%TO.P,D2,3,I/O2*%
%TO.N,/Controller/USB+*%
X123850000Y-70500000D03*
%TO.P,D2,4,VCC*%
%TO.N,VBUS*%
X125750000Y-70500000D03*
%TD*%
D16*
%TO.P,C13,1*%
%TO.N,Net-(U4-VDDA)*%
X129535000Y-97700000D03*
%TO.P,C13,2*%
%TO.N,GND*%
X128400000Y-97700000D03*
%TD*%
D21*
%TO.P,R17,1*%
%TO.N,/Controller/BOOT1*%
X129897500Y-92100000D03*
%TO.P,R17,2*%
%TO.N,GND*%
X128702500Y-92100000D03*
%TD*%
D18*
%TO.P,FB1,1*%
%TO.N,+3.3V*%
X132662500Y-99200000D03*
%TO.P,FB1,2*%
%TO.N,Net-(U4-VDDA)*%
X130937500Y-99200000D03*
%TD*%
D16*
%TO.P,C21,1*%
%TO.N,GND*%
X129867500Y-80600000D03*
%TO.P,C21,2*%
%TO.N,VBUS*%
X128732500Y-80600000D03*
%TD*%
D22*
%TO.P,FID3,*%
%TO.N,*%
X109900000Y-111500000D03*
%TD*%
D23*
%TO.P,U6,1,EN1\u002C2*%
%TO.N,SW_Enable*%
X116850000Y-85715000D03*
%TO.P,U6,2,1A*%
%TO.N,S1U*%
X116850000Y-84445000D03*
%TO.P,U6,3,1Y*%
%TO.N,S1U_OUT*%
X116850000Y-83175000D03*
%TO.P,U6,4,GND*%
%TO.N,GND*%
X116850000Y-81905000D03*
%TO.P,U6,5,GND*%
X116850000Y-80635000D03*
%TO.P,U6,6,2Y*%
%TO.N,S1D_OUT*%
X116850000Y-79365000D03*
%TO.P,U6,7,2A*%
%TO.N,S1D*%
X116850000Y-78095000D03*
%TO.P,U6,8,VCC2*%
%TO.N,+VSW*%
X116850000Y-76825000D03*
%TO.P,U6,9,EN3\u002C4*%
%TO.N,SW_Enable*%
X116850000Y-75555000D03*
%TO.P,U6,10,3A*%
%TO.N,S2U*%
X116850000Y-74285000D03*
%TO.P,U6,11,3Y*%
%TO.N,S2U_OUT*%
X126350000Y-74285000D03*
%TO.P,U6,12,GND*%
%TO.N,GND*%
X126350000Y-75555000D03*
%TO.P,U6,13,GND*%
X126350000Y-76825000D03*
%TO.P,U6,14,4Y*%
%TO.N,S2D_OUT*%
X126350000Y-78095000D03*
%TO.P,U6,15,4A*%
%TO.N,S2D*%
X126350000Y-79365000D03*
%TO.P,U6,16,VCC1*%
%TO.N,VBUS*%
X126350000Y-80635000D03*
%TO.P,U6,17*%
%TO.N,N/C*%
X126350000Y-81905000D03*
%TO.P,U6,18*%
X126350000Y-83175000D03*
%TO.P,U6,19*%
X126350000Y-84445000D03*
%TO.P,U6,20*%
X126350000Y-85715000D03*
%TD*%
D24*
%TO.P,R14,1*%
%TO.N,Net-(U4-PA10)*%
X130200000Y-84697500D03*
%TO.P,R14,2*%
%TO.N,Net-(D6-A)*%
X130200000Y-83502500D03*
%TD*%
D21*
%TO.P,R18,1*%
%TO.N,SW_Enable*%
X113095000Y-87900000D03*
%TO.P,R18,2*%
%TO.N,+3.3V*%
X111900000Y-87900000D03*
%TD*%
D24*
%TO.P,R13,1*%
%TO.N,Net-(U4-PA9)*%
X132200000Y-84597500D03*
%TO.P,R13,2*%
%TO.N,Net-(D5-A)*%
X132200000Y-83402500D03*
%TD*%
%TO.P,R11,1*%
%TO.N,Net-(C17-Pad1)*%
X126900000Y-103497500D03*
%TO.P,R11,2*%
%TO.N,Net-(U4-PH1)*%
X126900000Y-102302500D03*
%TD*%
D15*
%TO.P,R16,1*%
%TO.N,Net-(U4-PB0)*%
X134602500Y-93100000D03*
%TO.P,R16,2*%
%TO.N,Net-(D7-A)*%
X135797500Y-93100000D03*
%TD*%
D24*
%TO.P,R12,1*%
%TO.N,Net-(U4-PA8)*%
X134000000Y-84572500D03*
%TO.P,R12,2*%
%TO.N,Net-(D4-A)*%
X134000000Y-83377500D03*
%TD*%
D22*
%TO.P,FID4,*%
%TO.N,*%
X139400000Y-66000000D03*
%TD*%
D25*
%TO.N,GND*%
X118496000Y-69950200D03*
X139064000Y-102577000D03*
X116000000Y-102700000D03*
X123679000Y-89465200D03*
X131351000Y-90836800D03*
X130200000Y-81875500D03*
X134300000Y-97100000D03*
X125900000Y-93200000D03*
X125700000Y-97100000D03*
X114004000Y-81047800D03*
X118300000Y-102700000D03*
X128826000Y-100937000D03*
X113700000Y-84700000D03*
X115166000Y-93926700D03*
X113700000Y-84700000D03*
X115200000Y-97200000D03*
%TO.N,+VSW*%
X129052000Y-72232800D03*
%TO.N,VBUS*%
X128000000Y-71187100D03*
%TO.N,+3.3V*%
X122000000Y-88100000D03*
X119249000Y-104049000D03*
X110002000Y-93108700D03*
X123200000Y-102400000D03*
X121400000Y-98732500D03*
X131000000Y-97000000D03*
X121300000Y-104100000D03*
X108825000Y-86658500D03*
X134619000Y-98843500D03*
%TO.N,Net-(U4-VDDA)*%
X129445000Y-97748700D03*
%TO.N,Net-(J2-~{RESET})*%
X126275000Y-98117900D03*
X117645000Y-99745300D03*
%TO.N,Net-(C17-Pad1)*%
X127558000Y-107225000D03*
%TO.N,/Controller/USB+*%
X122921000Y-70265100D03*
%TO.N,/Controller/USB-*%
X124825000Y-71599900D03*
%TO.N,Net-(D3-A)*%
X138306000Y-101097000D03*
%TO.N,Net-(D4-A)*%
X135099000Y-84476300D03*
%TO.N,Net-(D5-A)*%
X131354959Y-85933059D03*
%TO.N,Net-(D6-A)*%
X131075000Y-84125000D03*
%TO.N,Net-(D7-A)*%
X138625000Y-95906000D03*
%TO.N,/Controller/JTMS*%
X123150000Y-92015300D03*
X118083000Y-97334300D03*
%TO.N,/Controller/JTDI*%
X119600000Y-91500000D03*
X109516000Y-98084700D03*
%TO.N,/Controller/JTDO*%
X119400000Y-92600000D03*
X113600000Y-96700000D03*
%TO.N,/Controller/JTCK*%
X119419000Y-90465700D03*
X117462000Y-90570000D03*
%TO.N,S2U*%
X122441000Y-79126700D03*
X122441000Y-84613200D03*
X127701000Y-92037000D03*
%TO.N,S1U*%
X115376000Y-90993000D03*
X115333000Y-86500700D03*
X127282000Y-100909000D03*
%TO.N,S1D_OUT*%
X118250000Y-79038100D03*
%TO.N,S2D*%
X123790000Y-80135700D03*
X119753000Y-94870900D03*
X122888000Y-95694400D03*
%TO.N,S1U_OUT*%
X110597000Y-75940700D03*
%TO.N,S1D*%
X126699000Y-92065100D03*
%TO.N,HVEnable*%
X133661000Y-86525400D03*
X127924000Y-90456200D03*
%TO.N,Net-(U4-PA0)*%
X129817000Y-100802000D03*
%TO.N,Net-(U4-PH1)*%
X126177000Y-100956000D03*
%TO.N,Net-(U4-PA8)*%
X127411000Y-89552500D03*
%TO.N,Net-(U4-PA9)*%
X126275000Y-86792300D03*
%TO.N,Net-(U4-PA10)*%
X126409000Y-89729400D03*
%TO.N,/Controller/BOOT1*%
X135771000Y-94244700D03*
%TO.N,Net-(U4-PB0)*%
X134895000Y-93686100D03*
%TO.N,/Controller/~{SPI2NSS}*%
X126858000Y-107951000D03*
X138410000Y-107958000D03*
X122500000Y-108000000D03*
X131054000Y-106705000D03*
%TO.N,SW_Enable*%
X132108000Y-89170000D03*
X129123000Y-82064700D03*
X134756000Y-95396100D03*
X120095000Y-78545500D03*
X119723000Y-81841800D03*
%TO.N,/Controller/SPI2_SCK*%
X136253000Y-97645900D03*
X136215000Y-95646000D03*
X140947000Y-101933000D03*
X131317000Y-91944200D03*
%TO.N,/Controller/SPI2_MOSI*%
X136668000Y-107975000D03*
X129475000Y-93209000D03*
%TD*%
D26*
%TO.N,GND*%
X116850000Y-80635000D02*
X115648000Y-80635000D01*
X112925000Y-77900000D02*
X114429000Y-79404400D01*
D27*
X115273000Y-94034000D02*
X115166000Y-93926700D01*
D26*
X127300000Y-65125000D02*
X127300000Y-66376700D01*
X131694000Y-88320000D02*
X133071000Y-88320000D01*
X127552000Y-75555000D02*
X127552000Y-73787800D01*
X130176000Y-89838100D02*
X131694000Y-88320000D01*
X127552000Y-73787800D02*
X126264000Y-72500000D01*
X129868000Y-80600000D02*
X130196000Y-80927700D01*
X130196000Y-80927700D02*
X130523000Y-81255400D01*
X128200000Y-97899600D02*
X127913000Y-97899600D01*
X130195000Y-80927700D02*
X129868000Y-80600000D01*
D27*
X115273000Y-97127000D02*
X115273000Y-94034000D01*
D26*
X139064000Y-102577000D02*
X139063000Y-102578000D01*
X125900000Y-93200000D02*
X124268000Y-90837900D01*
X126264000Y-72500000D02*
X125550000Y-72500000D01*
X128826000Y-100937000D02*
X128826000Y-98812800D01*
X124268000Y-90837900D02*
X124268000Y-90703400D01*
X130217000Y-81561300D02*
X130217000Y-81858400D01*
X128400000Y-97700000D02*
X128200000Y-97899600D01*
X125148000Y-76825000D02*
X125148000Y-76190000D01*
D27*
X123679000Y-89465200D02*
X123679000Y-89711900D01*
X134224000Y-97100000D02*
X132124000Y-95000000D01*
D26*
X130196000Y-80927700D02*
X130195000Y-80927700D01*
D27*
X123679000Y-89711900D02*
X124268000Y-90300000D01*
D26*
X127913000Y-97899600D02*
X127113000Y-97100000D01*
D27*
X130100000Y-95000000D02*
X129400000Y-95700000D01*
D26*
X126346000Y-92916800D02*
X125900000Y-93200000D01*
X127113000Y-97100000D02*
X125700000Y-97100000D01*
X130176000Y-90588100D02*
X130176000Y-89838100D01*
X129400000Y-95700000D02*
X128474000Y-94773800D01*
X135970000Y-85421200D02*
X135970000Y-84080500D01*
X135970000Y-84080500D02*
X133145000Y-81255400D01*
X128702000Y-92688100D02*
X128702000Y-92061400D01*
X128826000Y-98812800D02*
X127913000Y-97899600D01*
X124268000Y-90568900D02*
X124268000Y-90300000D01*
X133145000Y-81255400D02*
X130523000Y-81255400D01*
X128474000Y-94773800D02*
X128474000Y-92916800D01*
X130188000Y-102578000D02*
X128826000Y-101216000D01*
D27*
X130425000Y-90836800D02*
X130176000Y-90588100D01*
D26*
X127300000Y-66376700D02*
X129904000Y-68980200D01*
D27*
X115200000Y-97200000D02*
X115273000Y-97127000D01*
D26*
X126350000Y-76825000D02*
X125148000Y-76825000D01*
X125148000Y-76190000D02*
X125148000Y-75555000D01*
X128474000Y-92916800D02*
X126346000Y-92916800D01*
D27*
X131351000Y-90836800D02*
X130425000Y-90836800D01*
D26*
X130523000Y-81255400D02*
X130217000Y-81561300D01*
X129904000Y-68980200D02*
X129904000Y-74772100D01*
X126350000Y-75555000D02*
X127552000Y-75555000D01*
X124268000Y-97000000D02*
X125600000Y-97000000D01*
X115648000Y-80635000D02*
X115648000Y-81905000D01*
X128702000Y-92061400D02*
X130176000Y-90588100D01*
X125148000Y-75555000D02*
X126350000Y-75555000D01*
X114429000Y-80622600D02*
X115636000Y-80622600D01*
X114429000Y-80622600D02*
X114004000Y-81047800D01*
X133071000Y-88320000D02*
X135970000Y-85421200D01*
X115648000Y-81905000D02*
X116850000Y-81905000D01*
X125600000Y-97000000D02*
X125700000Y-97100000D01*
D28*
X120225000Y-65125000D02*
X119600000Y-64500000D01*
D26*
X125148000Y-76190000D02*
X124736000Y-76190000D01*
X114429000Y-79404400D02*
X114429000Y-80622600D01*
X124736000Y-76190000D02*
X118496000Y-69950200D01*
X115636000Y-80622600D02*
X115648000Y-80635000D01*
X128826000Y-101216000D02*
X128826000Y-100937000D01*
D28*
X119600000Y-64500000D02*
X119600000Y-64400000D01*
D27*
X134300000Y-97100000D02*
X134224000Y-97100000D01*
X120700000Y-65125000D02*
X120225000Y-65125000D01*
D26*
X130217000Y-81858400D02*
X130200000Y-81875500D01*
X124268000Y-90702900D02*
X124268000Y-90568900D01*
X129904000Y-74772100D02*
X129904000Y-80563500D01*
X139063000Y-102578000D02*
X130188000Y-102578000D01*
X130188000Y-110500000D02*
X130188000Y-102578000D01*
D29*
X116000000Y-102700000D02*
X118300000Y-102700000D01*
D27*
X132124000Y-95000000D02*
X130100000Y-95000000D01*
D26*
X124268000Y-90703400D02*
X124268000Y-90702900D01*
X128474000Y-92916800D02*
X128702000Y-92688100D01*
%TO.N,+VSW*%
X111430000Y-77669900D02*
X111430000Y-77670000D01*
X118591000Y-64735600D02*
X122732000Y-68876000D01*
X111482000Y-77617900D02*
X111482000Y-76950000D01*
X111430000Y-77669900D02*
X111482000Y-77618100D01*
X111430000Y-75555800D02*
X109500000Y-73625800D01*
X111482000Y-75607600D02*
X111430000Y-75555800D01*
X109500000Y-65200000D02*
X109964000Y-64735600D01*
X111607000Y-76825000D02*
X111482000Y-76950000D01*
X122732000Y-68876000D02*
X126925000Y-68876000D01*
X111430000Y-77670000D02*
X111200000Y-77900000D01*
X116850000Y-76825000D02*
X111607000Y-76825000D01*
X111430000Y-75080000D02*
X111430000Y-75555800D01*
X111482000Y-77617900D02*
X111430000Y-77669900D01*
X126925000Y-68876000D02*
X129052000Y-71002900D01*
X109500000Y-73625800D02*
X109500000Y-65200000D01*
X111482000Y-76950000D02*
X111482000Y-75607600D01*
X109964000Y-64735600D02*
X118591000Y-64735600D01*
X129052000Y-71002900D02*
X129052000Y-72232800D01*
X111482000Y-77618100D02*
X111482000Y-77617900D01*
%TO.N,VBUS*%
X128252000Y-73045200D02*
X128200000Y-72993400D01*
X128732000Y-80391500D02*
X128732500Y-80392000D01*
X128252000Y-73047300D02*
X128252000Y-73045200D01*
X128732000Y-80182500D02*
X128732000Y-73527900D01*
X128732000Y-73527900D02*
X128252000Y-73047300D01*
X128200000Y-72993400D02*
X128200000Y-72950100D01*
X128732000Y-80183000D02*
X128732000Y-80182500D01*
X128732000Y-80183000D02*
X128732000Y-80391500D01*
X128732000Y-80391500D02*
X128732000Y-80600000D01*
X125750000Y-70500000D02*
X127219000Y-71968500D01*
X127219000Y-71968500D02*
X128000000Y-71187100D01*
X126350000Y-80635000D02*
X128698000Y-80635000D01*
X128732500Y-80392000D02*
X128732500Y-80600000D01*
X128200000Y-72950100D02*
X127219000Y-71968500D01*
%TO.N,+3.3V*%
X119300000Y-104100000D02*
X119249000Y-104049000D01*
X121400000Y-98732500D02*
X122266000Y-97866200D01*
X122498000Y-89720000D02*
X121900000Y-89720000D01*
X127512000Y-96506400D02*
X130497000Y-96506400D01*
X111900000Y-87900000D02*
X110658000Y-86658500D01*
X111900000Y-89165700D02*
X112850000Y-90116200D01*
D29*
X121500000Y-104100000D02*
X121300000Y-104100000D01*
D26*
X131000000Y-97000000D02*
X132662000Y-98671700D01*
X123849000Y-96157700D02*
X124001000Y-96157700D01*
X132662000Y-98671700D02*
X132662000Y-98843500D01*
D27*
X122000000Y-89620000D02*
X121900000Y-89720000D01*
D26*
X123132000Y-90735600D02*
X123132000Y-90354300D01*
X112850000Y-90260700D02*
X110002000Y-93108700D01*
X130535000Y-96468600D02*
X130535000Y-95700000D01*
X130497000Y-96506400D02*
X130535000Y-96468600D01*
X122266000Y-97866200D02*
X122699000Y-97433100D01*
X132662000Y-99021700D02*
X132662000Y-98843500D01*
X121666000Y-89485700D02*
X113481000Y-89485700D01*
X132662000Y-98843500D02*
X134619000Y-98843500D01*
X112850000Y-90116200D02*
X112850000Y-90260700D01*
X127164000Y-96157700D02*
X127512000Y-96506400D01*
X130497000Y-96506400D02*
X131000000Y-97000000D01*
X123132000Y-90354300D02*
X122498000Y-89720000D01*
X124001000Y-96157700D02*
X127164000Y-96157700D01*
X124001000Y-91604300D02*
X123132000Y-90735600D01*
X124001000Y-96157700D02*
X124001000Y-91604300D01*
X123132000Y-96874100D02*
X123849000Y-96157700D01*
X121900000Y-89720000D02*
X121666000Y-89485700D01*
X122699000Y-97433100D02*
X122916000Y-97216500D01*
X123132000Y-97000000D02*
X123132000Y-96874100D01*
X111900000Y-87900000D02*
X111900000Y-89165700D01*
X110658000Y-86658500D02*
X108825000Y-86658500D01*
D27*
X122000000Y-88100000D02*
X122000000Y-89620000D01*
D26*
X113481000Y-89485700D02*
X112850000Y-90116200D01*
D29*
X123200000Y-102400000D02*
X121500000Y-104100000D01*
D26*
X121300000Y-104100000D02*
X119300000Y-104100000D01*
X122916000Y-97216500D02*
X123132000Y-97000000D01*
D30*
%TO.N,Net-(U4-VDDA)*%
X129994000Y-98255200D02*
X129487000Y-97748700D01*
X129993000Y-98255200D02*
X129487000Y-97748400D01*
X130722000Y-98983800D02*
X129994000Y-98255200D01*
X129994000Y-98255200D02*
X129993000Y-98255200D01*
%TO.N,Net-(J2-~{RESET})*%
X118064000Y-100164000D02*
X124229000Y-100164000D01*
X124229000Y-100164000D02*
X126275000Y-98117900D01*
X117645000Y-99745300D02*
X118064000Y-100164000D01*
%TO.N,Net-(C17-Pad1)*%
X126900000Y-103498000D02*
X126900000Y-106567000D01*
X126900000Y-106567000D02*
X127558000Y-107225000D01*
%TO.N,/Controller/USB+*%
X123850000Y-70500000D02*
X123615000Y-70265100D01*
X123615000Y-70265100D02*
X122921000Y-70265100D01*
%TO.N,/Controller/USB-*%
X123850000Y-72500000D02*
X124750000Y-71599900D01*
X124750000Y-71599900D02*
X124825000Y-71599900D01*
%TO.N,Net-(D3-A)*%
X136909000Y-99700000D02*
X138306000Y-101097000D01*
X136598000Y-99700000D02*
X136909000Y-99700000D01*
%TO.N,Net-(D4-A)*%
X134000000Y-83377500D02*
X135099000Y-84476300D01*
%TO.N,Net-(D5-A)*%
X132906000Y-84108400D02*
X132906000Y-84958014D01*
X132906000Y-84958014D02*
X131930955Y-85933059D01*
X131930955Y-85933059D02*
X131354959Y-85933059D01*
X132200000Y-83402500D02*
X132906000Y-84108400D01*
%TO.N,Net-(D6-A)*%
X130822000Y-84125000D02*
X131075000Y-84125000D01*
X130200000Y-83502500D02*
X130822000Y-84125000D01*
%TO.N,Net-(D7-A)*%
X138604000Y-95906000D02*
X136217000Y-93519500D01*
X138625000Y-95906000D02*
X138604000Y-95906000D01*
X136217000Y-93519500D02*
X136120000Y-93422300D01*
X136217000Y-93519500D02*
X135798000Y-93100000D01*
%TO.N,/Controller/JTMS*%
X120034000Y-93535000D02*
X118083000Y-95485500D01*
X118083000Y-95485500D02*
X118083000Y-97334300D01*
X123150000Y-92015300D02*
X121630000Y-93535000D01*
X121630000Y-93535000D02*
X120034000Y-93535000D01*
%TO.N,/Controller/JTDI*%
X114844000Y-92355000D02*
X117971000Y-92355000D01*
X117971000Y-92355000D02*
X118455000Y-91871000D01*
X118729000Y-91871000D02*
X119100000Y-91500000D01*
X118455000Y-91871000D02*
X118729000Y-91871000D01*
X119100000Y-91500000D02*
X119600000Y-91500000D01*
X109516000Y-97682800D02*
X114844000Y-92355000D01*
X109516000Y-98084700D02*
X109516000Y-97682800D01*
D27*
%TO.N,/Controller/JTDO*%
X119193000Y-92807000D02*
X119400000Y-92600000D01*
X114890000Y-92807000D02*
X119193000Y-92807000D01*
X113600000Y-94096600D02*
X114890000Y-92807000D01*
X113600000Y-96700000D02*
X113600000Y-94096600D01*
D30*
%TO.N,/Controller/JTCK*%
X119315000Y-90570000D02*
X119419000Y-90465700D01*
X117462000Y-90570000D02*
X119315000Y-90570000D01*
%TO.N,S2U*%
X125682000Y-89668000D02*
X125682000Y-90083600D01*
X117927000Y-74285000D02*
X117927000Y-74612100D01*
X116850000Y-74285000D02*
X117927000Y-74285000D01*
X126846000Y-91248000D02*
X126912000Y-91248000D01*
X124510000Y-86681800D02*
X124510000Y-88495800D01*
X117927000Y-74612100D02*
X122441000Y-79126700D01*
X122441000Y-84613200D02*
X124510000Y-86681800D01*
X125682000Y-90083600D02*
X126846000Y-91248000D01*
X126912000Y-91248000D02*
X127701000Y-92037000D01*
X124510000Y-88495800D02*
X125682000Y-89668000D01*
%TO.N,S1U*%
X126598000Y-100225000D02*
X124874000Y-100225000D01*
X117587000Y-86500700D02*
X115333000Y-86500700D01*
X122846000Y-101545000D02*
X122602000Y-101789000D01*
X109699000Y-101789000D02*
X108758000Y-100848000D01*
X127282000Y-100909000D02*
X126598000Y-100225000D01*
X117927000Y-84445000D02*
X117927000Y-86161100D01*
X116850000Y-84445000D02*
X117927000Y-84445000D01*
X123554000Y-101545000D02*
X122846000Y-101545000D01*
X108758000Y-100848000D02*
X108758000Y-97777800D01*
X115376000Y-91160100D02*
X115376000Y-90993000D01*
X124874000Y-100225000D02*
X123554000Y-101545000D01*
X108758000Y-97777800D02*
X115376000Y-91160100D01*
X122602000Y-101789000D02*
X109699000Y-101789000D01*
X117927000Y-86161100D02*
X117587000Y-86500700D01*
%TO.N,S2D_OUT*%
X125273000Y-78095000D02*
X117178000Y-70000000D01*
X117178000Y-70000000D02*
X112700000Y-70000000D01*
X126350000Y-78095000D02*
X125273000Y-78095000D01*
%TO.N,S1D_OUT*%
X117927000Y-79365000D02*
X117927000Y-79361400D01*
X117927000Y-79361400D02*
X118250000Y-79038100D01*
X116850000Y-79365000D02*
X117927000Y-79365000D01*
%TO.N,S2D*%
X120576000Y-95694400D02*
X119753000Y-94870900D01*
X123790000Y-80135700D02*
X124561000Y-79365000D01*
X122888000Y-95694400D02*
X120576000Y-95694400D01*
X124561000Y-79365000D02*
X126350000Y-79365000D01*
%TO.N,S2U_OUT*%
X110587000Y-65500800D02*
X110767000Y-65320800D01*
X110587000Y-69156800D02*
X110587000Y-65500800D01*
X111430000Y-70000000D02*
X110587000Y-69156800D01*
X110767000Y-65320800D02*
X114947000Y-65320800D01*
X114947000Y-65320800D02*
X123911000Y-74285000D01*
X123911000Y-74285000D02*
X126350000Y-74285000D01*
%TO.N,S1U_OUT*%
X110285000Y-76253100D02*
X110597000Y-75940700D01*
X110285000Y-78372000D02*
X110285000Y-76253100D01*
X115088000Y-83175000D02*
X110285000Y-78372000D01*
X116850000Y-83175000D02*
X115088000Y-83175000D01*
%TO.N,S1D*%
X125230000Y-90596400D02*
X126699000Y-92065100D01*
X116850000Y-78095000D02*
X118359000Y-78095000D01*
X125230000Y-89855100D02*
X125230000Y-90596400D01*
X121045000Y-80780400D02*
X121045000Y-85669400D01*
X121045000Y-85669400D02*
X125230000Y-89855100D01*
X118359000Y-78095000D02*
X121045000Y-80780400D01*
%TO.N,HVEnable*%
X128807000Y-90456200D02*
X127924000Y-90456200D01*
X132738000Y-86525400D02*
X128807000Y-90456200D01*
X133661000Y-86525400D02*
X132738000Y-86525400D01*
%TO.N,Net-(U4-PA0)*%
X130145000Y-101130000D02*
X129817000Y-100802000D01*
X134499000Y-100603000D02*
X133972000Y-101130000D01*
X134499000Y-100603000D02*
X134500000Y-100603000D01*
X133972000Y-101130000D02*
X130145000Y-101130000D01*
X134500000Y-100603000D02*
X135402500Y-99700500D01*
X134499000Y-100603000D02*
X134800000Y-100302000D01*
%TO.N,Net-(U4-PH1)*%
X126900000Y-101680000D02*
X126177000Y-100956000D01*
X126900000Y-102302000D02*
X126900000Y-101680000D01*
D29*
%TO.N,Net-(U4-PA8)*%
X134000000Y-84572500D02*
X129020000Y-89552500D01*
X129020000Y-89552500D02*
X127411000Y-89552500D01*
D30*
%TO.N,Net-(U4-PA9)*%
X129286565Y-86792300D02*
X126275000Y-86792300D01*
X132069000Y-84597500D02*
X131588616Y-85078059D01*
X131588616Y-85078059D02*
X131000806Y-85078059D01*
X131000806Y-85078059D02*
X129286565Y-86792300D01*
%TO.N,Net-(U4-PA10)*%
X125273000Y-85218300D02*
X125273000Y-88593800D01*
X125412000Y-85080000D02*
X125273000Y-85218300D01*
X130200000Y-84697500D02*
X129818000Y-85080000D01*
X125273000Y-88593800D02*
X126409000Y-89729400D01*
X129818000Y-85080000D02*
X125412000Y-85080000D01*
%TO.N,/Controller/BOOT1*%
X132696000Y-94541100D02*
X135475000Y-94541100D01*
X135475000Y-94541100D02*
X135771000Y-94244700D01*
X130255000Y-92100000D02*
X132696000Y-94541100D01*
X129898000Y-92100000D02*
X130255000Y-92100000D01*
%TO.N,Net-(U4-PB0)*%
X134619000Y-93686100D02*
X134895000Y-93686100D01*
X134602000Y-93384600D02*
X134602000Y-93289700D01*
X134602000Y-93668700D02*
X134602000Y-93479500D01*
X134602000Y-93384600D02*
X134602500Y-93384100D01*
X134602000Y-93669200D02*
X134619000Y-93686100D01*
X134602000Y-93479500D02*
X134602000Y-93384600D01*
X134602000Y-93669200D02*
X134602000Y-93668700D01*
X134602500Y-93384100D02*
X134602500Y-93100000D01*
%TO.N,/Controller/~{SPI2NSS}*%
X122549000Y-107951000D02*
X122500000Y-108000000D01*
X133050000Y-108702000D02*
X137667000Y-108702000D01*
X131054000Y-106705000D02*
X133050000Y-108702000D01*
X126858000Y-107951000D02*
X122549000Y-107951000D01*
X137667000Y-108702000D02*
X138410000Y-107958000D01*
%TO.N,SW_Enable*%
X116850000Y-75555000D02*
X117927000Y-75555000D01*
X132108000Y-89170000D02*
X133622000Y-89170000D01*
X128337000Y-81278300D02*
X122828000Y-81278300D01*
X115773000Y-85715000D02*
X115752000Y-85693600D01*
X117927000Y-75555000D02*
X117927000Y-76377000D01*
X137936000Y-97092100D02*
X137486000Y-96641900D01*
X136002000Y-96641900D02*
X134756000Y-95396100D01*
X115932000Y-83801700D02*
X117763000Y-83801700D01*
X139811000Y-96386200D02*
X139105000Y-97092100D01*
X139811000Y-95358600D02*
X139811000Y-96386200D01*
X115752000Y-85693600D02*
X115752000Y-83981500D01*
X133622000Y-89170000D02*
X139811000Y-95358600D01*
X113095000Y-87637700D02*
X113095000Y-87900000D01*
X115039000Y-85693600D02*
X113095000Y-87637700D01*
X115752000Y-85693600D02*
X115039000Y-85693600D01*
X129123000Y-82064700D02*
X128337000Y-81278300D01*
X117927000Y-76377000D02*
X120095000Y-78545500D01*
X115752000Y-83981500D02*
X115932000Y-83801700D01*
X116850000Y-85715000D02*
X115773000Y-85715000D01*
X139105000Y-97092100D02*
X137936000Y-97092100D01*
X117763000Y-83801700D02*
X119723000Y-81841800D01*
X122828000Y-81278300D02*
X120095000Y-78545500D01*
X137486000Y-96641900D02*
X136002000Y-96641900D01*
%TO.N,/Controller/SPI2_SCK*%
X139352000Y-96207000D02*
X138926000Y-96632700D01*
X138228000Y-96632700D02*
X137241000Y-95646000D01*
X131317000Y-91944200D02*
X131493000Y-92120000D01*
X140947000Y-101933000D02*
X136660000Y-97645900D01*
X135934000Y-92120000D02*
X139360000Y-95545700D01*
X131493000Y-92120000D02*
X135934000Y-92120000D01*
X136660000Y-97645900D02*
X136253000Y-97645900D01*
X137241000Y-95646000D02*
X136215000Y-95646000D01*
X139352000Y-96206100D02*
X139352000Y-96207000D01*
X139360000Y-96198200D02*
X139352000Y-96206100D01*
X139360000Y-95545700D02*
X139360000Y-96198200D01*
X138926000Y-96632700D02*
X138228000Y-96632700D01*
%TO.N,/Controller/SPI2_MOSI*%
X135052000Y-97751200D02*
X135052000Y-96754200D01*
X136878000Y-98587500D02*
X135888000Y-98587500D01*
X130831000Y-93209000D02*
X129475000Y-93209000D01*
X136668000Y-107975000D02*
X139799000Y-104844000D01*
X139799000Y-104844000D02*
X139799000Y-101509000D01*
X139799000Y-101509000D02*
X136878000Y-98587500D01*
X135888000Y-98587500D02*
X135052000Y-97751200D01*
X135052000Y-96754200D02*
X133246000Y-94948000D01*
X133246000Y-94948000D02*
X132570000Y-94948000D01*
X132570000Y-94948000D02*
X130831000Y-93209000D01*
%TD*%
%TA.AperFunction,Conductor*%
%TO.N,GND*%
G36*
X120218998Y-63745185D02*
G01*
X120264753Y-63797989D01*
X120274697Y-63867147D01*
X120245672Y-63930703D01*
X120220850Y-63952602D01*
X120094410Y-64037086D01*
X120094406Y-64037089D01*
X119962089Y-64169406D01*
X119962086Y-64169410D01*
X119858124Y-64324999D01*
X119858119Y-64325008D01*
X119786508Y-64497894D01*
X119786506Y-64497900D01*
X119770083Y-64580464D01*
X119737698Y-64642375D01*
X119676982Y-64676949D01*
X119607212Y-64673208D01*
X119560791Y-64643960D01*
X119124509Y-64207742D01*
X119124509Y-64207741D01*
X119124502Y-64207735D01*
X119069414Y-64152647D01*
X119069376Y-64152616D01*
X119010140Y-64113042D01*
X119010133Y-64113037D01*
X118946481Y-64070506D01*
X118946462Y-64070496D01*
X118879615Y-64042813D01*
X118879608Y-64042810D01*
X118809890Y-64013932D01*
X118801406Y-64012245D01*
X118740434Y-64000121D01*
X118740433Y-64000120D01*
X118740424Y-64000119D01*
X118732444Y-63998531D01*
X118664926Y-63985100D01*
X118664871Y-63985095D01*
X118664863Y-63985095D01*
X118605131Y-63985099D01*
X118597664Y-63985100D01*
X110043997Y-63985100D01*
X110043286Y-63985065D01*
X109963677Y-63985100D01*
X109890054Y-63985100D01*
X109889787Y-63985126D01*
X109817412Y-63999554D01*
X109817363Y-63999564D01*
X109745075Y-64013944D01*
X109744785Y-64014032D01*
X109676671Y-64042279D01*
X109676626Y-64042298D01*
X109608483Y-64070525D01*
X109608234Y-64070658D01*
X109546968Y-64111632D01*
X109546927Y-64111659D01*
X109485574Y-64152655D01*
X109485342Y-64152845D01*
X109433053Y-64205179D01*
X109377189Y-64261043D01*
X109376720Y-64261558D01*
X108968031Y-64670601D01*
X108917032Y-64721600D01*
X108916956Y-64721694D01*
X108916847Y-64721825D01*
X108875527Y-64783723D01*
X108875499Y-64783765D01*
X108834905Y-64844520D01*
X108834772Y-64844768D01*
X108806397Y-64913352D01*
X108806379Y-64913397D01*
X108778332Y-64981109D01*
X108778250Y-64981381D01*
X108763705Y-65054663D01*
X108763696Y-65054712D01*
X108749497Y-65126093D01*
X108749467Y-65126403D01*
X108749500Y-65200323D01*
X108749500Y-73699718D01*
X108749500Y-73699720D01*
X108749499Y-73699720D01*
X108778340Y-73844707D01*
X108778343Y-73844717D01*
X108834913Y-73981290D01*
X108839882Y-73988727D01*
X108839881Y-73988727D01*
X108917049Y-74104218D01*
X108917052Y-74104221D01*
X109950334Y-75137502D01*
X109983819Y-75198825D01*
X109978835Y-75268517D01*
X109954803Y-75308155D01*
X109864466Y-75408484D01*
X109769821Y-75572415D01*
X109769818Y-75572422D01*
X109711327Y-75752440D01*
X109711326Y-75752444D01*
X109692365Y-75932853D01*
X109691540Y-75940701D01*
X109697521Y-75997622D01*
X109688765Y-76058024D01*
X109683533Y-76070657D01*
X109683528Y-76070675D01*
X109683420Y-76071027D01*
X109671354Y-76131890D01*
X109671340Y-76131963D01*
X109659495Y-76191515D01*
X109659459Y-76191882D01*
X109659464Y-76198849D01*
X109659500Y-76254280D01*
X109659500Y-78433606D01*
X109683537Y-78554452D01*
X109683538Y-78554454D01*
X109683538Y-78554456D01*
X109687941Y-78565085D01*
X109730685Y-78668281D01*
X109730690Y-78668290D01*
X109749516Y-78696464D01*
X109749517Y-78696465D01*
X109799141Y-78770732D01*
X109799144Y-78770736D01*
X109890586Y-78862178D01*
X109890608Y-78862198D01*
X114599016Y-83570606D01*
X114599045Y-83570637D01*
X114689264Y-83660856D01*
X114689267Y-83660858D01*
X114740264Y-83694933D01*
X114791715Y-83729312D01*
X114857875Y-83756716D01*
X114905548Y-83776463D01*
X115026394Y-83800500D01*
X115026398Y-83800500D01*
X115026690Y-83800558D01*
X115088601Y-83832943D01*
X115123176Y-83893658D01*
X115126500Y-83922176D01*
X115126500Y-83981220D01*
X115126463Y-84048424D01*
X115126500Y-84049173D01*
X115126500Y-84944100D01*
X115106815Y-85011139D01*
X115054011Y-85056894D01*
X115002500Y-85068100D01*
X114977380Y-85068100D01*
X114911939Y-85081119D01*
X114911938Y-85081119D01*
X114856550Y-85092136D01*
X114856540Y-85092139D01*
X114799326Y-85115839D01*
X114742704Y-85139293D01*
X114692760Y-85172667D01*
X114692757Y-85172669D01*
X114640264Y-85207743D01*
X114640241Y-85207764D01*
X114608922Y-85239087D01*
X114608918Y-85239091D01*
X114549535Y-85298473D01*
X114549509Y-85298501D01*
X112777372Y-87070729D01*
X112726580Y-87101435D01*
X112624432Y-87133266D01*
X112624429Y-87133267D01*
X112561649Y-87171219D01*
X112494094Y-87189055D01*
X112433351Y-87171219D01*
X112370570Y-87133267D01*
X112370566Y-87133265D01*
X112217433Y-87085548D01*
X112217435Y-87085548D01*
X112184434Y-87082549D01*
X112119451Y-87056877D01*
X112107994Y-87046757D01*
X111187534Y-86126667D01*
X111187536Y-86126664D01*
X111187515Y-86126648D01*
X111136420Y-86075552D01*
X111136294Y-86075448D01*
X111074911Y-86034452D01*
X111074890Y-86034439D01*
X111013492Y-85993414D01*
X111013461Y-85993398D01*
X111013364Y-85993346D01*
X111013361Y-85993344D01*
X111013360Y-85993344D01*
X110976156Y-85977942D01*
X110945909Y-85965420D01*
X110945892Y-85965406D01*
X110945890Y-85965412D01*
X110876891Y-85936833D01*
X110876793Y-85936803D01*
X110804932Y-85922523D01*
X110804932Y-85922520D01*
X110804909Y-85922518D01*
X110731916Y-85907999D01*
X110731775Y-85907985D01*
X110731766Y-85907985D01*
X110657849Y-85908000D01*
X109364337Y-85908000D01*
X109297298Y-85888315D01*
X109291452Y-85884318D01*
X109277734Y-85874351D01*
X109277729Y-85874348D01*
X109104807Y-85797357D01*
X109104802Y-85797355D01*
X108959001Y-85766365D01*
X108919646Y-85758000D01*
X108730354Y-85758000D01*
X108697897Y-85764898D01*
X108545197Y-85797355D01*
X108545192Y-85797357D01*
X108372270Y-85874348D01*
X108372265Y-85874351D01*
X108219129Y-85985611D01*
X108092466Y-86126285D01*
X107997821Y-86290215D01*
X107997818Y-86290222D01*
X107939327Y-86470240D01*
X107939326Y-86470244D01*
X107919540Y-86658500D01*
X107939326Y-86846756D01*
X107939327Y-86846759D01*
X107997818Y-87026777D01*
X107997821Y-87026784D01*
X108092467Y-87190716D01*
X108197435Y-87307294D01*
X108219129Y-87331388D01*
X108372265Y-87442648D01*
X108372270Y-87442651D01*
X108545192Y-87519642D01*
X108545197Y-87519644D01*
X108730354Y-87559000D01*
X108730355Y-87559000D01*
X108919644Y-87559000D01*
X108919646Y-87559000D01*
X109104803Y-87519644D01*
X109277730Y-87442651D01*
X109283987Y-87438105D01*
X109291452Y-87432682D01*
X109357258Y-87409202D01*
X109364337Y-87409000D01*
X110295874Y-87409000D01*
X110362913Y-87428685D01*
X110383535Y-87445299D01*
X110850164Y-87911740D01*
X111009250Y-88070762D01*
X111042747Y-88132079D01*
X111045077Y-88147241D01*
X111048046Y-88179926D01*
X111048048Y-88179933D01*
X111095765Y-88333065D01*
X111095766Y-88333066D01*
X111095767Y-88333069D01*
X111131617Y-88392372D01*
X111149500Y-88456521D01*
X111149500Y-89167430D01*
X111149480Y-89239429D01*
X111149498Y-89239615D01*
X111163939Y-89312208D01*
X111163942Y-89312241D01*
X111163946Y-89312241D01*
X111163946Y-89312242D01*
X111178284Y-89384423D01*
X111178285Y-89384425D01*
X111178289Y-89384445D01*
X111178335Y-89384596D01*
X111206271Y-89452041D01*
X111206277Y-89452072D01*
X111206283Y-89452070D01*
X111234827Y-89521031D01*
X111234909Y-89521183D01*
X111234914Y-89521190D01*
X111234916Y-89521195D01*
X111276292Y-89583119D01*
X111276302Y-89583152D01*
X111276311Y-89583147D01*
X111316920Y-89643959D01*
X111316974Y-89644024D01*
X111317046Y-89644112D01*
X111317049Y-89644116D01*
X111370123Y-89697190D01*
X111773368Y-90100648D01*
X111806837Y-90161979D01*
X111801834Y-90231669D01*
X111773345Y-90275986D01*
X109849228Y-92200102D01*
X109787905Y-92233587D01*
X109787329Y-92233711D01*
X109722196Y-92247556D01*
X109722192Y-92247557D01*
X109549270Y-92324548D01*
X109549265Y-92324551D01*
X109396129Y-92435811D01*
X109269466Y-92576485D01*
X109174821Y-92740415D01*
X109174818Y-92740422D01*
X109119882Y-92909500D01*
X109116326Y-92920444D01*
X109096540Y-93108700D01*
X109116326Y-93296956D01*
X109116327Y-93296959D01*
X109174818Y-93476977D01*
X109174821Y-93476984D01*
X109269467Y-93640916D01*
X109359776Y-93741214D01*
X109396129Y-93781588D01*
X109549265Y-93892848D01*
X109549270Y-93892851D01*
X109722192Y-93969842D01*
X109722197Y-93969844D01*
X109907354Y-94009200D01*
X109907355Y-94009200D01*
X110096644Y-94009200D01*
X110096646Y-94009200D01*
X110281803Y-93969844D01*
X110454730Y-93892851D01*
X110607871Y-93781588D01*
X110734533Y-93640916D01*
X110829179Y-93476984D01*
X110884522Y-93306656D01*
X110914768Y-93257298D01*
X113432951Y-90739116D01*
X113515084Y-90616195D01*
X113571658Y-90479613D01*
X113571660Y-90479601D01*
X113572886Y-90475563D01*
X113603899Y-90423844D01*
X113755380Y-90272483D01*
X113816716Y-90239023D01*
X113843026Y-90236200D01*
X114567175Y-90236200D01*
X114634214Y-90255885D01*
X114679969Y-90308689D01*
X114689913Y-90377847D01*
X114660888Y-90441403D01*
X114659325Y-90443172D01*
X114643466Y-90460785D01*
X114548821Y-90624715D01*
X114548818Y-90624722D01*
X114498719Y-90778913D01*
X114490326Y-90804744D01*
X114475893Y-90942067D01*
X114470540Y-90993000D01*
X114482232Y-91104253D01*
X114469662Y-91172983D01*
X114446590Y-91204896D01*
X108362399Y-97288811D01*
X108362354Y-97288853D01*
X108302004Y-97349204D01*
X108302003Y-97349206D01*
X108272151Y-97379057D01*
X108272143Y-97379065D01*
X108270218Y-97381946D01*
X108233290Y-97437212D01*
X108203695Y-97481502D01*
X108203691Y-97481509D01*
X108203688Y-97481514D01*
X108203658Y-97481577D01*
X108203399Y-97482214D01*
X108189224Y-97516437D01*
X108189222Y-97516441D01*
X108156540Y-97595336D01*
X108156540Y-97595337D01*
X108156534Y-97595357D01*
X108146744Y-97644578D01*
X108146744Y-97644579D01*
X108132503Y-97716166D01*
X108132500Y-97716190D01*
X108132500Y-97744397D01*
X108132498Y-97845494D01*
X108132500Y-97845535D01*
X108132500Y-100909606D01*
X108137044Y-100932449D01*
X108154826Y-101021853D01*
X108156537Y-101030452D01*
X108158584Y-101035393D01*
X108203688Y-101144286D01*
X108213157Y-101158456D01*
X108213258Y-101158607D01*
X108213259Y-101158609D01*
X108272141Y-101246732D01*
X108272144Y-101246736D01*
X108363586Y-101338178D01*
X108363608Y-101338198D01*
X109210016Y-102184606D01*
X109210045Y-102184637D01*
X109300264Y-102274856D01*
X109300267Y-102274858D01*
X109377190Y-102326256D01*
X109402710Y-102343309D01*
X109402713Y-102343311D01*
X109402715Y-102343312D01*
X109451708Y-102363605D01*
X109451709Y-102363606D01*
X109451710Y-102363606D01*
X109516548Y-102390463D01*
X109564495Y-102400000D01*
X109637390Y-102414499D01*
X109637392Y-102414500D01*
X109637393Y-102414500D01*
X109637394Y-102414500D01*
X121998718Y-102414500D01*
X122065757Y-102434185D01*
X122111512Y-102486989D01*
X122121456Y-102556147D01*
X122092431Y-102619703D01*
X122086399Y-102626181D01*
X121539925Y-103172654D01*
X121478602Y-103206139D01*
X121426463Y-103206263D01*
X121394646Y-103199500D01*
X121205354Y-103199500D01*
X121174120Y-103206139D01*
X121020197Y-103238855D01*
X121020192Y-103238857D01*
X120847270Y-103315848D01*
X120847265Y-103315851D01*
X120833548Y-103325818D01*
X120767742Y-103349298D01*
X120760663Y-103349500D01*
X119858532Y-103349500D01*
X119791493Y-103329815D01*
X119785667Y-103325832D01*
X119701730Y-103264849D01*
X119701729Y-103264848D01*
X119528807Y-103187857D01*
X119528802Y-103187855D01*
X119383001Y-103156865D01*
X119343646Y-103148500D01*
X119154354Y-103148500D01*
X119121897Y-103155398D01*
X118969197Y-103187855D01*
X118969192Y-103187857D01*
X118796270Y-103264848D01*
X118796265Y-103264851D01*
X118643129Y-103376111D01*
X118516466Y-103516785D01*
X118421821Y-103680715D01*
X118421818Y-103680722D01*
X118363327Y-103860740D01*
X118363326Y-103860744D01*
X118343540Y-104049000D01*
X118363326Y-104237256D01*
X118363327Y-104237259D01*
X118421818Y-104417277D01*
X118421821Y-104417284D01*
X118516467Y-104581216D01*
X118643129Y-104721888D01*
X118796265Y-104833148D01*
X118796270Y-104833151D01*
X118969192Y-104910142D01*
X118969197Y-104910144D01*
X119154354Y-104949500D01*
X119154355Y-104949500D01*
X119343644Y-104949500D01*
X119343646Y-104949500D01*
X119528803Y-104910144D01*
X119609574Y-104874182D01*
X119638685Y-104861221D01*
X119689121Y-104850500D01*
X120760663Y-104850500D01*
X120827702Y-104870185D01*
X120833548Y-104874182D01*
X120847265Y-104884148D01*
X120847270Y-104884151D01*
X121020192Y-104961142D01*
X121020197Y-104961144D01*
X121205354Y-105000500D01*
X121205355Y-105000500D01*
X121394644Y-105000500D01*
X121394646Y-105000500D01*
X121579803Y-104961144D01*
X121752730Y-104884151D01*
X121905871Y-104772888D01*
X122032533Y-104632216D01*
X122127179Y-104468284D01*
X122169982Y-104336547D01*
X122200229Y-104287188D01*
X123150600Y-103336819D01*
X123211923Y-103303334D01*
X123238281Y-103300500D01*
X123294644Y-103300500D01*
X123294646Y-103300500D01*
X123479803Y-103261144D01*
X123652730Y-103184151D01*
X123805871Y-103072888D01*
X123932533Y-102932216D01*
X124027179Y-102768284D01*
X124085674Y-102588256D01*
X124105460Y-102400000D01*
X124085674Y-102211744D01*
X124032191Y-102047144D01*
X124030197Y-101977304D01*
X124062440Y-101921148D01*
X125064513Y-100919076D01*
X125125834Y-100885593D01*
X125195526Y-100890577D01*
X125251459Y-100932449D01*
X125275512Y-100993796D01*
X125291326Y-101144256D01*
X125291327Y-101144259D01*
X125349818Y-101324277D01*
X125349821Y-101324284D01*
X125444467Y-101488216D01*
X125559394Y-101615855D01*
X125571129Y-101628888D01*
X125724265Y-101740148D01*
X125724270Y-101740151D01*
X125897192Y-101817142D01*
X125897193Y-101817142D01*
X125897197Y-101817144D01*
X125966765Y-101831931D01*
X125990241Y-101836921D01*
X126051723Y-101870113D01*
X126085500Y-101931276D01*
X126086035Y-101978523D01*
X126086142Y-101978533D01*
X126086047Y-101979578D01*
X126086079Y-101982401D01*
X126085547Y-101985071D01*
X126079500Y-102051621D01*
X126079500Y-102553388D01*
X126085546Y-102619926D01*
X126085548Y-102619933D01*
X126133265Y-102773066D01*
X126133267Y-102773070D01*
X126171219Y-102835851D01*
X126189055Y-102903406D01*
X126171219Y-102964149D01*
X126133267Y-103026929D01*
X126133265Y-103026933D01*
X126085548Y-103180065D01*
X126085548Y-103180066D01*
X126085548Y-103180067D01*
X126080206Y-103238857D01*
X126079500Y-103246621D01*
X126079500Y-103748388D01*
X126085546Y-103814926D01*
X126085548Y-103814933D01*
X126133265Y-103968066D01*
X126133267Y-103968070D01*
X126216242Y-104105329D01*
X126216246Y-104105334D01*
X126238181Y-104127269D01*
X126271666Y-104188592D01*
X126274500Y-104214950D01*
X126274500Y-106628611D01*
X126298535Y-106749444D01*
X126298540Y-106749461D01*
X126345685Y-106863280D01*
X126345690Y-106863289D01*
X126379914Y-106914507D01*
X126379915Y-106914509D01*
X126414141Y-106965733D01*
X126424231Y-106975823D01*
X126457716Y-107037146D01*
X126452732Y-107106838D01*
X126410860Y-107162771D01*
X126409436Y-107163822D01*
X126252126Y-107278114D01*
X126246400Y-107284474D01*
X126186913Y-107321121D01*
X126154252Y-107325500D01*
X123143942Y-107325500D01*
X123076903Y-107305815D01*
X123071057Y-107301818D01*
X122952734Y-107215851D01*
X122952729Y-107215848D01*
X122779807Y-107138857D01*
X122779802Y-107138855D01*
X122607146Y-107102157D01*
X122594646Y-107099500D01*
X122405354Y-107099500D01*
X122392854Y-107102157D01*
X122220197Y-107138855D01*
X122220192Y-107138857D01*
X122047270Y-107215848D01*
X122047265Y-107215851D01*
X121894129Y-107327111D01*
X121767466Y-107467785D01*
X121672821Y-107631715D01*
X121672818Y-107631722D01*
X121622450Y-107786740D01*
X121614326Y-107811744D01*
X121605272Y-107897888D01*
X121594540Y-108000000D01*
X121614327Y-108188261D01*
X121615678Y-108194617D01*
X121614080Y-108194956D01*
X121615837Y-108256628D01*
X121579752Y-108316458D01*
X121519455Y-108346097D01*
X120306251Y-109559300D01*
X120232412Y-109457670D01*
X120054330Y-109279588D01*
X119952698Y-109205748D01*
X121164742Y-107993704D01*
X121151504Y-107981163D01*
X120866632Y-107764611D01*
X120866629Y-107764609D01*
X120560009Y-107580123D01*
X120235260Y-107429877D01*
X120235255Y-107429876D01*
X119896144Y-107315616D01*
X119546660Y-107238688D01*
X119190924Y-107200000D01*
X118833075Y-107200000D01*
X118477339Y-107238688D01*
X118127855Y-107315616D01*
X117788744Y-107429876D01*
X117788739Y-107429877D01*
X117463990Y-107580123D01*
X117157370Y-107764609D01*
X117157367Y-107764611D01*
X116872486Y-107981170D01*
X116872485Y-107981171D01*
X116859257Y-107993702D01*
X116859256Y-107993703D01*
X118071301Y-109205748D01*
X117969670Y-109279588D01*
X117791588Y-109457670D01*
X117717748Y-109559301D01*
X116508442Y-108349995D01*
X116508441Y-108349996D01*
X116381033Y-108499992D01*
X116180218Y-108796172D01*
X116012606Y-109112322D01*
X116012597Y-109112340D01*
X115880149Y-109444760D01*
X115880147Y-109444767D01*
X115784421Y-109789542D01*
X115784415Y-109789568D01*
X115726527Y-110142668D01*
X115726526Y-110142685D01*
X115707153Y-110499997D01*
X115707153Y-110500002D01*
X115726526Y-110857314D01*
X115726527Y-110857331D01*
X115784415Y-111210431D01*
X115784421Y-111210457D01*
X115880147Y-111555232D01*
X115880149Y-111555239D01*
X116012597Y-111887659D01*
X116012606Y-111887677D01*
X116180218Y-112203827D01*
X116381024Y-112499994D01*
X116381035Y-112500008D01*
X116508441Y-112650002D01*
X116508442Y-112650002D01*
X117717747Y-111440697D01*
X117791588Y-111542330D01*
X117969670Y-111720412D01*
X118071300Y-111794251D01*
X116859257Y-113006294D01*
X116872495Y-113018836D01*
X117157367Y-113235388D01*
X117157370Y-113235390D01*
X117463987Y-113419874D01*
X117503080Y-113437961D01*
X117555658Y-113483975D01*
X117575011Y-113551111D01*
X117554997Y-113618053D01*
X117501968Y-113663547D01*
X117451013Y-113674500D01*
X109604067Y-113674500D01*
X109595957Y-113674235D01*
X109350379Y-113658139D01*
X109334298Y-113656021D01*
X109096935Y-113608806D01*
X109081268Y-113604608D01*
X108852088Y-113526812D01*
X108837102Y-113520605D01*
X108836917Y-113520514D01*
X108733060Y-113469297D01*
X108620039Y-113413561D01*
X108605992Y-113405451D01*
X108404758Y-113270991D01*
X108391890Y-113261117D01*
X108209928Y-113101540D01*
X108198459Y-113090071D01*
X108038882Y-112908109D01*
X108029008Y-112895241D01*
X108018041Y-112878828D01*
X107894548Y-112694007D01*
X107886438Y-112679960D01*
X107845910Y-112597778D01*
X107779391Y-112462890D01*
X107773187Y-112447911D01*
X107695391Y-112218731D01*
X107691193Y-112203064D01*
X107669897Y-112096003D01*
X107643976Y-111965690D01*
X107641861Y-111949632D01*
X107625765Y-111704043D01*
X107625500Y-111695933D01*
X107625500Y-111499994D01*
X108394357Y-111499994D01*
X108394357Y-111500005D01*
X108414890Y-111747812D01*
X108414892Y-111747824D01*
X108475936Y-111988881D01*
X108575826Y-112216606D01*
X108711833Y-112424782D01*
X108711836Y-112424785D01*
X108880256Y-112607738D01*
X109076491Y-112760474D01*
X109295190Y-112878828D01*
X109530386Y-112959571D01*
X109775665Y-113000500D01*
X110024335Y-113000500D01*
X110269614Y-112959571D01*
X110504810Y-112878828D01*
X110723509Y-112760474D01*
X110919744Y-112607738D01*
X111088164Y-112424785D01*
X111224173Y-112216607D01*
X111324063Y-111988881D01*
X111385108Y-111747821D01*
X111401066Y-111555239D01*
X111405643Y-111500005D01*
X111405643Y-111499994D01*
X111385109Y-111252187D01*
X111385107Y-111252175D01*
X111324063Y-111011118D01*
X111224173Y-110783393D01*
X111088166Y-110575217D01*
X111066557Y-110551744D01*
X110919744Y-110392262D01*
X110723509Y-110239526D01*
X110723507Y-110239525D01*
X110723506Y-110239524D01*
X110504811Y-110121172D01*
X110504802Y-110121169D01*
X110269616Y-110040429D01*
X110024335Y-109999500D01*
X109775665Y-109999500D01*
X109530383Y-110040429D01*
X109295197Y-110121169D01*
X109295188Y-110121172D01*
X109076493Y-110239524D01*
X108880257Y-110392261D01*
X108711833Y-110575217D01*
X108575826Y-110783393D01*
X108475936Y-111011118D01*
X108414892Y-111252175D01*
X108414890Y-111252187D01*
X108394357Y-111499994D01*
X107625500Y-111499994D01*
X107625500Y-105626831D01*
X109087050Y-105626831D01*
X109087050Y-105853168D01*
X109122458Y-106076722D01*
X109122458Y-106076725D01*
X109192398Y-106291978D01*
X109192400Y-106291981D01*
X109295155Y-106493650D01*
X109428193Y-106676761D01*
X109588239Y-106836807D01*
X109771350Y-106969845D01*
X109973019Y-107072600D01*
X109973021Y-107072601D01*
X110063986Y-107102157D01*
X110188279Y-107142542D01*
X110411831Y-107177950D01*
X110411832Y-107177950D01*
X110638168Y-107177950D01*
X110638169Y-107177950D01*
X110861721Y-107142542D01*
X110861724Y-107142541D01*
X110861725Y-107142541D01*
X111076978Y-107072601D01*
X111076978Y-107072600D01*
X111076981Y-107072600D01*
X111278650Y-106969845D01*
X111461761Y-106836807D01*
X111621807Y-106676761D01*
X111754845Y-106493650D01*
X111857600Y-106291981D01*
X111882476Y-106215420D01*
X111927541Y-106076725D01*
X111927541Y-106076724D01*
X111927542Y-106076721D01*
X111962950Y-105853169D01*
X111962950Y-105666540D01*
X112319200Y-105666540D01*
X112319200Y-105813459D01*
X112347858Y-105957534D01*
X112347861Y-105957544D01*
X112404078Y-106093266D01*
X112404083Y-106093275D01*
X112485698Y-106215419D01*
X112485701Y-106215423D01*
X112589576Y-106319298D01*
X112589580Y-106319301D01*
X112711724Y-106400916D01*
X112711730Y-106400919D01*
X112711731Y-106400920D01*
X112847458Y-106457140D01*
X112991540Y-106485799D01*
X112991544Y-106485800D01*
X112991545Y-106485800D01*
X113138456Y-106485800D01*
X113138457Y-106485799D01*
X113282542Y-106457140D01*
X113418269Y-106400920D01*
X113540420Y-106319301D01*
X113644301Y-106215420D01*
X113725920Y-106093269D01*
X113782140Y-105957542D01*
X113810800Y-105813455D01*
X113810800Y-105666545D01*
X113802901Y-105626831D01*
X114167050Y-105626831D01*
X114167050Y-105853168D01*
X114202458Y-106076722D01*
X114202458Y-106076725D01*
X114272398Y-106291978D01*
X114272400Y-106291981D01*
X114375155Y-106493650D01*
X114508193Y-106676761D01*
X114668239Y-106836807D01*
X114851350Y-106969845D01*
X115053019Y-107072600D01*
X115053021Y-107072601D01*
X115143986Y-107102157D01*
X115268279Y-107142542D01*
X115491831Y-107177950D01*
X115491832Y-107177950D01*
X115718168Y-107177950D01*
X115718169Y-107177950D01*
X115941721Y-107142542D01*
X115941724Y-107142541D01*
X115941725Y-107142541D01*
X116156978Y-107072601D01*
X116156978Y-107072600D01*
X116156981Y-107072600D01*
X116358650Y-106969845D01*
X116541761Y-106836807D01*
X116701807Y-106676761D01*
X116834845Y-106493650D01*
X116937600Y-106291981D01*
X116962476Y-106215420D01*
X117007541Y-106076725D01*
X117007541Y-106076724D01*
X117007542Y-106076721D01*
X117042950Y-105853169D01*
X117042950Y-105626831D01*
X117007542Y-105403279D01*
X117007541Y-105403275D01*
X117007541Y-105403274D01*
X116937601Y-105188021D01*
X116937599Y-105188018D01*
X116923681Y-105160701D01*
X116834845Y-104986350D01*
X116701807Y-104803239D01*
X116541761Y-104643193D01*
X116358650Y-104510155D01*
X116156981Y-104407400D01*
X116156978Y-104407398D01*
X115941723Y-104337458D01*
X115757231Y-104308237D01*
X115718169Y-104302050D01*
X115491831Y-104302050D01*
X115452769Y-104308237D01*
X115268277Y-104337458D01*
X115268274Y-104337458D01*
X115053021Y-104407398D01*
X115053018Y-104407400D01*
X114851349Y-104510155D01*
X114753546Y-104581214D01*
X114668239Y-104643193D01*
X114668237Y-104643195D01*
X114668236Y-104643195D01*
X114508195Y-104803236D01*
X114508195Y-104803237D01*
X114508193Y-104803239D01*
X114486463Y-104833148D01*
X114375155Y-104986349D01*
X114272400Y-105188018D01*
X114272398Y-105188021D01*
X114202458Y-105403274D01*
X114202458Y-105403277D01*
X114167050Y-105626831D01*
X113802901Y-105626831D01*
X113782140Y-105522458D01*
X113725920Y-105386731D01*
X113725919Y-105386730D01*
X113725916Y-105386724D01*
X113644301Y-105264580D01*
X113644298Y-105264576D01*
X113540423Y-105160701D01*
X113540419Y-105160698D01*
X113418275Y-105079083D01*
X113418266Y-105079078D01*
X113291211Y-105026451D01*
X113282542Y-105022860D01*
X113282538Y-105022859D01*
X113282534Y-105022858D01*
X113138459Y-104994200D01*
X113138455Y-104994200D01*
X112991545Y-104994200D01*
X112991540Y-104994200D01*
X112847465Y-105022858D01*
X112847455Y-105022861D01*
X112711733Y-105079078D01*
X112711724Y-105079083D01*
X112589580Y-105160698D01*
X112589576Y-105160701D01*
X112485701Y-105264576D01*
X112485698Y-105264580D01*
X112404083Y-105386724D01*
X112404078Y-105386733D01*
X112347861Y-105522455D01*
X112347858Y-105522465D01*
X112319200Y-105666540D01*
X111962950Y-105666540D01*
X111962950Y-105626831D01*
X111927542Y-105403279D01*
X111927541Y-105403275D01*
X111927541Y-105403274D01*
X111857601Y-105188021D01*
X111857599Y-105188018D01*
X111843681Y-105160701D01*
X111754845Y-104986350D01*
X111621807Y-104803239D01*
X111461761Y-104643193D01*
X111278650Y-104510155D01*
X111076981Y-104407400D01*
X111076978Y-104407398D01*
X110861723Y-104337458D01*
X110677231Y-104308237D01*
X110638169Y-104302050D01*
X110411831Y-104302050D01*
X110372769Y-104308237D01*
X110188277Y-104337458D01*
X110188274Y-104337458D01*
X109973021Y-104407398D01*
X109973018Y-104407400D01*
X109771349Y-104510155D01*
X109673546Y-104581214D01*
X109588239Y-104643193D01*
X109588237Y-104643195D01*
X109588236Y-104643195D01*
X109428195Y-104803236D01*
X109428195Y-104803237D01*
X109428193Y-104803239D01*
X109406463Y-104833148D01*
X109295155Y-104986349D01*
X109192400Y-105188018D01*
X109192398Y-105188021D01*
X109122458Y-105403274D01*
X109122458Y-105403277D01*
X109087050Y-105626831D01*
X107625500Y-105626831D01*
X107625500Y-65704066D01*
X107625765Y-65695956D01*
X107634201Y-65567242D01*
X107641861Y-65450365D01*
X107643976Y-65434311D01*
X107691193Y-65196933D01*
X107695391Y-65181268D01*
X107717783Y-65115302D01*
X107773189Y-64952080D01*
X107779388Y-64937114D01*
X107886441Y-64720033D01*
X107894544Y-64705998D01*
X108029016Y-64504746D01*
X108038873Y-64491900D01*
X108198464Y-64309922D01*
X108209922Y-64298464D01*
X108391900Y-64138873D01*
X108404746Y-64129016D01*
X108605998Y-63994544D01*
X108620033Y-63986441D01*
X108837114Y-63879388D01*
X108852080Y-63873189D01*
X109015302Y-63817783D01*
X109081268Y-63795391D01*
X109096935Y-63791193D01*
X109334311Y-63743976D01*
X109350367Y-63741861D01*
X109575757Y-63727088D01*
X109595958Y-63725765D01*
X109604067Y-63725500D01*
X109608285Y-63725500D01*
X120151959Y-63725500D01*
X120218998Y-63745185D01*
G37*
%TD.AperFunction*%
%TA.AperFunction,Conductor*%
G36*
X126221291Y-108596185D02*
G01*
X126246400Y-108617526D01*
X126252126Y-108623885D01*
X126252130Y-108623889D01*
X126405265Y-108735148D01*
X126405270Y-108735151D01*
X126578192Y-108812142D01*
X126578197Y-108812144D01*
X126763354Y-108851500D01*
X126763355Y-108851500D01*
X126952644Y-108851500D01*
X126952646Y-108851500D01*
X127114716Y-108817051D01*
X127184382Y-108822367D01*
X127240116Y-108864504D01*
X127264221Y-108930084D01*
X127250052Y-108996423D01*
X127188603Y-109112329D01*
X127188597Y-109112340D01*
X127056149Y-109444760D01*
X127056147Y-109444767D01*
X126960421Y-109789542D01*
X126960415Y-109789568D01*
X126902527Y-110142668D01*
X126902526Y-110142685D01*
X126883153Y-110499997D01*
X126883153Y-110500002D01*
X126902526Y-110857314D01*
X126902527Y-110857331D01*
X126960415Y-111210431D01*
X126960421Y-111210457D01*
X127056147Y-111555232D01*
X127056149Y-111555239D01*
X127188597Y-111887659D01*
X127188606Y-111887677D01*
X127356218Y-112203827D01*
X127557024Y-112499994D01*
X127557035Y-112500008D01*
X127684441Y-112650002D01*
X127684442Y-112650002D01*
X128893747Y-111440697D01*
X128967588Y-111542330D01*
X129145670Y-111720412D01*
X129247300Y-111794251D01*
X128035257Y-113006294D01*
X128048495Y-113018836D01*
X128333367Y-113235388D01*
X128333370Y-113235390D01*
X128639987Y-113419874D01*
X128679080Y-113437961D01*
X128731658Y-113483975D01*
X128751011Y-113551111D01*
X128730997Y-113618053D01*
X128677968Y-113663547D01*
X128627013Y-113674500D01*
X120572987Y-113674500D01*
X120505948Y-113654815D01*
X120460193Y-113602011D01*
X120450249Y-113532853D01*
X120479274Y-113469297D01*
X120520920Y-113437961D01*
X120560012Y-113419874D01*
X120866629Y-113235390D01*
X120866632Y-113235388D01*
X121151509Y-113018831D01*
X121164742Y-113006295D01*
X121164742Y-113006294D01*
X119952699Y-111794251D01*
X120054330Y-111720412D01*
X120232412Y-111542330D01*
X120306251Y-111440698D01*
X121515556Y-112650002D01*
X121642972Y-112499998D01*
X121642975Y-112499994D01*
X121843781Y-112203827D01*
X122011393Y-111887677D01*
X122011402Y-111887659D01*
X122143850Y-111555239D01*
X122143852Y-111555232D01*
X122239578Y-111210457D01*
X122239584Y-111210431D01*
X122297472Y-110857331D01*
X122297473Y-110857314D01*
X122316847Y-110500002D01*
X122316847Y-110499997D01*
X122297473Y-110142685D01*
X122297472Y-110142668D01*
X122239584Y-109789568D01*
X122239578Y-109789542D01*
X122143852Y-109444767D01*
X122143850Y-109444760D01*
X122011402Y-109112340D01*
X122011393Y-109112322D01*
X121940920Y-108979396D01*
X121926909Y-108910946D01*
X121952130Y-108845787D01*
X122008574Y-108804607D01*
X122078322Y-108800480D01*
X122100911Y-108808034D01*
X122220192Y-108861142D01*
X122220197Y-108861144D01*
X122405354Y-108900500D01*
X122405355Y-108900500D01*
X122594644Y-108900500D01*
X122594646Y-108900500D01*
X122779803Y-108861144D01*
X122952730Y-108784151D01*
X123105871Y-108672888D01*
X123105876Y-108672883D01*
X123155718Y-108617528D01*
X123215204Y-108580879D01*
X123247868Y-108576500D01*
X126154252Y-108576500D01*
X126221291Y-108596185D01*
G37*
%TD.AperFunction*%
%TA.AperFunction,Conductor*%
G36*
X141532590Y-102737345D02*
G01*
X141569804Y-102796479D01*
X141574500Y-102830281D01*
X141574500Y-111695933D01*
X141574235Y-111704043D01*
X141558139Y-111949620D01*
X141556021Y-111965701D01*
X141508806Y-112203064D01*
X141504608Y-112218731D01*
X141426812Y-112447911D01*
X141420605Y-112462897D01*
X141313561Y-112679960D01*
X141305451Y-112694007D01*
X141170991Y-112895241D01*
X141161117Y-112908109D01*
X141001540Y-113090071D01*
X140990071Y-113101540D01*
X140808109Y-113261117D01*
X140795241Y-113270991D01*
X140594007Y-113405451D01*
X140579960Y-113413561D01*
X140362897Y-113520605D01*
X140347911Y-113526812D01*
X140118731Y-113604608D01*
X140103064Y-113608806D01*
X139865701Y-113656021D01*
X139849620Y-113658139D01*
X139604043Y-113674235D01*
X139595933Y-113674500D01*
X131748987Y-113674500D01*
X131681948Y-113654815D01*
X131636193Y-113602011D01*
X131626249Y-113532853D01*
X131655274Y-113469297D01*
X131696920Y-113437961D01*
X131736012Y-113419874D01*
X132042629Y-113235390D01*
X132042632Y-113235388D01*
X132327509Y-113018831D01*
X132340742Y-113006295D01*
X132340742Y-113006294D01*
X131128699Y-111794251D01*
X131230330Y-111720412D01*
X131408412Y-111542330D01*
X131482251Y-111440698D01*
X132691556Y-112650002D01*
X132818972Y-112499998D01*
X132818975Y-112499994D01*
X133019781Y-112203827D01*
X133187393Y-111887677D01*
X133187402Y-111887659D01*
X133319850Y-111555239D01*
X133319852Y-111555232D01*
X133415578Y-111210457D01*
X133415584Y-111210431D01*
X133473472Y-110857331D01*
X133473473Y-110857314D01*
X133492847Y-110500002D01*
X133492847Y-110499997D01*
X133473473Y-110142685D01*
X133473472Y-110142668D01*
X133415584Y-109789568D01*
X133415579Y-109789547D01*
X133330932Y-109484674D01*
X133331964Y-109414812D01*
X133370602Y-109356598D01*
X133434580Y-109328515D01*
X133450412Y-109327500D01*
X137599339Y-109327500D01*
X137600273Y-109327545D01*
X137605810Y-109327541D01*
X137605814Y-109327542D01*
X137668101Y-109327500D01*
X137668164Y-109327500D01*
X137728607Y-109327500D01*
X137729019Y-109327459D01*
X137729027Y-109327459D01*
X137765364Y-109320205D01*
X137789512Y-109315385D01*
X137789515Y-109315403D01*
X137789594Y-109315368D01*
X137849452Y-109303463D01*
X137849464Y-109303457D01*
X137849845Y-109303342D01*
X137849856Y-109303340D01*
X137906395Y-109279876D01*
X137963286Y-109256311D01*
X137963298Y-109256302D01*
X137963651Y-109256114D01*
X137963658Y-109256112D01*
X138014304Y-109222220D01*
X138014388Y-109222194D01*
X138014375Y-109222174D01*
X138022876Y-109216493D01*
X138065733Y-109187858D01*
X138065744Y-109187846D01*
X138065903Y-109187717D01*
X138066051Y-109187594D01*
X138066060Y-109187589D01*
X138109122Y-109144468D01*
X138152858Y-109100733D01*
X138152858Y-109100732D01*
X138156911Y-109096680D01*
X138157526Y-109095997D01*
X138358378Y-108894877D01*
X138419678Y-108861351D01*
X138446117Y-108858500D01*
X138504644Y-108858500D01*
X138504646Y-108858500D01*
X138689803Y-108819144D01*
X138862730Y-108742151D01*
X139015871Y-108630888D01*
X139142533Y-108490216D01*
X139237179Y-108326284D01*
X139295674Y-108146256D01*
X139315460Y-107958000D01*
X139295674Y-107769744D01*
X139237179Y-107589716D01*
X139142533Y-107425784D01*
X139015871Y-107285112D01*
X139006239Y-107278114D01*
X138862734Y-107173851D01*
X138862729Y-107173848D01*
X138689806Y-107096857D01*
X138686705Y-107095849D01*
X138685142Y-107094780D01*
X138683866Y-107094212D01*
X138683969Y-107093978D01*
X138629032Y-107056407D01*
X138601838Y-106992047D01*
X138613757Y-106923201D01*
X138637347Y-106890242D01*
X140284858Y-105242733D01*
X140353312Y-105140285D01*
X140400463Y-105026451D01*
X140415770Y-104949500D01*
X140424501Y-104905608D01*
X140424501Y-104777283D01*
X140424500Y-104777257D01*
X140424500Y-102877031D01*
X140444185Y-102809992D01*
X140496989Y-102764237D01*
X140566147Y-102754293D01*
X140598934Y-102763751D01*
X140667197Y-102794144D01*
X140852354Y-102833500D01*
X140852355Y-102833500D01*
X141041644Y-102833500D01*
X141041646Y-102833500D01*
X141226803Y-102794144D01*
X141399730Y-102717151D01*
X141399731Y-102717150D01*
X141400064Y-102717002D01*
X141469314Y-102707717D01*
X141532590Y-102737345D01*
G37*
%TD.AperFunction*%
%TA.AperFunction,Conductor*%
G36*
X126868294Y-96927885D02*
G01*
X126889023Y-96944606D01*
X126898871Y-96954473D01*
X126924334Y-96979988D01*
X126925433Y-96981201D01*
X126957502Y-97013269D01*
X126980795Y-97036562D01*
X127032999Y-97088871D01*
X127033005Y-97088877D01*
X127033370Y-97089176D01*
X127033435Y-97089229D01*
X127033584Y-97089351D01*
X127094467Y-97130031D01*
X127094550Y-97130131D01*
X127094571Y-97130101D01*
X127155838Y-97171127D01*
X127156507Y-97171485D01*
X127224453Y-97199629D01*
X127224447Y-97199642D01*
X127224560Y-97199673D01*
X127292363Y-97227838D01*
X127292365Y-97227838D01*
X127292369Y-97227840D01*
X127292718Y-97227946D01*
X127292767Y-97227961D01*
X127293080Y-97228056D01*
X127293084Y-97228056D01*
X127293087Y-97228058D01*
X127365300Y-97242421D01*
X127365414Y-97242481D01*
X127365422Y-97242446D01*
X127437329Y-97256825D01*
X127437332Y-97256825D01*
X127443333Y-97258025D01*
X127443299Y-97258193D01*
X127448516Y-97259066D01*
X127448537Y-97259071D01*
X127447977Y-97261422D01*
X127501138Y-97282895D01*
X127541492Y-97339933D01*
X127544602Y-97409733D01*
X127543265Y-97414724D01*
X127535421Y-97441721D01*
X127534770Y-97450000D01*
X128433219Y-97450000D01*
X128500258Y-97469685D01*
X128546013Y-97522489D01*
X128556539Y-97586957D01*
X128539540Y-97748700D01*
X128559326Y-97936956D01*
X128559327Y-97936959D01*
X128617819Y-98116981D01*
X128617821Y-98116984D01*
X128633387Y-98143946D01*
X128650000Y-98205945D01*
X128650000Y-98510000D01*
X128678642Y-98510000D01*
X128678657Y-98509999D01*
X128715777Y-98507078D01*
X128715780Y-98507077D01*
X128829613Y-98474005D01*
X128899482Y-98474204D01*
X128937095Y-98492764D01*
X128992268Y-98532850D01*
X129165192Y-98609842D01*
X129165197Y-98609844D01*
X129350354Y-98649200D01*
X129451047Y-98649200D01*
X129518086Y-98668885D01*
X129538728Y-98685519D01*
X129550889Y-98697680D01*
X129593883Y-98740742D01*
X129593886Y-98740744D01*
X129593889Y-98740747D01*
X129594263Y-98741054D01*
X129594267Y-98741058D01*
X129594270Y-98741060D01*
X129594465Y-98741220D01*
X129594810Y-98741503D01*
X129603940Y-98749774D01*
X129863217Y-99009264D01*
X129896677Y-99070601D01*
X129899500Y-99096909D01*
X129899500Y-99486669D01*
X129899501Y-99486687D01*
X129909825Y-99587752D01*
X129921684Y-99623538D01*
X129959778Y-99738497D01*
X129962180Y-99808324D01*
X129926449Y-99868366D01*
X129863928Y-99899559D01*
X129842072Y-99901500D01*
X129722354Y-99901500D01*
X129689897Y-99908398D01*
X129537197Y-99940855D01*
X129537192Y-99940857D01*
X129364270Y-100017848D01*
X129364265Y-100017851D01*
X129211129Y-100129111D01*
X129084466Y-100269785D01*
X128989821Y-100433715D01*
X128989818Y-100433722D01*
X128933698Y-100606444D01*
X128931326Y-100613744D01*
X128911540Y-100802000D01*
X128931326Y-100990256D01*
X128931327Y-100990259D01*
X128989818Y-101170277D01*
X128989821Y-101170284D01*
X129084467Y-101334216D01*
X129211129Y-101474888D01*
X129364265Y-101586148D01*
X129364270Y-101586151D01*
X129537192Y-101663142D01*
X129537197Y-101663144D01*
X129722354Y-101702500D01*
X129867960Y-101702500D01*
X129915409Y-101711937D01*
X129929205Y-101717651D01*
X129929204Y-101717651D01*
X129929207Y-101717652D01*
X129962548Y-101731463D01*
X129963936Y-101731739D01*
X130006185Y-101740143D01*
X130006205Y-101740146D01*
X130006227Y-101740151D01*
X130083391Y-101755499D01*
X130083392Y-101755500D01*
X130083393Y-101755500D01*
X134033608Y-101755500D01*
X134033608Y-101755499D01*
X134110773Y-101740151D01*
X134110774Y-101740151D01*
X134125601Y-101737201D01*
X134154452Y-101731463D01*
X134187792Y-101717652D01*
X134268286Y-101684312D01*
X134339509Y-101636721D01*
X134370733Y-101615858D01*
X134457858Y-101528733D01*
X134457858Y-101528731D01*
X134468066Y-101518524D01*
X134468068Y-101518521D01*
X134888847Y-101097741D01*
X134897886Y-101089552D01*
X134898722Y-101088864D01*
X134898733Y-101088858D01*
X134985858Y-101001733D01*
X134985859Y-101001731D01*
X134992925Y-100994665D01*
X134992928Y-100994661D01*
X135430771Y-100556818D01*
X135492094Y-100523333D01*
X135518452Y-100520499D01*
X135653388Y-100520499D01*
X135719926Y-100514453D01*
X135719927Y-100514452D01*
X135719933Y-100514452D01*
X135873069Y-100466733D01*
X135935850Y-100428779D01*
X136003405Y-100410944D01*
X136064149Y-100428779D01*
X136126931Y-100466733D01*
X136126934Y-100466734D01*
X136126933Y-100466734D01*
X136181100Y-100483612D01*
X136280067Y-100514452D01*
X136346619Y-100520500D01*
X136793546Y-100520499D01*
X136860585Y-100540183D01*
X136881227Y-100556818D01*
X137367038Y-101042629D01*
X137400523Y-101103952D01*
X137402678Y-101117348D01*
X137408242Y-101170284D01*
X137420326Y-101285256D01*
X137420327Y-101285259D01*
X137478818Y-101465277D01*
X137478821Y-101465284D01*
X137573467Y-101629216D01*
X137673351Y-101740148D01*
X137700129Y-101769888D01*
X137853265Y-101881148D01*
X137853270Y-101881151D01*
X138026192Y-101958142D01*
X138026197Y-101958144D01*
X138211354Y-101997500D01*
X138211355Y-101997500D01*
X138400644Y-101997500D01*
X138400646Y-101997500D01*
X138585803Y-101958144D01*
X138758730Y-101881151D01*
X138911871Y-101769888D01*
X138949265Y-101728357D01*
X139008751Y-101691709D01*
X139078608Y-101693038D01*
X139129100Y-101723652D01*
X139137188Y-101731740D01*
X139170668Y-101793064D01*
X139173500Y-101819415D01*
X139173500Y-104533547D01*
X139153815Y-104600586D01*
X139137181Y-104621228D01*
X136720229Y-107038181D01*
X136658906Y-107071666D01*
X136632548Y-107074500D01*
X136573354Y-107074500D01*
X136540897Y-107081398D01*
X136388197Y-107113855D01*
X136388192Y-107113857D01*
X136215270Y-107190848D01*
X136215265Y-107190851D01*
X136062129Y-107302111D01*
X135935466Y-107442785D01*
X135840821Y-107606715D01*
X135840818Y-107606722D01*
X135782327Y-107786740D01*
X135782326Y-107786744D01*
X135770645Y-107897888D01*
X135763543Y-107965461D01*
X135736959Y-108030076D01*
X135679661Y-108070061D01*
X135640222Y-108076500D01*
X133360563Y-108076500D01*
X133293524Y-108056815D01*
X133272860Y-108040159D01*
X133198199Y-107965461D01*
X132864621Y-107631715D01*
X131992968Y-106759625D01*
X131959498Y-106698294D01*
X131957350Y-106684928D01*
X131951431Y-106628611D01*
X131939674Y-106516744D01*
X131881179Y-106336716D01*
X131786533Y-106172784D01*
X131659871Y-106032112D01*
X131557237Y-105957544D01*
X131506734Y-105920851D01*
X131506729Y-105920848D01*
X131333807Y-105843857D01*
X131333802Y-105843855D01*
X131188001Y-105812865D01*
X131148646Y-105804500D01*
X130959354Y-105804500D01*
X130926897Y-105811398D01*
X130774197Y-105843855D01*
X130774192Y-105843857D01*
X130601270Y-105920848D01*
X130601265Y-105920851D01*
X130448129Y-106032111D01*
X130321466Y-106172785D01*
X130296851Y-106215420D01*
X130234267Y-106323820D01*
X130226824Y-106336711D01*
X130226818Y-106336722D01*
X130172014Y-106505393D01*
X130168326Y-106516744D01*
X130148540Y-106705000D01*
X130168326Y-106893256D01*
X130168327Y-106893259D01*
X130215253Y-107037682D01*
X130217248Y-107107523D01*
X130181168Y-107167356D01*
X130118467Y-107198184D01*
X130097322Y-107200000D01*
X130009075Y-107200000D01*
X129653339Y-107238688D01*
X129303855Y-107315616D01*
X128964744Y-107429876D01*
X128964739Y-107429877D01*
X128639990Y-107580123D01*
X128639978Y-107580129D01*
X128613010Y-107596355D01*
X128545418Y-107614049D01*
X128478990Y-107592390D01*
X128434817Y-107538256D01*
X128426923Y-107468834D01*
X128431151Y-107451795D01*
X128443674Y-107413256D01*
X128463460Y-107225000D01*
X128443674Y-107036744D01*
X128385179Y-106856716D01*
X128290533Y-106692784D01*
X128163871Y-106552112D01*
X128163870Y-106552111D01*
X128010734Y-106440851D01*
X128010729Y-106440848D01*
X127837807Y-106363857D01*
X127837802Y-106363855D01*
X127692001Y-106332865D01*
X127652646Y-106324500D01*
X127652645Y-106324500D01*
X127649500Y-106324500D01*
X127647745Y-106323984D01*
X127646178Y-106323820D01*
X127646208Y-106323533D01*
X127582461Y-106304815D01*
X127536706Y-106252011D01*
X127525500Y-106200500D01*
X127525500Y-104214950D01*
X127545185Y-104147911D01*
X127561819Y-104127269D01*
X127583753Y-104105335D01*
X127666733Y-103968069D01*
X127714452Y-103814933D01*
X127720500Y-103748381D01*
X127720499Y-103246620D01*
X127720499Y-103246619D01*
X127720499Y-103246611D01*
X127714453Y-103180073D01*
X127714452Y-103180070D01*
X127714452Y-103180067D01*
X127666733Y-103026931D01*
X127628779Y-102964149D01*
X127610944Y-102896595D01*
X127628780Y-102835850D01*
X127644412Y-102809992D01*
X127666733Y-102773069D01*
X127714452Y-102619933D01*
X127720500Y-102553381D01*
X127720499Y-102051620D01*
X127720499Y-102051619D01*
X127720499Y-102051611D01*
X127714453Y-101985074D01*
X127714452Y-101985071D01*
X127714452Y-101985067D01*
X127669854Y-101841949D01*
X127668705Y-101772091D01*
X127705506Y-101712698D01*
X127729529Y-101697145D01*
X127729100Y-101696402D01*
X127734726Y-101693152D01*
X127734730Y-101693151D01*
X127887871Y-101581888D01*
X128014533Y-101441216D01*
X128109179Y-101277284D01*
X128167674Y-101097256D01*
X128187460Y-100909000D01*
X128167674Y-100720744D01*
X128109179Y-100540716D01*
X128014533Y-100376784D01*
X127887871Y-100236112D01*
X127887870Y-100236111D01*
X127734734Y-100124851D01*
X127734729Y-100124848D01*
X127561807Y-100047857D01*
X127561802Y-100047855D01*
X127416001Y-100016865D01*
X127376646Y-100008500D01*
X127376645Y-100008500D01*
X127317452Y-100008500D01*
X127250413Y-99988815D01*
X127229771Y-99972181D01*
X127088198Y-99830608D01*
X127088178Y-99830586D01*
X126996736Y-99739144D01*
X126996732Y-99739141D01*
X126938957Y-99700537D01*
X126920609Y-99688277D01*
X126894286Y-99670688D01*
X126894283Y-99670686D01*
X126894280Y-99670685D01*
X126813792Y-99637347D01*
X126790384Y-99627651D01*
X126780452Y-99623537D01*
X126780448Y-99623536D01*
X126780444Y-99623535D01*
X126685512Y-99604651D01*
X126685503Y-99604651D01*
X126659607Y-99599500D01*
X126659606Y-99599500D01*
X125977393Y-99599500D01*
X125910354Y-99579815D01*
X125864599Y-99527011D01*
X125854655Y-99457853D01*
X125883680Y-99394297D01*
X125889710Y-99387821D01*
X126222794Y-99054721D01*
X126284116Y-99021234D01*
X126310477Y-99018400D01*
X126369644Y-99018400D01*
X126369646Y-99018400D01*
X126554803Y-98979044D01*
X126727730Y-98902051D01*
X126880871Y-98790788D01*
X127007533Y-98650116D01*
X127102179Y-98486184D01*
X127160674Y-98306156D01*
X127180460Y-98117900D01*
X127162813Y-97950000D01*
X127534770Y-97950000D01*
X127535421Y-97958281D01*
X127581590Y-98117194D01*
X127581592Y-98117197D01*
X127665833Y-98259642D01*
X127665839Y-98259650D01*
X127782849Y-98376660D01*
X127782857Y-98376666D01*
X127925302Y-98460907D01*
X127925305Y-98460908D01*
X128084216Y-98507077D01*
X128084222Y-98507078D01*
X128121342Y-98509999D01*
X128121358Y-98510000D01*
X128150000Y-98510000D01*
X128150000Y-97950000D01*
X127534770Y-97950000D01*
X127162813Y-97950000D01*
X127160674Y-97929644D01*
X127102179Y-97749616D01*
X127007533Y-97585684D01*
X126880871Y-97445012D01*
X126880870Y-97445011D01*
X126727734Y-97333751D01*
X126727729Y-97333748D01*
X126554807Y-97256757D01*
X126554802Y-97256755D01*
X126409001Y-97225765D01*
X126369646Y-97217400D01*
X126180354Y-97217400D01*
X126147897Y-97224298D01*
X125995197Y-97256755D01*
X125995192Y-97256757D01*
X125822270Y-97333748D01*
X125822265Y-97333751D01*
X125669129Y-97445011D01*
X125542466Y-97585685D01*
X125447821Y-97749615D01*
X125447818Y-97749622D01*
X125389444Y-97929280D01*
X125389326Y-97929644D01*
X125383997Y-97980349D01*
X125371676Y-98097576D01*
X125345091Y-98162190D01*
X125336038Y-98172293D01*
X124006220Y-99502179D01*
X123944898Y-99535666D01*
X123918537Y-99538500D01*
X122164525Y-99538500D01*
X122097486Y-99518815D01*
X122051731Y-99466011D01*
X122041787Y-99396853D01*
X122070812Y-99333297D01*
X122072375Y-99331528D01*
X122132533Y-99264716D01*
X122227179Y-99100784D01*
X122282586Y-98930258D01*
X122312818Y-98880915D01*
X122797721Y-98395845D01*
X123229576Y-97963891D01*
X123348529Y-97845156D01*
X123409879Y-97811731D01*
X123426398Y-97809303D01*
X123448358Y-97807576D01*
X123607400Y-97761370D01*
X123637369Y-97743645D01*
X123705088Y-97726461D01*
X123763613Y-97743645D01*
X123792800Y-97760906D01*
X123792805Y-97760908D01*
X123951716Y-97807077D01*
X123951722Y-97807078D01*
X123988842Y-97809999D01*
X123988858Y-97810000D01*
X124017500Y-97810000D01*
X124517500Y-97810000D01*
X124546142Y-97810000D01*
X124546157Y-97809999D01*
X124583277Y-97807078D01*
X124583283Y-97807077D01*
X124742194Y-97760908D01*
X124742197Y-97760907D01*
X124884642Y-97676666D01*
X124884650Y-97676660D01*
X125001660Y-97559650D01*
X125001666Y-97559642D01*
X125085907Y-97417197D01*
X125085909Y-97417194D01*
X125132078Y-97258281D01*
X125132730Y-97250000D01*
X124517500Y-97250000D01*
X124517500Y-97810000D01*
X124017500Y-97810000D01*
X124017500Y-97101655D01*
X124037185Y-97034616D01*
X124053852Y-97013941D01*
X124123370Y-96944481D01*
X124184707Y-96911023D01*
X124211014Y-96908200D01*
X126801255Y-96908200D01*
X126868294Y-96927885D01*
G37*
%TD.AperFunction*%
%TA.AperFunction,Conductor*%
G36*
X119023764Y-93418208D02*
G01*
X119026574Y-93419460D01*
X119079819Y-93464696D01*
X119100156Y-93531541D01*
X119081126Y-93598769D01*
X119063832Y-93620441D01*
X117688508Y-94995412D01*
X117688375Y-94995533D01*
X117660974Y-95022934D01*
X117640061Y-95043847D01*
X117599894Y-95084005D01*
X117597160Y-95086738D01*
X117563861Y-95136573D01*
X117563854Y-95136584D01*
X117528704Y-95189175D01*
X117507997Y-95239169D01*
X117507991Y-95239185D01*
X117481551Y-95302991D01*
X117481539Y-95303030D01*
X117469707Y-95362517D01*
X117469705Y-95362529D01*
X117457500Y-95423853D01*
X117457500Y-95484082D01*
X117457491Y-95553048D01*
X117457500Y-95553229D01*
X117457500Y-96635612D01*
X117437815Y-96702651D01*
X117425650Y-96718584D01*
X117350466Y-96802084D01*
X117255821Y-96966015D01*
X117255818Y-96966022D01*
X117202529Y-97130030D01*
X117197326Y-97146044D01*
X117177540Y-97334300D01*
X117197326Y-97522556D01*
X117197327Y-97522559D01*
X117255818Y-97702577D01*
X117255821Y-97702584D01*
X117350467Y-97866516D01*
X117424149Y-97948348D01*
X117477129Y-98007188D01*
X117630265Y-98118448D01*
X117630270Y-98118451D01*
X117803192Y-98195442D01*
X117803197Y-98195444D01*
X117988354Y-98234800D01*
X117988355Y-98234800D01*
X118177644Y-98234800D01*
X118177646Y-98234800D01*
X118362803Y-98195444D01*
X118535730Y-98118451D01*
X118688871Y-98007188D01*
X118815533Y-97866516D01*
X118910179Y-97702584D01*
X118968674Y-97522556D01*
X118988460Y-97334300D01*
X118968674Y-97146044D01*
X118910179Y-96966016D01*
X118815533Y-96802084D01*
X118761111Y-96741642D01*
X118740350Y-96718584D01*
X118710120Y-96655592D01*
X118708500Y-96635612D01*
X118708500Y-95796008D01*
X118728185Y-95728969D01*
X118744830Y-95708316D01*
X118942113Y-95511083D01*
X119003439Y-95477606D01*
X119073130Y-95482600D01*
X119121932Y-95515804D01*
X119147129Y-95543788D01*
X119300265Y-95655048D01*
X119300270Y-95655051D01*
X119473192Y-95732042D01*
X119473197Y-95732044D01*
X119658354Y-95771400D01*
X119717246Y-95771400D01*
X119784285Y-95791085D01*
X119804954Y-95807745D01*
X120085767Y-96088729D01*
X120086056Y-96089047D01*
X120134302Y-96137293D01*
X120134320Y-96137327D01*
X120134328Y-96137320D01*
X120177120Y-96180138D01*
X120177265Y-96180256D01*
X120177267Y-96180258D01*
X120229298Y-96215024D01*
X120279546Y-96248621D01*
X120279551Y-96248623D01*
X120279704Y-96248704D01*
X120279714Y-96248711D01*
X120337886Y-96272807D01*
X120337915Y-96272830D01*
X120337919Y-96272821D01*
X120370495Y-96286325D01*
X120393366Y-96295807D01*
X120393367Y-96295807D01*
X120393386Y-96295815D01*
X120393530Y-96295858D01*
X120393541Y-96295860D01*
X120393548Y-96295863D01*
X120436725Y-96304450D01*
X120455045Y-96308095D01*
X120455085Y-96308102D01*
X120514203Y-96319881D01*
X120514211Y-96319881D01*
X120514259Y-96319886D01*
X120514387Y-96319898D01*
X120514394Y-96319900D01*
X120514401Y-96319900D01*
X120575810Y-96319900D01*
X120637416Y-96319919D01*
X120637419Y-96319918D01*
X120643234Y-96319920D01*
X120643664Y-96319900D01*
X122184252Y-96319900D01*
X122251291Y-96339585D01*
X122276400Y-96360926D01*
X122282128Y-96367287D01*
X122301945Y-96381685D01*
X122344611Y-96437015D01*
X122350590Y-96506628D01*
X122335793Y-96545124D01*
X122313628Y-96582603D01*
X122313628Y-96582604D01*
X122267424Y-96741637D01*
X122267422Y-96741652D01*
X122265734Y-96763095D01*
X122240849Y-96828383D01*
X122229718Y-96841124D01*
X122225338Y-96845496D01*
X122224103Y-96846616D01*
X122168552Y-96902180D01*
X122168463Y-96902269D01*
X122112881Y-96957749D01*
X122111761Y-96958983D01*
X121791357Y-97279461D01*
X121791271Y-97279540D01*
X121728321Y-97342511D01*
X121728320Y-97342512D01*
X121728319Y-97342514D01*
X121688898Y-97381946D01*
X121679673Y-97391173D01*
X121679633Y-97391216D01*
X121247077Y-97823923D01*
X121185759Y-97857419D01*
X121185161Y-97857547D01*
X121120197Y-97871355D01*
X121120192Y-97871357D01*
X120947270Y-97948348D01*
X120947265Y-97948351D01*
X120794129Y-98059611D01*
X120667466Y-98200285D01*
X120572821Y-98364215D01*
X120572818Y-98364222D01*
X120514327Y-98544240D01*
X120514326Y-98544244D01*
X120494540Y-98732500D01*
X120514326Y-98920756D01*
X120514327Y-98920759D01*
X120572818Y-99100777D01*
X120572821Y-99100784D01*
X120667467Y-99264716D01*
X120709876Y-99311816D01*
X120727625Y-99331528D01*
X120757855Y-99394519D01*
X120749230Y-99463855D01*
X120704488Y-99517520D01*
X120637836Y-99538478D01*
X120635475Y-99538500D01*
X118614740Y-99538500D01*
X118547701Y-99518815D01*
X118501946Y-99466011D01*
X118496809Y-99452818D01*
X118472181Y-99377022D01*
X118472180Y-99377021D01*
X118472179Y-99377016D01*
X118377533Y-99213084D01*
X118250871Y-99072412D01*
X118250867Y-99072409D01*
X118097734Y-98961151D01*
X118097729Y-98961148D01*
X117924807Y-98884157D01*
X117924802Y-98884155D01*
X117779001Y-98853165D01*
X117739646Y-98844800D01*
X117550354Y-98844800D01*
X117517897Y-98851698D01*
X117365197Y-98884155D01*
X117365192Y-98884157D01*
X117192270Y-98961148D01*
X117192265Y-98961151D01*
X117039132Y-99072409D01*
X117039129Y-99072411D01*
X117039129Y-99072412D01*
X117024876Y-99088242D01*
X116948542Y-99173019D01*
X116889055Y-99209667D01*
X116819198Y-99208336D01*
X116761150Y-99169449D01*
X116756074Y-99162931D01*
X116701809Y-99088242D01*
X116701804Y-99088236D01*
X116541763Y-98928195D01*
X116541761Y-98928193D01*
X116358650Y-98795155D01*
X116156981Y-98692400D01*
X116156978Y-98692398D01*
X115941723Y-98622458D01*
X115792686Y-98598852D01*
X115718169Y-98587050D01*
X115491831Y-98587050D01*
X115417313Y-98598852D01*
X115268277Y-98622458D01*
X115268274Y-98622458D01*
X115053021Y-98692398D01*
X115053018Y-98692400D01*
X114851349Y-98795155D01*
X114746878Y-98871058D01*
X114668239Y-98928193D01*
X114668237Y-98928195D01*
X114668236Y-98928195D01*
X114508195Y-99088236D01*
X114508195Y-99088237D01*
X114508193Y-99088239D01*
X114453926Y-99162931D01*
X114375155Y-99271349D01*
X114272400Y-99473018D01*
X114272398Y-99473021D01*
X114202458Y-99688274D01*
X114202458Y-99688277D01*
X114192442Y-99751514D01*
X114167050Y-99911831D01*
X114167050Y-100138169D01*
X114181210Y-100227571D01*
X114202458Y-100361722D01*
X114202458Y-100361725D01*
X114272398Y-100576978D01*
X114272400Y-100576981D01*
X114375155Y-100778650D01*
X114508193Y-100961761D01*
X114508195Y-100961763D01*
X114511057Y-100965702D01*
X114509372Y-100966926D01*
X114534378Y-101022724D01*
X114523944Y-101091810D01*
X114477816Y-101144288D01*
X114411518Y-101163500D01*
X111718482Y-101163500D01*
X111651443Y-101143815D01*
X111605688Y-101091011D01*
X111595744Y-101021853D01*
X111620602Y-100966907D01*
X111618943Y-100965702D01*
X111621804Y-100961763D01*
X111621807Y-100961761D01*
X111754845Y-100778650D01*
X111857600Y-100576981D01*
X111877917Y-100514451D01*
X111927541Y-100361725D01*
X111927541Y-100361724D01*
X111927542Y-100361721D01*
X111962950Y-100138169D01*
X111962950Y-99911831D01*
X111927542Y-99688279D01*
X111927541Y-99688275D01*
X111927541Y-99688274D01*
X111857601Y-99473021D01*
X111857599Y-99473018D01*
X111852931Y-99463855D01*
X111754845Y-99271350D01*
X111621807Y-99088239D01*
X111461761Y-98928193D01*
X111278650Y-98795155D01*
X111076981Y-98692400D01*
X111076978Y-98692398D01*
X110861723Y-98622458D01*
X110712686Y-98598852D01*
X110638169Y-98587050D01*
X110470290Y-98587050D01*
X110403251Y-98567365D01*
X110357496Y-98514561D01*
X110347552Y-98445403D01*
X110352359Y-98424732D01*
X110367978Y-98376660D01*
X110401674Y-98272956D01*
X110421460Y-98084700D01*
X110417449Y-98046540D01*
X111303200Y-98046540D01*
X111303200Y-98193459D01*
X111331858Y-98337534D01*
X111331861Y-98337544D01*
X111388078Y-98473266D01*
X111388083Y-98473275D01*
X111469698Y-98595419D01*
X111469701Y-98595423D01*
X111573576Y-98699298D01*
X111573580Y-98699301D01*
X111695724Y-98780916D01*
X111695730Y-98780919D01*
X111695731Y-98780920D01*
X111831458Y-98837140D01*
X111975540Y-98865799D01*
X111975544Y-98865800D01*
X111975545Y-98865800D01*
X112122456Y-98865800D01*
X112122457Y-98865799D01*
X112266542Y-98837140D01*
X112402269Y-98780920D01*
X112524420Y-98699301D01*
X112628301Y-98595420D01*
X112709920Y-98473269D01*
X112766140Y-98337542D01*
X112794800Y-98193455D01*
X112794800Y-98046545D01*
X112766140Y-97902458D01*
X112709920Y-97766731D01*
X112709919Y-97766730D01*
X112709916Y-97766724D01*
X112628300Y-97644578D01*
X112524423Y-97540701D01*
X112524419Y-97540698D01*
X112402275Y-97459083D01*
X112402266Y-97459078D01*
X112266544Y-97402861D01*
X112266545Y-97402861D01*
X112266542Y-97402860D01*
X112266538Y-97402859D01*
X112266534Y-97402858D01*
X112122459Y-97374200D01*
X112122455Y-97374200D01*
X111975545Y-97374200D01*
X111975540Y-97374200D01*
X111831465Y-97402858D01*
X111831455Y-97402861D01*
X111695733Y-97459078D01*
X111695724Y-97459083D01*
X111573580Y-97540698D01*
X111573576Y-97540701D01*
X111469701Y-97644576D01*
X111469700Y-97644578D01*
X111388083Y-97766724D01*
X111388078Y-97766733D01*
X111331861Y-97902455D01*
X111331858Y-97902465D01*
X111303200Y-98046540D01*
X110417449Y-98046540D01*
X110401674Y-97896444D01*
X110373749Y-97810499D01*
X110372500Y-97806656D01*
X110370505Y-97736815D01*
X110402749Y-97680657D01*
X112787820Y-95295676D01*
X112849144Y-95262193D01*
X112918836Y-95267179D01*
X112974769Y-95309051D01*
X112999184Y-95374516D01*
X112999500Y-95383360D01*
X112999500Y-95973547D01*
X112979815Y-96040586D01*
X112967650Y-96056519D01*
X112867466Y-96167785D01*
X112772821Y-96331715D01*
X112772818Y-96331722D01*
X112714327Y-96511740D01*
X112714326Y-96511744D01*
X112694540Y-96700000D01*
X112714326Y-96888256D01*
X112714327Y-96888259D01*
X112772818Y-97068277D01*
X112772821Y-97068284D01*
X112867467Y-97232216D01*
X112966779Y-97342513D01*
X112994129Y-97372888D01*
X113147265Y-97484148D01*
X113147270Y-97484151D01*
X113320192Y-97561142D01*
X113320193Y-97561142D01*
X113320197Y-97561144D01*
X113339011Y-97565143D01*
X113348965Y-97567259D01*
X113410447Y-97600451D01*
X113444224Y-97661614D01*
X113439572Y-97731328D01*
X113426288Y-97757438D01*
X113420085Y-97766721D01*
X113420078Y-97766733D01*
X113363861Y-97902455D01*
X113363858Y-97902465D01*
X113335200Y-98046540D01*
X113335200Y-98193459D01*
X113363858Y-98337534D01*
X113363861Y-98337544D01*
X113420078Y-98473266D01*
X113420083Y-98473275D01*
X113501698Y-98595419D01*
X113501701Y-98595423D01*
X113605576Y-98699298D01*
X113605580Y-98699301D01*
X113727724Y-98780916D01*
X113727730Y-98780919D01*
X113727731Y-98780920D01*
X113863458Y-98837140D01*
X114007540Y-98865799D01*
X114007544Y-98865800D01*
X114007545Y-98865800D01*
X114154456Y-98865800D01*
X114154457Y-98865799D01*
X114298542Y-98837140D01*
X114434269Y-98780920D01*
X114556420Y-98699301D01*
X114660301Y-98595420D01*
X114741920Y-98473269D01*
X114798140Y-98337542D01*
X114826800Y-98193455D01*
X114826800Y-98046545D01*
X114798140Y-97902458D01*
X114741920Y-97766731D01*
X114741919Y-97766730D01*
X114741916Y-97766724D01*
X114660300Y-97644578D01*
X114556423Y-97540701D01*
X114556419Y-97540698D01*
X114434275Y-97459083D01*
X114434265Y-97459078D01*
X114373488Y-97433903D01*
X114319084Y-97390061D01*
X114297020Y-97323767D01*
X114314300Y-97256068D01*
X114328792Y-97236370D01*
X114332533Y-97232216D01*
X114427179Y-97068284D01*
X114485674Y-96888256D01*
X114505460Y-96700000D01*
X114485674Y-96511744D01*
X114427179Y-96331716D01*
X114332533Y-96167784D01*
X114261638Y-96089047D01*
X114232350Y-96056519D01*
X114202120Y-95993527D01*
X114200500Y-95973547D01*
X114200500Y-94396763D01*
X114220185Y-94329724D01*
X114236832Y-94309068D01*
X114267311Y-94278599D01*
X114780827Y-93765242D01*
X115102364Y-93443805D01*
X115163693Y-93410330D01*
X115190032Y-93407500D01*
X118973355Y-93407500D01*
X119023764Y-93418208D01*
G37*
%TD.AperFunction*%
%TA.AperFunction,Conductor*%
G36*
X126818998Y-63745185D02*
G01*
X126864753Y-63797989D01*
X126874697Y-63867147D01*
X126845672Y-63930703D01*
X126820850Y-63952602D01*
X126694410Y-64037086D01*
X126694406Y-64037089D01*
X126562089Y-64169406D01*
X126562086Y-64169410D01*
X126458124Y-64324999D01*
X126458119Y-64325008D01*
X126386508Y-64497894D01*
X126386506Y-64497902D01*
X126350000Y-64681428D01*
X126350000Y-64875000D01*
X127050000Y-64875000D01*
X127050000Y-65375000D01*
X126350000Y-65375000D01*
X126350000Y-65568571D01*
X126386506Y-65752097D01*
X126386508Y-65752105D01*
X126458119Y-65924991D01*
X126458124Y-65925000D01*
X126562086Y-66080589D01*
X126562089Y-66080593D01*
X126694406Y-66212910D01*
X126694410Y-66212913D01*
X126849999Y-66316875D01*
X126850012Y-66316882D01*
X127022889Y-66388489D01*
X127022896Y-66388491D01*
X127050000Y-66393882D01*
X127050000Y-65524728D01*
X127088060Y-65616614D01*
X127158386Y-65686940D01*
X127250272Y-65725000D01*
X127349728Y-65725000D01*
X127441614Y-65686940D01*
X127511940Y-65616614D01*
X127550000Y-65524728D01*
X127550000Y-66393881D01*
X127577103Y-66388491D01*
X127577110Y-66388489D01*
X127749987Y-66316882D01*
X127750000Y-66316875D01*
X127905589Y-66212913D01*
X127905593Y-66212910D01*
X128037910Y-66080593D01*
X128037913Y-66080589D01*
X128091765Y-65999994D01*
X137894357Y-65999994D01*
X137894357Y-66000005D01*
X137914890Y-66247812D01*
X137914892Y-66247824D01*
X137975936Y-66488881D01*
X138075826Y-66716606D01*
X138211833Y-66924782D01*
X138211836Y-66924785D01*
X138380256Y-67107738D01*
X138576491Y-67260474D01*
X138795190Y-67378828D01*
X139030386Y-67459571D01*
X139275665Y-67500500D01*
X139524335Y-67500500D01*
X139769614Y-67459571D01*
X140004810Y-67378828D01*
X140223509Y-67260474D01*
X140419744Y-67107738D01*
X140588164Y-66924785D01*
X140724173Y-66716607D01*
X140824063Y-66488881D01*
X140885108Y-66247821D01*
X140889899Y-66190000D01*
X140905643Y-66000005D01*
X140905643Y-65999994D01*
X140885109Y-65752187D01*
X140885107Y-65752175D01*
X140824063Y-65511118D01*
X140724173Y-65283393D01*
X140588166Y-65075217D01*
X140501799Y-64981398D01*
X140419744Y-64892262D01*
X140223509Y-64739526D01*
X140223507Y-64739525D01*
X140223506Y-64739524D01*
X140004811Y-64621172D01*
X140004802Y-64621169D01*
X139769616Y-64540429D01*
X139524335Y-64499500D01*
X139275665Y-64499500D01*
X139030383Y-64540429D01*
X138795197Y-64621169D01*
X138795188Y-64621172D01*
X138576493Y-64739524D01*
X138380257Y-64892261D01*
X138211833Y-65075217D01*
X138075826Y-65283393D01*
X137975936Y-65511118D01*
X137914892Y-65752175D01*
X137914890Y-65752187D01*
X137894357Y-65999994D01*
X128091765Y-65999994D01*
X128141875Y-65925000D01*
X128141880Y-65924991D01*
X128213491Y-65752105D01*
X128213493Y-65752097D01*
X128249999Y-65568571D01*
X128250000Y-65568569D01*
X128250000Y-65375000D01*
X127550000Y-65375000D01*
X127550000Y-64875000D01*
X128250000Y-64875000D01*
X128250000Y-64681430D01*
X128249999Y-64681428D01*
X128213493Y-64497902D01*
X128213491Y-64497894D01*
X128141880Y-64325008D01*
X128141875Y-64324999D01*
X128037913Y-64169410D01*
X128037910Y-64169406D01*
X127905593Y-64037089D01*
X127905589Y-64037086D01*
X127779150Y-63952602D01*
X127734345Y-63898990D01*
X127725638Y-63829665D01*
X127755792Y-63766637D01*
X127815235Y-63729918D01*
X127848041Y-63725500D01*
X139591715Y-63725500D01*
X139595933Y-63725500D01*
X139604043Y-63725765D01*
X139849632Y-63741861D01*
X139865690Y-63743976D01*
X140069394Y-63784495D01*
X140103064Y-63791193D01*
X140118731Y-63795391D01*
X140287510Y-63852683D01*
X140347913Y-63873188D01*
X140362890Y-63879391D01*
X140570539Y-63981792D01*
X140579960Y-63986438D01*
X140594007Y-63994548D01*
X140623008Y-64013926D01*
X140795245Y-64129011D01*
X140808106Y-64138879D01*
X140883706Y-64205179D01*
X140990071Y-64298459D01*
X141001540Y-64309928D01*
X141161117Y-64491890D01*
X141170991Y-64504758D01*
X141305451Y-64705992D01*
X141313561Y-64720039D01*
X141420605Y-64937102D01*
X141426812Y-64952088D01*
X141504608Y-65181268D01*
X141508806Y-65196935D01*
X141556021Y-65434298D01*
X141558139Y-65450379D01*
X141574235Y-65695956D01*
X141574500Y-65704066D01*
X141574500Y-101035718D01*
X141554815Y-101102757D01*
X141502011Y-101148512D01*
X141432853Y-101158456D01*
X141400064Y-101148997D01*
X141226807Y-101071857D01*
X141226802Y-101071855D01*
X141081001Y-101040865D01*
X141041646Y-101032500D01*
X141041645Y-101032500D01*
X140982465Y-101032500D01*
X140915426Y-101012815D01*
X140894783Y-100996180D01*
X137827954Y-97929280D01*
X137794469Y-97867957D01*
X137799455Y-97798265D01*
X137841327Y-97742332D01*
X137906791Y-97717916D01*
X137915636Y-97717600D01*
X137933580Y-97717600D01*
X137997468Y-97717614D01*
X137997473Y-97717612D01*
X138003419Y-97717614D01*
X138003724Y-97717600D01*
X139098109Y-97717600D01*
X139098113Y-97717600D01*
X139166562Y-97717605D01*
X139166571Y-97717603D01*
X139166593Y-97717601D01*
X139166598Y-97717600D01*
X139166606Y-97717600D01*
X139221855Y-97706610D01*
X139221862Y-97706611D01*
X139221862Y-97706609D01*
X139286177Y-97693821D01*
X139287477Y-97693578D01*
X139287478Y-97693578D01*
X139288940Y-97692946D01*
X139321808Y-97679332D01*
X139340886Y-97671430D01*
X139340890Y-97671427D01*
X139375397Y-97657137D01*
X139399129Y-97647310D01*
X139401203Y-97646498D01*
X139401218Y-97646490D01*
X139402721Y-97645451D01*
X139449633Y-97614106D01*
X139502559Y-97578746D01*
X139503766Y-97577962D01*
X139503776Y-97577955D01*
X139505008Y-97576682D01*
X139549475Y-97532216D01*
X140204838Y-96876944D01*
X140204900Y-96876890D01*
X140209730Y-96872059D01*
X140209733Y-96872058D01*
X140257690Y-96824100D01*
X140257697Y-96824097D01*
X140257696Y-96824096D01*
X140295649Y-96786148D01*
X140296836Y-96784996D01*
X140296841Y-96784989D01*
X140297614Y-96783801D01*
X140325778Y-96741652D01*
X140332154Y-96732109D01*
X140363903Y-96684600D01*
X140365292Y-96682618D01*
X140365296Y-96682610D01*
X140366030Y-96680749D01*
X140387292Y-96629418D01*
X140412384Y-96568851D01*
X140412456Y-96568681D01*
X140412460Y-96568657D01*
X140412463Y-96568652D01*
X140420271Y-96529394D01*
X140424092Y-96510189D01*
X140424093Y-96510189D01*
X140424093Y-96510179D01*
X140432529Y-96467785D01*
X140436496Y-96447851D01*
X140436496Y-96447839D01*
X140436500Y-96447805D01*
X140436500Y-96389453D01*
X140436500Y-96389449D01*
X140436505Y-96324638D01*
X140436503Y-96324631D01*
X140436504Y-96318804D01*
X140436500Y-96318698D01*
X140436500Y-95426329D01*
X140436501Y-95426288D01*
X140436500Y-95420192D01*
X140436502Y-95420187D01*
X140436500Y-95344505D01*
X140436500Y-95296994D01*
X140436500Y-95296982D01*
X140425002Y-95239185D01*
X140422623Y-95227228D01*
X140413322Y-95180466D01*
X140412713Y-95176698D01*
X140412708Y-95176679D01*
X140412656Y-95176502D01*
X140411685Y-95174265D01*
X140386582Y-95113665D01*
X140386581Y-95113663D01*
X140366976Y-95066333D01*
X140365623Y-95062710D01*
X140365480Y-95062393D01*
X140363458Y-95059538D01*
X140342299Y-95027874D01*
X140336810Y-95019659D01*
X140323420Y-94999619D01*
X140296855Y-94959862D01*
X140293348Y-94956355D01*
X140265162Y-94928171D01*
X140247239Y-94910248D01*
X140206329Y-94869337D01*
X140206273Y-94869285D01*
X134067207Y-88730616D01*
X134067203Y-88730612D01*
X134020728Y-88684136D01*
X133970132Y-88650332D01*
X133970127Y-88650328D01*
X133918284Y-88615686D01*
X133918265Y-88615677D01*
X133858289Y-88590836D01*
X133833493Y-88580565D01*
X133804452Y-88568537D01*
X133804448Y-88568536D01*
X133804446Y-88568535D01*
X133804443Y-88568533D01*
X133804421Y-88568527D01*
X133743351Y-88556383D01*
X133743347Y-88556381D01*
X133743347Y-88556382D01*
X133683616Y-88544501D01*
X133683586Y-88544498D01*
X133621979Y-88544500D01*
X132811748Y-88544500D01*
X132744709Y-88524815D01*
X132719600Y-88503474D01*
X132713873Y-88497114D01*
X132713869Y-88497110D01*
X132560734Y-88385851D01*
X132560729Y-88385848D01*
X132387807Y-88308857D01*
X132387802Y-88308855D01*
X132242001Y-88277865D01*
X132202646Y-88269500D01*
X132177797Y-88269500D01*
X132110758Y-88249815D01*
X132065003Y-88197011D01*
X132055059Y-88127853D01*
X132084084Y-88064297D01*
X132090118Y-88057817D01*
X132291038Y-87856906D01*
X132919176Y-87228800D01*
X132980498Y-87195318D01*
X133050189Y-87200304D01*
X133079732Y-87216163D01*
X133207941Y-87309312D01*
X133208270Y-87309551D01*
X133381192Y-87386542D01*
X133381197Y-87386544D01*
X133566354Y-87425900D01*
X133566355Y-87425900D01*
X133755644Y-87425900D01*
X133755646Y-87425900D01*
X133940803Y-87386544D01*
X134113730Y-87309551D01*
X134266871Y-87198288D01*
X134393533Y-87057616D01*
X134488179Y-86893684D01*
X134546674Y-86713656D01*
X134566460Y-86525400D01*
X134546674Y-86337144D01*
X134488179Y-86157116D01*
X134393533Y-85993184D01*
X134266871Y-85852512D01*
X134265923Y-85851823D01*
X134113734Y-85741251D01*
X134113731Y-85741249D01*
X134113730Y-85741249D01*
X134005195Y-85692925D01*
X133951959Y-85647676D01*
X133931638Y-85580827D01*
X133950683Y-85513603D01*
X133967949Y-85491968D01*
X133993102Y-85466816D01*
X134054425Y-85433332D01*
X134080781Y-85430499D01*
X134213388Y-85430499D01*
X134279926Y-85424453D01*
X134279927Y-85424452D01*
X134279933Y-85424452D01*
X134433069Y-85376733D01*
X134570335Y-85293753D01*
X134570336Y-85293751D01*
X134576754Y-85289872D01*
X134578176Y-85292225D01*
X134631079Y-85271136D01*
X134693123Y-85281312D01*
X134819192Y-85337442D01*
X134819197Y-85337444D01*
X135004354Y-85376800D01*
X135004355Y-85376800D01*
X135193644Y-85376800D01*
X135193646Y-85376800D01*
X135378803Y-85337444D01*
X135551730Y-85260451D01*
X135704871Y-85149188D01*
X135831533Y-85008516D01*
X135926179Y-84844584D01*
X135984674Y-84664556D01*
X136004460Y-84476300D01*
X135984674Y-84288044D01*
X135926179Y-84108016D01*
X135831533Y-83944084D01*
X135704871Y-83803412D01*
X135667779Y-83776463D01*
X135551734Y-83692151D01*
X135551729Y-83692148D01*
X135378807Y-83615157D01*
X135378802Y-83615155D01*
X135225087Y-83582483D01*
X135193646Y-83575800D01*
X135193645Y-83575800D01*
X135134363Y-83575800D01*
X135067324Y-83556115D01*
X135046690Y-83539489D01*
X135004526Y-83497333D01*
X134856826Y-83349659D01*
X134823335Y-83288339D01*
X134820499Y-83261970D01*
X134820499Y-83126611D01*
X134814453Y-83060073D01*
X134814452Y-83060070D01*
X134814452Y-83060067D01*
X134774524Y-82931933D01*
X134766734Y-82906933D01*
X134766732Y-82906929D01*
X134683757Y-82769670D01*
X134683753Y-82769665D01*
X134570334Y-82656246D01*
X134570329Y-82656242D01*
X134433070Y-82573267D01*
X134433066Y-82573265D01*
X134279933Y-82525548D01*
X134279935Y-82525548D01*
X134253312Y-82523128D01*
X134213381Y-82519500D01*
X134213378Y-82519500D01*
X133786611Y-82519500D01*
X133720073Y-82525546D01*
X133720066Y-82525548D01*
X133566933Y-82573265D01*
X133566929Y-82573267D01*
X133429670Y-82656242D01*
X133429665Y-82656246D01*
X133316246Y-82769665D01*
X133316242Y-82769670D01*
X133233267Y-82906929D01*
X133214489Y-82967190D01*
X133175751Y-83025337D01*
X133111725Y-83053310D01*
X133042740Y-83042228D01*
X132990698Y-82995609D01*
X132977720Y-82967190D01*
X132966733Y-82931931D01*
X132966732Y-82931929D01*
X132883757Y-82794670D01*
X132883753Y-82794665D01*
X132770334Y-82681246D01*
X132770329Y-82681242D01*
X132633070Y-82598267D01*
X132633066Y-82598265D01*
X132479933Y-82550548D01*
X132479935Y-82550548D01*
X132453312Y-82548128D01*
X132413381Y-82544500D01*
X132413378Y-82544500D01*
X131986611Y-82544500D01*
X131920073Y-82550546D01*
X131920066Y-82550548D01*
X131766933Y-82598265D01*
X131766929Y-82598267D01*
X131629670Y-82681242D01*
X131629665Y-82681246D01*
X131516246Y-82794665D01*
X131516242Y-82794670D01*
X131433267Y-82931929D01*
X131433265Y-82931933D01*
X131385548Y-83085065D01*
X131381667Y-83127771D01*
X131355995Y-83192753D01*
X131299266Y-83233541D01*
X131232397Y-83237838D01*
X131169646Y-83224500D01*
X131169643Y-83224500D01*
X131117980Y-83224500D01*
X131050941Y-83204815D01*
X131005186Y-83152011D01*
X130999600Y-83137408D01*
X130966733Y-83031931D01*
X130953439Y-83009940D01*
X130883757Y-82894670D01*
X130883753Y-82894665D01*
X130770334Y-82781246D01*
X130770329Y-82781242D01*
X130633070Y-82698267D01*
X130633066Y-82698265D01*
X130479933Y-82650548D01*
X130479935Y-82650548D01*
X130453312Y-82648128D01*
X130413381Y-82644500D01*
X130413378Y-82644500D01*
X130042833Y-82644500D01*
X129975794Y-82624815D01*
X129930039Y-82572011D01*
X129920095Y-82502853D01*
X129935443Y-82458506D01*
X129950179Y-82432984D01*
X130008674Y-82252956D01*
X130028460Y-82064700D01*
X130008674Y-81876444D01*
X129950179Y-81696416D01*
X129892204Y-81596000D01*
X129875731Y-81528099D01*
X129898584Y-81462073D01*
X129953505Y-81418882D01*
X129999591Y-81410000D01*
X130146142Y-81410000D01*
X130146157Y-81409999D01*
X130183277Y-81407078D01*
X130183283Y-81407077D01*
X130342194Y-81360908D01*
X130342197Y-81360907D01*
X130484642Y-81276666D01*
X130484650Y-81276660D01*
X130601660Y-81159650D01*
X130601666Y-81159642D01*
X130685907Y-81017197D01*
X130685909Y-81017194D01*
X130732078Y-80858281D01*
X130732730Y-80850000D01*
X129741500Y-80850000D01*
X129674461Y-80830315D01*
X129628706Y-80777511D01*
X129617500Y-80726000D01*
X129617500Y-80350000D01*
X130117500Y-80350000D01*
X130732730Y-80350000D01*
X130732078Y-80341718D01*
X130685909Y-80182805D01*
X130685907Y-80182802D01*
X130601666Y-80040357D01*
X130601660Y-80040349D01*
X130484650Y-79923339D01*
X130484642Y-79923333D01*
X130342197Y-79839092D01*
X130342194Y-79839091D01*
X130183283Y-79792922D01*
X130183277Y-79792921D01*
X130146157Y-79790000D01*
X130117500Y-79790000D01*
X130117500Y-80350000D01*
X129617500Y-80350000D01*
X129617500Y-79790000D01*
X129606500Y-79790000D01*
X129539461Y-79770315D01*
X129493706Y-79717511D01*
X129482500Y-79666000D01*
X129482500Y-73528367D01*
X129482546Y-73454459D01*
X129482545Y-73454458D01*
X129482546Y-73454451D01*
X129482544Y-73454443D01*
X129482531Y-73454305D01*
X129482516Y-73454152D01*
X129482500Y-73453993D01*
X129482500Y-73453982D01*
X129468169Y-73381941D01*
X129453795Y-73309438D01*
X129453789Y-73309425D01*
X129453669Y-73309026D01*
X129453659Y-73308996D01*
X129453658Y-73308987D01*
X129425515Y-73241045D01*
X129420753Y-73229529D01*
X129405706Y-73193137D01*
X129398280Y-73123663D01*
X129429593Y-73061203D01*
X129469858Y-73032477D01*
X129504730Y-73016951D01*
X129657871Y-72905688D01*
X129784533Y-72765016D01*
X129879179Y-72601084D01*
X129937674Y-72421056D01*
X129957460Y-72232800D01*
X129937674Y-72044544D01*
X129879179Y-71864516D01*
X129871083Y-71850493D01*
X129819113Y-71760477D01*
X129802500Y-71698477D01*
X129802500Y-71082942D01*
X129802501Y-71082901D01*
X129802500Y-71076805D01*
X129802502Y-71076800D01*
X129802500Y-70985772D01*
X129802500Y-70928982D01*
X129802500Y-70928974D01*
X129783096Y-70831435D01*
X129774021Y-70785813D01*
X129773610Y-70783565D01*
X129773550Y-70783373D01*
X129771992Y-70779959D01*
X129731547Y-70682322D01*
X129731546Y-70682320D01*
X129720183Y-70654888D01*
X129717084Y-70647405D01*
X129717081Y-70647400D01*
X129717079Y-70647395D01*
X129715602Y-70645185D01*
X129654904Y-70554346D01*
X129634951Y-70524484D01*
X129634949Y-70524482D01*
X129634943Y-70524473D01*
X129563823Y-70453356D01*
X129563820Y-70453353D01*
X129526104Y-70415636D01*
X129526070Y-70415605D01*
X127445907Y-68335540D01*
X127403408Y-68293041D01*
X127402874Y-68292684D01*
X127342462Y-68252321D01*
X127280495Y-68210916D01*
X127280494Y-68210915D01*
X127280489Y-68210912D01*
X127271825Y-68207323D01*
X127225570Y-68188165D01*
X127225569Y-68188164D01*
X127225569Y-68188165D01*
X127144433Y-68154557D01*
X127143937Y-68154348D01*
X127143907Y-68154339D01*
X127070538Y-68139745D01*
X127070537Y-68139745D01*
X126998921Y-68125499D01*
X126998903Y-68125498D01*
X126998900Y-68125498D01*
X126924983Y-68125500D01*
X123094194Y-68125500D01*
X123027155Y-68105815D01*
X123006519Y-68089188D01*
X121305481Y-66388397D01*
X121271992Y-66327076D01*
X121276971Y-66257384D01*
X121305475Y-66213027D01*
X121437914Y-66080588D01*
X121541875Y-65925000D01*
X121541880Y-65924991D01*
X121613491Y-65752105D01*
X121613493Y-65752097D01*
X121649999Y-65568571D01*
X121650000Y-65568569D01*
X121650000Y-65375000D01*
X120950000Y-65375000D01*
X120950000Y-64875000D01*
X121650000Y-64875000D01*
X121650000Y-64681430D01*
X121649999Y-64681428D01*
X121613493Y-64497902D01*
X121613491Y-64497894D01*
X121541880Y-64325008D01*
X121541875Y-64324999D01*
X121437913Y-64169410D01*
X121437910Y-64169406D01*
X121305593Y-64037089D01*
X121305589Y-64037086D01*
X121179150Y-63952602D01*
X121134345Y-63898990D01*
X121125638Y-63829665D01*
X121155792Y-63766637D01*
X121215235Y-63729918D01*
X121248041Y-63725500D01*
X126751959Y-63725500D01*
X126818998Y-63745185D01*
G37*
%TD.AperFunction*%
%TA.AperFunction,Conductor*%
G36*
X124823782Y-91093305D02*
G01*
X124872296Y-91123270D01*
X125760041Y-92010834D01*
X125793533Y-92072154D01*
X125795690Y-92085562D01*
X125803839Y-92163100D01*
X125813326Y-92253356D01*
X125813327Y-92253359D01*
X125871818Y-92433377D01*
X125871821Y-92433384D01*
X125966467Y-92597316D01*
X125968884Y-92600000D01*
X126093129Y-92737988D01*
X126246265Y-92849248D01*
X126246270Y-92849251D01*
X126419192Y-92926242D01*
X126419197Y-92926244D01*
X126604354Y-92965600D01*
X126604355Y-92965600D01*
X126793644Y-92965600D01*
X126793646Y-92965600D01*
X126978803Y-92926244D01*
X127151730Y-92849251D01*
X127154465Y-92847263D01*
X127156316Y-92846602D01*
X127157357Y-92846002D01*
X127157466Y-92846192D01*
X127220265Y-92823778D01*
X127277793Y-92834295D01*
X127421197Y-92898144D01*
X127606354Y-92937500D01*
X127606355Y-92937500D01*
X127795644Y-92937500D01*
X127795646Y-92937500D01*
X127980803Y-92898144D01*
X128096735Y-92846526D01*
X128165984Y-92837242D01*
X128211322Y-92853690D01*
X128232138Y-92866274D01*
X128232140Y-92866275D01*
X128385157Y-92913956D01*
X128385156Y-92913956D01*
X128451663Y-92920000D01*
X128462199Y-92920000D01*
X128529238Y-92939685D01*
X128574993Y-92992489D01*
X128585519Y-93056959D01*
X128569540Y-93209000D01*
X128589326Y-93397256D01*
X128589327Y-93397259D01*
X128647818Y-93577277D01*
X128647821Y-93577284D01*
X128742467Y-93741216D01*
X128841904Y-93851652D01*
X128869129Y-93881888D01*
X129022265Y-93993148D01*
X129022270Y-93993151D01*
X129195192Y-94070142D01*
X129195197Y-94070144D01*
X129380354Y-94109500D01*
X129380355Y-94109500D01*
X129569644Y-94109500D01*
X129569646Y-94109500D01*
X129754803Y-94070144D01*
X129927730Y-93993151D01*
X130080871Y-93881888D01*
X130083788Y-93878647D01*
X130086600Y-93875526D01*
X130146087Y-93838879D01*
X130178748Y-93834500D01*
X130520548Y-93834500D01*
X130587587Y-93854185D01*
X130608228Y-93870818D01*
X132084141Y-95346732D01*
X132084142Y-95346733D01*
X132144529Y-95407120D01*
X132171268Y-95433859D01*
X132273707Y-95502307D01*
X132273713Y-95502310D01*
X132273714Y-95502311D01*
X132387548Y-95549463D01*
X132447971Y-95561481D01*
X132508393Y-95573500D01*
X132508394Y-95573500D01*
X132935524Y-95573500D01*
X133002563Y-95593185D01*
X133023209Y-95609823D01*
X134390187Y-96976952D01*
X134423668Y-97038275D01*
X134426500Y-97064626D01*
X134426500Y-97748700D01*
X134426498Y-97760906D01*
X134426489Y-97812694D01*
X134426500Y-97812808D01*
X134431439Y-97837641D01*
X134425210Y-97907233D01*
X134382345Y-97962409D01*
X134344933Y-97978992D01*
X134345374Y-97980349D01*
X134339192Y-97982357D01*
X134166270Y-98059348D01*
X134166265Y-98059351D01*
X134152548Y-98069318D01*
X134086742Y-98092798D01*
X134079663Y-98093000D01*
X133196524Y-98093000D01*
X133129485Y-98073315D01*
X133108588Y-98056426D01*
X133098764Y-98046545D01*
X131913588Y-96854451D01*
X131883595Y-96805345D01*
X131827179Y-96631716D01*
X131732533Y-96467784D01*
X131605871Y-96327112D01*
X131595971Y-96319919D01*
X131452732Y-96215850D01*
X131450877Y-96215024D01*
X131438685Y-96209596D01*
X131385450Y-96164347D01*
X131365128Y-96097498D01*
X131370046Y-96061722D01*
X131400075Y-95958362D01*
X131400076Y-95958356D01*
X131402999Y-95921210D01*
X131403000Y-95921203D01*
X131402999Y-95478798D01*
X131400076Y-95441642D01*
X131353870Y-95282600D01*
X131269563Y-95140046D01*
X131269561Y-95140044D01*
X131269558Y-95140040D01*
X131152459Y-95022941D01*
X131152450Y-95022934D01*
X131010681Y-94939092D01*
X131009900Y-94938630D01*
X131009899Y-94938629D01*
X131009898Y-94938629D01*
X131009895Y-94938628D01*
X130850862Y-94892424D01*
X130850856Y-94892423D01*
X130813703Y-94889500D01*
X130256309Y-94889500D01*
X130256284Y-94889501D01*
X130219141Y-94892424D01*
X130060104Y-94938628D01*
X130060096Y-94938631D01*
X130030127Y-94956355D01*
X129962403Y-94973536D01*
X129903889Y-94956355D01*
X129874699Y-94939093D01*
X129874694Y-94939091D01*
X129715783Y-94892922D01*
X129715777Y-94892921D01*
X129678657Y-94890000D01*
X129650000Y-94890000D01*
X129650000Y-95631900D01*
X129630315Y-95698939D01*
X129577511Y-95744694D01*
X129526000Y-95755900D01*
X127874744Y-95755900D01*
X127807705Y-95736215D01*
X127786975Y-95719493D01*
X127751717Y-95684164D01*
X127750622Y-95682954D01*
X127695148Y-95627481D01*
X127695147Y-95627480D01*
X127643001Y-95575229D01*
X127642997Y-95575226D01*
X127642994Y-95575223D01*
X127642697Y-95574979D01*
X127642607Y-95574905D01*
X127642416Y-95574748D01*
X127581429Y-95533998D01*
X127581325Y-95533929D01*
X127520165Y-95492974D01*
X127520084Y-95492931D01*
X127519503Y-95492619D01*
X127451545Y-95464469D01*
X127451433Y-95464423D01*
X127416711Y-95450000D01*
X128534770Y-95450000D01*
X129150000Y-95450000D01*
X129150000Y-94890000D01*
X129121342Y-94890000D01*
X129084222Y-94892921D01*
X129084216Y-94892922D01*
X128925305Y-94939091D01*
X128925302Y-94939092D01*
X128782857Y-95023333D01*
X128782849Y-95023339D01*
X128665839Y-95140349D01*
X128665833Y-95140357D01*
X128581592Y-95282802D01*
X128581590Y-95282805D01*
X128535421Y-95441718D01*
X128534770Y-95450000D01*
X127416711Y-95450000D01*
X127383622Y-95436255D01*
X127383573Y-95436241D01*
X127383377Y-95436182D01*
X127382918Y-95436042D01*
X127310699Y-95421677D01*
X127310577Y-95421653D01*
X127295864Y-95418711D01*
X127238671Y-95407275D01*
X127238669Y-95407274D01*
X127238645Y-95407270D01*
X127238327Y-95407239D01*
X127238032Y-95407210D01*
X127237932Y-95407200D01*
X127237918Y-95407200D01*
X127164258Y-95407200D01*
X127085674Y-95407120D01*
X127084049Y-95407200D01*
X124875500Y-95407200D01*
X124808461Y-95387515D01*
X124762706Y-95334711D01*
X124751500Y-95283200D01*
X124751500Y-91684328D01*
X124751512Y-91684065D01*
X124751511Y-91678092D01*
X124751512Y-91678088D01*
X124751500Y-91607127D01*
X124751500Y-91530382D01*
X124751497Y-91530368D01*
X124751486Y-91530247D01*
X124740450Y-91474815D01*
X124736783Y-91456398D01*
X124722658Y-91385387D01*
X124722655Y-91385380D01*
X124722618Y-91385258D01*
X124695021Y-91318665D01*
X124670062Y-91258410D01*
X124662594Y-91188945D01*
X124693868Y-91126465D01*
X124753957Y-91090812D01*
X124823782Y-91093305D01*
G37*
%TD.AperFunction*%
%TA.AperFunction,Conductor*%
G36*
X131128362Y-89122032D02*
G01*
X131184295Y-89163905D01*
X131208346Y-89225250D01*
X131222326Y-89358256D01*
X131222327Y-89358259D01*
X131280818Y-89538277D01*
X131280821Y-89538284D01*
X131375467Y-89702216D01*
X131477185Y-89815185D01*
X131502129Y-89842888D01*
X131655265Y-89954148D01*
X131655270Y-89954151D01*
X131828192Y-90031142D01*
X131828197Y-90031144D01*
X132013354Y-90070500D01*
X132013355Y-90070500D01*
X132202644Y-90070500D01*
X132202646Y-90070500D01*
X132387803Y-90031144D01*
X132560730Y-89954151D01*
X132713871Y-89842888D01*
X132716788Y-89839647D01*
X132719600Y-89836526D01*
X132779087Y-89799879D01*
X132811748Y-89795500D01*
X133311562Y-89795500D01*
X133378601Y-89815185D01*
X133399240Y-89831816D01*
X134850334Y-91282816D01*
X134883821Y-91344138D01*
X134878839Y-91413830D01*
X134836970Y-91469765D01*
X134771506Y-91494184D01*
X134762656Y-91494500D01*
X132168765Y-91494500D01*
X132101726Y-91474815D01*
X132061377Y-91432499D01*
X132050598Y-91413830D01*
X132049533Y-91411984D01*
X131922871Y-91271312D01*
X131922870Y-91271311D01*
X131769734Y-91160051D01*
X131769729Y-91160048D01*
X131596807Y-91083057D01*
X131596802Y-91083055D01*
X131448488Y-91051531D01*
X131411646Y-91043700D01*
X131222354Y-91043700D01*
X131189897Y-91050598D01*
X131037197Y-91083055D01*
X131037192Y-91083057D01*
X130864270Y-91160048D01*
X130864265Y-91160051D01*
X130711129Y-91271311D01*
X130711128Y-91271312D01*
X130622674Y-91369550D01*
X130563188Y-91406198D01*
X130493331Y-91404867D01*
X130466376Y-91392695D01*
X130412004Y-91359827D01*
X130368069Y-91333267D01*
X130368067Y-91333266D01*
X130368065Y-91333265D01*
X130214933Y-91285548D01*
X130214935Y-91285548D01*
X130184870Y-91282816D01*
X130148381Y-91279500D01*
X130148378Y-91279500D01*
X129646611Y-91279500D01*
X129580073Y-91285546D01*
X129580066Y-91285548D01*
X129426937Y-91333264D01*
X129426931Y-91333267D01*
X129363664Y-91371512D01*
X129296109Y-91389347D01*
X129235367Y-91371511D01*
X129172863Y-91333726D01*
X129172859Y-91333724D01*
X129014818Y-91284477D01*
X128956670Y-91245740D01*
X128928696Y-91181714D01*
X128939778Y-91112729D01*
X128986396Y-91060686D01*
X129004256Y-91051531D01*
X129043691Y-91035196D01*
X129043692Y-91035195D01*
X129043698Y-91035193D01*
X129101400Y-91011294D01*
X129103272Y-91010555D01*
X129103274Y-91010554D01*
X129104853Y-91009464D01*
X129172238Y-90964439D01*
X129172239Y-90964438D01*
X129203242Y-90943723D01*
X129205495Y-90942295D01*
X129205730Y-90942059D01*
X129205733Y-90942058D01*
X129273291Y-90874500D01*
X130997349Y-89150528D01*
X131058671Y-89117046D01*
X131128362Y-89122032D01*
G37*
%TD.AperFunction*%
%TA.AperFunction,Conductor*%
G36*
X122978628Y-88489259D02*
G01*
X122989659Y-88499050D01*
X123485564Y-88995037D01*
X123829039Y-89338570D01*
X123862518Y-89399896D01*
X123857528Y-89469587D01*
X123815652Y-89525517D01*
X123799405Y-89534938D01*
X123799514Y-89535123D01*
X123763609Y-89556356D01*
X123695884Y-89573536D01*
X123637369Y-89556354D01*
X123607398Y-89538629D01*
X123607395Y-89538628D01*
X123448362Y-89492424D01*
X123448356Y-89492423D01*
X123411210Y-89489500D01*
X123411203Y-89489500D01*
X123380104Y-89489500D01*
X123313065Y-89469815D01*
X123292402Y-89453160D01*
X123239163Y-89399896D01*
X123085311Y-89245970D01*
X123085057Y-89245690D01*
X123029475Y-89190108D01*
X123029460Y-89190082D01*
X123029455Y-89190088D01*
X122976554Y-89137162D01*
X122976553Y-89137161D01*
X122976551Y-89137159D01*
X122976513Y-89137128D01*
X122976416Y-89137048D01*
X122915296Y-89096210D01*
X122915268Y-89096191D01*
X122853652Y-89055000D01*
X122853651Y-89054999D01*
X122853637Y-89054990D01*
X122853520Y-89054927D01*
X122853497Y-89054917D01*
X122853495Y-89054916D01*
X122786163Y-89027026D01*
X122773192Y-89021649D01*
X122717085Y-88998393D01*
X122716918Y-88998343D01*
X122700301Y-88995037D01*
X122638392Y-88962648D01*
X122603822Y-88901930D01*
X122600500Y-88873421D01*
X122600500Y-88826452D01*
X122620185Y-88759413D01*
X122632350Y-88743480D01*
X122732533Y-88632216D01*
X122794590Y-88524730D01*
X122845157Y-88476515D01*
X122913764Y-88463291D01*
X122978628Y-88489259D01*
G37*
%TD.AperFunction*%
%TA.AperFunction,Conductor*%
G36*
X115546945Y-77595185D02*
G01*
X115592700Y-77647989D01*
X115603195Y-77712752D01*
X115599500Y-77747127D01*
X115599500Y-77747129D01*
X115599500Y-77747133D01*
X115599500Y-78442870D01*
X115599501Y-78442876D01*
X115605908Y-78502483D01*
X115656202Y-78637328D01*
X115656205Y-78637334D01*
X115669947Y-78655691D01*
X115694363Y-78721156D01*
X115679510Y-78789429D01*
X115669947Y-78804309D01*
X115656205Y-78822665D01*
X115656202Y-78822671D01*
X115612860Y-78938880D01*
X115605909Y-78957517D01*
X115599500Y-79017127D01*
X115599500Y-79017134D01*
X115599500Y-79017135D01*
X115599500Y-79712870D01*
X115599501Y-79712876D01*
X115605908Y-79772483D01*
X115656202Y-79907328D01*
X115656204Y-79907332D01*
X115670257Y-79926103D01*
X115694676Y-79991567D01*
X115679826Y-80059840D01*
X115670260Y-80074726D01*
X115656646Y-80092911D01*
X115656645Y-80092913D01*
X115606403Y-80227620D01*
X115606401Y-80227627D01*
X115600000Y-80287155D01*
X115600000Y-80385000D01*
X118100000Y-80385000D01*
X118100000Y-80287172D01*
X118099999Y-80287155D01*
X118093598Y-80227627D01*
X118093595Y-80227616D01*
X118053160Y-80119206D01*
X118048175Y-80049515D01*
X118081659Y-79988191D01*
X118121886Y-79961312D01*
X118153934Y-79948037D01*
X118201384Y-79938600D01*
X118344644Y-79938600D01*
X118344646Y-79938600D01*
X118529803Y-79899244D01*
X118702730Y-79822251D01*
X118855871Y-79710988D01*
X118879675Y-79684550D01*
X118939158Y-79647903D01*
X119009016Y-79649232D01*
X119059495Y-79679832D01*
X120174599Y-80794685D01*
X120208091Y-80856004D01*
X120203115Y-80925696D01*
X120161250Y-80981635D01*
X120095788Y-81006059D01*
X120036492Y-80995655D01*
X120002807Y-80980657D01*
X120002802Y-80980655D01*
X119857001Y-80949665D01*
X119817646Y-80941300D01*
X119628354Y-80941300D01*
X119595897Y-80948198D01*
X119443197Y-80980655D01*
X119443192Y-80980657D01*
X119270270Y-81057648D01*
X119270265Y-81057651D01*
X119117129Y-81168911D01*
X118990466Y-81309585D01*
X118895821Y-81473515D01*
X118895818Y-81473522D01*
X118868639Y-81557172D01*
X118837326Y-81653544D01*
X118819682Y-81821421D01*
X118793097Y-81886035D01*
X118784046Y-81896135D01*
X118595406Y-82084767D01*
X118309110Y-82371048D01*
X118247786Y-82404531D01*
X118178094Y-82399545D01*
X118122162Y-82357672D01*
X118097747Y-82292207D01*
X118098142Y-82270103D01*
X118099999Y-82252831D01*
X118100000Y-82252827D01*
X118100000Y-82155000D01*
X115600000Y-82155000D01*
X115600000Y-82252844D01*
X115606401Y-82312372D01*
X115606402Y-82312376D01*
X115632433Y-82382166D01*
X115637417Y-82451857D01*
X115603933Y-82513181D01*
X115542610Y-82546666D01*
X115516251Y-82549500D01*
X115398452Y-82549500D01*
X115331413Y-82529815D01*
X115310771Y-82513181D01*
X113780434Y-80982844D01*
X115600000Y-80982844D01*
X115606401Y-81042372D01*
X115606403Y-81042379D01*
X115656645Y-81177086D01*
X115656646Y-81177087D01*
X115670572Y-81195691D01*
X115694987Y-81261156D01*
X115680134Y-81329429D01*
X115670572Y-81344309D01*
X115656646Y-81362912D01*
X115656645Y-81362913D01*
X115606403Y-81497620D01*
X115606401Y-81497627D01*
X115600000Y-81557155D01*
X115600000Y-81655000D01*
X116600000Y-81655000D01*
X117100000Y-81655000D01*
X118100000Y-81655000D01*
X118100000Y-81557172D01*
X118099999Y-81557155D01*
X118093598Y-81497627D01*
X118093597Y-81497623D01*
X118043351Y-81362908D01*
X118029430Y-81344313D01*
X118005011Y-81278849D01*
X118019861Y-81210576D01*
X118029430Y-81195687D01*
X118043351Y-81177091D01*
X118093597Y-81042376D01*
X118093598Y-81042372D01*
X118099999Y-80982844D01*
X118100000Y-80982827D01*
X118100000Y-80885000D01*
X117100000Y-80885000D01*
X117100000Y-81655000D01*
X116600000Y-81655000D01*
X116600000Y-80885000D01*
X115600000Y-80885000D01*
X115600000Y-80982844D01*
X113780434Y-80982844D01*
X111797793Y-79000203D01*
X111764308Y-78938880D01*
X111769292Y-78869188D01*
X111811164Y-78813255D01*
X111820364Y-78806992D01*
X111960850Y-78720340D01*
X111975171Y-78706018D01*
X112036489Y-78672533D01*
X112106181Y-78677514D01*
X112150534Y-78706017D01*
X112164461Y-78719944D01*
X112164465Y-78719947D01*
X112311188Y-78810448D01*
X112311199Y-78810453D01*
X112474847Y-78864680D01*
X112575851Y-78874999D01*
X113175000Y-78874999D01*
X113274140Y-78874999D01*
X113274154Y-78874998D01*
X113375152Y-78864680D01*
X113538800Y-78810453D01*
X113538811Y-78810448D01*
X113685534Y-78719947D01*
X113685538Y-78719944D01*
X113807444Y-78598038D01*
X113807447Y-78598034D01*
X113897948Y-78451311D01*
X113897953Y-78451300D01*
X113952180Y-78287652D01*
X113962499Y-78186654D01*
X113962500Y-78186641D01*
X113962500Y-78150000D01*
X113175000Y-78150000D01*
X113175000Y-78874999D01*
X112575851Y-78874999D01*
X112675000Y-78874998D01*
X112675000Y-77774000D01*
X112694685Y-77706961D01*
X112747489Y-77661206D01*
X112799000Y-77650000D01*
X113962499Y-77650000D01*
X113998818Y-77613681D01*
X114001157Y-77616020D01*
X114034988Y-77586706D01*
X114086499Y-77575500D01*
X115479906Y-77575500D01*
X115546945Y-77595185D01*
G37*
%TD.AperFunction*%
%TA.AperFunction,Conductor*%
G36*
X114703581Y-65965985D02*
G01*
X114724224Y-65982620D01*
X123420802Y-74679392D01*
X123420823Y-74679415D01*
X123465913Y-74724504D01*
X123465914Y-74724505D01*
X123512261Y-74770853D01*
X123512263Y-74770855D01*
X123547726Y-74794551D01*
X123547727Y-74794551D01*
X123547728Y-74794552D01*
X123614708Y-74839308D01*
X123614709Y-74839308D01*
X123614975Y-74839486D01*
X123615608Y-74839810D01*
X123618751Y-74840983D01*
X123673298Y-74863577D01*
X123724517Y-74884793D01*
X123727886Y-74886331D01*
X123728546Y-74886462D01*
X123728548Y-74886463D01*
X123769186Y-74894546D01*
X123769189Y-74894548D01*
X123769190Y-74894547D01*
X123849384Y-74910500D01*
X123849386Y-74910500D01*
X123972600Y-74910501D01*
X123972605Y-74910500D01*
X125016250Y-74910500D01*
X125083289Y-74930185D01*
X125129044Y-74982989D01*
X125138988Y-75052147D01*
X125132432Y-75077833D01*
X125106403Y-75147620D01*
X125106401Y-75147627D01*
X125100000Y-75207155D01*
X125100000Y-75305000D01*
X127600000Y-75305000D01*
X127600000Y-75207172D01*
X127599999Y-75207155D01*
X127593598Y-75147627D01*
X127593597Y-75147623D01*
X127543351Y-75012908D01*
X127529741Y-74994728D01*
X127505323Y-74929264D01*
X127520174Y-74860991D01*
X127529732Y-74846117D01*
X127543796Y-74827331D01*
X127594091Y-74692483D01*
X127600500Y-74632873D01*
X127600499Y-73937128D01*
X127594091Y-73877517D01*
X127588873Y-73863526D01*
X127540697Y-73734359D01*
X127542858Y-73733552D01*
X127530678Y-73677581D01*
X127555091Y-73612115D01*
X127611022Y-73570240D01*
X127680713Y-73565251D01*
X127742037Y-73598731D01*
X127945238Y-73802185D01*
X127978683Y-73863526D01*
X127981500Y-73889809D01*
X127981500Y-79760500D01*
X127961815Y-79827539D01*
X127909011Y-79873294D01*
X127857500Y-79884500D01*
X127720094Y-79884500D01*
X127653055Y-79864815D01*
X127607300Y-79812011D01*
X127596804Y-79747246D01*
X127600500Y-79712873D01*
X127600499Y-79017128D01*
X127594091Y-78957517D01*
X127587140Y-78938880D01*
X127543797Y-78822670D01*
X127543796Y-78822669D01*
X127543793Y-78822665D01*
X127530053Y-78804311D01*
X127505635Y-78738850D01*
X127520485Y-78670576D01*
X127530050Y-78655691D01*
X127543796Y-78637331D01*
X127594091Y-78502483D01*
X127600500Y-78442873D01*
X127600499Y-77747128D01*
X127594091Y-77687517D01*
X127584278Y-77661206D01*
X127543797Y-77552670D01*
X127543796Y-77552669D01*
X127529741Y-77533894D01*
X127505323Y-77468432D01*
X127520173Y-77400159D01*
X127529742Y-77385270D01*
X127543351Y-77367091D01*
X127593597Y-77232376D01*
X127593598Y-77232372D01*
X127599999Y-77172844D01*
X127600000Y-77172827D01*
X127600000Y-77075000D01*
X125188952Y-77075000D01*
X125121913Y-77055315D01*
X125101271Y-77038681D01*
X123965434Y-75902844D01*
X125100000Y-75902844D01*
X125106401Y-75962372D01*
X125106403Y-75962379D01*
X125156645Y-76097086D01*
X125156646Y-76097087D01*
X125170572Y-76115691D01*
X125194987Y-76181156D01*
X125180134Y-76249429D01*
X125170572Y-76264309D01*
X125156646Y-76282912D01*
X125156645Y-76282913D01*
X125106403Y-76417620D01*
X125106401Y-76417627D01*
X125100000Y-76477155D01*
X125100000Y-76575000D01*
X126100000Y-76575000D01*
X126600000Y-76575000D01*
X127600000Y-76575000D01*
X127600000Y-76477172D01*
X127599999Y-76477155D01*
X127593598Y-76417627D01*
X127593597Y-76417623D01*
X127543351Y-76282908D01*
X127529430Y-76264313D01*
X127505011Y-76198849D01*
X127519861Y-76130576D01*
X127529430Y-76115687D01*
X127543351Y-76097091D01*
X127593597Y-75962376D01*
X127593598Y-75962372D01*
X127599999Y-75902844D01*
X127600000Y-75902827D01*
X127600000Y-75805000D01*
X126600000Y-75805000D01*
X126600000Y-76575000D01*
X126100000Y-76575000D01*
X126100000Y-75805000D01*
X125100000Y-75805000D01*
X125100000Y-75902844D01*
X123965434Y-75902844D01*
X117668198Y-69605608D01*
X117668178Y-69605586D01*
X117576736Y-69514144D01*
X117576728Y-69514138D01*
X117498023Y-69461549D01*
X117498021Y-69461547D01*
X117498021Y-69461548D01*
X117474285Y-69445687D01*
X117434039Y-69429017D01*
X117393792Y-69412347D01*
X117389741Y-69410669D01*
X117360453Y-69398537D01*
X117350427Y-69396543D01*
X117300029Y-69386518D01*
X117239610Y-69374500D01*
X117239607Y-69374500D01*
X117239606Y-69374500D01*
X113696844Y-69374500D01*
X113629805Y-69354815D01*
X113584050Y-69302011D01*
X113574106Y-69232853D01*
X113587486Y-69192047D01*
X113628811Y-69114732D01*
X113628814Y-69114727D01*
X113686024Y-68926132D01*
X113705341Y-68730000D01*
X113686024Y-68533868D01*
X113628814Y-68345273D01*
X113535910Y-68171462D01*
X113535907Y-68171458D01*
X113532523Y-68166393D01*
X113534164Y-68165296D01*
X113510405Y-68109361D01*
X113522194Y-68040493D01*
X113532888Y-68023851D01*
X113532523Y-68023607D01*
X113535904Y-68018544D01*
X113535910Y-68018538D01*
X113628814Y-67844727D01*
X113686024Y-67656132D01*
X113705341Y-67460000D01*
X113686024Y-67263868D01*
X113628814Y-67075273D01*
X113535910Y-66901462D01*
X113535907Y-66901458D01*
X113532523Y-66896393D01*
X113534164Y-66895296D01*
X113510405Y-66839361D01*
X113522194Y-66770493D01*
X113532888Y-66753851D01*
X113532523Y-66753607D01*
X113535904Y-66748544D01*
X113535910Y-66748538D01*
X113628814Y-66574727D01*
X113686024Y-66386132D01*
X113705341Y-66190000D01*
X113694749Y-66082454D01*
X113707768Y-66013808D01*
X113755833Y-65963098D01*
X113818152Y-65946300D01*
X114636542Y-65946300D01*
X114703581Y-65965985D01*
G37*
%TD.AperFunction*%
%TA.AperFunction,Conductor*%
G36*
X116934587Y-70645185D02*
G01*
X116955229Y-70661819D01*
X124784016Y-78490606D01*
X124784045Y-78490637D01*
X124821227Y-78527819D01*
X124854712Y-78589142D01*
X124849728Y-78658834D01*
X124807856Y-78714767D01*
X124742392Y-78739184D01*
X124733546Y-78739500D01*
X124566256Y-78739500D01*
X124499515Y-78739487D01*
X124499514Y-78739487D01*
X124499508Y-78739487D01*
X124499411Y-78739496D01*
X124442852Y-78750746D01*
X124442832Y-78750750D01*
X124378646Y-78763505D01*
X124378569Y-78763528D01*
X124323834Y-78786199D01*
X124323817Y-78786206D01*
X124264789Y-78810643D01*
X124264748Y-78810665D01*
X124213013Y-78845233D01*
X124212997Y-78845244D01*
X124162312Y-78879097D01*
X124162305Y-78879103D01*
X124116252Y-78925156D01*
X123842404Y-79198898D01*
X123781075Y-79232371D01*
X123754740Y-79235200D01*
X123695354Y-79235200D01*
X123664449Y-79241769D01*
X123510194Y-79274556D01*
X123506169Y-79275864D01*
X123436328Y-79277854D01*
X123376498Y-79241769D01*
X123345675Y-79179065D01*
X123344540Y-79144966D01*
X123346460Y-79126702D01*
X123346460Y-79126700D01*
X123326674Y-78938444D01*
X123268179Y-78758416D01*
X123173533Y-78594484D01*
X123046871Y-78453812D01*
X123031815Y-78442873D01*
X122893734Y-78342551D01*
X122893729Y-78342548D01*
X122720807Y-78265557D01*
X122720802Y-78265555D01*
X122575001Y-78234565D01*
X122535646Y-78226200D01*
X122535645Y-78226200D01*
X122476519Y-78226200D01*
X122409480Y-78206515D01*
X122388832Y-78189875D01*
X118588813Y-74389350D01*
X118555332Y-74328025D01*
X118552500Y-74301675D01*
X118552500Y-74223393D01*
X118552499Y-74223389D01*
X118530512Y-74112851D01*
X118528463Y-74102548D01*
X118488526Y-74006132D01*
X118481312Y-73988716D01*
X118481307Y-73988707D01*
X118412858Y-73886267D01*
X118412855Y-73886263D01*
X118325736Y-73799144D01*
X118325732Y-73799141D01*
X118223292Y-73730692D01*
X118223283Y-73730687D01*
X118130477Y-73692246D01*
X118109452Y-73683537D01*
X118109448Y-73683536D01*
X118109444Y-73683535D01*
X118026729Y-73667082D01*
X117964818Y-73634697D01*
X117963242Y-73633150D01*
X117957548Y-73627457D01*
X117957546Y-73627454D01*
X117943529Y-73616961D01*
X117842335Y-73541206D01*
X117842328Y-73541202D01*
X117707482Y-73490908D01*
X117707483Y-73490908D01*
X117647883Y-73484501D01*
X117647881Y-73484500D01*
X117647873Y-73484500D01*
X117647864Y-73484500D01*
X116052129Y-73484500D01*
X116052123Y-73484501D01*
X115992516Y-73490908D01*
X115857671Y-73541202D01*
X115857664Y-73541206D01*
X115742455Y-73627452D01*
X115742452Y-73627455D01*
X115656206Y-73742664D01*
X115656202Y-73742671D01*
X115611127Y-73863526D01*
X115605909Y-73877517D01*
X115599500Y-73937127D01*
X115599500Y-73937134D01*
X115599500Y-73937135D01*
X115599500Y-74632870D01*
X115599501Y-74632876D01*
X115605908Y-74692483D01*
X115656202Y-74827328D01*
X115656205Y-74827334D01*
X115669947Y-74845691D01*
X115694363Y-74911156D01*
X115679510Y-74979429D01*
X115669947Y-74994309D01*
X115656205Y-75012665D01*
X115656202Y-75012671D01*
X115609644Y-75137502D01*
X115605909Y-75147517D01*
X115599500Y-75207127D01*
X115599500Y-75207134D01*
X115599500Y-75207135D01*
X115599500Y-75902870D01*
X115599501Y-75902876D01*
X115603196Y-75937247D01*
X115590789Y-76006006D01*
X115543178Y-76057143D01*
X115479906Y-76074500D01*
X113411065Y-76074500D01*
X113344026Y-76054815D01*
X113298271Y-76002011D01*
X113288327Y-75932853D01*
X113317352Y-75869297D01*
X113332400Y-75854647D01*
X113410528Y-75790528D01*
X113535492Y-75638260D01*
X113535496Y-75638253D01*
X113628347Y-75464541D01*
X113669160Y-75330000D01*
X112909618Y-75330000D01*
X112960064Y-75279554D01*
X113002851Y-75205445D01*
X113025000Y-75122787D01*
X113025000Y-75037213D01*
X113002851Y-74954555D01*
X112960064Y-74880446D01*
X112909618Y-74830000D01*
X112950000Y-74830000D01*
X113669160Y-74830000D01*
X113669160Y-74829999D01*
X113628347Y-74695458D01*
X113535497Y-74521747D01*
X113532111Y-74516680D01*
X113533665Y-74515641D01*
X113509759Y-74459361D01*
X113521547Y-74390493D01*
X113532441Y-74373540D01*
X113532111Y-74373320D01*
X113535497Y-74368252D01*
X113628347Y-74194541D01*
X113669160Y-74060000D01*
X112950000Y-74060000D01*
X112950000Y-74830000D01*
X112909618Y-74830000D01*
X112899554Y-74819936D01*
X112825445Y-74777149D01*
X112742787Y-74755000D01*
X112657213Y-74755000D01*
X112574555Y-74777149D01*
X112500446Y-74819936D01*
X112450000Y-74870382D01*
X112450000Y-74019618D01*
X112500446Y-74070064D01*
X112574555Y-74112851D01*
X112657213Y-74135000D01*
X112742787Y-74135000D01*
X112825445Y-74112851D01*
X112899554Y-74070064D01*
X112960064Y-74009554D01*
X113002851Y-73935445D01*
X113025000Y-73852787D01*
X113025000Y-73767213D01*
X113002851Y-73684555D01*
X112960064Y-73610446D01*
X112909618Y-73560000D01*
X113669160Y-73560000D01*
X113669160Y-73559999D01*
X113628347Y-73425458D01*
X113535496Y-73251746D01*
X113532110Y-73246678D01*
X113533784Y-73245559D01*
X113510081Y-73189746D01*
X113521874Y-73120879D01*
X113532839Y-73103818D01*
X113532523Y-73103607D01*
X113535904Y-73098544D01*
X113535910Y-73098538D01*
X113628814Y-72924727D01*
X113686024Y-72736132D01*
X113705341Y-72540000D01*
X113686024Y-72343868D01*
X113628814Y-72155273D01*
X113535910Y-71981462D01*
X113535907Y-71981458D01*
X113532523Y-71976393D01*
X113534164Y-71975296D01*
X113510405Y-71919361D01*
X113522194Y-71850493D01*
X113532888Y-71833851D01*
X113532523Y-71833607D01*
X113535904Y-71828544D01*
X113535910Y-71828538D01*
X113628814Y-71654727D01*
X113686024Y-71466132D01*
X113705341Y-71270000D01*
X113686024Y-71073868D01*
X113628814Y-70885273D01*
X113628811Y-70885267D01*
X113587486Y-70807953D01*
X113573244Y-70739551D01*
X113598244Y-70674307D01*
X113654549Y-70632936D01*
X113696844Y-70625500D01*
X116867548Y-70625500D01*
X116934587Y-70645185D01*
G37*
%TD.AperFunction*%
%TA.AperFunction,Conductor*%
G36*
X126755200Y-72566560D02*
G01*
X126761707Y-72572620D01*
X127520557Y-73331934D01*
X127535818Y-73350499D01*
X127576419Y-73411010D01*
X127576392Y-73411027D01*
X127576555Y-73411212D01*
X127582391Y-73419947D01*
X127603266Y-73486625D01*
X127584779Y-73554004D01*
X127532798Y-73600692D01*
X127463827Y-73611866D01*
X127404975Y-73588099D01*
X127342331Y-73541204D01*
X127342328Y-73541202D01*
X127207482Y-73490908D01*
X127207483Y-73490908D01*
X127147883Y-73484501D01*
X127147881Y-73484500D01*
X127147873Y-73484500D01*
X127147865Y-73484500D01*
X126285490Y-73484500D01*
X126218451Y-73464815D01*
X126172696Y-73412011D01*
X126162752Y-73342853D01*
X126191777Y-73279297D01*
X126221341Y-73254382D01*
X126294343Y-73210251D01*
X126410252Y-73094342D01*
X126410256Y-73094337D01*
X126495052Y-72954065D01*
X126543820Y-72797562D01*
X126549999Y-72729556D01*
X126549999Y-72660276D01*
X126569683Y-72593236D01*
X126622486Y-72547480D01*
X126691644Y-72537536D01*
X126755200Y-72566560D01*
G37*
%TD.AperFunction*%
%TD*%
M02*
