%TF.GenerationSoftware,KiCad,Pcbnew,8.0.6*%
%TF.CreationDate,2024-11-04T10:19:55-08:00*%
%TF.ProjectId,USB_SPDTK2,5553425f-5350-4445-944b-322e6b696361,rev?*%
%TF.SameCoordinates,Original*%
%TF.FileFunction,Legend,Bot*%
%TF.FilePolarity,Positive*%
%FSLAX46Y46*%
G04 Gerber Fmt 4.6, Leading zero omitted, Abs format (unit mm)*
G04 Created by KiCad (PCBNEW 8.0.6) date 2024-11-04 10:19:55*
%MOMM*%
%LPD*%
G01*
G04 APERTURE LIST*
G04 Aperture macros list*
%AMRoundRect*
0 Rectangle with rounded corners*
0 $1 Rounding radius*
0 $2 $3 $4 $5 $6 $7 $8 $9 X,Y pos of 4 corners*
0 Add a 4 corners polygon primitive as box body*
4,1,4,$2,$3,$4,$5,$6,$7,$8,$9,$2,$3,0*
0 Add four circle primitives for the rounded corners*
1,1,$1+$1,$2,$3*
1,1,$1+$1,$4,$5*
1,1,$1+$1,$6,$7*
1,1,$1+$1,$8,$9*
0 Add four rect primitives between the rounded corners*
20,1,$1+$1,$2,$3,$4,$5,0*
20,1,$1+$1,$4,$5,$6,$7,0*
20,1,$1+$1,$6,$7,$8,$9,0*
20,1,$1+$1,$8,$9,$2,$3,0*%
G04 Aperture macros list end*
%ADD10C,0.150000*%
%ADD11C,0.120000*%
%ADD12R,1.000000X1.000000*%
%ADD13O,1.000000X1.000000*%
%ADD14C,3.600000*%
%ADD15C,5.600000*%
%ADD16C,2.374900*%
%ADD17C,0.990600*%
%ADD18O,0.900000X1.600000*%
%ADD19RoundRect,0.160000X-0.197500X-0.160000X0.197500X-0.160000X0.197500X0.160000X-0.197500X0.160000X0*%
%ADD20RoundRect,0.155000X0.212500X0.155000X-0.212500X0.155000X-0.212500X-0.155000X0.212500X-0.155000X0*%
%ADD21RoundRect,0.155000X-0.212500X-0.155000X0.212500X-0.155000X0.212500X0.155000X-0.212500X0.155000X0*%
%ADD22RoundRect,0.237500X-0.237500X0.300000X-0.237500X-0.300000X0.237500X-0.300000X0.237500X0.300000X0*%
%ADD23RoundRect,0.175000X0.325000X-0.175000X0.325000X0.175000X-0.325000X0.175000X-0.325000X-0.175000X0*%
%ADD24RoundRect,0.150000X0.150000X-0.200000X0.150000X0.200000X-0.150000X0.200000X-0.150000X-0.200000X0*%
%ADD25RoundRect,0.160000X0.160000X-0.197500X0.160000X0.197500X-0.160000X0.197500X-0.160000X-0.197500X0*%
%ADD26RoundRect,0.237500X0.300000X0.237500X-0.300000X0.237500X-0.300000X-0.237500X0.300000X-0.237500X0*%
%ADD27RoundRect,0.155000X-0.155000X0.212500X-0.155000X-0.212500X0.155000X-0.212500X0.155000X0.212500X0*%
%ADD28C,3.000000*%
%ADD29RoundRect,0.250000X-0.412500X-0.650000X0.412500X-0.650000X0.412500X0.650000X-0.412500X0.650000X0*%
%ADD30RoundRect,0.160000X0.197500X0.160000X-0.197500X0.160000X-0.197500X-0.160000X0.197500X-0.160000X0*%
%ADD31R,1.500000X0.600000*%
G04 APERTURE END LIST*
D10*
X136166666Y-101354819D02*
X136499999Y-100878628D01*
X136738094Y-101354819D02*
X136738094Y-100354819D01*
X136738094Y-100354819D02*
X136357142Y-100354819D01*
X136357142Y-100354819D02*
X136261904Y-100402438D01*
X136261904Y-100402438D02*
X136214285Y-100450057D01*
X136214285Y-100450057D02*
X136166666Y-100545295D01*
X136166666Y-100545295D02*
X136166666Y-100688152D01*
X136166666Y-100688152D02*
X136214285Y-100783390D01*
X136214285Y-100783390D02*
X136261904Y-100831009D01*
X136261904Y-100831009D02*
X136357142Y-100878628D01*
X136357142Y-100878628D02*
X136738094Y-100878628D01*
X135690475Y-101354819D02*
X135499999Y-101354819D01*
X135499999Y-101354819D02*
X135404761Y-101307200D01*
X135404761Y-101307200D02*
X135357142Y-101259580D01*
X135357142Y-101259580D02*
X135261904Y-101116723D01*
X135261904Y-101116723D02*
X135214285Y-100926247D01*
X135214285Y-100926247D02*
X135214285Y-100545295D01*
X135214285Y-100545295D02*
X135261904Y-100450057D01*
X135261904Y-100450057D02*
X135309523Y-100402438D01*
X135309523Y-100402438D02*
X135404761Y-100354819D01*
X135404761Y-100354819D02*
X135595237Y-100354819D01*
X135595237Y-100354819D02*
X135690475Y-100402438D01*
X135690475Y-100402438D02*
X135738094Y-100450057D01*
X135738094Y-100450057D02*
X135785713Y-100545295D01*
X135785713Y-100545295D02*
X135785713Y-100783390D01*
X135785713Y-100783390D02*
X135738094Y-100878628D01*
X135738094Y-100878628D02*
X135690475Y-100926247D01*
X135690475Y-100926247D02*
X135595237Y-100973866D01*
X135595237Y-100973866D02*
X135404761Y-100973866D01*
X135404761Y-100973866D02*
X135309523Y-100926247D01*
X135309523Y-100926247D02*
X135261904Y-100878628D01*
X135261904Y-100878628D02*
X135214285Y-100783390D01*
X130610357Y-94899580D02*
X130657976Y-94947200D01*
X130657976Y-94947200D02*
X130800833Y-94994819D01*
X130800833Y-94994819D02*
X130896071Y-94994819D01*
X130896071Y-94994819D02*
X131038928Y-94947200D01*
X131038928Y-94947200D02*
X131134166Y-94851961D01*
X131134166Y-94851961D02*
X131181785Y-94756723D01*
X131181785Y-94756723D02*
X131229404Y-94566247D01*
X131229404Y-94566247D02*
X131229404Y-94423390D01*
X131229404Y-94423390D02*
X131181785Y-94232914D01*
X131181785Y-94232914D02*
X131134166Y-94137676D01*
X131134166Y-94137676D02*
X131038928Y-94042438D01*
X131038928Y-94042438D02*
X130896071Y-93994819D01*
X130896071Y-93994819D02*
X130800833Y-93994819D01*
X130800833Y-93994819D02*
X130657976Y-94042438D01*
X130657976Y-94042438D02*
X130610357Y-94090057D01*
X129657976Y-94994819D02*
X130229404Y-94994819D01*
X129943690Y-94994819D02*
X129943690Y-93994819D01*
X129943690Y-93994819D02*
X130038928Y-94137676D01*
X130038928Y-94137676D02*
X130134166Y-94232914D01*
X130134166Y-94232914D02*
X130229404Y-94280533D01*
X128705595Y-94994819D02*
X129277023Y-94994819D01*
X128991309Y-94994819D02*
X128991309Y-93994819D01*
X128991309Y-93994819D02*
X129086547Y-94137676D01*
X129086547Y-94137676D02*
X129181785Y-94232914D01*
X129181785Y-94232914D02*
X129277023Y-94280533D01*
X124342857Y-98519580D02*
X124390476Y-98567200D01*
X124390476Y-98567200D02*
X124533333Y-98614819D01*
X124533333Y-98614819D02*
X124628571Y-98614819D01*
X124628571Y-98614819D02*
X124771428Y-98567200D01*
X124771428Y-98567200D02*
X124866666Y-98471961D01*
X124866666Y-98471961D02*
X124914285Y-98376723D01*
X124914285Y-98376723D02*
X124961904Y-98186247D01*
X124961904Y-98186247D02*
X124961904Y-98043390D01*
X124961904Y-98043390D02*
X124914285Y-97852914D01*
X124914285Y-97852914D02*
X124866666Y-97757676D01*
X124866666Y-97757676D02*
X124771428Y-97662438D01*
X124771428Y-97662438D02*
X124628571Y-97614819D01*
X124628571Y-97614819D02*
X124533333Y-97614819D01*
X124533333Y-97614819D02*
X124390476Y-97662438D01*
X124390476Y-97662438D02*
X124342857Y-97710057D01*
X123390476Y-98614819D02*
X123961904Y-98614819D01*
X123676190Y-98614819D02*
X123676190Y-97614819D01*
X123676190Y-97614819D02*
X123771428Y-97757676D01*
X123771428Y-97757676D02*
X123866666Y-97852914D01*
X123866666Y-97852914D02*
X123961904Y-97900533D01*
X122771428Y-97614819D02*
X122676190Y-97614819D01*
X122676190Y-97614819D02*
X122580952Y-97662438D01*
X122580952Y-97662438D02*
X122533333Y-97710057D01*
X122533333Y-97710057D02*
X122485714Y-97805295D01*
X122485714Y-97805295D02*
X122438095Y-97995771D01*
X122438095Y-97995771D02*
X122438095Y-98233866D01*
X122438095Y-98233866D02*
X122485714Y-98424342D01*
X122485714Y-98424342D02*
X122533333Y-98519580D01*
X122533333Y-98519580D02*
X122580952Y-98567200D01*
X122580952Y-98567200D02*
X122676190Y-98614819D01*
X122676190Y-98614819D02*
X122771428Y-98614819D01*
X122771428Y-98614819D02*
X122866666Y-98567200D01*
X122866666Y-98567200D02*
X122914285Y-98519580D01*
X122914285Y-98519580D02*
X122961904Y-98424342D01*
X122961904Y-98424342D02*
X123009523Y-98233866D01*
X123009523Y-98233866D02*
X123009523Y-97995771D01*
X123009523Y-97995771D02*
X122961904Y-97805295D01*
X122961904Y-97805295D02*
X122914285Y-97710057D01*
X122914285Y-97710057D02*
X122866666Y-97662438D01*
X122866666Y-97662438D02*
X122771428Y-97614819D01*
X123866666Y-89499580D02*
X123914285Y-89547200D01*
X123914285Y-89547200D02*
X124057142Y-89594819D01*
X124057142Y-89594819D02*
X124152380Y-89594819D01*
X124152380Y-89594819D02*
X124295237Y-89547200D01*
X124295237Y-89547200D02*
X124390475Y-89451961D01*
X124390475Y-89451961D02*
X124438094Y-89356723D01*
X124438094Y-89356723D02*
X124485713Y-89166247D01*
X124485713Y-89166247D02*
X124485713Y-89023390D01*
X124485713Y-89023390D02*
X124438094Y-88832914D01*
X124438094Y-88832914D02*
X124390475Y-88737676D01*
X124390475Y-88737676D02*
X124295237Y-88642438D01*
X124295237Y-88642438D02*
X124152380Y-88594819D01*
X124152380Y-88594819D02*
X124057142Y-88594819D01*
X124057142Y-88594819D02*
X123914285Y-88642438D01*
X123914285Y-88642438D02*
X123866666Y-88690057D01*
X123390475Y-89594819D02*
X123199999Y-89594819D01*
X123199999Y-89594819D02*
X123104761Y-89547200D01*
X123104761Y-89547200D02*
X123057142Y-89499580D01*
X123057142Y-89499580D02*
X122961904Y-89356723D01*
X122961904Y-89356723D02*
X122914285Y-89166247D01*
X122914285Y-89166247D02*
X122914285Y-88785295D01*
X122914285Y-88785295D02*
X122961904Y-88690057D01*
X122961904Y-88690057D02*
X123009523Y-88642438D01*
X123009523Y-88642438D02*
X123104761Y-88594819D01*
X123104761Y-88594819D02*
X123295237Y-88594819D01*
X123295237Y-88594819D02*
X123390475Y-88642438D01*
X123390475Y-88642438D02*
X123438094Y-88690057D01*
X123438094Y-88690057D02*
X123485713Y-88785295D01*
X123485713Y-88785295D02*
X123485713Y-89023390D01*
X123485713Y-89023390D02*
X123438094Y-89118628D01*
X123438094Y-89118628D02*
X123390475Y-89166247D01*
X123390475Y-89166247D02*
X123295237Y-89213866D01*
X123295237Y-89213866D02*
X123104761Y-89213866D01*
X123104761Y-89213866D02*
X123009523Y-89166247D01*
X123009523Y-89166247D02*
X122961904Y-89118628D01*
X122961904Y-89118628D02*
X122914285Y-89023390D01*
X115259580Y-73757142D02*
X115307200Y-73709523D01*
X115307200Y-73709523D02*
X115354819Y-73566666D01*
X115354819Y-73566666D02*
X115354819Y-73471428D01*
X115354819Y-73471428D02*
X115307200Y-73328571D01*
X115307200Y-73328571D02*
X115211961Y-73233333D01*
X115211961Y-73233333D02*
X115116723Y-73185714D01*
X115116723Y-73185714D02*
X114926247Y-73138095D01*
X114926247Y-73138095D02*
X114783390Y-73138095D01*
X114783390Y-73138095D02*
X114592914Y-73185714D01*
X114592914Y-73185714D02*
X114497676Y-73233333D01*
X114497676Y-73233333D02*
X114402438Y-73328571D01*
X114402438Y-73328571D02*
X114354819Y-73471428D01*
X114354819Y-73471428D02*
X114354819Y-73566666D01*
X114354819Y-73566666D02*
X114402438Y-73709523D01*
X114402438Y-73709523D02*
X114450057Y-73757142D01*
X115354819Y-74709523D02*
X115354819Y-74138095D01*
X115354819Y-74423809D02*
X114354819Y-74423809D01*
X114354819Y-74423809D02*
X114497676Y-74328571D01*
X114497676Y-74328571D02*
X114592914Y-74233333D01*
X114592914Y-74233333D02*
X114640533Y-74138095D01*
X114688152Y-75566666D02*
X115354819Y-75566666D01*
X114307200Y-75328571D02*
X115021485Y-75090476D01*
X115021485Y-75090476D02*
X115021485Y-75709523D01*
X127954819Y-70741905D02*
X126954819Y-70741905D01*
X126954819Y-70741905D02*
X126954819Y-70980000D01*
X126954819Y-70980000D02*
X127002438Y-71122857D01*
X127002438Y-71122857D02*
X127097676Y-71218095D01*
X127097676Y-71218095D02*
X127192914Y-71265714D01*
X127192914Y-71265714D02*
X127383390Y-71313333D01*
X127383390Y-71313333D02*
X127526247Y-71313333D01*
X127526247Y-71313333D02*
X127716723Y-71265714D01*
X127716723Y-71265714D02*
X127811961Y-71218095D01*
X127811961Y-71218095D02*
X127907200Y-71122857D01*
X127907200Y-71122857D02*
X127954819Y-70980000D01*
X127954819Y-70980000D02*
X127954819Y-70741905D01*
X127050057Y-71694286D02*
X127002438Y-71741905D01*
X127002438Y-71741905D02*
X126954819Y-71837143D01*
X126954819Y-71837143D02*
X126954819Y-72075238D01*
X126954819Y-72075238D02*
X127002438Y-72170476D01*
X127002438Y-72170476D02*
X127050057Y-72218095D01*
X127050057Y-72218095D02*
X127145295Y-72265714D01*
X127145295Y-72265714D02*
X127240533Y-72265714D01*
X127240533Y-72265714D02*
X127383390Y-72218095D01*
X127383390Y-72218095D02*
X127954819Y-71646667D01*
X127954819Y-71646667D02*
X127954819Y-72265714D01*
X128075357Y-98959580D02*
X128122976Y-99007200D01*
X128122976Y-99007200D02*
X128265833Y-99054819D01*
X128265833Y-99054819D02*
X128361071Y-99054819D01*
X128361071Y-99054819D02*
X128503928Y-99007200D01*
X128503928Y-99007200D02*
X128599166Y-98911961D01*
X128599166Y-98911961D02*
X128646785Y-98816723D01*
X128646785Y-98816723D02*
X128694404Y-98626247D01*
X128694404Y-98626247D02*
X128694404Y-98483390D01*
X128694404Y-98483390D02*
X128646785Y-98292914D01*
X128646785Y-98292914D02*
X128599166Y-98197676D01*
X128599166Y-98197676D02*
X128503928Y-98102438D01*
X128503928Y-98102438D02*
X128361071Y-98054819D01*
X128361071Y-98054819D02*
X128265833Y-98054819D01*
X128265833Y-98054819D02*
X128122976Y-98102438D01*
X128122976Y-98102438D02*
X128075357Y-98150057D01*
X127122976Y-99054819D02*
X127694404Y-99054819D01*
X127408690Y-99054819D02*
X127408690Y-98054819D01*
X127408690Y-98054819D02*
X127503928Y-98197676D01*
X127503928Y-98197676D02*
X127599166Y-98292914D01*
X127599166Y-98292914D02*
X127694404Y-98340533D01*
X126789642Y-98054819D02*
X126170595Y-98054819D01*
X126170595Y-98054819D02*
X126503928Y-98435771D01*
X126503928Y-98435771D02*
X126361071Y-98435771D01*
X126361071Y-98435771D02*
X126265833Y-98483390D01*
X126265833Y-98483390D02*
X126218214Y-98531009D01*
X126218214Y-98531009D02*
X126170595Y-98626247D01*
X126170595Y-98626247D02*
X126170595Y-98864342D01*
X126170595Y-98864342D02*
X126218214Y-98959580D01*
X126218214Y-98959580D02*
X126265833Y-99007200D01*
X126265833Y-99007200D02*
X126361071Y-99054819D01*
X126361071Y-99054819D02*
X126646785Y-99054819D01*
X126646785Y-99054819D02*
X126742023Y-99007200D01*
X126742023Y-99007200D02*
X126789642Y-98959580D01*
X129754819Y-90057142D02*
X129278628Y-89723809D01*
X129754819Y-89485714D02*
X128754819Y-89485714D01*
X128754819Y-89485714D02*
X128754819Y-89866666D01*
X128754819Y-89866666D02*
X128802438Y-89961904D01*
X128802438Y-89961904D02*
X128850057Y-90009523D01*
X128850057Y-90009523D02*
X128945295Y-90057142D01*
X128945295Y-90057142D02*
X129088152Y-90057142D01*
X129088152Y-90057142D02*
X129183390Y-90009523D01*
X129183390Y-90009523D02*
X129231009Y-89961904D01*
X129231009Y-89961904D02*
X129278628Y-89866666D01*
X129278628Y-89866666D02*
X129278628Y-89485714D01*
X129754819Y-91009523D02*
X129754819Y-90438095D01*
X129754819Y-90723809D02*
X128754819Y-90723809D01*
X128754819Y-90723809D02*
X128897676Y-90628571D01*
X128897676Y-90628571D02*
X128992914Y-90533333D01*
X128992914Y-90533333D02*
X129040533Y-90438095D01*
X129183390Y-91580952D02*
X129135771Y-91485714D01*
X129135771Y-91485714D02*
X129088152Y-91438095D01*
X129088152Y-91438095D02*
X128992914Y-91390476D01*
X128992914Y-91390476D02*
X128945295Y-91390476D01*
X128945295Y-91390476D02*
X128850057Y-91438095D01*
X128850057Y-91438095D02*
X128802438Y-91485714D01*
X128802438Y-91485714D02*
X128754819Y-91580952D01*
X128754819Y-91580952D02*
X128754819Y-91771428D01*
X128754819Y-91771428D02*
X128802438Y-91866666D01*
X128802438Y-91866666D02*
X128850057Y-91914285D01*
X128850057Y-91914285D02*
X128945295Y-91961904D01*
X128945295Y-91961904D02*
X128992914Y-91961904D01*
X128992914Y-91961904D02*
X129088152Y-91914285D01*
X129088152Y-91914285D02*
X129135771Y-91866666D01*
X129135771Y-91866666D02*
X129183390Y-91771428D01*
X129183390Y-91771428D02*
X129183390Y-91580952D01*
X129183390Y-91580952D02*
X129231009Y-91485714D01*
X129231009Y-91485714D02*
X129278628Y-91438095D01*
X129278628Y-91438095D02*
X129373866Y-91390476D01*
X129373866Y-91390476D02*
X129564342Y-91390476D01*
X129564342Y-91390476D02*
X129659580Y-91438095D01*
X129659580Y-91438095D02*
X129707200Y-91485714D01*
X129707200Y-91485714D02*
X129754819Y-91580952D01*
X129754819Y-91580952D02*
X129754819Y-91771428D01*
X129754819Y-91771428D02*
X129707200Y-91866666D01*
X129707200Y-91866666D02*
X129659580Y-91914285D01*
X129659580Y-91914285D02*
X129564342Y-91961904D01*
X129564342Y-91961904D02*
X129373866Y-91961904D01*
X129373866Y-91961904D02*
X129278628Y-91914285D01*
X129278628Y-91914285D02*
X129231009Y-91866666D01*
X129231009Y-91866666D02*
X129183390Y-91771428D01*
X132633333Y-97701009D02*
X132966666Y-97701009D01*
X132966666Y-98224819D02*
X132966666Y-97224819D01*
X132966666Y-97224819D02*
X132490476Y-97224819D01*
X131776190Y-97701009D02*
X131633333Y-97748628D01*
X131633333Y-97748628D02*
X131585714Y-97796247D01*
X131585714Y-97796247D02*
X131538095Y-97891485D01*
X131538095Y-97891485D02*
X131538095Y-98034342D01*
X131538095Y-98034342D02*
X131585714Y-98129580D01*
X131585714Y-98129580D02*
X131633333Y-98177200D01*
X131633333Y-98177200D02*
X131728571Y-98224819D01*
X131728571Y-98224819D02*
X132109523Y-98224819D01*
X132109523Y-98224819D02*
X132109523Y-97224819D01*
X132109523Y-97224819D02*
X131776190Y-97224819D01*
X131776190Y-97224819D02*
X131680952Y-97272438D01*
X131680952Y-97272438D02*
X131633333Y-97320057D01*
X131633333Y-97320057D02*
X131585714Y-97415295D01*
X131585714Y-97415295D02*
X131585714Y-97510533D01*
X131585714Y-97510533D02*
X131633333Y-97605771D01*
X131633333Y-97605771D02*
X131680952Y-97653390D01*
X131680952Y-97653390D02*
X131776190Y-97701009D01*
X131776190Y-97701009D02*
X132109523Y-97701009D01*
X130585714Y-98224819D02*
X131157142Y-98224819D01*
X130871428Y-98224819D02*
X130871428Y-97224819D01*
X130871428Y-97224819D02*
X130966666Y-97367676D01*
X130966666Y-97367676D02*
X131061904Y-97462914D01*
X131061904Y-97462914D02*
X131157142Y-97510533D01*
X128159580Y-87557142D02*
X128207200Y-87509523D01*
X128207200Y-87509523D02*
X128254819Y-87366666D01*
X128254819Y-87366666D02*
X128254819Y-87271428D01*
X128254819Y-87271428D02*
X128207200Y-87128571D01*
X128207200Y-87128571D02*
X128111961Y-87033333D01*
X128111961Y-87033333D02*
X128016723Y-86985714D01*
X128016723Y-86985714D02*
X127826247Y-86938095D01*
X127826247Y-86938095D02*
X127683390Y-86938095D01*
X127683390Y-86938095D02*
X127492914Y-86985714D01*
X127492914Y-86985714D02*
X127397676Y-87033333D01*
X127397676Y-87033333D02*
X127302438Y-87128571D01*
X127302438Y-87128571D02*
X127254819Y-87271428D01*
X127254819Y-87271428D02*
X127254819Y-87366666D01*
X127254819Y-87366666D02*
X127302438Y-87509523D01*
X127302438Y-87509523D02*
X127350057Y-87557142D01*
X128254819Y-88509523D02*
X128254819Y-87938095D01*
X128254819Y-88223809D02*
X127254819Y-88223809D01*
X127254819Y-88223809D02*
X127397676Y-88128571D01*
X127397676Y-88128571D02*
X127492914Y-88033333D01*
X127492914Y-88033333D02*
X127540533Y-87938095D01*
X127254819Y-89366666D02*
X127254819Y-89176190D01*
X127254819Y-89176190D02*
X127302438Y-89080952D01*
X127302438Y-89080952D02*
X127350057Y-89033333D01*
X127350057Y-89033333D02*
X127492914Y-88938095D01*
X127492914Y-88938095D02*
X127683390Y-88890476D01*
X127683390Y-88890476D02*
X128064342Y-88890476D01*
X128064342Y-88890476D02*
X128159580Y-88938095D01*
X128159580Y-88938095D02*
X128207200Y-88985714D01*
X128207200Y-88985714D02*
X128254819Y-89080952D01*
X128254819Y-89080952D02*
X128254819Y-89271428D01*
X128254819Y-89271428D02*
X128207200Y-89366666D01*
X128207200Y-89366666D02*
X128159580Y-89414285D01*
X128159580Y-89414285D02*
X128064342Y-89461904D01*
X128064342Y-89461904D02*
X127826247Y-89461904D01*
X127826247Y-89461904D02*
X127731009Y-89414285D01*
X127731009Y-89414285D02*
X127683390Y-89366666D01*
X127683390Y-89366666D02*
X127635771Y-89271428D01*
X127635771Y-89271428D02*
X127635771Y-89080952D01*
X127635771Y-89080952D02*
X127683390Y-88985714D01*
X127683390Y-88985714D02*
X127731009Y-88938095D01*
X127731009Y-88938095D02*
X127826247Y-88890476D01*
X119142857Y-70459580D02*
X119190476Y-70507200D01*
X119190476Y-70507200D02*
X119333333Y-70554819D01*
X119333333Y-70554819D02*
X119428571Y-70554819D01*
X119428571Y-70554819D02*
X119571428Y-70507200D01*
X119571428Y-70507200D02*
X119666666Y-70411961D01*
X119666666Y-70411961D02*
X119714285Y-70316723D01*
X119714285Y-70316723D02*
X119761904Y-70126247D01*
X119761904Y-70126247D02*
X119761904Y-69983390D01*
X119761904Y-69983390D02*
X119714285Y-69792914D01*
X119714285Y-69792914D02*
X119666666Y-69697676D01*
X119666666Y-69697676D02*
X119571428Y-69602438D01*
X119571428Y-69602438D02*
X119428571Y-69554819D01*
X119428571Y-69554819D02*
X119333333Y-69554819D01*
X119333333Y-69554819D02*
X119190476Y-69602438D01*
X119190476Y-69602438D02*
X119142857Y-69650057D01*
X118761904Y-69650057D02*
X118714285Y-69602438D01*
X118714285Y-69602438D02*
X118619047Y-69554819D01*
X118619047Y-69554819D02*
X118380952Y-69554819D01*
X118380952Y-69554819D02*
X118285714Y-69602438D01*
X118285714Y-69602438D02*
X118238095Y-69650057D01*
X118238095Y-69650057D02*
X118190476Y-69745295D01*
X118190476Y-69745295D02*
X118190476Y-69840533D01*
X118190476Y-69840533D02*
X118238095Y-69983390D01*
X118238095Y-69983390D02*
X118809523Y-70554819D01*
X118809523Y-70554819D02*
X118190476Y-70554819D01*
X117238095Y-70554819D02*
X117809523Y-70554819D01*
X117523809Y-70554819D02*
X117523809Y-69554819D01*
X117523809Y-69554819D02*
X117619047Y-69697676D01*
X117619047Y-69697676D02*
X117714285Y-69792914D01*
X117714285Y-69792914D02*
X117809523Y-69840533D01*
X130654819Y-86057142D02*
X130178628Y-85723809D01*
X130654819Y-85485714D02*
X129654819Y-85485714D01*
X129654819Y-85485714D02*
X129654819Y-85866666D01*
X129654819Y-85866666D02*
X129702438Y-85961904D01*
X129702438Y-85961904D02*
X129750057Y-86009523D01*
X129750057Y-86009523D02*
X129845295Y-86057142D01*
X129845295Y-86057142D02*
X129988152Y-86057142D01*
X129988152Y-86057142D02*
X130083390Y-86009523D01*
X130083390Y-86009523D02*
X130131009Y-85961904D01*
X130131009Y-85961904D02*
X130178628Y-85866666D01*
X130178628Y-85866666D02*
X130178628Y-85485714D01*
X130654819Y-87009523D02*
X130654819Y-86438095D01*
X130654819Y-86723809D02*
X129654819Y-86723809D01*
X129654819Y-86723809D02*
X129797676Y-86628571D01*
X129797676Y-86628571D02*
X129892914Y-86533333D01*
X129892914Y-86533333D02*
X129940533Y-86438095D01*
X129654819Y-87914285D02*
X129654819Y-87438095D01*
X129654819Y-87438095D02*
X130131009Y-87390476D01*
X130131009Y-87390476D02*
X130083390Y-87438095D01*
X130083390Y-87438095D02*
X130035771Y-87533333D01*
X130035771Y-87533333D02*
X130035771Y-87771428D01*
X130035771Y-87771428D02*
X130083390Y-87866666D01*
X130083390Y-87866666D02*
X130131009Y-87914285D01*
X130131009Y-87914285D02*
X130226247Y-87961904D01*
X130226247Y-87961904D02*
X130464342Y-87961904D01*
X130464342Y-87961904D02*
X130559580Y-87914285D01*
X130559580Y-87914285D02*
X130607200Y-87866666D01*
X130607200Y-87866666D02*
X130654819Y-87771428D01*
X130654819Y-87771428D02*
X130654819Y-87533333D01*
X130654819Y-87533333D02*
X130607200Y-87438095D01*
X130607200Y-87438095D02*
X130559580Y-87390476D01*
X113140357Y-87184819D02*
X113473690Y-86708628D01*
X113711785Y-87184819D02*
X113711785Y-86184819D01*
X113711785Y-86184819D02*
X113330833Y-86184819D01*
X113330833Y-86184819D02*
X113235595Y-86232438D01*
X113235595Y-86232438D02*
X113187976Y-86280057D01*
X113187976Y-86280057D02*
X113140357Y-86375295D01*
X113140357Y-86375295D02*
X113140357Y-86518152D01*
X113140357Y-86518152D02*
X113187976Y-86613390D01*
X113187976Y-86613390D02*
X113235595Y-86661009D01*
X113235595Y-86661009D02*
X113330833Y-86708628D01*
X113330833Y-86708628D02*
X113711785Y-86708628D01*
X112187976Y-87184819D02*
X112759404Y-87184819D01*
X112473690Y-87184819D02*
X112473690Y-86184819D01*
X112473690Y-86184819D02*
X112568928Y-86327676D01*
X112568928Y-86327676D02*
X112664166Y-86422914D01*
X112664166Y-86422914D02*
X112759404Y-86470533D01*
X111807023Y-86280057D02*
X111759404Y-86232438D01*
X111759404Y-86232438D02*
X111664166Y-86184819D01*
X111664166Y-86184819D02*
X111426071Y-86184819D01*
X111426071Y-86184819D02*
X111330833Y-86232438D01*
X111330833Y-86232438D02*
X111283214Y-86280057D01*
X111283214Y-86280057D02*
X111235595Y-86375295D01*
X111235595Y-86375295D02*
X111235595Y-86470533D01*
X111235595Y-86470533D02*
X111283214Y-86613390D01*
X111283214Y-86613390D02*
X111854642Y-87184819D01*
X111854642Y-87184819D02*
X111235595Y-87184819D01*
X132954819Y-80657142D02*
X132478628Y-80323809D01*
X132954819Y-80085714D02*
X131954819Y-80085714D01*
X131954819Y-80085714D02*
X131954819Y-80466666D01*
X131954819Y-80466666D02*
X132002438Y-80561904D01*
X132002438Y-80561904D02*
X132050057Y-80609523D01*
X132050057Y-80609523D02*
X132145295Y-80657142D01*
X132145295Y-80657142D02*
X132288152Y-80657142D01*
X132288152Y-80657142D02*
X132383390Y-80609523D01*
X132383390Y-80609523D02*
X132431009Y-80561904D01*
X132431009Y-80561904D02*
X132478628Y-80466666D01*
X132478628Y-80466666D02*
X132478628Y-80085714D01*
X132954819Y-81609523D02*
X132954819Y-81038095D01*
X132954819Y-81323809D02*
X131954819Y-81323809D01*
X131954819Y-81323809D02*
X132097676Y-81228571D01*
X132097676Y-81228571D02*
X132192914Y-81133333D01*
X132192914Y-81133333D02*
X132240533Y-81038095D01*
X132288152Y-82466666D02*
X132954819Y-82466666D01*
X131907200Y-82228571D02*
X132621485Y-81990476D01*
X132621485Y-81990476D02*
X132621485Y-82609523D01*
X118271904Y-87074819D02*
X118271904Y-87884342D01*
X118271904Y-87884342D02*
X118224285Y-87979580D01*
X118224285Y-87979580D02*
X118176666Y-88027200D01*
X118176666Y-88027200D02*
X118081428Y-88074819D01*
X118081428Y-88074819D02*
X117890952Y-88074819D01*
X117890952Y-88074819D02*
X117795714Y-88027200D01*
X117795714Y-88027200D02*
X117748095Y-87979580D01*
X117748095Y-87979580D02*
X117700476Y-87884342D01*
X117700476Y-87884342D02*
X117700476Y-87074819D01*
X117319523Y-87074819D02*
X116700476Y-87074819D01*
X116700476Y-87074819D02*
X117033809Y-87455771D01*
X117033809Y-87455771D02*
X116890952Y-87455771D01*
X116890952Y-87455771D02*
X116795714Y-87503390D01*
X116795714Y-87503390D02*
X116748095Y-87551009D01*
X116748095Y-87551009D02*
X116700476Y-87646247D01*
X116700476Y-87646247D02*
X116700476Y-87884342D01*
X116700476Y-87884342D02*
X116748095Y-87979580D01*
X116748095Y-87979580D02*
X116795714Y-88027200D01*
X116795714Y-88027200D02*
X116890952Y-88074819D01*
X116890952Y-88074819D02*
X117176666Y-88074819D01*
X117176666Y-88074819D02*
X117271904Y-88027200D01*
X117271904Y-88027200D02*
X117319523Y-87979580D01*
X125854819Y-101957142D02*
X125378628Y-101623809D01*
X125854819Y-101385714D02*
X124854819Y-101385714D01*
X124854819Y-101385714D02*
X124854819Y-101766666D01*
X124854819Y-101766666D02*
X124902438Y-101861904D01*
X124902438Y-101861904D02*
X124950057Y-101909523D01*
X124950057Y-101909523D02*
X125045295Y-101957142D01*
X125045295Y-101957142D02*
X125188152Y-101957142D01*
X125188152Y-101957142D02*
X125283390Y-101909523D01*
X125283390Y-101909523D02*
X125331009Y-101861904D01*
X125331009Y-101861904D02*
X125378628Y-101766666D01*
X125378628Y-101766666D02*
X125378628Y-101385714D01*
X125854819Y-102909523D02*
X125854819Y-102338095D01*
X125854819Y-102623809D02*
X124854819Y-102623809D01*
X124854819Y-102623809D02*
X124997676Y-102528571D01*
X124997676Y-102528571D02*
X125092914Y-102433333D01*
X125092914Y-102433333D02*
X125140533Y-102338095D01*
X125854819Y-103861904D02*
X125854819Y-103290476D01*
X125854819Y-103576190D02*
X124854819Y-103576190D01*
X124854819Y-103576190D02*
X124997676Y-103480952D01*
X124997676Y-103480952D02*
X125092914Y-103385714D01*
X125092914Y-103385714D02*
X125140533Y-103290476D01*
X135942857Y-92354819D02*
X136276190Y-91878628D01*
X136514285Y-92354819D02*
X136514285Y-91354819D01*
X136514285Y-91354819D02*
X136133333Y-91354819D01*
X136133333Y-91354819D02*
X136038095Y-91402438D01*
X136038095Y-91402438D02*
X135990476Y-91450057D01*
X135990476Y-91450057D02*
X135942857Y-91545295D01*
X135942857Y-91545295D02*
X135942857Y-91688152D01*
X135942857Y-91688152D02*
X135990476Y-91783390D01*
X135990476Y-91783390D02*
X136038095Y-91831009D01*
X136038095Y-91831009D02*
X136133333Y-91878628D01*
X136133333Y-91878628D02*
X136514285Y-91878628D01*
X134990476Y-92354819D02*
X135561904Y-92354819D01*
X135276190Y-92354819D02*
X135276190Y-91354819D01*
X135276190Y-91354819D02*
X135371428Y-91497676D01*
X135371428Y-91497676D02*
X135466666Y-91592914D01*
X135466666Y-91592914D02*
X135561904Y-91640533D01*
X134657142Y-91354819D02*
X133990476Y-91354819D01*
X133990476Y-91354819D02*
X134419047Y-92354819D01*
X135854819Y-83257142D02*
X135378628Y-82923809D01*
X135854819Y-82685714D02*
X134854819Y-82685714D01*
X134854819Y-82685714D02*
X134854819Y-83066666D01*
X134854819Y-83066666D02*
X134902438Y-83161904D01*
X134902438Y-83161904D02*
X134950057Y-83209523D01*
X134950057Y-83209523D02*
X135045295Y-83257142D01*
X135045295Y-83257142D02*
X135188152Y-83257142D01*
X135188152Y-83257142D02*
X135283390Y-83209523D01*
X135283390Y-83209523D02*
X135331009Y-83161904D01*
X135331009Y-83161904D02*
X135378628Y-83066666D01*
X135378628Y-83066666D02*
X135378628Y-82685714D01*
X135854819Y-84209523D02*
X135854819Y-83638095D01*
X135854819Y-83923809D02*
X134854819Y-83923809D01*
X134854819Y-83923809D02*
X134997676Y-83828571D01*
X134997676Y-83828571D02*
X135092914Y-83733333D01*
X135092914Y-83733333D02*
X135140533Y-83638095D01*
X134854819Y-84542857D02*
X134854819Y-85161904D01*
X134854819Y-85161904D02*
X135235771Y-84828571D01*
X135235771Y-84828571D02*
X135235771Y-84971428D01*
X135235771Y-84971428D02*
X135283390Y-85066666D01*
X135283390Y-85066666D02*
X135331009Y-85114285D01*
X135331009Y-85114285D02*
X135426247Y-85161904D01*
X135426247Y-85161904D02*
X135664342Y-85161904D01*
X135664342Y-85161904D02*
X135759580Y-85114285D01*
X135759580Y-85114285D02*
X135807200Y-85066666D01*
X135807200Y-85066666D02*
X135854819Y-84971428D01*
X135854819Y-84971428D02*
X135854819Y-84685714D01*
X135854819Y-84685714D02*
X135807200Y-84590476D01*
X135807200Y-84590476D02*
X135759580Y-84542857D01*
D11*
%TO.C,R9*%
X136167621Y-99320000D02*
X135832379Y-99320000D01*
X136167621Y-100080000D02*
X135832379Y-100080000D01*
%TO.C,C11*%
X129851665Y-95340000D02*
X130083335Y-95340000D01*
X129851665Y-96060000D02*
X130083335Y-96060000D01*
%TO.C,C10*%
X123815835Y-96640000D02*
X123584165Y-96640000D01*
X123815835Y-97360000D02*
X123584165Y-97360000D01*
%TO.C,C9*%
X123584165Y-89940000D02*
X123815835Y-89940000D01*
X123584165Y-90660000D02*
X123815835Y-90660000D01*
%TO.C,C14*%
X114390000Y-71408767D02*
X114390000Y-71116233D01*
X115410000Y-71408767D02*
X115410000Y-71116233D01*
%TO.C,D2*%
X123240000Y-70850000D02*
X123240000Y-72150000D01*
X126360000Y-72120000D02*
X126360000Y-70850000D01*
X126640000Y-72740000D02*
X126310000Y-72500000D01*
X126640000Y-72260000D01*
X126640000Y-72740000D01*
G36*
X126640000Y-72740000D02*
G01*
X126310000Y-72500000D01*
X126640000Y-72260000D01*
X126640000Y-72740000D01*
G37*
%TO.C,C13*%
X128584165Y-97040000D02*
X128815835Y-97040000D01*
X128584165Y-97760000D02*
X128815835Y-97760000D01*
%TO.C,R18*%
X130120000Y-90432379D02*
X130120000Y-90767621D01*
X130880000Y-90432379D02*
X130880000Y-90767621D01*
%TO.C,FB1*%
X131653733Y-98690000D02*
X131946267Y-98690000D01*
X131653733Y-99710000D02*
X131946267Y-99710000D01*
%TO.C,C16*%
X127540000Y-85583335D02*
X127540000Y-85351665D01*
X128260000Y-85583335D02*
X128260000Y-85351665D01*
%TO.C,C21*%
X120111252Y-71290000D02*
X118688748Y-71290000D01*
X120111252Y-73110000D02*
X118688748Y-73110000D01*
%TO.C,R15*%
X129820000Y-83932379D02*
X129820000Y-84267621D01*
X130580000Y-83932379D02*
X130580000Y-84267621D01*
%TO.C,R12*%
X112329879Y-87520000D02*
X112665121Y-87520000D01*
X112329879Y-88280000D02*
X112665121Y-88280000D01*
%TO.C,R14*%
X131820000Y-83832379D02*
X131820000Y-84167621D01*
X132580000Y-83832379D02*
X132580000Y-84167621D01*
%TO.C,U3*%
X118900000Y-74150000D02*
X118900000Y-73670000D01*
X118900000Y-86730000D02*
X118900000Y-86250000D01*
X123500000Y-73670000D02*
X118900000Y-73670000D01*
X123500000Y-73670000D02*
X123500000Y-74150000D01*
X123500000Y-86730000D02*
X118900000Y-86730000D01*
X123500000Y-86730000D02*
X123500000Y-86250000D01*
X116715000Y-86805000D02*
X116235000Y-86805000D01*
X116475000Y-86475000D01*
X116715000Y-86805000D01*
G36*
X116715000Y-86805000D02*
G01*
X116235000Y-86805000D01*
X116475000Y-86475000D01*
X116715000Y-86805000D01*
G37*
%TO.C,R11*%
X126520000Y-102732379D02*
X126520000Y-103067621D01*
X127280000Y-102732379D02*
X127280000Y-103067621D01*
%TO.C,R17*%
X135367621Y-92720000D02*
X135032379Y-92720000D01*
X135367621Y-93480000D02*
X135032379Y-93480000D01*
%TO.C,R13*%
X133620000Y-83807379D02*
X133620000Y-84142621D01*
X134380000Y-83807379D02*
X134380000Y-84142621D01*
%TD*%
%LPC*%
D12*
%TO.C,J3*%
X111675000Y-67750000D03*
D13*
X112945000Y-67750000D03*
X111675000Y-69020000D03*
X112945000Y-69020000D03*
X111675000Y-70290000D03*
X112945000Y-70290000D03*
X111675000Y-71560000D03*
X112945000Y-71560000D03*
X111675000Y-72830000D03*
X112945000Y-72830000D03*
X111675000Y-74100000D03*
X112945000Y-74100000D03*
X111675000Y-75370000D03*
X112945000Y-75370000D03*
X111675000Y-76640000D03*
X112945000Y-76640000D03*
%TD*%
D14*
%TO.C,H1*%
X119012000Y-110500000D03*
D15*
X119012000Y-110500000D03*
%TD*%
D16*
%TO.C,J2*%
X110525000Y-105740000D03*
D17*
X113065000Y-105740000D03*
D16*
X115605000Y-105740000D03*
X110525000Y-100025000D03*
X115605000Y-100025000D03*
D17*
X112049000Y-98120000D03*
X114081000Y-98120000D03*
%TD*%
D14*
%TO.C,H2*%
X130188000Y-110500000D03*
D15*
X130188000Y-110500000D03*
%TD*%
D18*
%TO.C,J1*%
X127300000Y-65125000D03*
X120700000Y-65125000D03*
%TD*%
D19*
%TO.C,R9*%
X135402500Y-99700000D03*
X136597500Y-99700000D03*
%TD*%
D20*
%TO.C,C11*%
X130535000Y-95700000D03*
X129400000Y-95700000D03*
%TD*%
D21*
%TO.C,C10*%
X123132500Y-97000000D03*
X124267500Y-97000000D03*
%TD*%
D20*
%TO.C,C9*%
X124267500Y-90300000D03*
X123132500Y-90300000D03*
%TD*%
D22*
%TO.C,C14*%
X114900000Y-70400000D03*
X114900000Y-72125000D03*
%TD*%
D23*
%TO.C,D2*%
X125550000Y-72500000D03*
D24*
X123850000Y-72500000D03*
X123850000Y-70500000D03*
X125750000Y-70500000D03*
%TD*%
D20*
%TO.C,C13*%
X129267500Y-97400000D03*
X128132500Y-97400000D03*
%TD*%
D25*
%TO.C,R18*%
X130500000Y-91197500D03*
X130500000Y-90002500D03*
%TD*%
D26*
%TO.C,FB1*%
X132662500Y-99200000D03*
X130937500Y-99200000D03*
%TD*%
D27*
%TO.C,C16*%
X127900000Y-84900000D03*
X127900000Y-86035000D03*
%TD*%
D28*
%TO.C,FID3*%
X109900000Y-111500000D03*
%TD*%
D29*
%TO.C,C21*%
X117837500Y-72200000D03*
X120962500Y-72200000D03*
%TD*%
D25*
%TO.C,R15*%
X130200000Y-84697500D03*
X130200000Y-83502500D03*
%TD*%
D30*
%TO.C,R12*%
X113095000Y-87900000D03*
X111900000Y-87900000D03*
%TD*%
D25*
%TO.C,R14*%
X132200000Y-84597500D03*
X132200000Y-83402500D03*
%TD*%
D31*
%TO.C,U3*%
X116450000Y-85915000D03*
X116450000Y-84645000D03*
X116450000Y-83375000D03*
X116450000Y-82105000D03*
X116450000Y-80835000D03*
X116450000Y-79565000D03*
X116450000Y-78295000D03*
X116450000Y-77025000D03*
X116450000Y-75755000D03*
X116450000Y-74485000D03*
X125950000Y-74485000D03*
X125950000Y-75755000D03*
X125950000Y-77025000D03*
X125950000Y-78295000D03*
X125950000Y-79565000D03*
X125950000Y-80835000D03*
X125950000Y-82105000D03*
X125950000Y-83375000D03*
X125950000Y-84645000D03*
X125950000Y-85915000D03*
%TD*%
D25*
%TO.C,R11*%
X126900000Y-103497500D03*
X126900000Y-102302500D03*
%TD*%
D19*
%TO.C,R17*%
X134602500Y-93100000D03*
X135797500Y-93100000D03*
%TD*%
D25*
%TO.C,R13*%
X134000000Y-84572500D03*
X134000000Y-83377500D03*
%TD*%
D28*
%TO.C,FID4*%
X139400000Y-66000000D03*
%TD*%
%LPD*%
M02*
