%TF.GenerationSoftware,KiCad,Pcbnew,8.0.5*%
%TF.CreationDate,2024-10-08T14:31:27-07:00*%
%TF.ProjectId,USB_SPDTK2,5553425f-5350-4445-944b-322e6b696361,rev?*%
%TF.SameCoordinates,Original*%
%TF.FileFunction,Copper,L2,Bot*%
%TF.FilePolarity,Positive*%
%FSLAX46Y46*%
G04 Gerber Fmt 4.6, Leading zero omitted, Abs format (unit mm)*
G04 Created by KiCad (PCBNEW 8.0.5) date 2024-10-08 14:31:27*
%MOMM*%
%LPD*%
G01*
G04 APERTURE LIST*
G04 Aperture macros list*
%AMRoundRect*
0 Rectangle with rounded corners*
0 $1 Rounding radius*
0 $2 $3 $4 $5 $6 $7 $8 $9 X,Y pos of 4 corners*
0 Add a 4 corners polygon primitive as box body*
4,1,4,$2,$3,$4,$5,$6,$7,$8,$9,$2,$3,0*
0 Add four circle primitives for the rounded corners*
1,1,$1+$1,$2,$3*
1,1,$1+$1,$4,$5*
1,1,$1+$1,$6,$7*
1,1,$1+$1,$8,$9*
0 Add four rect primitives between the rounded corners*
20,1,$1+$1,$2,$3,$4,$5,0*
20,1,$1+$1,$4,$5,$6,$7,0*
20,1,$1+$1,$6,$7,$8,$9,0*
20,1,$1+$1,$8,$9,$2,$3,0*%
G04 Aperture macros list end*
%TA.AperFunction,ComponentPad*%
%ADD10R,1.000000X1.000000*%
%TD*%
%TA.AperFunction,ComponentPad*%
%ADD11O,1.000000X1.000000*%
%TD*%
%TA.AperFunction,ComponentPad*%
%ADD12C,3.600000*%
%TD*%
%TA.AperFunction,ConnectorPad*%
%ADD13C,5.600000*%
%TD*%
%TA.AperFunction,ComponentPad*%
%ADD14O,0.900000X1.600000*%
%TD*%
%TA.AperFunction,SMDPad,CuDef*%
%ADD15RoundRect,0.160000X-0.197500X-0.160000X0.197500X-0.160000X0.197500X0.160000X-0.197500X0.160000X0*%
%TD*%
%TA.AperFunction,SMDPad,CuDef*%
%ADD16RoundRect,0.155000X0.212500X0.155000X-0.212500X0.155000X-0.212500X-0.155000X0.212500X-0.155000X0*%
%TD*%
%TA.AperFunction,SMDPad,CuDef*%
%ADD17RoundRect,0.155000X-0.212500X-0.155000X0.212500X-0.155000X0.212500X0.155000X-0.212500X0.155000X0*%
%TD*%
%TA.AperFunction,SMDPad,CuDef*%
%ADD18RoundRect,0.237500X-0.237500X0.300000X-0.237500X-0.300000X0.237500X-0.300000X0.237500X0.300000X0*%
%TD*%
%TA.AperFunction,SMDPad,CuDef*%
%ADD19RoundRect,0.175000X0.325000X-0.175000X0.325000X0.175000X-0.325000X0.175000X-0.325000X-0.175000X0*%
%TD*%
%TA.AperFunction,SMDPad,CuDef*%
%ADD20RoundRect,0.150000X0.150000X-0.200000X0.150000X0.200000X-0.150000X0.200000X-0.150000X-0.200000X0*%
%TD*%
%TA.AperFunction,SMDPad,CuDef*%
%ADD21RoundRect,0.160000X0.160000X-0.197500X0.160000X0.197500X-0.160000X0.197500X-0.160000X-0.197500X0*%
%TD*%
%TA.AperFunction,SMDPad,CuDef*%
%ADD22RoundRect,0.237500X0.300000X0.237500X-0.300000X0.237500X-0.300000X-0.237500X0.300000X-0.237500X0*%
%TD*%
%TA.AperFunction,SMDPad,CuDef*%
%ADD23RoundRect,0.155000X-0.155000X0.212500X-0.155000X-0.212500X0.155000X-0.212500X0.155000X0.212500X0*%
%TD*%
%TA.AperFunction,SMDPad,CuDef*%
%ADD24C,1.000000*%
%TD*%
%TA.AperFunction,SMDPad,CuDef*%
%ADD25RoundRect,0.160000X0.197500X0.160000X-0.197500X0.160000X-0.197500X-0.160000X0.197500X-0.160000X0*%
%TD*%
%TA.AperFunction,SMDPad,CuDef*%
%ADD26R,1.500000X0.600000*%
%TD*%
%TA.AperFunction,ViaPad*%
%ADD27C,0.800000*%
%TD*%
%TA.AperFunction,Conductor*%
%ADD28C,0.400000*%
%TD*%
%TA.AperFunction,Conductor*%
%ADD29C,0.500000*%
%TD*%
%TA.AperFunction,Conductor*%
%ADD30C,0.200000*%
%TD*%
%TA.AperFunction,Conductor*%
%ADD31C,0.254000*%
%TD*%
%TA.AperFunction,Conductor*%
%ADD32C,0.127000*%
%TD*%
%TA.AperFunction,Conductor*%
%ADD33C,0.250000*%
%TD*%
G04 APERTURE END LIST*
D10*
%TO.P,J3,1,Pin_1*%
%TO.N,unconnected-(J3-Pin_1-Pad1)*%
X111430000Y-66190000D03*
D11*
%TO.P,J3,2,Pin_2*%
%TO.N,unconnected-(J3-Pin_2-Pad2)*%
X112700000Y-66190000D03*
%TO.P,J3,3,Pin_3*%
%TO.N,unconnected-(J3-Pin_3-Pad3)*%
X111430000Y-67460000D03*
%TO.P,J3,4,Pin_4*%
%TO.N,unconnected-(J3-Pin_4-Pad4)*%
X112700000Y-67460000D03*
%TO.P,J3,5,Pin_5*%
%TO.N,S1U_OUT*%
X111430000Y-68730000D03*
%TO.P,J3,6,Pin_6*%
%TO.N,S1D_OUT*%
X112700000Y-68730000D03*
%TO.P,J3,7,Pin_7*%
%TO.N,S2U_OUT*%
X111430000Y-70000000D03*
%TO.P,J3,8,Pin_8*%
%TO.N,S2D_OUT*%
X112700000Y-70000000D03*
%TO.P,J3,9,Pin_9*%
%TO.N,unconnected-(J3-Pin_9-Pad9)*%
X111430000Y-71270000D03*
%TO.P,J3,10,Pin_10*%
%TO.N,unconnected-(J3-Pin_10-Pad10)*%
X112700000Y-71270000D03*
%TO.P,J3,11,Pin_11*%
%TO.N,unconnected-(J3-Pin_11-Pad11)*%
X111430000Y-72540000D03*
%TO.P,J3,12,Pin_12*%
%TO.N,unconnected-(J3-Pin_12-Pad12)*%
X112700000Y-72540000D03*
%TO.P,J3,13,Pin_13*%
%TO.N,+VSW*%
X111430000Y-73810000D03*
%TO.P,J3,14,Pin_14*%
%TO.N,GND*%
X112700000Y-73810000D03*
%TO.P,J3,15,Pin_15*%
%TO.N,+VSW*%
X111430000Y-75080000D03*
%TO.P,J3,16,Pin_16*%
%TO.N,GND*%
X112700000Y-75080000D03*
%TD*%
D12*
%TO.P,H1,1,1*%
%TO.N,GND*%
X119012000Y-110500000D03*
D13*
X119012000Y-110500000D03*
%TD*%
D12*
%TO.P,H2,1,1*%
%TO.N,GND*%
X130188000Y-110500000D03*
D13*
X130188000Y-110500000D03*
%TD*%
D14*
%TO.P,J1,6,Shield*%
%TO.N,GND*%
X127300000Y-65125000D03*
X120700000Y-65125000D03*
%TD*%
D15*
%TO.P,R9,1*%
%TO.N,Net-(U4-PA0)*%
X135402500Y-99700000D03*
%TO.P,R9,2*%
%TO.N,Net-(D3-A)*%
X136597500Y-99700000D03*
%TD*%
D16*
%TO.P,C11,1*%
%TO.N,+3.3V*%
X130535000Y-95700000D03*
%TO.P,C11,2*%
%TO.N,GND*%
X129400000Y-95700000D03*
%TD*%
D17*
%TO.P,C10,1*%
%TO.N,+3.3V*%
X123132500Y-97000000D03*
%TO.P,C10,2*%
%TO.N,GND*%
X124267500Y-97000000D03*
%TD*%
D16*
%TO.P,C9,1*%
%TO.N,GND*%
X124267500Y-90300000D03*
%TO.P,C9,2*%
%TO.N,+3.3V*%
X123132500Y-90300000D03*
%TD*%
D18*
%TO.P,C14,1*%
%TO.N,GND*%
X114900000Y-70400000D03*
%TO.P,C14,2*%
%TO.N,+VSW*%
X114900000Y-72125000D03*
%TD*%
D19*
%TO.P,D2,1,GND*%
%TO.N,GND*%
X125550000Y-72500000D03*
D20*
%TO.P,D2,2,I/O1*%
%TO.N,/Controller/USB-*%
X123850000Y-72500000D03*
%TO.P,D2,3,I/O2*%
%TO.N,/Controller/USB+*%
X123850000Y-70500000D03*
%TO.P,D2,4,VCC*%
%TO.N,VBUS*%
X125750000Y-70500000D03*
%TD*%
D16*
%TO.P,C13,1*%
%TO.N,Net-(U4-VDDA)*%
X129267500Y-97400000D03*
%TO.P,C13,2*%
%TO.N,GND*%
X128132500Y-97400000D03*
%TD*%
D21*
%TO.P,R18,1*%
%TO.N,/Controller/BOOT1*%
X130500000Y-91197500D03*
%TO.P,R18,2*%
%TO.N,GND*%
X130500000Y-90002500D03*
%TD*%
D22*
%TO.P,FB1,1*%
%TO.N,+3.3V*%
X132662500Y-99200000D03*
%TO.P,FB1,2*%
%TO.N,Net-(U4-VDDA)*%
X130937500Y-99200000D03*
%TD*%
D23*
%TO.P,C16,1*%
%TO.N,GND*%
X127900000Y-84900000D03*
%TO.P,C16,2*%
%TO.N,VBUS*%
X127900000Y-86035000D03*
%TD*%
D24*
%TO.P,FID3,*%
%TO.N,*%
X109900000Y-111500000D03*
%TD*%
D21*
%TO.P,R15,1*%
%TO.N,Net-(U4-PA10)*%
X130200000Y-84697500D03*
%TO.P,R15,2*%
%TO.N,Net-(D6-A)*%
X130200000Y-83502500D03*
%TD*%
D25*
%TO.P,R12,1*%
%TO.N,SW_Enable*%
X113095000Y-87900000D03*
%TO.P,R12,2*%
%TO.N,+3.3V*%
X111900000Y-87900000D03*
%TD*%
D21*
%TO.P,R14,1*%
%TO.N,Net-(U4-PA9)*%
X132200000Y-84597500D03*
%TO.P,R14,2*%
%TO.N,Net-(D5-A)*%
X132200000Y-83402500D03*
%TD*%
D26*
%TO.P,U3,1,EN1\u002C2*%
%TO.N,SW_Enable*%
X116450000Y-85915000D03*
%TO.P,U3,2,1A*%
%TO.N,S1U*%
X116450000Y-84645000D03*
%TO.P,U3,3,1Y*%
%TO.N,S1U_OUT*%
X116450000Y-83375000D03*
%TO.P,U3,4,GND*%
%TO.N,GND*%
X116450000Y-82105000D03*
%TO.P,U3,5,GND*%
X116450000Y-80835000D03*
%TO.P,U3,6,GND*%
X116450000Y-79565000D03*
%TO.P,U3,7,GND*%
X116450000Y-78295000D03*
%TO.P,U3,8,2Y*%
%TO.N,S1D_OUT*%
X116450000Y-77025000D03*
%TO.P,U3,9,2A*%
%TO.N,S1D*%
X116450000Y-75755000D03*
%TO.P,U3,10,VCC2*%
%TO.N,+VSW*%
X116450000Y-74485000D03*
%TO.P,U3,11,EN3\u002C4*%
%TO.N,SW_Enable*%
X125950000Y-74485000D03*
%TO.P,U3,12,3A*%
%TO.N,S2U*%
X125950000Y-75755000D03*
%TO.P,U3,13,3Y*%
%TO.N,S2U_OUT*%
X125950000Y-77025000D03*
%TO.P,U3,14,GND*%
%TO.N,GND*%
X125950000Y-78295000D03*
%TO.P,U3,15,GND*%
X125950000Y-79565000D03*
%TO.P,U3,16,GND*%
X125950000Y-80835000D03*
%TO.P,U3,17,GND*%
X125950000Y-82105000D03*
%TO.P,U3,18,4Y*%
%TO.N,S2D_OUT*%
X125950000Y-83375000D03*
%TO.P,U3,19,4A*%
%TO.N,S2D*%
X125950000Y-84645000D03*
%TO.P,U3,20,VCC1*%
%TO.N,VBUS*%
X125950000Y-85915000D03*
%TD*%
D21*
%TO.P,R11,1*%
%TO.N,Net-(C18-Pad1)*%
X126900000Y-103497500D03*
%TO.P,R11,2*%
%TO.N,Net-(U4-PH1)*%
X126900000Y-102302500D03*
%TD*%
D15*
%TO.P,R17,1*%
%TO.N,Net-(U4-PB0)*%
X134602500Y-93100000D03*
%TO.P,R17,2*%
%TO.N,Net-(D7-A)*%
X135797500Y-93100000D03*
%TD*%
D21*
%TO.P,R13,1*%
%TO.N,Net-(U4-PA8)*%
X134000000Y-84572500D03*
%TO.P,R13,2*%
%TO.N,Net-(D4-A)*%
X134000000Y-83377500D03*
%TD*%
D24*
%TO.P,FID4,*%
%TO.N,*%
X139400000Y-66000000D03*
%TD*%
D27*
%TO.N,GND*%
X128697285Y-98229721D03*
X122038000Y-79492100D03*
X114309000Y-80300700D03*
X139100000Y-87000000D03*
X108825000Y-87355000D03*
X130900000Y-96700000D03*
X127500000Y-84300000D03*
X120963027Y-70553873D03*
X139100000Y-89641100D03*
X135000000Y-102000000D03*
X123096000Y-80550800D03*
X140056000Y-73779900D03*
X112074000Y-84787500D03*
X133563000Y-82032600D03*
X131468723Y-90607231D03*
X131150000Y-102050000D03*
X135498000Y-79824600D03*
X139065000Y-102855000D03*
X125300000Y-107100000D03*
X111470000Y-102318000D03*
X115500000Y-98100000D03*
X120265000Y-99151800D03*
X135832000Y-106775000D03*
X117844000Y-96265100D03*
X123843000Y-97726000D03*
X115752000Y-95691924D03*
X112074000Y-78202100D03*
X135291000Y-76400000D03*
X140375000Y-95883200D03*
X123763000Y-89409600D03*
X122525000Y-101063000D03*
X137009000Y-91143200D03*
X135800000Y-89015900D03*
%TO.N,+VSW*%
X129414000Y-72695900D03*
%TO.N,VBUS*%
X139980000Y-82423000D03*
X128643000Y-69681100D03*
%TO.N,+3.3V*%
X122900000Y-98100000D03*
X131979000Y-89130600D03*
X109917000Y-91596800D03*
X139000000Y-101072000D03*
X136454000Y-94366700D03*
X122720000Y-89290900D03*
X131327000Y-95734500D03*
%TO.N,Net-(U4-VDDA)*%
X129900000Y-98000000D03*
%TO.N,Net-(J2-~{RESET})*%
X117200000Y-97900000D03*
X125346783Y-98088157D03*
%TO.N,Net-(C18-Pad1)*%
X127800000Y-104300000D03*
%TO.N,/Controller/USB+*%
X123036000Y-69898900D03*
%TO.N,/Controller/USB-*%
X124825000Y-71525300D03*
%TO.N,Net-(D3-A)*%
X137775352Y-100699996D03*
%TO.N,Net-(D4-A)*%
X134599000Y-82202400D03*
%TO.N,Net-(D5-A)*%
X132744000Y-86131500D03*
%TO.N,Net-(D6-A)*%
X129300000Y-84230000D03*
%TO.N,Net-(D7-A)*%
X138383000Y-95685600D03*
%TO.N,/Controller/JTMS*%
X114099000Y-90085600D03*
X118823000Y-96559700D03*
%TO.N,/Controller/JTDI*%
X113290000Y-96625300D03*
X118738000Y-93449800D03*
%TO.N,/Controller/JTDO*%
X119200000Y-94400000D03*
X114760000Y-96899600D03*
%TO.N,S2U*%
X123350000Y-75720300D03*
X110776000Y-93664900D03*
X127661000Y-100943000D03*
%TO.N,S1U*%
X126600000Y-90900000D03*
%TO.N,S2D_OUT*%
X123368000Y-82982600D03*
%TO.N,S1D_OUT*%
X118463000Y-75621000D03*
%TO.N,S2D*%
X127518015Y-90490338D03*
%TO.N,S2U_OUT*%
X116162000Y-72221200D03*
%TO.N,S1D*%
X119179000Y-87613000D03*
X126755000Y-93615464D03*
X118304000Y-83235400D03*
%TO.N,HVEnable*%
X135186000Y-87769700D03*
X123820000Y-92976924D03*
%TO.N,Net-(U4-PA0)*%
X129821000Y-101079000D03*
%TO.N,Net-(U4-PH1)*%
X125800000Y-100900000D03*
%TO.N,Net-(U4-PA8)*%
X133937000Y-86145700D03*
%TO.N,Net-(U4-PA9)*%
X127300002Y-83200000D03*
%TO.N,Net-(U4-PA10)*%
X128200002Y-82200000D03*
%TO.N,/Controller/BOOT1*%
X131300000Y-92100000D03*
X135453000Y-94189900D03*
%TO.N,Net-(U4-PB0)*%
X131308000Y-93424500D03*
%TO.N,/Controller/~{SPI2NSS}*%
X140706000Y-105180000D03*
X119273000Y-102716000D03*
%TO.N,SW_Enable*%
X133800000Y-105514000D03*
%TO.N,/Controller/SPI2_MISO*%
X128342000Y-93456300D03*
X125712754Y-97125766D03*
X129850000Y-93456300D03*
X136812000Y-103120430D03*
%TD*%
D28*
%TO.N,GND*%
X115500000Y-98100000D02*
X115752000Y-97848000D01*
D29*
X124748000Y-80835000D02*
X124748000Y-79565000D01*
D30*
X128697285Y-97965485D02*
X128132000Y-97400200D01*
D29*
X112700000Y-73810000D02*
X113652000Y-73810000D01*
X133913000Y-106775000D02*
X130188000Y-110500000D01*
X124268000Y-96801000D02*
X124268000Y-97000000D01*
X127635000Y-77879700D02*
X126805000Y-78709800D01*
X120841000Y-78295000D02*
X122038000Y-79492100D01*
D30*
X130900000Y-96700000D02*
X130400000Y-96700000D01*
D31*
X131002500Y-90002500D02*
X130500000Y-90002500D01*
D29*
X115752000Y-95691924D02*
X117270824Y-95691924D01*
X124748000Y-80835000D02*
X123381000Y-80835000D01*
X137911000Y-73779900D02*
X135291000Y-76400000D01*
X115849000Y-80835000D02*
X115248000Y-80835000D01*
X124701100Y-73348900D02*
X123432000Y-73348900D01*
X127152000Y-78959600D02*
X127152000Y-79565000D01*
X122176000Y-101063000D02*
X122525000Y-101063000D01*
X111392000Y-84787500D02*
X112074000Y-84787500D01*
X138511000Y-89641100D02*
X137468000Y-90684000D01*
D30*
X123843000Y-97424700D02*
X124268000Y-97000000D01*
D29*
X120700000Y-65125000D02*
X120175000Y-65125000D01*
X126909000Y-78813300D02*
X127005000Y-78813300D01*
X116450000Y-82105000D02*
X115248000Y-82105000D01*
X137468000Y-90684000D02*
X137009000Y-91143200D01*
D30*
X130400000Y-96700000D02*
X129400000Y-95700000D01*
D29*
X127005000Y-78813300D02*
X127152000Y-78959600D01*
X127635000Y-74216600D02*
X127635000Y-77879700D01*
X133563000Y-82032600D02*
X131095000Y-79565000D01*
X116450000Y-78295000D02*
X120841000Y-78295000D01*
X115248000Y-79565000D02*
X115248000Y-80300700D01*
X128024000Y-97292000D02*
X127916000Y-97184000D01*
X125950000Y-79565000D02*
X125349000Y-79565000D01*
X128132000Y-97400000D02*
X128024000Y-97292000D01*
X114172000Y-80300700D02*
X112074000Y-78202100D01*
X124016000Y-90047900D02*
X124268000Y-90299400D01*
X138210000Y-102000000D02*
X139065000Y-102855000D01*
X124977000Y-96092100D02*
X124268000Y-96801000D01*
D30*
X128697285Y-98229721D02*
X128697285Y-97965485D01*
D29*
X116450000Y-80835000D02*
X115849000Y-80835000D01*
D31*
X131468723Y-90607231D02*
X131468723Y-90468723D01*
D32*
X115402000Y-98100000D02*
X115500000Y-98100000D01*
D29*
X140056000Y-73779900D02*
X137911000Y-73779900D01*
X125950000Y-79565000D02*
X127152000Y-79565000D01*
X126824000Y-96092100D02*
X124977000Y-96092100D01*
D30*
X124016000Y-90047900D02*
X124268000Y-90299900D01*
D29*
X130188000Y-110500000D02*
X119012000Y-110500000D01*
X125550000Y-72500000D02*
X124701100Y-73348900D01*
X108825000Y-87355000D02*
X111392000Y-84787500D01*
X127916000Y-97184000D02*
X129400000Y-95700000D01*
X125349000Y-79565000D02*
X125950000Y-78964200D01*
D31*
X131468723Y-90468723D02*
X131002500Y-90002500D01*
D29*
X115248000Y-80835000D02*
X115248000Y-80300700D01*
X125919000Y-72500000D02*
X127635000Y-74216600D01*
D30*
X123763000Y-89795800D02*
X124016000Y-90047900D01*
D29*
X120265000Y-99151800D02*
X122176000Y-101063000D01*
X115248000Y-81435900D02*
X115849000Y-80835000D01*
X125950000Y-78964200D02*
X125950000Y-78295000D01*
X120175000Y-65125000D02*
X114900000Y-70400000D01*
X113652000Y-71648300D02*
X114900000Y-70400000D01*
X123432000Y-73348900D02*
X120963027Y-70879927D01*
D30*
X123843000Y-97726000D02*
X123843000Y-97424700D01*
D29*
X135832000Y-106775000D02*
X133913000Y-106775000D01*
D32*
X111470000Y-102318000D02*
X111470000Y-102032000D01*
D29*
X139100000Y-89641100D02*
X138511000Y-89641100D01*
D32*
X111470000Y-102032000D02*
X115402000Y-98100000D01*
D29*
X113652000Y-73810000D02*
X113652000Y-71648300D01*
X127916000Y-97184000D02*
X126824000Y-96092100D01*
X135000000Y-102000000D02*
X138210000Y-102000000D01*
X123381000Y-80835000D02*
X123096000Y-80550800D01*
X127900000Y-84900000D02*
X127900000Y-84700000D01*
X114309000Y-80300700D02*
X114172000Y-80300700D01*
X115248000Y-82105000D02*
X115248000Y-81435900D01*
X124748000Y-79565000D02*
X125349000Y-79565000D01*
X125950000Y-80835000D02*
X124748000Y-80835000D01*
X115248000Y-80300700D02*
X114309000Y-80300700D01*
X126805000Y-78709900D02*
X126909000Y-78813300D01*
X126805000Y-78709800D02*
X126805000Y-78709900D01*
X127900000Y-84700000D02*
X127500000Y-84300000D01*
X120963027Y-70879927D02*
X120963027Y-70553873D01*
X124748000Y-82105000D02*
X124748000Y-80835000D01*
D30*
X123763000Y-89409600D02*
X123763000Y-89795800D01*
D29*
X131095000Y-79565000D02*
X127152000Y-79565000D01*
X116450000Y-79565000D02*
X115248000Y-79565000D01*
X125550000Y-72500000D02*
X125919000Y-72500000D01*
X117270824Y-95691924D02*
X117844000Y-96265100D01*
D28*
X115752000Y-97848000D02*
X115752000Y-95691924D01*
D29*
X125950000Y-82105000D02*
X124748000Y-82105000D01*
X135800000Y-89015900D02*
X137468000Y-90684000D01*
%TO.N,+VSW*%
X115248000Y-71931000D02*
X115248000Y-72125000D01*
X129414000Y-72695900D02*
X125749000Y-69030800D01*
X115248000Y-72125000D02*
X114900000Y-72125000D01*
X115250000Y-74485000D02*
X115248000Y-74485000D01*
X116450000Y-74485000D02*
X115250000Y-74485000D01*
X118148000Y-69030800D02*
X115248000Y-71931000D01*
X115250000Y-75050000D02*
X115250000Y-74485000D01*
X111430000Y-75080000D02*
X111430000Y-76400000D01*
X113900000Y-76400000D02*
X115250000Y-75050000D01*
X115248000Y-74485000D02*
X115248000Y-72125000D01*
X111430000Y-76400000D02*
X113900000Y-76400000D01*
X125749000Y-69030800D02*
X118148000Y-69030800D01*
%TO.N,VBUS*%
X135658000Y-81786700D02*
X130280000Y-76408600D01*
X128643000Y-69681100D02*
X130280000Y-71318600D01*
X135658000Y-85666300D02*
X135658000Y-81786700D01*
X135681000Y-82423000D02*
X135658000Y-82400000D01*
X127900000Y-86035000D02*
X128867000Y-87002400D01*
X130280000Y-71318600D02*
X130280000Y-73554300D01*
X130280000Y-76408600D02*
X130280000Y-73554300D01*
X130280000Y-73554300D02*
X128804000Y-73554300D01*
X128804000Y-73554300D02*
X125750000Y-70500000D01*
X139980000Y-82423000D02*
X135681000Y-82423000D01*
X128867000Y-87002400D02*
X134322000Y-87002400D01*
X134322000Y-87002400D02*
X135658000Y-85666300D01*
X127780000Y-85915000D02*
X127900000Y-86035000D01*
X125950000Y-85915000D02*
X127780000Y-85915000D01*
%TO.N,+3.3V*%
X136454000Y-94745700D02*
X136454000Y-94366700D01*
X138250000Y-97026000D02*
X139236000Y-96040500D01*
X136004000Y-95195800D02*
X137834000Y-97026000D01*
X129832000Y-94899800D02*
X130569000Y-95636300D01*
D30*
X132662000Y-97602200D02*
X132662000Y-97069700D01*
D29*
X132662000Y-98667600D02*
X132662000Y-98933800D01*
X132662000Y-97602200D02*
X133598000Y-97602200D01*
X139300000Y-100772000D02*
X139000000Y-101072000D01*
X133064000Y-89130600D02*
X131979000Y-89130600D01*
X112278000Y-89233900D02*
X112278000Y-88278400D01*
X136004000Y-95195800D02*
X136454000Y-94745700D01*
D30*
X122720000Y-89887600D02*
X122720000Y-89290900D01*
X132662000Y-98667600D02*
X132662000Y-98135300D01*
X132662000Y-97069700D02*
X131327000Y-95734500D01*
D29*
X123132000Y-96868800D02*
X123132000Y-96999500D01*
X122720000Y-89290900D02*
X122663000Y-89233900D01*
X137834000Y-97026000D02*
X138250000Y-97026000D01*
X122000000Y-91449400D02*
X123132000Y-90317400D01*
D30*
X132662000Y-98134800D02*
X132662000Y-97602200D01*
D29*
X123132000Y-94899800D02*
X122000000Y-93767800D01*
X122663000Y-89233900D02*
X112278000Y-89233900D01*
D30*
X131327000Y-95734500D02*
X130569000Y-95734500D01*
D29*
X123132000Y-94899800D02*
X129832000Y-94899800D01*
X123132000Y-94899800D02*
X123132000Y-96868800D01*
X132662000Y-98134800D02*
X132662000Y-98135300D01*
D30*
X132662000Y-98933800D02*
X132662000Y-98667600D01*
X122900000Y-97232500D02*
X123132000Y-97000000D01*
D29*
X133598000Y-97602200D02*
X136004000Y-95195800D01*
X109917000Y-91595200D02*
X109917000Y-91596800D01*
X139236000Y-95302600D02*
X133064000Y-89130600D01*
X112278000Y-88278400D02*
X111900000Y-87900000D01*
X132662000Y-98135300D02*
X132662000Y-98667600D01*
X112278000Y-89233900D02*
X109917000Y-91595200D01*
X132662000Y-98933800D02*
X132662000Y-99066900D01*
D30*
X122926000Y-90093800D02*
X122720000Y-89887600D01*
X132662000Y-98135300D02*
X132662000Y-98134800D01*
X122900000Y-98100000D02*
X122900000Y-97232500D01*
D29*
X122926000Y-90093800D02*
X123132000Y-90300000D01*
X139300000Y-98076000D02*
X139300000Y-100772000D01*
X122000000Y-93767800D02*
X122000000Y-91449400D01*
X139236000Y-96040500D02*
X139236000Y-95302600D01*
X138250000Y-97026000D02*
X139300000Y-98076000D01*
D30*
%TO.N,Net-(U4-VDDA)*%
X129868300Y-98000000D02*
X129280000Y-97411700D01*
X129900000Y-98000000D02*
X129868300Y-98000000D01*
X129900000Y-98000000D02*
X129900000Y-98162500D01*
X129900000Y-98162500D02*
X130937500Y-99200000D01*
D33*
%TO.N,Net-(J2-~{RESET})*%
X120959600Y-97900000D02*
X117200000Y-97900000D01*
X121890000Y-98830400D02*
X120959600Y-97900000D01*
X125346783Y-98088157D02*
X124604540Y-98830400D01*
X124604540Y-98830400D02*
X121890000Y-98830400D01*
D30*
%TO.N,Net-(C18-Pad1)*%
X126997000Y-103498000D02*
X127800000Y-104300000D01*
D33*
%TO.N,/Controller/USB+*%
X123036000Y-69898900D02*
X123249000Y-69898900D01*
X123249000Y-69898900D02*
X123850000Y-70500000D01*
%TO.N,/Controller/USB-*%
X124825000Y-71525300D02*
X123850000Y-72500000D01*
%TO.N,Net-(D3-A)*%
X136598000Y-99700000D02*
X137597996Y-100699996D01*
X137597996Y-100699996D02*
X137775352Y-100699996D01*
D32*
%TO.N,Net-(D4-A)*%
X134000000Y-82801500D02*
X134000000Y-83377500D01*
X134599000Y-82202400D02*
X134000000Y-82801500D01*
D33*
%TO.N,Net-(D5-A)*%
X132940000Y-85935800D02*
X132744000Y-86131500D01*
X132940000Y-84142700D02*
X132940000Y-85935800D01*
X132200000Y-83402500D02*
X132940000Y-84142700D01*
%TO.N,Net-(D6-A)*%
X130027500Y-83502500D02*
X129300000Y-84230000D01*
%TO.N,Net-(D7-A)*%
X138383000Y-95267700D02*
X136215000Y-93100000D01*
X138383000Y-95685600D02*
X138383000Y-95267700D01*
X136215000Y-93100000D02*
X135798000Y-93100000D01*
%TO.N,/Controller/JTMS*%
X120055000Y-93727400D02*
X116413000Y-90085600D01*
X116413000Y-90085600D02*
X114099000Y-90085600D01*
X120055000Y-95327600D02*
X120055000Y-93727400D01*
X118823000Y-96559700D02*
X120055000Y-95327600D01*
%TO.N,/Controller/JTDI*%
X115703545Y-93449800D02*
X118738000Y-93449800D01*
X113290000Y-95863345D02*
X115703545Y-93449800D01*
X113290000Y-96625300D02*
X113290000Y-95863345D01*
D30*
%TO.N,/Controller/JTDO*%
X116253974Y-94200000D02*
X119000000Y-94200000D01*
X114760000Y-96899600D02*
X114760000Y-95693974D01*
X114760000Y-95693974D02*
X116253974Y-94200000D01*
X119000000Y-94200000D02*
X119200000Y-94400000D01*
D33*
%TO.N,S2U*%
X111243000Y-103300000D02*
X108757000Y-100814000D01*
X108757000Y-100814000D02*
X108757000Y-95684000D01*
X113600000Y-103300000D02*
X111243000Y-103300000D01*
X125194000Y-100160000D02*
X123511000Y-101843000D01*
X108757000Y-95684000D02*
X110776000Y-93664900D01*
X124873000Y-75755000D02*
X125950000Y-75755000D01*
X124839000Y-75720300D02*
X124873000Y-75755000D01*
X123511000Y-101843000D02*
X115057000Y-101843000D01*
X127661000Y-100943000D02*
X126877000Y-100160000D01*
X115057000Y-101843000D02*
X113600000Y-103300000D01*
X123350000Y-75720300D02*
X124839000Y-75720300D01*
X126877000Y-100160000D02*
X125194000Y-100160000D01*
%TO.N,S1U*%
X126600000Y-90646842D02*
X126600000Y-90900000D01*
X116450000Y-84645000D02*
X120598158Y-84645000D01*
X120598158Y-84645000D02*
X126600000Y-90646842D01*
%TO.N,S2D_OUT*%
X125950000Y-83375000D02*
X123761000Y-83375000D01*
X123761000Y-83375000D02*
X123368000Y-82982600D01*
%TO.N,S1D_OUT*%
X116450000Y-77025000D02*
X117527000Y-77025000D01*
X117527000Y-77025000D02*
X117527000Y-76557300D01*
X117527000Y-76557300D02*
X118463000Y-75621000D01*
D32*
%TO.N,S2D*%
X124200000Y-87172323D02*
X127518015Y-90490338D01*
X125500000Y-84645000D02*
X124200000Y-85945000D01*
X124200000Y-85945000D02*
X124200000Y-87172323D01*
D33*
%TO.N,S2U_OUT*%
X120966000Y-77025000D02*
X116162000Y-72221200D01*
X125950000Y-77025000D02*
X120966000Y-77025000D01*
%TO.N,S1U_OUT*%
X115373000Y-83375000D02*
X109700000Y-77702000D01*
X109700000Y-69500000D02*
X110470000Y-68730000D01*
X109700000Y-77702000D02*
X109700000Y-69500000D01*
X116450000Y-83375000D02*
X115373000Y-83375000D01*
X110470000Y-68730000D02*
X111430000Y-68730000D01*
%TO.N,S1D*%
X115565000Y-78938300D02*
X117335000Y-78938300D01*
X119179000Y-87613000D02*
X123033000Y-87613000D01*
X122965000Y-93331077D02*
X123388923Y-93755000D01*
X126615464Y-93755000D02*
X126755000Y-93615464D01*
X115373000Y-78747000D02*
X115565000Y-78938300D01*
X123465847Y-92121924D02*
X122965000Y-92622771D01*
X123388923Y-93755000D02*
X126615464Y-93755000D01*
X117335000Y-78938300D02*
X118304000Y-79906600D01*
X123768923Y-92121924D02*
X123465847Y-92121924D01*
X124990000Y-89570000D02*
X124990000Y-90900847D01*
X124990000Y-90900847D02*
X123768923Y-92121924D01*
X122965000Y-92622771D02*
X122965000Y-93331077D01*
X115373000Y-75755000D02*
X115373000Y-78747000D01*
X123033000Y-87613000D02*
X124990000Y-89570000D01*
X116450000Y-75755000D02*
X115373000Y-75755000D01*
X118304000Y-79906600D02*
X118304000Y-83235400D01*
%TO.N,HVEnable*%
X131339453Y-87769700D02*
X126132229Y-92976924D01*
X126132229Y-92976924D02*
X123820000Y-92976924D01*
X135186000Y-87769700D02*
X131339453Y-87769700D01*
%TO.N,Net-(U4-PA0)*%
X135380000Y-99721500D02*
X134712000Y-100390000D01*
D32*
X134712000Y-100390000D02*
X134713000Y-100390000D01*
X134713000Y-100390000D02*
X135058000Y-100045000D01*
D33*
X134712000Y-100390000D02*
X134023000Y-101079000D01*
D32*
X135058000Y-100045000D02*
X135230000Y-99872500D01*
D33*
X134023000Y-101079000D02*
X129821000Y-101079000D01*
D30*
%TO.N,Net-(U4-PH1)*%
X126900000Y-102000000D02*
X125800000Y-100900000D01*
X126900000Y-102302000D02*
X126900000Y-102000000D01*
D33*
%TO.N,Net-(U4-PA8)*%
X133937000Y-84635800D02*
X133937000Y-86145700D01*
%TO.N,Net-(U4-PA9)*%
X127609153Y-83200000D02*
X128535000Y-84125847D01*
X128535000Y-84674153D02*
X129251047Y-85390200D01*
X129251047Y-85390200D02*
X131407000Y-85390200D01*
X131407000Y-85390200D02*
X132200000Y-84597500D01*
X128535000Y-84125847D02*
X128535000Y-84674153D01*
X127300002Y-83200000D02*
X127609153Y-83200000D01*
%TO.N,Net-(U4-PA10)*%
X130200000Y-84697500D02*
X130854000Y-84043000D01*
X130854000Y-83071400D02*
X129982600Y-82200000D01*
X130854000Y-84043000D02*
X130854000Y-83071400D01*
X129982600Y-82200000D02*
X128200002Y-82200000D01*
%TO.N,/Controller/BOOT1*%
X130997000Y-94189900D02*
X135453000Y-94189900D01*
X130581000Y-93774500D02*
X130997000Y-94189900D01*
X130581000Y-92117600D02*
X130581000Y-93774500D01*
X130599000Y-92100000D02*
X130581000Y-92117600D01*
D30*
X131300000Y-92100000D02*
X130599000Y-92100000D01*
D33*
X130500000Y-92036600D02*
X130500000Y-91197500D01*
X130581000Y-92117600D02*
X130500000Y-92036600D01*
%TO.N,Net-(U4-PB0)*%
X134602000Y-93100000D02*
X131633000Y-93100000D01*
X131633000Y-93100000D02*
X131308000Y-93424500D01*
%TO.N,/Controller/~{SPI2NSS}*%
X121601000Y-105044000D02*
X119273000Y-102716000D01*
X140136000Y-104610000D02*
X130266000Y-104610000D01*
X130266000Y-104610000D02*
X129832000Y-105044000D01*
X140706000Y-105180000D02*
X140136000Y-104610000D01*
X129832000Y-105044000D02*
X121601000Y-105044000D01*
%TO.N,SW_Enable*%
X111529000Y-87217700D02*
X108223000Y-90523700D01*
X117908000Y-104077000D02*
X119345000Y-105514000D01*
X108223000Y-90523700D02*
X108223000Y-101156000D01*
X111144000Y-104077000D02*
X117908000Y-104077000D01*
X108223000Y-101156000D02*
X111144000Y-104077000D01*
X115373000Y-85915000D02*
X114398000Y-85915000D01*
X113095000Y-87217700D02*
X111529000Y-87217700D01*
X115373000Y-85915000D02*
X115373000Y-84206100D01*
X127027000Y-74485000D02*
X125950000Y-74485000D01*
X115373000Y-84206100D02*
X115578000Y-84001700D01*
X116450000Y-85915000D02*
X115373000Y-85915000D01*
X115578000Y-84001700D02*
X118565000Y-84001700D01*
X113095000Y-87217700D02*
X113095000Y-87900000D01*
X124915000Y-77651700D02*
X126882000Y-77651700D01*
X127027000Y-77506500D02*
X127027000Y-74485000D01*
X114398000Y-85915000D02*
X113095000Y-87217700D01*
X118565000Y-84001700D02*
X124915000Y-77651700D01*
X126882000Y-77651700D02*
X127027000Y-77506500D01*
X119345000Y-105514000D02*
X133800000Y-105514000D01*
%TO.N,/Controller/SPI2_MISO*%
X128520000Y-99933012D02*
X128520000Y-100838000D01*
X125712754Y-97125766D02*
X128520000Y-99933012D01*
X130802430Y-103120430D02*
X136812000Y-103120430D01*
X129850000Y-93456300D02*
X128342000Y-93456300D01*
X128520000Y-100838000D02*
X130802430Y-103120430D01*
%TD*%
%TA.AperFunction,Conductor*%
%TO.N,GND*%
G36*
X107830703Y-101648739D02*
G01*
X107837181Y-101654771D01*
X110302446Y-104120036D01*
X110335931Y-104181359D01*
X110330947Y-104251051D01*
X110289075Y-104306984D01*
X110234164Y-104330190D01*
X110188276Y-104337458D01*
X110188274Y-104337458D01*
X109973021Y-104407398D01*
X109973018Y-104407400D01*
X109771349Y-104510155D01*
X109689706Y-104569473D01*
X109588239Y-104643193D01*
X109588237Y-104643195D01*
X109588236Y-104643195D01*
X109428195Y-104803236D01*
X109428195Y-104803237D01*
X109428193Y-104803239D01*
X109406150Y-104833579D01*
X109295155Y-104986349D01*
X109192400Y-105188018D01*
X109192398Y-105188021D01*
X109122458Y-105403274D01*
X109122458Y-105403277D01*
X109104921Y-105514000D01*
X109087050Y-105626831D01*
X109087050Y-105853169D01*
X109091971Y-105884239D01*
X109122458Y-106076722D01*
X109122458Y-106076725D01*
X109192398Y-106291978D01*
X109192400Y-106291981D01*
X109295155Y-106493650D01*
X109428193Y-106676761D01*
X109588239Y-106836807D01*
X109771350Y-106969845D01*
X109973019Y-107072600D01*
X109973021Y-107072601D01*
X110173801Y-107137837D01*
X110188279Y-107142542D01*
X110411831Y-107177950D01*
X110411832Y-107177950D01*
X110638168Y-107177950D01*
X110638169Y-107177950D01*
X110861721Y-107142542D01*
X110861724Y-107142541D01*
X110861725Y-107142541D01*
X111076978Y-107072601D01*
X111076978Y-107072600D01*
X111076981Y-107072600D01*
X111278650Y-106969845D01*
X111461761Y-106836807D01*
X111621807Y-106676761D01*
X111754845Y-106493650D01*
X111857600Y-106291981D01*
X111882476Y-106215420D01*
X111927541Y-106076725D01*
X111927541Y-106076724D01*
X111927542Y-106076721D01*
X111962950Y-105853169D01*
X111962950Y-105666540D01*
X112319200Y-105666540D01*
X112319200Y-105813459D01*
X112347858Y-105957534D01*
X112347861Y-105957544D01*
X112404078Y-106093266D01*
X112404083Y-106093275D01*
X112485698Y-106215419D01*
X112485701Y-106215423D01*
X112589576Y-106319298D01*
X112589580Y-106319301D01*
X112711724Y-106400916D01*
X112711730Y-106400919D01*
X112711731Y-106400920D01*
X112847458Y-106457140D01*
X112991540Y-106485799D01*
X112991544Y-106485800D01*
X112991545Y-106485800D01*
X113138456Y-106485800D01*
X113138457Y-106485799D01*
X113282542Y-106457140D01*
X113418269Y-106400920D01*
X113540420Y-106319301D01*
X113644301Y-106215420D01*
X113725920Y-106093269D01*
X113782140Y-105957542D01*
X113810800Y-105813455D01*
X113810800Y-105666545D01*
X113782140Y-105522458D01*
X113725920Y-105386731D01*
X113725919Y-105386730D01*
X113725916Y-105386724D01*
X113644301Y-105264580D01*
X113644298Y-105264576D01*
X113540423Y-105160701D01*
X113540419Y-105160698D01*
X113418275Y-105079083D01*
X113418266Y-105079078D01*
X113282544Y-105022861D01*
X113282545Y-105022861D01*
X113282542Y-105022860D01*
X113282538Y-105022859D01*
X113282534Y-105022858D01*
X113138459Y-104994200D01*
X113138455Y-104994200D01*
X112991545Y-104994200D01*
X112991540Y-104994200D01*
X112847465Y-105022858D01*
X112847455Y-105022861D01*
X112711733Y-105079078D01*
X112711724Y-105079083D01*
X112589580Y-105160698D01*
X112589576Y-105160701D01*
X112485701Y-105264576D01*
X112485698Y-105264580D01*
X112404083Y-105386724D01*
X112404078Y-105386733D01*
X112347861Y-105522455D01*
X112347858Y-105522465D01*
X112319200Y-105666540D01*
X111962950Y-105666540D01*
X111962950Y-105626831D01*
X111927542Y-105403279D01*
X111927541Y-105403275D01*
X111927541Y-105403274D01*
X111857601Y-105188021D01*
X111857599Y-105188018D01*
X111754845Y-104986350D01*
X111720362Y-104938888D01*
X111691662Y-104899385D01*
X111668182Y-104833579D01*
X111684008Y-104765525D01*
X111734113Y-104716830D01*
X111791980Y-104702500D01*
X114338020Y-104702500D01*
X114405059Y-104722185D01*
X114450814Y-104774989D01*
X114460758Y-104844147D01*
X114438338Y-104899385D01*
X114375157Y-104986346D01*
X114272400Y-105188018D01*
X114272398Y-105188021D01*
X114202458Y-105403274D01*
X114202458Y-105403277D01*
X114184921Y-105514000D01*
X114167050Y-105626831D01*
X114167050Y-105853169D01*
X114171971Y-105884239D01*
X114202458Y-106076722D01*
X114202458Y-106076725D01*
X114272398Y-106291978D01*
X114272400Y-106291981D01*
X114375155Y-106493650D01*
X114508193Y-106676761D01*
X114668239Y-106836807D01*
X114851350Y-106969845D01*
X115053019Y-107072600D01*
X115053021Y-107072601D01*
X115253801Y-107137837D01*
X115268279Y-107142542D01*
X115491831Y-107177950D01*
X115491832Y-107177950D01*
X115718168Y-107177950D01*
X115718169Y-107177950D01*
X115941721Y-107142542D01*
X115941724Y-107142541D01*
X115941725Y-107142541D01*
X116156978Y-107072601D01*
X116156978Y-107072600D01*
X116156981Y-107072600D01*
X116358650Y-106969845D01*
X116541761Y-106836807D01*
X116701807Y-106676761D01*
X116834845Y-106493650D01*
X116937600Y-106291981D01*
X116962476Y-106215420D01*
X117007541Y-106076725D01*
X117007541Y-106076724D01*
X117007542Y-106076721D01*
X117042950Y-105853169D01*
X117042950Y-105626831D01*
X117007542Y-105403279D01*
X117007541Y-105403275D01*
X117007541Y-105403274D01*
X116937601Y-105188021D01*
X116937599Y-105188018D01*
X116834845Y-104986350D01*
X116800362Y-104938888D01*
X116771662Y-104899385D01*
X116748182Y-104833579D01*
X116764008Y-104765525D01*
X116814113Y-104716830D01*
X116871980Y-104702500D01*
X117597548Y-104702500D01*
X117664587Y-104722185D01*
X117685229Y-104738819D01*
X118856016Y-105909606D01*
X118856045Y-105909637D01*
X118946264Y-105999856D01*
X118946267Y-105999858D01*
X119008054Y-106041142D01*
X119008055Y-106041144D01*
X119021609Y-106050200D01*
X119048715Y-106068312D01*
X119108967Y-106093269D01*
X119162548Y-106115463D01*
X119222971Y-106127481D01*
X119283393Y-106139500D01*
X119283394Y-106139500D01*
X133096252Y-106139500D01*
X133163291Y-106159185D01*
X133188400Y-106180526D01*
X133194126Y-106186885D01*
X133194130Y-106186889D01*
X133347265Y-106298148D01*
X133347270Y-106298151D01*
X133520192Y-106375142D01*
X133520197Y-106375144D01*
X133705354Y-106414500D01*
X133705355Y-106414500D01*
X133894644Y-106414500D01*
X133894646Y-106414500D01*
X134079803Y-106375144D01*
X134252730Y-106298151D01*
X134405871Y-106186888D01*
X134532533Y-106046216D01*
X134627179Y-105882284D01*
X134685674Y-105702256D01*
X134705460Y-105514000D01*
X134690583Y-105372458D01*
X134703152Y-105303732D01*
X134750884Y-105252708D01*
X134813904Y-105235500D01*
X139694723Y-105235500D01*
X139761762Y-105255185D01*
X139807517Y-105307989D01*
X139818042Y-105346534D01*
X139820326Y-105368256D01*
X139820327Y-105368259D01*
X139878818Y-105548277D01*
X139878821Y-105548284D01*
X139973467Y-105712216D01*
X140021848Y-105765948D01*
X140100129Y-105852888D01*
X140253265Y-105964148D01*
X140253270Y-105964151D01*
X140426192Y-106041142D01*
X140426197Y-106041144D01*
X140611354Y-106080500D01*
X140611355Y-106080500D01*
X140800644Y-106080500D01*
X140800646Y-106080500D01*
X140985803Y-106041144D01*
X141158730Y-105964151D01*
X141311871Y-105852888D01*
X141358353Y-105801264D01*
X141417836Y-105764619D01*
X141487693Y-105765948D01*
X141545741Y-105804835D01*
X141573551Y-105868931D01*
X141574500Y-105884239D01*
X141574500Y-111695933D01*
X141574235Y-111704043D01*
X141558139Y-111949620D01*
X141556021Y-111965701D01*
X141508806Y-112203064D01*
X141504608Y-112218731D01*
X141426812Y-112447911D01*
X141420605Y-112462897D01*
X141313561Y-112679960D01*
X141305451Y-112694007D01*
X141170991Y-112895241D01*
X141161117Y-112908109D01*
X141001540Y-113090071D01*
X140990071Y-113101540D01*
X140808109Y-113261117D01*
X140795241Y-113270991D01*
X140594007Y-113405451D01*
X140579960Y-113413561D01*
X140362897Y-113520605D01*
X140347911Y-113526812D01*
X140118731Y-113604608D01*
X140103064Y-113608806D01*
X139865701Y-113656021D01*
X139849620Y-113658139D01*
X139604043Y-113674235D01*
X139595933Y-113674500D01*
X131748987Y-113674500D01*
X131681948Y-113654815D01*
X131636193Y-113602011D01*
X131626249Y-113532853D01*
X131655274Y-113469297D01*
X131696920Y-113437961D01*
X131736012Y-113419874D01*
X132042629Y-113235390D01*
X132042632Y-113235388D01*
X132327509Y-113018831D01*
X132340742Y-113006295D01*
X132340742Y-113006294D01*
X131128699Y-111794251D01*
X131230330Y-111720412D01*
X131408412Y-111542330D01*
X131482251Y-111440698D01*
X132691556Y-112650002D01*
X132818972Y-112499998D01*
X132818975Y-112499994D01*
X133019781Y-112203827D01*
X133187393Y-111887677D01*
X133187402Y-111887659D01*
X133319850Y-111555239D01*
X133319852Y-111555232D01*
X133415578Y-111210457D01*
X133415584Y-111210431D01*
X133473472Y-110857331D01*
X133473473Y-110857314D01*
X133492847Y-110500002D01*
X133492847Y-110499997D01*
X133473473Y-110142685D01*
X133473472Y-110142668D01*
X133415584Y-109789568D01*
X133415578Y-109789542D01*
X133319852Y-109444767D01*
X133319850Y-109444760D01*
X133187402Y-109112340D01*
X133187393Y-109112322D01*
X133019781Y-108796172D01*
X132818975Y-108500005D01*
X132818964Y-108499991D01*
X132691556Y-108349996D01*
X131482251Y-109559301D01*
X131408412Y-109457670D01*
X131230330Y-109279588D01*
X131128698Y-109205748D01*
X132340742Y-107993704D01*
X132327504Y-107981163D01*
X132042632Y-107764611D01*
X132042629Y-107764609D01*
X131736009Y-107580123D01*
X131411260Y-107429877D01*
X131411255Y-107429876D01*
X131072144Y-107315616D01*
X130722660Y-107238688D01*
X130366924Y-107200000D01*
X130009075Y-107200000D01*
X129653339Y-107238688D01*
X129303855Y-107315616D01*
X128964744Y-107429876D01*
X128964739Y-107429877D01*
X128639990Y-107580123D01*
X128333370Y-107764609D01*
X128333367Y-107764611D01*
X128048486Y-107981170D01*
X128048485Y-107981171D01*
X128035257Y-107993702D01*
X128035256Y-107993703D01*
X129247301Y-109205748D01*
X129145670Y-109279588D01*
X128967588Y-109457670D01*
X128893748Y-109559301D01*
X127684442Y-108349995D01*
X127684441Y-108349996D01*
X127557033Y-108499992D01*
X127356218Y-108796172D01*
X127188606Y-109112322D01*
X127188597Y-109112340D01*
X127056149Y-109444760D01*
X127056147Y-109444767D01*
X126960421Y-109789542D01*
X126960415Y-109789568D01*
X126902527Y-110142668D01*
X126902526Y-110142685D01*
X126883153Y-110499997D01*
X126883153Y-110500002D01*
X126902526Y-110857314D01*
X126902527Y-110857331D01*
X126960415Y-111210431D01*
X126960421Y-111210457D01*
X127056147Y-111555232D01*
X127056149Y-111555239D01*
X127188597Y-111887659D01*
X127188606Y-111887677D01*
X127356218Y-112203827D01*
X127557024Y-112499994D01*
X127557035Y-112500008D01*
X127684441Y-112650002D01*
X127684442Y-112650002D01*
X128893747Y-111440697D01*
X128967588Y-111542330D01*
X129145670Y-111720412D01*
X129247300Y-111794251D01*
X128035257Y-113006294D01*
X128048495Y-113018836D01*
X128333367Y-113235388D01*
X128333370Y-113235390D01*
X128639987Y-113419874D01*
X128679080Y-113437961D01*
X128731658Y-113483975D01*
X128751011Y-113551111D01*
X128730997Y-113618053D01*
X128677968Y-113663547D01*
X128627013Y-113674500D01*
X120572987Y-113674500D01*
X120505948Y-113654815D01*
X120460193Y-113602011D01*
X120450249Y-113532853D01*
X120479274Y-113469297D01*
X120520920Y-113437961D01*
X120560012Y-113419874D01*
X120866629Y-113235390D01*
X120866632Y-113235388D01*
X121151509Y-113018831D01*
X121164742Y-113006295D01*
X121164742Y-113006294D01*
X119952699Y-111794251D01*
X120054330Y-111720412D01*
X120232412Y-111542330D01*
X120306251Y-111440698D01*
X121515556Y-112650002D01*
X121642972Y-112499998D01*
X121642975Y-112499994D01*
X121843781Y-112203827D01*
X122011393Y-111887677D01*
X122011402Y-111887659D01*
X122143850Y-111555239D01*
X122143852Y-111555232D01*
X122239578Y-111210457D01*
X122239584Y-111210431D01*
X122297472Y-110857331D01*
X122297473Y-110857314D01*
X122316847Y-110500002D01*
X122316847Y-110499997D01*
X122297473Y-110142685D01*
X122297472Y-110142668D01*
X122239584Y-109789568D01*
X122239578Y-109789542D01*
X122143852Y-109444767D01*
X122143850Y-109444760D01*
X122011402Y-109112340D01*
X122011393Y-109112322D01*
X121843781Y-108796172D01*
X121642975Y-108500005D01*
X121642964Y-108499991D01*
X121515556Y-108349996D01*
X120306251Y-109559301D01*
X120232412Y-109457670D01*
X120054330Y-109279588D01*
X119952698Y-109205748D01*
X121164742Y-107993704D01*
X121151504Y-107981163D01*
X120866632Y-107764611D01*
X120866629Y-107764609D01*
X120560009Y-107580123D01*
X120235260Y-107429877D01*
X120235255Y-107429876D01*
X119896144Y-107315616D01*
X119546660Y-107238688D01*
X119190924Y-107200000D01*
X118833075Y-107200000D01*
X118477339Y-107238688D01*
X118127855Y-107315616D01*
X117788744Y-107429876D01*
X117788739Y-107429877D01*
X117463990Y-107580123D01*
X117157370Y-107764609D01*
X117157367Y-107764611D01*
X116872486Y-107981170D01*
X116872485Y-107981171D01*
X116859257Y-107993702D01*
X116859256Y-107993703D01*
X118071301Y-109205748D01*
X117969670Y-109279588D01*
X117791588Y-109457670D01*
X117717748Y-109559301D01*
X116508442Y-108349995D01*
X116508441Y-108349996D01*
X116381033Y-108499992D01*
X116180218Y-108796172D01*
X116012606Y-109112322D01*
X116012597Y-109112340D01*
X115880149Y-109444760D01*
X115880147Y-109444767D01*
X115784421Y-109789542D01*
X115784415Y-109789568D01*
X115726527Y-110142668D01*
X115726526Y-110142685D01*
X115707153Y-110499997D01*
X115707153Y-110500002D01*
X115726526Y-110857314D01*
X115726527Y-110857331D01*
X115784415Y-111210431D01*
X115784421Y-111210457D01*
X115880147Y-111555232D01*
X115880149Y-111555239D01*
X116012597Y-111887659D01*
X116012606Y-111887677D01*
X116180218Y-112203827D01*
X116381024Y-112499994D01*
X116381035Y-112500008D01*
X116508441Y-112650002D01*
X116508442Y-112650002D01*
X117717747Y-111440697D01*
X117791588Y-111542330D01*
X117969670Y-111720412D01*
X118071300Y-111794251D01*
X116859257Y-113006294D01*
X116872495Y-113018836D01*
X117157367Y-113235388D01*
X117157370Y-113235390D01*
X117463987Y-113419874D01*
X117503080Y-113437961D01*
X117555658Y-113483975D01*
X117575011Y-113551111D01*
X117554997Y-113618053D01*
X117501968Y-113663547D01*
X117451013Y-113674500D01*
X109604067Y-113674500D01*
X109595957Y-113674235D01*
X109350379Y-113658139D01*
X109334298Y-113656021D01*
X109096935Y-113608806D01*
X109081268Y-113604608D01*
X108852088Y-113526812D01*
X108837102Y-113520605D01*
X108836917Y-113520514D01*
X108733060Y-113469297D01*
X108620039Y-113413561D01*
X108605992Y-113405451D01*
X108404758Y-113270991D01*
X108391890Y-113261117D01*
X108209928Y-113101540D01*
X108198459Y-113090071D01*
X108038882Y-112908109D01*
X108029008Y-112895241D01*
X108018041Y-112878828D01*
X107894548Y-112694007D01*
X107886438Y-112679960D01*
X107845910Y-112597778D01*
X107779391Y-112462890D01*
X107773187Y-112447911D01*
X107695391Y-112218731D01*
X107691193Y-112203064D01*
X107669897Y-112096003D01*
X107643976Y-111965690D01*
X107641861Y-111949632D01*
X107625765Y-111704043D01*
X107625500Y-111695933D01*
X107625500Y-111499994D01*
X108394357Y-111499994D01*
X108394357Y-111500005D01*
X108414890Y-111747812D01*
X108414892Y-111747824D01*
X108475936Y-111988881D01*
X108575826Y-112216606D01*
X108711833Y-112424782D01*
X108711836Y-112424785D01*
X108880256Y-112607738D01*
X109076491Y-112760474D01*
X109295190Y-112878828D01*
X109530386Y-112959571D01*
X109775665Y-113000500D01*
X110024335Y-113000500D01*
X110269614Y-112959571D01*
X110504810Y-112878828D01*
X110723509Y-112760474D01*
X110919744Y-112607738D01*
X111088164Y-112424785D01*
X111224173Y-112216607D01*
X111324063Y-111988881D01*
X111385108Y-111747821D01*
X111401066Y-111555239D01*
X111405643Y-111500005D01*
X111405643Y-111499994D01*
X111385109Y-111252187D01*
X111385107Y-111252175D01*
X111324063Y-111011118D01*
X111224173Y-110783393D01*
X111088166Y-110575217D01*
X111066557Y-110551744D01*
X110919744Y-110392262D01*
X110723509Y-110239526D01*
X110723507Y-110239525D01*
X110723506Y-110239524D01*
X110504811Y-110121172D01*
X110504802Y-110121169D01*
X110269616Y-110040429D01*
X110024335Y-109999500D01*
X109775665Y-109999500D01*
X109530383Y-110040429D01*
X109295197Y-110121169D01*
X109295188Y-110121172D01*
X109076493Y-110239524D01*
X108880257Y-110392261D01*
X108711833Y-110575217D01*
X108575826Y-110783393D01*
X108475936Y-111011118D01*
X108414892Y-111252175D01*
X108414890Y-111252187D01*
X108394357Y-111499994D01*
X107625500Y-111499994D01*
X107625500Y-101742452D01*
X107645185Y-101675413D01*
X107697989Y-101629658D01*
X107767147Y-101619714D01*
X107830703Y-101648739D01*
G37*
%TD.AperFunction*%
%TA.AperFunction,Conductor*%
G36*
X120218998Y-63745185D02*
G01*
X120264753Y-63797989D01*
X120274697Y-63867147D01*
X120245672Y-63930703D01*
X120220850Y-63952602D01*
X120094410Y-64037086D01*
X120094406Y-64037089D01*
X119962089Y-64169406D01*
X119962086Y-64169410D01*
X119858124Y-64324999D01*
X119858119Y-64325008D01*
X119786508Y-64497894D01*
X119786506Y-64497902D01*
X119750000Y-64681428D01*
X119750000Y-64875000D01*
X120450000Y-64875000D01*
X120450000Y-65375000D01*
X119750000Y-65375000D01*
X119750000Y-65568571D01*
X119786506Y-65752097D01*
X119786508Y-65752105D01*
X119858119Y-65924991D01*
X119858124Y-65925000D01*
X119962086Y-66080589D01*
X119962089Y-66080593D01*
X120094406Y-66212910D01*
X120094410Y-66212913D01*
X120249999Y-66316875D01*
X120250012Y-66316882D01*
X120422889Y-66388489D01*
X120422896Y-66388491D01*
X120450000Y-66393882D01*
X120450000Y-65524728D01*
X120488060Y-65616614D01*
X120558386Y-65686940D01*
X120650272Y-65725000D01*
X120749728Y-65725000D01*
X120841614Y-65686940D01*
X120911940Y-65616614D01*
X120950000Y-65524728D01*
X120950000Y-66393881D01*
X120977103Y-66388491D01*
X120977110Y-66388489D01*
X121149987Y-66316882D01*
X121150000Y-66316875D01*
X121305589Y-66212913D01*
X121305593Y-66212910D01*
X121437910Y-66080593D01*
X121437913Y-66080589D01*
X121541875Y-65925000D01*
X121541880Y-65924991D01*
X121613491Y-65752105D01*
X121613493Y-65752097D01*
X121649999Y-65568571D01*
X121650000Y-65568569D01*
X121650000Y-65375000D01*
X120950000Y-65375000D01*
X120950000Y-64875000D01*
X121650000Y-64875000D01*
X121650000Y-64681430D01*
X121649999Y-64681428D01*
X121613493Y-64497902D01*
X121613491Y-64497894D01*
X121541880Y-64325008D01*
X121541875Y-64324999D01*
X121437913Y-64169410D01*
X121437910Y-64169406D01*
X121305593Y-64037089D01*
X121305589Y-64037086D01*
X121179150Y-63952602D01*
X121134345Y-63898990D01*
X121125638Y-63829665D01*
X121155792Y-63766637D01*
X121215235Y-63729918D01*
X121248041Y-63725500D01*
X126751959Y-63725500D01*
X126818998Y-63745185D01*
X126864753Y-63797989D01*
X126874697Y-63867147D01*
X126845672Y-63930703D01*
X126820850Y-63952602D01*
X126694410Y-64037086D01*
X126694406Y-64037089D01*
X126562089Y-64169406D01*
X126562086Y-64169410D01*
X126458124Y-64324999D01*
X126458119Y-64325008D01*
X126386508Y-64497894D01*
X126386506Y-64497902D01*
X126350000Y-64681428D01*
X126350000Y-64875000D01*
X127050000Y-64875000D01*
X127050000Y-65375000D01*
X126350000Y-65375000D01*
X126350000Y-65568571D01*
X126386506Y-65752097D01*
X126386508Y-65752105D01*
X126458119Y-65924991D01*
X126458124Y-65925000D01*
X126562086Y-66080589D01*
X126562089Y-66080593D01*
X126694406Y-66212910D01*
X126694410Y-66212913D01*
X126849999Y-66316875D01*
X126850012Y-66316882D01*
X127022889Y-66388489D01*
X127022896Y-66388491D01*
X127050000Y-66393882D01*
X127050000Y-65524728D01*
X127088060Y-65616614D01*
X127158386Y-65686940D01*
X127250272Y-65725000D01*
X127349728Y-65725000D01*
X127441614Y-65686940D01*
X127511940Y-65616614D01*
X127550000Y-65524728D01*
X127550000Y-66393881D01*
X127577103Y-66388491D01*
X127577110Y-66388489D01*
X127749987Y-66316882D01*
X127750000Y-66316875D01*
X127905589Y-66212913D01*
X127905593Y-66212910D01*
X128037910Y-66080593D01*
X128037913Y-66080589D01*
X128091765Y-65999994D01*
X137894357Y-65999994D01*
X137894357Y-66000005D01*
X137914890Y-66247812D01*
X137914892Y-66247824D01*
X137975936Y-66488881D01*
X138075826Y-66716606D01*
X138211833Y-66924782D01*
X138226194Y-66940382D01*
X138380256Y-67107738D01*
X138576491Y-67260474D01*
X138795190Y-67378828D01*
X139030386Y-67459571D01*
X139275665Y-67500500D01*
X139524335Y-67500500D01*
X139769614Y-67459571D01*
X140004810Y-67378828D01*
X140223509Y-67260474D01*
X140419744Y-67107738D01*
X140588164Y-66924785D01*
X140724173Y-66716607D01*
X140824063Y-66488881D01*
X140885108Y-66247821D01*
X140898965Y-66080593D01*
X140905643Y-66000005D01*
X140905643Y-65999994D01*
X140885109Y-65752187D01*
X140885107Y-65752175D01*
X140824063Y-65511118D01*
X140724173Y-65283393D01*
X140588166Y-65075217D01*
X140562675Y-65047527D01*
X140419744Y-64892262D01*
X140223509Y-64739526D01*
X140223507Y-64739525D01*
X140223506Y-64739524D01*
X140004811Y-64621172D01*
X140004802Y-64621169D01*
X139769616Y-64540429D01*
X139524335Y-64499500D01*
X139275665Y-64499500D01*
X139030383Y-64540429D01*
X138795197Y-64621169D01*
X138795188Y-64621172D01*
X138576493Y-64739524D01*
X138380257Y-64892261D01*
X138211833Y-65075217D01*
X138075826Y-65283393D01*
X137975936Y-65511118D01*
X137914892Y-65752175D01*
X137914890Y-65752187D01*
X137894357Y-65999994D01*
X128091765Y-65999994D01*
X128141875Y-65925000D01*
X128141880Y-65924991D01*
X128213491Y-65752105D01*
X128213493Y-65752097D01*
X128249999Y-65568571D01*
X128250000Y-65568569D01*
X128250000Y-65375000D01*
X127550000Y-65375000D01*
X127550000Y-64875000D01*
X128250000Y-64875000D01*
X128250000Y-64681430D01*
X128249999Y-64681428D01*
X128213493Y-64497902D01*
X128213491Y-64497894D01*
X128141880Y-64325008D01*
X128141875Y-64324999D01*
X128037913Y-64169410D01*
X128037910Y-64169406D01*
X127905593Y-64037089D01*
X127905589Y-64037086D01*
X127779150Y-63952602D01*
X127734345Y-63898990D01*
X127725638Y-63829665D01*
X127755792Y-63766637D01*
X127815235Y-63729918D01*
X127848041Y-63725500D01*
X139591715Y-63725500D01*
X139595933Y-63725500D01*
X139604043Y-63725765D01*
X139849632Y-63741861D01*
X139865690Y-63743976D01*
X140069394Y-63784495D01*
X140103064Y-63791193D01*
X140118731Y-63795391D01*
X140287510Y-63852683D01*
X140347913Y-63873188D01*
X140362890Y-63879391D01*
X140570539Y-63981792D01*
X140579960Y-63986438D01*
X140594007Y-63994548D01*
X140633528Y-64020955D01*
X140795245Y-64129011D01*
X140808106Y-64138879D01*
X140920036Y-64237039D01*
X140990071Y-64298459D01*
X141001540Y-64309928D01*
X141161117Y-64491890D01*
X141170991Y-64504758D01*
X141305451Y-64705992D01*
X141313561Y-64720039D01*
X141420605Y-64937102D01*
X141426812Y-64952088D01*
X141504608Y-65181268D01*
X141508806Y-65196935D01*
X141556021Y-65434298D01*
X141558139Y-65450379D01*
X141574235Y-65695956D01*
X141574500Y-65704066D01*
X141574500Y-104475760D01*
X141554815Y-104542799D01*
X141502011Y-104588554D01*
X141432853Y-104598498D01*
X141369297Y-104569473D01*
X141358350Y-104558732D01*
X141311870Y-104507111D01*
X141158734Y-104395851D01*
X141158729Y-104395848D01*
X140985807Y-104318857D01*
X140985802Y-104318855D01*
X140840001Y-104287865D01*
X140800646Y-104279500D01*
X140800645Y-104279500D01*
X140741452Y-104279500D01*
X140674413Y-104259815D01*
X140653771Y-104243181D01*
X140628928Y-104218338D01*
X140628925Y-104218334D01*
X140628925Y-104218335D01*
X140621858Y-104211268D01*
X140621858Y-104211267D01*
X140534733Y-104124142D01*
X140534732Y-104124141D01*
X140534731Y-104124140D01*
X140483509Y-104089915D01*
X140432286Y-104055688D01*
X140432276Y-104055684D01*
X140335006Y-104015394D01*
X140335003Y-104015392D01*
X140335002Y-104015392D01*
X140318455Y-104008538D01*
X140318453Y-104008537D01*
X140318452Y-104008537D01*
X140258029Y-103996518D01*
X140197610Y-103984500D01*
X140197607Y-103984500D01*
X140197606Y-103984500D01*
X137524238Y-103984500D01*
X137457199Y-103964815D01*
X137411444Y-103912011D01*
X137401500Y-103842853D01*
X137430525Y-103779297D01*
X137432088Y-103777528D01*
X137544533Y-103652646D01*
X137639179Y-103488714D01*
X137697674Y-103308686D01*
X137717460Y-103120430D01*
X137697674Y-102932174D01*
X137639179Y-102752146D01*
X137544533Y-102588214D01*
X137417871Y-102447542D01*
X137417870Y-102447541D01*
X137264734Y-102336281D01*
X137264729Y-102336278D01*
X137091807Y-102259287D01*
X137091802Y-102259285D01*
X136946001Y-102228295D01*
X136906646Y-102219930D01*
X136717354Y-102219930D01*
X136684897Y-102226828D01*
X136532197Y-102259285D01*
X136532192Y-102259287D01*
X136359270Y-102336278D01*
X136359265Y-102336281D01*
X136206130Y-102447540D01*
X136206129Y-102447542D01*
X136200400Y-102453904D01*
X136140913Y-102490551D01*
X136108252Y-102494930D01*
X131112883Y-102494930D01*
X131045844Y-102475245D01*
X131025202Y-102458611D01*
X130482771Y-101916181D01*
X130449286Y-101854858D01*
X130454270Y-101785167D01*
X130496141Y-101729233D01*
X130561606Y-101704816D01*
X130570452Y-101704500D01*
X134084607Y-101704500D01*
X134145029Y-101692481D01*
X134205452Y-101680463D01*
X134205455Y-101680461D01*
X134205458Y-101680461D01*
X134238787Y-101666654D01*
X134238786Y-101666654D01*
X134238792Y-101666652D01*
X134319286Y-101633312D01*
X134370509Y-101599084D01*
X134421733Y-101564858D01*
X134508858Y-101477733D01*
X134508859Y-101477731D01*
X134515925Y-101470665D01*
X134515928Y-101470661D01*
X135106313Y-100880275D01*
X135106686Y-100879938D01*
X135110908Y-100875712D01*
X135110915Y-100875708D01*
X135155017Y-100831572D01*
X135197857Y-100788733D01*
X135197857Y-100788732D01*
X135202071Y-100784519D01*
X135202413Y-100784139D01*
X135429534Y-100556849D01*
X135490845Y-100523343D01*
X135517248Y-100520499D01*
X135653388Y-100520499D01*
X135719926Y-100514453D01*
X135719927Y-100514452D01*
X135719933Y-100514452D01*
X135873069Y-100466733D01*
X135935850Y-100428779D01*
X136003405Y-100410944D01*
X136064149Y-100428779D01*
X136126931Y-100466733D01*
X136126934Y-100466734D01*
X136126933Y-100466734D01*
X136180552Y-100483442D01*
X136280067Y-100514452D01*
X136346619Y-100520500D01*
X136482546Y-100520499D01*
X136549586Y-100540183D01*
X136570228Y-100556818D01*
X136862858Y-100849448D01*
X136893108Y-100898810D01*
X136948171Y-101068276D01*
X136948173Y-101068280D01*
X137042819Y-101232212D01*
X137169481Y-101372884D01*
X137322617Y-101484144D01*
X137322622Y-101484147D01*
X137495544Y-101561138D01*
X137495549Y-101561140D01*
X137680706Y-101600496D01*
X137680707Y-101600496D01*
X137869996Y-101600496D01*
X137869998Y-101600496D01*
X138055155Y-101561140D01*
X138102269Y-101540162D01*
X138171517Y-101530877D01*
X138234794Y-101560505D01*
X138260093Y-101591444D01*
X138267465Y-101604214D01*
X138394129Y-101744888D01*
X138547265Y-101856148D01*
X138547270Y-101856151D01*
X138720192Y-101933142D01*
X138720197Y-101933144D01*
X138905354Y-101972500D01*
X138905355Y-101972500D01*
X139094644Y-101972500D01*
X139094646Y-101972500D01*
X139279803Y-101933144D01*
X139452730Y-101856151D01*
X139605871Y-101744888D01*
X139732533Y-101604216D01*
X139827179Y-101440284D01*
X139829801Y-101432216D01*
X139849079Y-101372884D01*
X139885674Y-101260256D01*
X139885674Y-101260254D01*
X139887682Y-101254075D01*
X139888744Y-101254420D01*
X139903246Y-101220041D01*
X139904944Y-101217500D01*
X139932186Y-101176729D01*
X139965084Y-101127495D01*
X140021658Y-100990913D01*
X140031189Y-100943000D01*
X140050500Y-100845920D01*
X140050500Y-98002079D01*
X140021659Y-97857092D01*
X140021658Y-97857091D01*
X140021658Y-97857087D01*
X140006754Y-97821106D01*
X139965087Y-97720511D01*
X139965080Y-97720498D01*
X139882952Y-97597585D01*
X139830852Y-97545485D01*
X139778416Y-97493049D01*
X139599389Y-97314022D01*
X139399205Y-97113837D01*
X139365720Y-97052514D01*
X139370704Y-96982822D01*
X139399227Y-96938453D01*
X139709822Y-96628015D01*
X139710117Y-96627749D01*
X139714412Y-96623453D01*
X139714416Y-96623451D01*
X139766392Y-96571474D01*
X139766418Y-96571460D01*
X139766413Y-96571455D01*
X139797102Y-96540781D01*
X139818830Y-96519064D01*
X139818831Y-96519061D01*
X139818835Y-96519058D01*
X139818938Y-96518933D01*
X139818946Y-96518920D01*
X139818951Y-96518916D01*
X139859778Y-96457812D01*
X139900994Y-96396163D01*
X139900997Y-96396156D01*
X139901076Y-96396006D01*
X139901084Y-96395995D01*
X139922232Y-96344938D01*
X139929032Y-96328522D01*
X139929044Y-96328491D01*
X139936108Y-96311450D01*
X139957603Y-96259596D01*
X139957604Y-96259590D01*
X139957633Y-96259496D01*
X139957658Y-96259412D01*
X139958134Y-96257022D01*
X139971182Y-96191422D01*
X139971960Y-96187513D01*
X139971966Y-96187481D01*
X139975385Y-96170315D01*
X139986481Y-96114608D01*
X139986481Y-96114602D01*
X139986483Y-96114588D01*
X139986489Y-96114526D01*
X139986500Y-96114414D01*
X139986500Y-96038455D01*
X139986519Y-95960942D01*
X139986500Y-95960533D01*
X139986500Y-95228679D01*
X139957659Y-95083692D01*
X139957658Y-95083691D01*
X139957658Y-95083687D01*
X139957656Y-95083682D01*
X139901087Y-94947111D01*
X139901080Y-94947098D01*
X139818952Y-94824185D01*
X139786130Y-94791363D01*
X139714416Y-94719649D01*
X138231966Y-93237199D01*
X133601650Y-88606881D01*
X133568165Y-88545558D01*
X133573149Y-88475866D01*
X133615021Y-88419933D01*
X133680485Y-88395516D01*
X133689331Y-88395200D01*
X134482252Y-88395200D01*
X134549291Y-88414885D01*
X134574400Y-88436226D01*
X134580126Y-88442585D01*
X134580130Y-88442589D01*
X134733265Y-88553848D01*
X134733270Y-88553851D01*
X134906192Y-88630842D01*
X134906197Y-88630844D01*
X135091354Y-88670200D01*
X135091355Y-88670200D01*
X135280644Y-88670200D01*
X135280646Y-88670200D01*
X135465803Y-88630844D01*
X135638730Y-88553851D01*
X135791871Y-88442588D01*
X135918533Y-88301916D01*
X136013179Y-88137984D01*
X136071674Y-87957956D01*
X136091460Y-87769700D01*
X136071674Y-87581444D01*
X136013179Y-87401416D01*
X135918533Y-87237484D01*
X135791871Y-87096812D01*
X135769812Y-87080785D01*
X135638734Y-86985551D01*
X135638731Y-86985549D01*
X135638582Y-86985483D01*
X135638479Y-86985437D01*
X135638358Y-86985334D01*
X135633107Y-86982303D01*
X135633661Y-86981342D01*
X135585242Y-86940189D01*
X135564920Y-86873340D01*
X135583964Y-86806116D01*
X135601227Y-86784482D01*
X136193039Y-86192628D01*
X136238710Y-86146957D01*
X136240883Y-86144894D01*
X136240907Y-86144865D01*
X136242200Y-86142851D01*
X136279662Y-86086779D01*
X136322471Y-86022710D01*
X136323073Y-86021831D01*
X136323077Y-86021823D01*
X136323209Y-86021498D01*
X136355096Y-85944511D01*
X136378656Y-85887629D01*
X136379717Y-85885221D01*
X136379717Y-85885220D01*
X136380166Y-85882674D01*
X136395898Y-85803570D01*
X136408500Y-85740218D01*
X136408500Y-85740204D01*
X136408503Y-85740189D01*
X136408500Y-85663571D01*
X136408500Y-83297500D01*
X136428185Y-83230461D01*
X136480989Y-83184706D01*
X136532500Y-83173500D01*
X139440663Y-83173500D01*
X139507702Y-83193185D01*
X139513548Y-83197182D01*
X139527265Y-83207148D01*
X139527270Y-83207151D01*
X139700192Y-83284142D01*
X139700197Y-83284144D01*
X139885354Y-83323500D01*
X139885355Y-83323500D01*
X140074644Y-83323500D01*
X140074646Y-83323500D01*
X140259803Y-83284144D01*
X140432730Y-83207151D01*
X140585871Y-83095888D01*
X140712533Y-82955216D01*
X140807179Y-82791284D01*
X140865674Y-82611256D01*
X140885460Y-82423000D01*
X140865674Y-82234744D01*
X140807179Y-82054716D01*
X140712533Y-81890784D01*
X140585871Y-81750112D01*
X140546830Y-81721747D01*
X140432734Y-81638851D01*
X140432729Y-81638848D01*
X140259807Y-81561857D01*
X140259802Y-81561855D01*
X140107635Y-81529512D01*
X140074646Y-81522500D01*
X139885354Y-81522500D01*
X139863661Y-81527111D01*
X139700197Y-81561855D01*
X139700192Y-81561857D01*
X139527270Y-81638848D01*
X139527265Y-81638851D01*
X139513548Y-81648818D01*
X139447742Y-81672298D01*
X139440663Y-81672500D01*
X136502251Y-81672500D01*
X136435212Y-81652815D01*
X136389457Y-81600011D01*
X136380634Y-81572694D01*
X136379660Y-81567794D01*
X136379659Y-81567792D01*
X136379658Y-81567787D01*
X136379039Y-81566293D01*
X136379009Y-81566221D01*
X136375040Y-81556623D01*
X136375013Y-81556573D01*
X136362809Y-81527110D01*
X136323084Y-81431205D01*
X136261379Y-81338856D01*
X136261379Y-81338855D01*
X136261377Y-81338853D01*
X136240962Y-81308299D01*
X136240956Y-81308290D01*
X136240953Y-81308287D01*
X136240951Y-81308284D01*
X136240947Y-81308280D01*
X136240944Y-81308276D01*
X136187206Y-81254539D01*
X136187204Y-81254537D01*
X131066818Y-76134055D01*
X131033334Y-76072732D01*
X131030500Y-76046375D01*
X131030500Y-71315500D01*
X131030511Y-71244791D01*
X131030502Y-71244700D01*
X131030500Y-71244682D01*
X131016128Y-71172434D01*
X131016124Y-71172413D01*
X131011986Y-71151592D01*
X131001692Y-71099798D01*
X131001688Y-71099789D01*
X131001658Y-71099688D01*
X130972466Y-71029211D01*
X130972459Y-71029193D01*
X130945140Y-70963212D01*
X130945138Y-70963207D01*
X130945134Y-70963201D01*
X130945087Y-70963112D01*
X130945084Y-70963105D01*
X130902778Y-70899790D01*
X130863024Y-70840273D01*
X130863019Y-70840268D01*
X130862954Y-70840189D01*
X130862951Y-70840184D01*
X130862946Y-70840179D01*
X130862942Y-70840174D01*
X130810661Y-70787894D01*
X130810651Y-70787875D01*
X130810647Y-70787880D01*
X129555811Y-69532661D01*
X129525577Y-69483314D01*
X129471717Y-69317548D01*
X129470181Y-69312821D01*
X129470178Y-69312815D01*
X129468837Y-69310493D01*
X129375533Y-69148884D01*
X129248871Y-69008212D01*
X129248870Y-69008211D01*
X129095734Y-68896951D01*
X129095729Y-68896948D01*
X128922807Y-68819957D01*
X128922802Y-68819955D01*
X128777001Y-68788965D01*
X128737646Y-68780600D01*
X128548354Y-68780600D01*
X128515897Y-68787498D01*
X128363197Y-68819955D01*
X128363192Y-68819957D01*
X128190270Y-68896948D01*
X128190265Y-68896951D01*
X128037129Y-69008211D01*
X127910467Y-69148884D01*
X127815821Y-69312815D01*
X127815818Y-69312822D01*
X127774022Y-69441458D01*
X127757326Y-69492844D01*
X127754729Y-69517555D01*
X127738378Y-69673124D01*
X127711793Y-69737738D01*
X127654496Y-69777723D01*
X127584677Y-69780383D01*
X127527376Y-69747842D01*
X126339021Y-68559455D01*
X126339014Y-68559447D01*
X126300618Y-68521051D01*
X126227424Y-68447855D01*
X126227423Y-68447854D01*
X126227421Y-68447852D01*
X126185155Y-68419611D01*
X126105590Y-68366448D01*
X126104559Y-68365743D01*
X126104496Y-68365717D01*
X126104495Y-68365716D01*
X126009102Y-68326203D01*
X126009102Y-68326202D01*
X126009100Y-68326202D01*
X125967932Y-68309149D01*
X125967913Y-68309141D01*
X125888153Y-68293276D01*
X125888152Y-68293275D01*
X125888152Y-68293276D01*
X125822928Y-68280301D01*
X125822923Y-68280300D01*
X125822918Y-68280300D01*
X125749010Y-68280300D01*
X125675093Y-68280299D01*
X125675092Y-68280299D01*
X125668980Y-68280299D01*
X125668960Y-68280300D01*
X118228042Y-68280300D01*
X118227981Y-68280297D01*
X118221893Y-68280297D01*
X118221892Y-68280297D01*
X118147975Y-68280300D01*
X118074077Y-68280300D01*
X118074049Y-68280304D01*
X118005928Y-68293856D01*
X117929073Y-68309144D01*
X117860144Y-68337698D01*
X117860143Y-68337698D01*
X117792511Y-68365713D01*
X117792486Y-68365725D01*
X117755273Y-68390591D01*
X117730292Y-68407284D01*
X117730291Y-68407285D01*
X117669576Y-68447853D01*
X117611504Y-68505928D01*
X117611503Y-68505928D01*
X117562349Y-68555082D01*
X117562300Y-68555135D01*
X116077288Y-70040248D01*
X116015966Y-70073735D01*
X115946274Y-70068753D01*
X115890339Y-70026884D01*
X115866246Y-69965170D01*
X115864681Y-69949848D01*
X115810453Y-69786199D01*
X115810448Y-69786188D01*
X115719947Y-69639465D01*
X115719944Y-69639461D01*
X115598038Y-69517555D01*
X115598034Y-69517552D01*
X115451311Y-69427051D01*
X115451300Y-69427046D01*
X115287652Y-69372819D01*
X115186654Y-69362500D01*
X115150000Y-69362500D01*
X115150000Y-70526000D01*
X115130315Y-70593039D01*
X115077511Y-70638794D01*
X115026000Y-70650000D01*
X113925001Y-70650000D01*
X113925001Y-70749154D01*
X113935319Y-70850152D01*
X113989546Y-71013800D01*
X113989551Y-71013811D01*
X114080052Y-71160534D01*
X114080055Y-71160538D01*
X114093982Y-71174465D01*
X114127467Y-71235788D01*
X114122483Y-71305480D01*
X114093984Y-71349825D01*
X114079661Y-71364148D01*
X113989093Y-71510981D01*
X113989091Y-71510986D01*
X113969737Y-71569393D01*
X113934826Y-71674747D01*
X113934826Y-71674748D01*
X113934825Y-71674748D01*
X113924500Y-71775815D01*
X113924500Y-72294080D01*
X113904815Y-72361119D01*
X113852011Y-72406874D01*
X113782853Y-72416818D01*
X113719297Y-72387793D01*
X113681840Y-72330077D01*
X113628814Y-72155273D01*
X113535910Y-71981462D01*
X113535907Y-71981458D01*
X113532523Y-71976393D01*
X113534164Y-71975296D01*
X113510405Y-71919361D01*
X113522194Y-71850493D01*
X113532888Y-71833851D01*
X113532523Y-71833607D01*
X113535904Y-71828544D01*
X113535910Y-71828538D01*
X113628814Y-71654727D01*
X113686024Y-71466132D01*
X113705341Y-71270000D01*
X113686024Y-71073868D01*
X113628814Y-70885273D01*
X113535910Y-70711462D01*
X113535907Y-70711458D01*
X113532523Y-70706393D01*
X113534164Y-70705296D01*
X113510405Y-70649361D01*
X113522194Y-70580493D01*
X113532888Y-70563851D01*
X113532523Y-70563607D01*
X113535904Y-70558544D01*
X113535910Y-70558538D01*
X113628814Y-70384727D01*
X113686024Y-70196132D01*
X113686024Y-70196126D01*
X113686026Y-70196122D01*
X113687213Y-70190157D01*
X113688733Y-70190459D01*
X113712045Y-70132719D01*
X113769076Y-70092356D01*
X113838876Y-70089235D01*
X113896973Y-70121973D01*
X113925000Y-70150000D01*
X114650000Y-70150000D01*
X114650000Y-69362500D01*
X114613361Y-69362500D01*
X114613343Y-69362501D01*
X114512347Y-69372819D01*
X114348699Y-69427046D01*
X114348688Y-69427051D01*
X114201965Y-69517552D01*
X114201961Y-69517555D01*
X114080055Y-69639461D01*
X114080052Y-69639465D01*
X113989551Y-69786188D01*
X113989546Y-69786199D01*
X113938053Y-69941596D01*
X113898280Y-69999041D01*
X113833764Y-70025864D01*
X113764989Y-70013549D01*
X113713789Y-69966006D01*
X113696944Y-69914746D01*
X113695560Y-69900697D01*
X113686024Y-69803868D01*
X113628814Y-69615273D01*
X113535910Y-69441462D01*
X113535907Y-69441458D01*
X113532523Y-69436393D01*
X113534164Y-69435296D01*
X113510405Y-69379361D01*
X113522194Y-69310493D01*
X113532888Y-69293851D01*
X113532523Y-69293607D01*
X113535904Y-69288544D01*
X113535910Y-69288538D01*
X113628814Y-69114727D01*
X113686024Y-68926132D01*
X113705341Y-68730000D01*
X113686024Y-68533868D01*
X113628814Y-68345273D01*
X113535910Y-68171462D01*
X113535907Y-68171458D01*
X113532523Y-68166393D01*
X113534164Y-68165296D01*
X113510405Y-68109361D01*
X113522194Y-68040493D01*
X113532888Y-68023851D01*
X113532523Y-68023607D01*
X113535904Y-68018544D01*
X113535910Y-68018538D01*
X113628814Y-67844727D01*
X113686024Y-67656132D01*
X113705341Y-67460000D01*
X113686024Y-67263868D01*
X113628814Y-67075273D01*
X113627675Y-67073143D01*
X113556713Y-66940382D01*
X113535910Y-66901462D01*
X113535907Y-66901458D01*
X113532523Y-66896393D01*
X113534164Y-66895296D01*
X113510405Y-66839361D01*
X113522194Y-66770493D01*
X113532888Y-66753851D01*
X113532523Y-66753607D01*
X113535904Y-66748544D01*
X113535910Y-66748538D01*
X113628814Y-66574727D01*
X113686024Y-66386132D01*
X113705341Y-66190000D01*
X113686024Y-65993868D01*
X113628814Y-65805273D01*
X113628811Y-65805269D01*
X113628811Y-65805266D01*
X113535913Y-65631467D01*
X113535909Y-65631460D01*
X113410883Y-65479116D01*
X113258539Y-65354090D01*
X113258532Y-65354086D01*
X113084733Y-65261188D01*
X113084727Y-65261186D01*
X112896132Y-65203976D01*
X112896129Y-65203975D01*
X112700000Y-65184659D01*
X112503870Y-65203975D01*
X112374462Y-65243231D01*
X112315273Y-65261186D01*
X112315272Y-65261186D01*
X112315267Y-65261188D01*
X112313143Y-65262324D01*
X112311898Y-65262583D01*
X112309641Y-65263518D01*
X112309463Y-65263089D01*
X112244740Y-65276564D01*
X112180382Y-65252231D01*
X112172331Y-65246204D01*
X112172328Y-65246202D01*
X112037482Y-65195908D01*
X112037483Y-65195908D01*
X111977883Y-65189501D01*
X111977881Y-65189500D01*
X111977873Y-65189500D01*
X111977864Y-65189500D01*
X110882129Y-65189500D01*
X110882123Y-65189501D01*
X110822516Y-65195908D01*
X110687671Y-65246202D01*
X110687664Y-65246206D01*
X110572455Y-65332452D01*
X110572452Y-65332455D01*
X110486206Y-65447664D01*
X110486202Y-65447671D01*
X110435908Y-65582517D01*
X110429501Y-65642116D01*
X110429500Y-65642135D01*
X110429500Y-66737870D01*
X110429501Y-66737876D01*
X110435908Y-66797483D01*
X110486202Y-66932328D01*
X110486204Y-66932331D01*
X110492231Y-66940382D01*
X110516648Y-67005846D01*
X110503105Y-67069470D01*
X110503518Y-67069641D01*
X110502595Y-67071869D01*
X110502324Y-67073143D01*
X110501188Y-67075267D01*
X110443975Y-67263870D01*
X110424659Y-67460000D01*
X110443975Y-67656129D01*
X110501188Y-67844732D01*
X110542514Y-67922047D01*
X110556756Y-67990449D01*
X110531756Y-68055693D01*
X110475451Y-68097064D01*
X110433156Y-68104500D01*
X110408388Y-68104500D01*
X110287555Y-68128535D01*
X110287547Y-68128537D01*
X110173716Y-68175687D01*
X110131681Y-68203775D01*
X110131680Y-68203775D01*
X110071270Y-68244139D01*
X110071262Y-68244145D01*
X109418461Y-68896948D01*
X109301269Y-69014140D01*
X109301267Y-69014142D01*
X109257704Y-69057704D01*
X109214142Y-69101266D01*
X109182325Y-69148884D01*
X109182324Y-69148883D01*
X109145692Y-69203707D01*
X109145689Y-69203711D01*
X109145688Y-69203714D01*
X109126635Y-69249713D01*
X109098538Y-69317544D01*
X109098535Y-69317556D01*
X109074500Y-69438389D01*
X109074500Y-69438394D01*
X109074500Y-77763606D01*
X109086811Y-77825499D01*
X109098537Y-77884453D01*
X109107145Y-77905234D01*
X109145685Y-77998280D01*
X109145690Y-77998289D01*
X109179914Y-78049507D01*
X109179915Y-78049509D01*
X109214140Y-78100731D01*
X109214141Y-78100732D01*
X109214142Y-78100733D01*
X109301267Y-78187858D01*
X109301268Y-78187858D01*
X109308335Y-78194925D01*
X109308334Y-78194925D01*
X109308338Y-78194928D01*
X114828637Y-83715228D01*
X114862122Y-83776551D01*
X114857138Y-83846243D01*
X114843958Y-83871949D01*
X114819119Y-83909006D01*
X114818938Y-83909344D01*
X114818700Y-83909786D01*
X114795443Y-83965932D01*
X114795375Y-83966097D01*
X114771799Y-84022781D01*
X114771715Y-84023059D01*
X114771655Y-84023255D01*
X114771540Y-84023629D01*
X114759643Y-84083443D01*
X114759608Y-84083621D01*
X114747585Y-84143601D01*
X114747558Y-84143887D01*
X114747534Y-84144133D01*
X114747500Y-84144472D01*
X114747500Y-84205706D01*
X114747402Y-84271724D01*
X114747500Y-84273730D01*
X114747500Y-85165500D01*
X114727815Y-85232539D01*
X114675011Y-85278294D01*
X114623500Y-85289500D01*
X114398072Y-85289500D01*
X114398063Y-85289499D01*
X114336459Y-85289492D01*
X114336404Y-85289498D01*
X114275845Y-85301543D01*
X114275834Y-85301545D01*
X114215580Y-85313523D01*
X114160418Y-85336372D01*
X114160406Y-85336377D01*
X114126325Y-85350489D01*
X114101748Y-85360666D01*
X114049953Y-85395274D01*
X114049944Y-85395280D01*
X113999290Y-85429118D01*
X113951537Y-85476871D01*
X112872269Y-86555891D01*
X112810942Y-86589369D01*
X112784598Y-86592200D01*
X111590607Y-86592200D01*
X111467393Y-86592200D01*
X111449221Y-86595814D01*
X111431049Y-86599429D01*
X111431048Y-86599428D01*
X111346554Y-86616235D01*
X111346545Y-86616237D01*
X111326543Y-86624523D01*
X111313207Y-86630047D01*
X111232718Y-86663385D01*
X111232715Y-86663387D01*
X111232714Y-86663388D01*
X111199495Y-86685585D01*
X111130268Y-86731840D01*
X111100572Y-86761537D01*
X111043142Y-86818967D01*
X107837181Y-90024928D01*
X107775858Y-90058413D01*
X107706166Y-90053429D01*
X107650233Y-90011557D01*
X107625816Y-89946093D01*
X107625500Y-89937247D01*
X107625500Y-65704066D01*
X107625765Y-65695956D01*
X107626356Y-65686940D01*
X107641861Y-65450365D01*
X107643976Y-65434311D01*
X107691193Y-65196933D01*
X107695391Y-65181268D01*
X107717783Y-65115302D01*
X107773189Y-64952080D01*
X107779388Y-64937114D01*
X107886441Y-64720033D01*
X107894544Y-64705998D01*
X108029016Y-64504746D01*
X108038873Y-64491900D01*
X108198464Y-64309922D01*
X108209922Y-64298464D01*
X108391900Y-64138873D01*
X108404746Y-64129016D01*
X108605998Y-63994544D01*
X108620033Y-63986441D01*
X108837114Y-63879388D01*
X108852080Y-63873189D01*
X109015302Y-63817783D01*
X109081268Y-63795391D01*
X109096935Y-63791193D01*
X109334311Y-63743976D01*
X109350367Y-63741861D01*
X109575757Y-63727088D01*
X109595958Y-63725765D01*
X109604067Y-63725500D01*
X109608285Y-63725500D01*
X120151959Y-63725500D01*
X120218998Y-63745185D01*
G37*
%TD.AperFunction*%
%TA.AperFunction,Conductor*%
G36*
X113138292Y-90004085D02*
G01*
X113184047Y-90056889D01*
X113194573Y-90095437D01*
X113213326Y-90273856D01*
X113213327Y-90273859D01*
X113271818Y-90453877D01*
X113271821Y-90453884D01*
X113366467Y-90617816D01*
X113464713Y-90726929D01*
X113493129Y-90758488D01*
X113646265Y-90869748D01*
X113646270Y-90869751D01*
X113819192Y-90946742D01*
X113819197Y-90946744D01*
X114004354Y-90986100D01*
X114004355Y-90986100D01*
X114193644Y-90986100D01*
X114193646Y-90986100D01*
X114378803Y-90946744D01*
X114551730Y-90869751D01*
X114704871Y-90758488D01*
X114707788Y-90755247D01*
X114710600Y-90752126D01*
X114770087Y-90715479D01*
X114802748Y-90711100D01*
X116102558Y-90711100D01*
X116169597Y-90730785D01*
X116190237Y-90747416D01*
X116706406Y-91263557D01*
X118055540Y-92612616D01*
X118089026Y-92673939D01*
X118084044Y-92743630D01*
X118042174Y-92799565D01*
X117976710Y-92823984D01*
X117967861Y-92824300D01*
X115765152Y-92824300D01*
X115641938Y-92824300D01*
X115631275Y-92826421D01*
X115609259Y-92830800D01*
X115609258Y-92830799D01*
X115521100Y-92848335D01*
X115521092Y-92848337D01*
X115505398Y-92854838D01*
X115407255Y-92895489D01*
X115407253Y-92895490D01*
X115304817Y-92963938D01*
X115304809Y-92963944D01*
X114071640Y-94197114D01*
X112891270Y-95377484D01*
X112891267Y-95377487D01*
X112847704Y-95421049D01*
X112804142Y-95464611D01*
X112778681Y-95502717D01*
X112778680Y-95502718D01*
X112735690Y-95567054D01*
X112735690Y-95567055D01*
X112735688Y-95567057D01*
X112735688Y-95567059D01*
X112712768Y-95622393D01*
X112688538Y-95680889D01*
X112688535Y-95680901D01*
X112664500Y-95801734D01*
X112664500Y-95926612D01*
X112644815Y-95993651D01*
X112632650Y-96009584D01*
X112557466Y-96093084D01*
X112462821Y-96257015D01*
X112462818Y-96257022D01*
X112404327Y-96437040D01*
X112404326Y-96437044D01*
X112384540Y-96625300D01*
X112404326Y-96813556D01*
X112404327Y-96813559D01*
X112462818Y-96993577D01*
X112462821Y-96993584D01*
X112557467Y-97157516D01*
X112684129Y-97298188D01*
X112837265Y-97409448D01*
X112837270Y-97409451D01*
X113010192Y-97486442D01*
X113010197Y-97486444D01*
X113195354Y-97525800D01*
X113195355Y-97525800D01*
X113349077Y-97525800D01*
X113416116Y-97545485D01*
X113461871Y-97598289D01*
X113471815Y-97667447D01*
X113452179Y-97718691D01*
X113420083Y-97766724D01*
X113420078Y-97766733D01*
X113363861Y-97902455D01*
X113363858Y-97902465D01*
X113335200Y-98046540D01*
X113335200Y-98193459D01*
X113361203Y-98324186D01*
X113363860Y-98337542D01*
X113364129Y-98338191D01*
X113420078Y-98473266D01*
X113420083Y-98473275D01*
X113501698Y-98595419D01*
X113501701Y-98595423D01*
X113605576Y-98699298D01*
X113605580Y-98699301D01*
X113727724Y-98780916D01*
X113727730Y-98780919D01*
X113727731Y-98780920D01*
X113863458Y-98837140D01*
X113984127Y-98861142D01*
X114007540Y-98865799D01*
X114007544Y-98865800D01*
X114007545Y-98865800D01*
X114154456Y-98865800D01*
X114154457Y-98865799D01*
X114298542Y-98837140D01*
X114434269Y-98780920D01*
X114556420Y-98699301D01*
X114660301Y-98595420D01*
X114741920Y-98473269D01*
X114798140Y-98337542D01*
X114826800Y-98193455D01*
X114826800Y-98046545D01*
X114804774Y-97935810D01*
X114811001Y-97866219D01*
X114853864Y-97811041D01*
X114900602Y-97790331D01*
X115039803Y-97760744D01*
X115039807Y-97760742D01*
X115039808Y-97760742D01*
X115105002Y-97731715D01*
X115212730Y-97683751D01*
X115365871Y-97572488D01*
X115492533Y-97431816D01*
X115587179Y-97267884D01*
X115645674Y-97087856D01*
X115665460Y-96899600D01*
X115645674Y-96711344D01*
X115587179Y-96531316D01*
X115492533Y-96367384D01*
X115400258Y-96264902D01*
X115392350Y-96256119D01*
X115362120Y-96193127D01*
X115360500Y-96173147D01*
X115360500Y-95994071D01*
X115380185Y-95927032D01*
X115396819Y-95906390D01*
X116466390Y-94836819D01*
X116527713Y-94803334D01*
X116554071Y-94800500D01*
X118319829Y-94800500D01*
X118386868Y-94820185D01*
X118427216Y-94862500D01*
X118467466Y-94932214D01*
X118467465Y-94932214D01*
X118594129Y-95072888D01*
X118747265Y-95184148D01*
X118747270Y-95184151D01*
X118920192Y-95261142D01*
X118920193Y-95261142D01*
X118920197Y-95261144D01*
X118947897Y-95267031D01*
X118958003Y-95269180D01*
X119019485Y-95302372D01*
X119053262Y-95363535D01*
X119048610Y-95433249D01*
X119019908Y-95478147D01*
X118875191Y-95622877D01*
X118813870Y-95656365D01*
X118787506Y-95659200D01*
X118728354Y-95659200D01*
X118695897Y-95666098D01*
X118543197Y-95698555D01*
X118543192Y-95698557D01*
X118370270Y-95775548D01*
X118370265Y-95775551D01*
X118217129Y-95886811D01*
X118090466Y-96027485D01*
X117995821Y-96191415D01*
X117995818Y-96191422D01*
X117938645Y-96367384D01*
X117937326Y-96371444D01*
X117917540Y-96559700D01*
X117937326Y-96747956D01*
X117937327Y-96747959D01*
X117995818Y-96927977D01*
X117995820Y-96927981D01*
X117995821Y-96927984D01*
X118027353Y-96982599D01*
X118088495Y-97088501D01*
X118104967Y-97156401D01*
X118082114Y-97222428D01*
X118027192Y-97265618D01*
X117981107Y-97274500D01*
X117903748Y-97274500D01*
X117836709Y-97254815D01*
X117811600Y-97233474D01*
X117805873Y-97227114D01*
X117805869Y-97227110D01*
X117652734Y-97115851D01*
X117652729Y-97115848D01*
X117479807Y-97038857D01*
X117479802Y-97038855D01*
X117334001Y-97007865D01*
X117294646Y-96999500D01*
X117105354Y-96999500D01*
X117072897Y-97006398D01*
X116920197Y-97038855D01*
X116920192Y-97038857D01*
X116747270Y-97115848D01*
X116747265Y-97115851D01*
X116594129Y-97227111D01*
X116467466Y-97367785D01*
X116372821Y-97531715D01*
X116372818Y-97531722D01*
X116317812Y-97701014D01*
X116314326Y-97711744D01*
X116294540Y-97900000D01*
X116314326Y-98088256D01*
X116314327Y-98088259D01*
X116372818Y-98268277D01*
X116372821Y-98268284D01*
X116467467Y-98432216D01*
X116569185Y-98545185D01*
X116594129Y-98572888D01*
X116747265Y-98684148D01*
X116747270Y-98684151D01*
X116920192Y-98761142D01*
X116920197Y-98761144D01*
X117105354Y-98800500D01*
X117105355Y-98800500D01*
X117294644Y-98800500D01*
X117294646Y-98800500D01*
X117479803Y-98761144D01*
X117652730Y-98684151D01*
X117805871Y-98572888D01*
X117808788Y-98569647D01*
X117811600Y-98566526D01*
X117871087Y-98529879D01*
X117903748Y-98525500D01*
X120649148Y-98525500D01*
X120716187Y-98545185D01*
X120736829Y-98561819D01*
X121401016Y-99226006D01*
X121401045Y-99226037D01*
X121491263Y-99316255D01*
X121491267Y-99316258D01*
X121593707Y-99384707D01*
X121593713Y-99384710D01*
X121593714Y-99384711D01*
X121707548Y-99431863D01*
X121767971Y-99443881D01*
X121828393Y-99455900D01*
X124666147Y-99455900D01*
X124703658Y-99448438D01*
X124773248Y-99454664D01*
X124828426Y-99497526D01*
X124851672Y-99563415D01*
X124835606Y-99631412D01*
X124799731Y-99669954D01*
X124799989Y-99670268D01*
X124797668Y-99672171D01*
X124796769Y-99673138D01*
X124795722Y-99673838D01*
X124795651Y-99673886D01*
X124795265Y-99674143D01*
X123288229Y-101181181D01*
X123226906Y-101214666D01*
X123200548Y-101217500D01*
X116745430Y-101217500D01*
X116678391Y-101197815D01*
X116632636Y-101145011D01*
X116622692Y-101075853D01*
X116651717Y-101012297D01*
X116657749Y-101005819D01*
X116672661Y-100990907D01*
X116701807Y-100961761D01*
X116834845Y-100778650D01*
X116937600Y-100576981D01*
X116978642Y-100450666D01*
X117007541Y-100361725D01*
X117007541Y-100361724D01*
X117007542Y-100361721D01*
X117042950Y-100138169D01*
X117042950Y-99911831D01*
X117007542Y-99688279D01*
X117007541Y-99688275D01*
X117007541Y-99688274D01*
X116937601Y-99473021D01*
X116937599Y-99473018D01*
X116928248Y-99454664D01*
X116834845Y-99271350D01*
X116701807Y-99088239D01*
X116541761Y-98928193D01*
X116358650Y-98795155D01*
X116156981Y-98692400D01*
X116156978Y-98692398D01*
X115941723Y-98622458D01*
X115792686Y-98598852D01*
X115718169Y-98587050D01*
X115491831Y-98587050D01*
X115417313Y-98598852D01*
X115268277Y-98622458D01*
X115268274Y-98622458D01*
X115053021Y-98692398D01*
X115053018Y-98692400D01*
X114851349Y-98795155D01*
X114746878Y-98871058D01*
X114668239Y-98928193D01*
X114668237Y-98928195D01*
X114668236Y-98928195D01*
X114508195Y-99088236D01*
X114508195Y-99088237D01*
X114508193Y-99088239D01*
X114478095Y-99129665D01*
X114375155Y-99271349D01*
X114272400Y-99473018D01*
X114272398Y-99473021D01*
X114202458Y-99688274D01*
X114202458Y-99688277D01*
X114174557Y-99864433D01*
X114167050Y-99911831D01*
X114167050Y-100138169D01*
X114184754Y-100249945D01*
X114202458Y-100361722D01*
X114202458Y-100361725D01*
X114272398Y-100576978D01*
X114272400Y-100576981D01*
X114375155Y-100778650D01*
X114508193Y-100961761D01*
X114668239Y-101121807D01*
X114668242Y-101121809D01*
X114688257Y-101136351D01*
X114730923Y-101191681D01*
X114736902Y-101261294D01*
X114704296Y-101323089D01*
X114684264Y-101339770D01*
X114658269Y-101357139D01*
X114634451Y-101380958D01*
X114571142Y-101444267D01*
X114571139Y-101444270D01*
X113961671Y-102053739D01*
X113377229Y-102638181D01*
X113315906Y-102671666D01*
X113289548Y-102674500D01*
X111553452Y-102674500D01*
X111486413Y-102654815D01*
X111465771Y-102638181D01*
X110502221Y-101674631D01*
X110468736Y-101613308D01*
X110473720Y-101543616D01*
X110515592Y-101487683D01*
X110581056Y-101463266D01*
X110589902Y-101462950D01*
X110638168Y-101462950D01*
X110638169Y-101462950D01*
X110861721Y-101427542D01*
X110861724Y-101427541D01*
X110861725Y-101427541D01*
X111076978Y-101357601D01*
X111076978Y-101357600D01*
X111076981Y-101357600D01*
X111278650Y-101254845D01*
X111461761Y-101121807D01*
X111621807Y-100961761D01*
X111754845Y-100778650D01*
X111857600Y-100576981D01*
X111898642Y-100450666D01*
X111927541Y-100361725D01*
X111927541Y-100361724D01*
X111927542Y-100361721D01*
X111962950Y-100138169D01*
X111962950Y-99911831D01*
X111927542Y-99688279D01*
X111927541Y-99688275D01*
X111927541Y-99688274D01*
X111857601Y-99473021D01*
X111857599Y-99473018D01*
X111848248Y-99454664D01*
X111754845Y-99271350D01*
X111621807Y-99088239D01*
X111461761Y-98928193D01*
X111278650Y-98795155D01*
X111076981Y-98692400D01*
X111076978Y-98692398D01*
X110861723Y-98622458D01*
X110712686Y-98598852D01*
X110638169Y-98587050D01*
X110411831Y-98587050D01*
X110337313Y-98598852D01*
X110188277Y-98622458D01*
X110188274Y-98622458D01*
X109973021Y-98692398D01*
X109973018Y-98692400D01*
X109771349Y-98795155D01*
X109646935Y-98885548D01*
X109608705Y-98913324D01*
X109588238Y-98928194D01*
X109587029Y-98929227D01*
X109586475Y-98929475D01*
X109584298Y-98931057D01*
X109583965Y-98930599D01*
X109523267Y-98957795D01*
X109454181Y-98947356D01*
X109401707Y-98901224D01*
X109382500Y-98834934D01*
X109382500Y-98046540D01*
X111303200Y-98046540D01*
X111303200Y-98193459D01*
X111329203Y-98324186D01*
X111331860Y-98337542D01*
X111332129Y-98338191D01*
X111388078Y-98473266D01*
X111388083Y-98473275D01*
X111469698Y-98595419D01*
X111469701Y-98595423D01*
X111573576Y-98699298D01*
X111573580Y-98699301D01*
X111695724Y-98780916D01*
X111695730Y-98780919D01*
X111695731Y-98780920D01*
X111831458Y-98837140D01*
X111952127Y-98861142D01*
X111975540Y-98865799D01*
X111975544Y-98865800D01*
X111975545Y-98865800D01*
X112122456Y-98865800D01*
X112122457Y-98865799D01*
X112266542Y-98837140D01*
X112402269Y-98780920D01*
X112524420Y-98699301D01*
X112628301Y-98595420D01*
X112709920Y-98473269D01*
X112766140Y-98337542D01*
X112794800Y-98193455D01*
X112794800Y-98046545D01*
X112766140Y-97902458D01*
X112713967Y-97776502D01*
X112709921Y-97766733D01*
X112709916Y-97766724D01*
X112628301Y-97644580D01*
X112628297Y-97644575D01*
X112524423Y-97540701D01*
X112524419Y-97540698D01*
X112402275Y-97459083D01*
X112402266Y-97459078D01*
X112266544Y-97402861D01*
X112266545Y-97402861D01*
X112266542Y-97402860D01*
X112266538Y-97402859D01*
X112266534Y-97402858D01*
X112122459Y-97374200D01*
X112122455Y-97374200D01*
X111975545Y-97374200D01*
X111975540Y-97374200D01*
X111831465Y-97402858D01*
X111831455Y-97402861D01*
X111695733Y-97459078D01*
X111695724Y-97459083D01*
X111573580Y-97540698D01*
X111573576Y-97540701D01*
X111469703Y-97644575D01*
X111469698Y-97644580D01*
X111388083Y-97766724D01*
X111388078Y-97766733D01*
X111331861Y-97902455D01*
X111331858Y-97902465D01*
X111303200Y-98046540D01*
X109382500Y-98046540D01*
X109382500Y-95994440D01*
X109402185Y-95927401D01*
X109418817Y-95906761D01*
X109596366Y-95729204D01*
X110351482Y-94974051D01*
X110723794Y-94601721D01*
X110785116Y-94568234D01*
X110811477Y-94565400D01*
X110870644Y-94565400D01*
X110870646Y-94565400D01*
X111055803Y-94526044D01*
X111228730Y-94449051D01*
X111381871Y-94337788D01*
X111508533Y-94197116D01*
X111603179Y-94033184D01*
X111661674Y-93853156D01*
X111681460Y-93664900D01*
X111661674Y-93476644D01*
X111603179Y-93296616D01*
X111508533Y-93132684D01*
X111381871Y-92992012D01*
X111343236Y-92963942D01*
X111228734Y-92880751D01*
X111228729Y-92880748D01*
X111055807Y-92803757D01*
X111055802Y-92803755D01*
X110909431Y-92772644D01*
X110870646Y-92764400D01*
X110681354Y-92764400D01*
X110648897Y-92771298D01*
X110496197Y-92803755D01*
X110496192Y-92803757D01*
X110323270Y-92880748D01*
X110323265Y-92880751D01*
X110170129Y-92992011D01*
X110043466Y-93132685D01*
X109948821Y-93296615D01*
X109948818Y-93296622D01*
X109890327Y-93476640D01*
X109890326Y-93476644D01*
X109883297Y-93543523D01*
X109872676Y-93644577D01*
X109846091Y-93709191D01*
X109837038Y-93719294D01*
X109060183Y-94496189D01*
X108998861Y-94529676D01*
X108929169Y-94524693D01*
X108873235Y-94482823D01*
X108848816Y-94417359D01*
X108848500Y-94408510D01*
X108848500Y-92005280D01*
X108868185Y-91938241D01*
X108920989Y-91892486D01*
X108990147Y-91882542D01*
X109053703Y-91911567D01*
X109085684Y-91959804D01*
X109087175Y-91959141D01*
X109089821Y-91965084D01*
X109184467Y-92129016D01*
X109297694Y-92254767D01*
X109311129Y-92269688D01*
X109464265Y-92380948D01*
X109464270Y-92380951D01*
X109637192Y-92457942D01*
X109637197Y-92457944D01*
X109822354Y-92497300D01*
X109822355Y-92497300D01*
X110011644Y-92497300D01*
X110011646Y-92497300D01*
X110196803Y-92457944D01*
X110369730Y-92380951D01*
X110522871Y-92269688D01*
X110649533Y-92129016D01*
X110744179Y-91965084D01*
X110800315Y-91792315D01*
X110830557Y-91742959D01*
X112026435Y-90546932D01*
X112552577Y-90020724D01*
X112613898Y-89987235D01*
X112640264Y-89984400D01*
X113071253Y-89984400D01*
X113138292Y-90004085D01*
G37*
%TD.AperFunction*%
%TA.AperFunction,Conductor*%
G36*
X129536983Y-95669985D02*
G01*
X129557593Y-95686586D01*
X129609331Y-95738290D01*
X129642836Y-95799601D01*
X129637875Y-95869294D01*
X129596023Y-95925242D01*
X129530567Y-95949681D01*
X129521679Y-95950000D01*
X128534770Y-95950000D01*
X128535421Y-95958281D01*
X128581590Y-96117194D01*
X128581592Y-96117197D01*
X128665833Y-96259642D01*
X128665839Y-96259650D01*
X128782849Y-96376660D01*
X128782861Y-96376669D01*
X128836458Y-96408366D01*
X128884142Y-96459434D01*
X128896646Y-96528176D01*
X128870001Y-96592766D01*
X128812666Y-96632696D01*
X128807938Y-96634173D01*
X128792604Y-96638628D01*
X128792596Y-96638631D01*
X128762627Y-96656355D01*
X128694903Y-96673536D01*
X128636389Y-96656355D01*
X128607199Y-96639093D01*
X128607194Y-96639091D01*
X128448283Y-96592922D01*
X128448277Y-96592921D01*
X128411157Y-96590000D01*
X128382500Y-96590000D01*
X128382500Y-98210000D01*
X128411142Y-98210000D01*
X128411157Y-98209999D01*
X128448277Y-98207078D01*
X128448283Y-98207077D01*
X128607194Y-98160908D01*
X128607202Y-98160905D01*
X128636386Y-98143646D01*
X128704109Y-98126462D01*
X128762628Y-98143644D01*
X128792600Y-98161370D01*
X128817417Y-98168580D01*
X128951638Y-98207575D01*
X128951639Y-98207575D01*
X128951642Y-98207576D01*
X128951644Y-98207576D01*
X128952167Y-98207672D01*
X128952434Y-98207806D01*
X128957726Y-98209344D01*
X128957440Y-98210326D01*
X129014579Y-98239082D01*
X129047818Y-98291335D01*
X129072819Y-98368280D01*
X129072821Y-98368284D01*
X129167467Y-98532216D01*
X129294129Y-98672888D01*
X129447265Y-98784148D01*
X129447270Y-98784151D01*
X129620192Y-98861142D01*
X129620197Y-98861144D01*
X129735009Y-98885548D01*
X129748357Y-98888385D01*
X129809839Y-98921577D01*
X129810256Y-98921993D01*
X129863180Y-98974916D01*
X129896666Y-99036239D01*
X129899500Y-99062598D01*
X129899500Y-99486669D01*
X129899501Y-99486687D01*
X129909825Y-99587752D01*
X129943137Y-99688279D01*
X129963775Y-99750560D01*
X129964092Y-99751515D01*
X129964093Y-99751518D01*
X130054661Y-99898351D01*
X130151949Y-99995639D01*
X130185434Y-100056962D01*
X130180450Y-100126654D01*
X130138578Y-100182587D01*
X130073114Y-100207004D01*
X130038488Y-100204610D01*
X129915647Y-100178500D01*
X129915646Y-100178500D01*
X129726354Y-100178500D01*
X129707126Y-100182587D01*
X129541197Y-100217855D01*
X129541192Y-100217857D01*
X129368270Y-100294848D01*
X129368267Y-100294850D01*
X129342383Y-100313656D01*
X129276576Y-100337134D01*
X129208523Y-100321307D01*
X129159829Y-100271200D01*
X129145500Y-100213336D01*
X129145500Y-99871409D01*
X129145500Y-99871406D01*
X129144113Y-99864435D01*
X129139025Y-99838852D01*
X129131197Y-99799494D01*
X129131197Y-99799493D01*
X129121464Y-99750565D01*
X129121463Y-99750564D01*
X129121463Y-99750560D01*
X129074311Y-99636726D01*
X129074310Y-99636725D01*
X129074307Y-99636719D01*
X129005859Y-99534280D01*
X128964447Y-99492868D01*
X128918733Y-99447154D01*
X128918732Y-99447153D01*
X127869720Y-98398141D01*
X127836235Y-98336818D01*
X127841219Y-98267126D01*
X127869721Y-98222778D01*
X127882500Y-98209999D01*
X127882500Y-97650000D01*
X127253071Y-97650000D01*
X127224871Y-97666869D01*
X127155037Y-97664626D01*
X127106092Y-97634513D01*
X126651714Y-97180135D01*
X126635259Y-97150000D01*
X127267270Y-97150000D01*
X127882500Y-97150000D01*
X127882500Y-96590000D01*
X127853842Y-96590000D01*
X127816722Y-96592921D01*
X127816716Y-96592922D01*
X127657805Y-96639091D01*
X127657802Y-96639092D01*
X127515357Y-96723333D01*
X127515349Y-96723339D01*
X127398339Y-96840349D01*
X127398333Y-96840357D01*
X127314092Y-96982802D01*
X127314090Y-96982805D01*
X127267921Y-97141718D01*
X127267270Y-97150000D01*
X126635259Y-97150000D01*
X126618229Y-97118812D01*
X126616077Y-97105434D01*
X126598428Y-96937510D01*
X126539933Y-96757482D01*
X126445287Y-96593550D01*
X126318625Y-96452878D01*
X126318624Y-96452877D01*
X126165488Y-96341617D01*
X126165483Y-96341614D01*
X125992561Y-96264623D01*
X125992556Y-96264621D01*
X125846755Y-96233631D01*
X125807400Y-96225266D01*
X125618108Y-96225266D01*
X125585651Y-96232164D01*
X125432951Y-96264621D01*
X125432946Y-96264623D01*
X125260025Y-96341614D01*
X125138874Y-96429635D01*
X125073067Y-96453114D01*
X125005014Y-96437288D01*
X124978308Y-96416997D01*
X124884650Y-96323339D01*
X124884642Y-96323333D01*
X124742197Y-96239092D01*
X124742194Y-96239091D01*
X124583283Y-96192922D01*
X124583277Y-96192921D01*
X124546157Y-96190000D01*
X124517500Y-96190000D01*
X124517500Y-97706708D01*
X124511431Y-97745026D01*
X124475019Y-97857092D01*
X124461109Y-97899901D01*
X124444800Y-98055072D01*
X124443462Y-98067807D01*
X124416877Y-98132421D01*
X124407824Y-98142525D01*
X124381770Y-98168580D01*
X124320447Y-98202066D01*
X124294087Y-98204900D01*
X123928135Y-98204900D01*
X123861096Y-98185215D01*
X123815341Y-98132411D01*
X123804815Y-98093867D01*
X123788384Y-97937536D01*
X123800953Y-97868811D01*
X123848686Y-97817787D01*
X123916426Y-97800669D01*
X123946305Y-97805504D01*
X123951723Y-97807078D01*
X123951722Y-97807078D01*
X123988842Y-97809999D01*
X123988858Y-97810000D01*
X124017500Y-97810000D01*
X124017500Y-96190000D01*
X124006500Y-96190000D01*
X123939461Y-96170315D01*
X123893706Y-96117511D01*
X123882500Y-96066000D01*
X123882500Y-95774300D01*
X123902185Y-95707261D01*
X123954989Y-95661506D01*
X124006500Y-95650300D01*
X129469944Y-95650300D01*
X129536983Y-95669985D01*
G37*
%TD.AperFunction*%
%TA.AperFunction,Conductor*%
G36*
X130030128Y-96443644D02*
G01*
X130060100Y-96461370D01*
X130102041Y-96473555D01*
X130219137Y-96507575D01*
X130219140Y-96507575D01*
X130219142Y-96507576D01*
X130256297Y-96510500D01*
X130813702Y-96510499D01*
X130818212Y-96510144D01*
X130878382Y-96520482D01*
X131047192Y-96595642D01*
X131047197Y-96595644D01*
X131232354Y-96635000D01*
X131326825Y-96635000D01*
X131393864Y-96654685D01*
X131414510Y-96671323D01*
X131887767Y-97144650D01*
X131936256Y-97193146D01*
X131969736Y-97254472D01*
X131964747Y-97324163D01*
X131963145Y-97328233D01*
X131940342Y-97383287D01*
X131940340Y-97383293D01*
X131911500Y-97528279D01*
X131911500Y-97528282D01*
X131911500Y-97676118D01*
X131911500Y-97676120D01*
X131911499Y-97676120D01*
X131940340Y-97821106D01*
X131942109Y-97826936D01*
X131940985Y-97827276D01*
X131947783Y-97890522D01*
X131942050Y-97910046D01*
X131942109Y-97910064D01*
X131940340Y-97915893D01*
X131911500Y-98060879D01*
X131911500Y-98293448D01*
X131891815Y-98360487D01*
X131839011Y-98406242D01*
X131769853Y-98416186D01*
X131706297Y-98387161D01*
X131699819Y-98381129D01*
X131698351Y-98379661D01*
X131698350Y-98379660D01*
X131560957Y-98294915D01*
X131551518Y-98289093D01*
X131551513Y-98289091D01*
X131550069Y-98288612D01*
X131387753Y-98234826D01*
X131387751Y-98234825D01*
X131286684Y-98224500D01*
X131286677Y-98224500D01*
X130919580Y-98224500D01*
X130852541Y-98204815D01*
X130806786Y-98152011D01*
X130796259Y-98087540D01*
X130805460Y-98000000D01*
X130785674Y-97811744D01*
X130727179Y-97631716D01*
X130632533Y-97467784D01*
X130505871Y-97327112D01*
X130501812Y-97324163D01*
X130352734Y-97215851D01*
X130352729Y-97215848D01*
X130177211Y-97137701D01*
X130123974Y-97092451D01*
X130108571Y-97059018D01*
X130086370Y-96982600D01*
X130002063Y-96840046D01*
X130002061Y-96840044D01*
X130002058Y-96840040D01*
X129884959Y-96722941D01*
X129884956Y-96722939D01*
X129884954Y-96722937D01*
X129831106Y-96691091D01*
X129783424Y-96640022D01*
X129770921Y-96571281D01*
X129797567Y-96506691D01*
X129854902Y-96466761D01*
X129859636Y-96465283D01*
X129874698Y-96460907D01*
X129874702Y-96460905D01*
X129903886Y-96443646D01*
X129971609Y-96426462D01*
X130030128Y-96443644D01*
G37*
%TD.AperFunction*%
%TA.AperFunction,Conductor*%
G36*
X131339049Y-89772185D02*
G01*
X131364160Y-89793528D01*
X131373123Y-89803483D01*
X131373130Y-89803489D01*
X131526265Y-89914748D01*
X131526270Y-89914751D01*
X131699192Y-89991742D01*
X131699197Y-89991744D01*
X131884354Y-90031100D01*
X131884355Y-90031100D01*
X132073644Y-90031100D01*
X132073646Y-90031100D01*
X132258803Y-89991744D01*
X132431730Y-89914751D01*
X132433776Y-89913264D01*
X132445452Y-89904782D01*
X132511258Y-89881302D01*
X132518337Y-89881100D01*
X132701770Y-89881100D01*
X132768809Y-89900785D01*
X132789451Y-89917419D01*
X134939851Y-92067819D01*
X134973336Y-92129142D01*
X134968352Y-92198834D01*
X134926480Y-92254767D01*
X134861016Y-92279184D01*
X134852170Y-92279500D01*
X134351611Y-92279500D01*
X134285073Y-92285546D01*
X134285066Y-92285548D01*
X134131933Y-92333265D01*
X134131929Y-92333267D01*
X133994670Y-92416242D01*
X133994665Y-92416246D01*
X133972731Y-92438181D01*
X133911408Y-92471666D01*
X133885050Y-92474500D01*
X132295831Y-92474500D01*
X132228792Y-92454815D01*
X132183037Y-92402011D01*
X132173093Y-92332853D01*
X132177900Y-92312182D01*
X132178436Y-92310529D01*
X132185674Y-92288256D01*
X132205460Y-92100000D01*
X132185674Y-91911744D01*
X132127179Y-91731716D01*
X132032533Y-91567784D01*
X131905871Y-91427112D01*
X131905870Y-91427111D01*
X131752734Y-91315851D01*
X131752729Y-91315848D01*
X131579807Y-91238857D01*
X131579802Y-91238855D01*
X131418718Y-91204616D01*
X131357236Y-91171424D01*
X131323460Y-91110260D01*
X131320499Y-91083330D01*
X131320499Y-90946620D01*
X131320499Y-90946619D01*
X131320499Y-90946611D01*
X131314453Y-90880073D01*
X131314452Y-90880070D01*
X131314452Y-90880067D01*
X131274584Y-90752126D01*
X131266734Y-90726933D01*
X131266732Y-90726929D01*
X131228488Y-90663665D01*
X131210652Y-90596111D01*
X131228489Y-90535365D01*
X131266273Y-90472862D01*
X131313957Y-90319838D01*
X131320000Y-90253337D01*
X131320000Y-90252500D01*
X130374000Y-90252500D01*
X130306961Y-90232815D01*
X130261206Y-90180011D01*
X130250000Y-90128500D01*
X130250000Y-89876500D01*
X130269685Y-89809461D01*
X130322489Y-89763706D01*
X130374000Y-89752500D01*
X131272010Y-89752500D01*
X131339049Y-89772185D01*
G37*
%TD.AperFunction*%
%TA.AperFunction,Conductor*%
G36*
X122073579Y-69800985D02*
G01*
X122119334Y-69853789D01*
X122127789Y-69892654D01*
X122129861Y-69892437D01*
X122130540Y-69898898D01*
X122130540Y-69898900D01*
X122150326Y-70087156D01*
X122150327Y-70087159D01*
X122208818Y-70267177D01*
X122208821Y-70267184D01*
X122303467Y-70431116D01*
X122426573Y-70567839D01*
X122430129Y-70571788D01*
X122583265Y-70683048D01*
X122583270Y-70683051D01*
X122756192Y-70760042D01*
X122756197Y-70760044D01*
X122941354Y-70799400D01*
X122958380Y-70799400D01*
X123025419Y-70819085D01*
X123071174Y-70871889D01*
X123077454Y-70888798D01*
X123098256Y-70960398D01*
X123138941Y-71029193D01*
X123181917Y-71101862D01*
X123181923Y-71101870D01*
X123298129Y-71218076D01*
X123298133Y-71218079D01*
X123298135Y-71218081D01*
X123439602Y-71301744D01*
X123481224Y-71313836D01*
X123597426Y-71347597D01*
X123597429Y-71347597D01*
X123597431Y-71347598D01*
X123634306Y-71350500D01*
X123800196Y-71350500D01*
X123867235Y-71370185D01*
X123912990Y-71422989D01*
X123923517Y-71487461D01*
X123921697Y-71504778D01*
X123895113Y-71569393D01*
X123886049Y-71579505D01*
X123852351Y-71613194D01*
X123791026Y-71646670D01*
X123764684Y-71649500D01*
X123634298Y-71649500D01*
X123597432Y-71652401D01*
X123597426Y-71652402D01*
X123439606Y-71698254D01*
X123439603Y-71698255D01*
X123298137Y-71781917D01*
X123298129Y-71781923D01*
X123181923Y-71898129D01*
X123181917Y-71898137D01*
X123098255Y-72039603D01*
X123098254Y-72039606D01*
X123052402Y-72197426D01*
X123052401Y-72197432D01*
X123049500Y-72234298D01*
X123049500Y-72765701D01*
X123052401Y-72802567D01*
X123052402Y-72802573D01*
X123098254Y-72960393D01*
X123098255Y-72960396D01*
X123181917Y-73101862D01*
X123181923Y-73101870D01*
X123298129Y-73218076D01*
X123298133Y-73218079D01*
X123298135Y-73218081D01*
X123439602Y-73301744D01*
X123481224Y-73313836D01*
X123597426Y-73347597D01*
X123597429Y-73347597D01*
X123597431Y-73347598D01*
X123634306Y-73350500D01*
X123634314Y-73350500D01*
X124065686Y-73350500D01*
X124065694Y-73350500D01*
X124102569Y-73347598D01*
X124102571Y-73347597D01*
X124102573Y-73347597D01*
X124144191Y-73335505D01*
X124260398Y-73301744D01*
X124401865Y-73218081D01*
X124460553Y-73159393D01*
X124519995Y-73099952D01*
X124581318Y-73066467D01*
X124651010Y-73071451D01*
X124695357Y-73099952D01*
X124805657Y-73210252D01*
X124805662Y-73210256D01*
X124945934Y-73295052D01*
X125102437Y-73343820D01*
X125170444Y-73349999D01*
X125299999Y-73349999D01*
X125300000Y-73349998D01*
X125300000Y-72374000D01*
X125319685Y-72306961D01*
X125372489Y-72261206D01*
X125424000Y-72250000D01*
X125676000Y-72250000D01*
X125743039Y-72269685D01*
X125788794Y-72322489D01*
X125800000Y-72374000D01*
X125800000Y-73349999D01*
X125929565Y-73349999D01*
X125997561Y-73343821D01*
X125997572Y-73343818D01*
X126154060Y-73295055D01*
X126154064Y-73295053D01*
X126294337Y-73210256D01*
X126294342Y-73210252D01*
X126410252Y-73094342D01*
X126410256Y-73094337D01*
X126495052Y-72954065D01*
X126543820Y-72797562D01*
X126549999Y-72729556D01*
X126549999Y-72660883D01*
X126569683Y-72593843D01*
X126622486Y-72548087D01*
X126691644Y-72538143D01*
X126755200Y-72567167D01*
X126761685Y-72573204D01*
X128217091Y-74028754D01*
X128217140Y-74028807D01*
X128221049Y-74032716D01*
X128262992Y-74074659D01*
X128323327Y-74135000D01*
X128325556Y-74137229D01*
X128325577Y-74137246D01*
X128325583Y-74137250D01*
X128325584Y-74137251D01*
X128389125Y-74179708D01*
X128389128Y-74179711D01*
X128389129Y-74179711D01*
X128448172Y-74219165D01*
X128448541Y-74219415D01*
X128448564Y-74219427D01*
X128449771Y-74219909D01*
X128491416Y-74237158D01*
X128527094Y-74251937D01*
X128527098Y-74251940D01*
X128527099Y-74251939D01*
X128585068Y-74275954D01*
X128585085Y-74275959D01*
X128585333Y-74276007D01*
X128664187Y-74291692D01*
X128664191Y-74291694D01*
X128664192Y-74291693D01*
X128730045Y-74304796D01*
X128730048Y-74304796D01*
X128730053Y-74304797D01*
X128730078Y-74304800D01*
X128730082Y-74304800D01*
X128814521Y-74304800D01*
X128814523Y-74304800D01*
X128877880Y-74304803D01*
X128877885Y-74304801D01*
X128883969Y-74304802D01*
X128884030Y-74304800D01*
X129405500Y-74304800D01*
X129472539Y-74324485D01*
X129518294Y-74377289D01*
X129529500Y-74428800D01*
X129529500Y-76482518D01*
X129529500Y-76482520D01*
X129529499Y-76482520D01*
X129549177Y-76581441D01*
X129549177Y-76581444D01*
X129549178Y-76581444D01*
X129558404Y-76627829D01*
X129558619Y-76628495D01*
X129560016Y-76631555D01*
X129614914Y-76764092D01*
X129614919Y-76764100D01*
X129666539Y-76841354D01*
X129666540Y-76841356D01*
X129697049Y-76887017D01*
X129750793Y-76940760D01*
X129750795Y-76940762D01*
X134091063Y-81281111D01*
X134124547Y-81342434D01*
X134119562Y-81412126D01*
X134077691Y-81468059D01*
X134076267Y-81469109D01*
X133993127Y-81529513D01*
X133866466Y-81670185D01*
X133771821Y-81834115D01*
X133771818Y-81834122D01*
X133714106Y-82011744D01*
X133713326Y-82014144D01*
X133693955Y-82198449D01*
X133693540Y-82202402D01*
X133697622Y-82241250D01*
X133685051Y-82309979D01*
X133661990Y-82341881D01*
X133607818Y-82396063D01*
X133607812Y-82396070D01*
X133548671Y-82455212D01*
X133515245Y-82513119D01*
X133515240Y-82513127D01*
X133474423Y-82583823D01*
X133472469Y-82591117D01*
X133436105Y-82650778D01*
X133429864Y-82656047D01*
X133316243Y-82769669D01*
X133316242Y-82769670D01*
X133233267Y-82906929D01*
X133214489Y-82967190D01*
X133175751Y-83025337D01*
X133111725Y-83053310D01*
X133042740Y-83042228D01*
X132990698Y-82995609D01*
X132977720Y-82967190D01*
X132966733Y-82931931D01*
X132951619Y-82906929D01*
X132883757Y-82794670D01*
X132883753Y-82794665D01*
X132770334Y-82681246D01*
X132770329Y-82681242D01*
X132633070Y-82598267D01*
X132633066Y-82598265D01*
X132479933Y-82550548D01*
X132479935Y-82550548D01*
X132453312Y-82548128D01*
X132413381Y-82544500D01*
X132413378Y-82544500D01*
X131986611Y-82544500D01*
X131920073Y-82550546D01*
X131920066Y-82550548D01*
X131766933Y-82598265D01*
X131766929Y-82598267D01*
X131629670Y-82681242D01*
X131629669Y-82681243D01*
X131566213Y-82744698D01*
X131504889Y-82778182D01*
X131435198Y-82773196D01*
X131379265Y-82731324D01*
X131375442Y-82725923D01*
X131339858Y-82672667D01*
X131339856Y-82672664D01*
X131339855Y-82672663D01*
X130475528Y-81808338D01*
X130475525Y-81808334D01*
X130475525Y-81808335D01*
X130468458Y-81801268D01*
X130468458Y-81801267D01*
X130381333Y-81714142D01*
X130325472Y-81676817D01*
X130325473Y-81676817D01*
X130325471Y-81676815D01*
X130278890Y-81645690D01*
X130278886Y-81645688D01*
X130198392Y-81612347D01*
X130168611Y-81600011D01*
X130165053Y-81598537D01*
X130155027Y-81596543D01*
X130104629Y-81586518D01*
X130044210Y-81574500D01*
X130044207Y-81574500D01*
X130044206Y-81574500D01*
X128903750Y-81574500D01*
X128836711Y-81554815D01*
X128811602Y-81533474D01*
X128805875Y-81527114D01*
X128805871Y-81527110D01*
X128652736Y-81415851D01*
X128652731Y-81415848D01*
X128479809Y-81338857D01*
X128479804Y-81338855D01*
X128334003Y-81307865D01*
X128294648Y-81299500D01*
X128105356Y-81299500D01*
X128072899Y-81306398D01*
X127920199Y-81338855D01*
X127920194Y-81338857D01*
X127747272Y-81415848D01*
X127747267Y-81415851D01*
X127594131Y-81527111D01*
X127467467Y-81667785D01*
X127423932Y-81743191D01*
X127373365Y-81791407D01*
X127304758Y-81804629D01*
X127239893Y-81778661D01*
X127199365Y-81721747D01*
X127195641Y-81705106D01*
X127195380Y-81705168D01*
X127193597Y-81697623D01*
X127143351Y-81562908D01*
X127129430Y-81544313D01*
X127105011Y-81478849D01*
X127119861Y-81410576D01*
X127129430Y-81395687D01*
X127143351Y-81377091D01*
X127193597Y-81242376D01*
X127193598Y-81242372D01*
X127199999Y-81182844D01*
X127200000Y-81182827D01*
X127200000Y-81085000D01*
X126200000Y-81085000D01*
X126200000Y-82231000D01*
X126180315Y-82298039D01*
X126127511Y-82343794D01*
X126076000Y-82355000D01*
X124700000Y-82355000D01*
X124700000Y-82452844D01*
X124706401Y-82512372D01*
X124706402Y-82512376D01*
X124732433Y-82582166D01*
X124737417Y-82651857D01*
X124703933Y-82713181D01*
X124642610Y-82746666D01*
X124616251Y-82749500D01*
X124329194Y-82749500D01*
X124262155Y-82729815D01*
X124216400Y-82677011D01*
X124211263Y-82663817D01*
X124195182Y-82614324D01*
X124195180Y-82614320D01*
X124195179Y-82614316D01*
X124100533Y-82450384D01*
X123973871Y-82309712D01*
X123960589Y-82300062D01*
X123820734Y-82198451D01*
X123820729Y-82198448D01*
X123647807Y-82121457D01*
X123647802Y-82121455D01*
X123502001Y-82090465D01*
X123462646Y-82082100D01*
X123273354Y-82082100D01*
X123240897Y-82088998D01*
X123088197Y-82121455D01*
X123088192Y-82121457D01*
X122915270Y-82198448D01*
X122915265Y-82198451D01*
X122762129Y-82309711D01*
X122635466Y-82450385D01*
X122540821Y-82614315D01*
X122540818Y-82614322D01*
X122483320Y-82791284D01*
X122482326Y-82794344D01*
X122462540Y-82982600D01*
X122482326Y-83170856D01*
X122482327Y-83170859D01*
X122540818Y-83350877D01*
X122540821Y-83350884D01*
X122635467Y-83514816D01*
X122737722Y-83628381D01*
X122762129Y-83655488D01*
X122915265Y-83766748D01*
X122915270Y-83766751D01*
X123088192Y-83843742D01*
X123088197Y-83843744D01*
X123273354Y-83883100D01*
X123357940Y-83883100D01*
X123424979Y-83902785D01*
X123426789Y-83903970D01*
X123464714Y-83929311D01*
X123464723Y-83929317D01*
X123465135Y-83929536D01*
X123465138Y-83929538D01*
X123521890Y-83952993D01*
X123521968Y-83953056D01*
X123521979Y-83953031D01*
X123545411Y-83962736D01*
X123578548Y-83976463D01*
X123578554Y-83976464D01*
X123579003Y-83976600D01*
X123579008Y-83976602D01*
X123639201Y-83988527D01*
X123639201Y-83988528D01*
X123639251Y-83988536D01*
X123699394Y-84000500D01*
X123699700Y-84000530D01*
X123699795Y-84000539D01*
X123699863Y-84000545D01*
X123699871Y-84000547D01*
X123699878Y-84000546D01*
X123699879Y-84000547D01*
X123761478Y-84000500D01*
X124615717Y-84000500D01*
X124682756Y-84020185D01*
X124728511Y-84072989D01*
X124738455Y-84142147D01*
X124731899Y-84167833D01*
X124705908Y-84237517D01*
X124699501Y-84297116D01*
X124699500Y-84297135D01*
X124699500Y-84596520D01*
X124679815Y-84663559D01*
X124663181Y-84684201D01*
X123853698Y-85493685D01*
X123748689Y-85598693D01*
X123748685Y-85598699D01*
X123692458Y-85696087D01*
X123674434Y-85727304D01*
X123643949Y-85841081D01*
X123636000Y-85870745D01*
X123636000Y-86498889D01*
X123616315Y-86565928D01*
X123563511Y-86611683D01*
X123494353Y-86621627D01*
X123430797Y-86592602D01*
X123424319Y-86586570D01*
X121091086Y-84253338D01*
X121091083Y-84253334D01*
X121091083Y-84253335D01*
X121084017Y-84246269D01*
X121084016Y-84246267D01*
X120996891Y-84159142D01*
X120996887Y-84159139D01*
X120996886Y-84159138D01*
X120938074Y-84119841D01*
X120938072Y-84119840D01*
X120894444Y-84090688D01*
X120894445Y-84090688D01*
X120894443Y-84090687D01*
X120851714Y-84072989D01*
X120813950Y-84057347D01*
X120797290Y-84050446D01*
X120780611Y-84043537D01*
X120770118Y-84041450D01*
X120720187Y-84031518D01*
X120659768Y-84019500D01*
X120659765Y-84019500D01*
X120659764Y-84019500D01*
X119731152Y-84019500D01*
X119664113Y-83999815D01*
X119618358Y-83947011D01*
X119608414Y-83877853D01*
X119637439Y-83814297D01*
X119643471Y-83807819D01*
X120869124Y-82582166D01*
X122268445Y-81182844D01*
X124700000Y-81182844D01*
X124706401Y-81242372D01*
X124706403Y-81242379D01*
X124756645Y-81377086D01*
X124756646Y-81377087D01*
X124770572Y-81395691D01*
X124794987Y-81461156D01*
X124780134Y-81529429D01*
X124770572Y-81544309D01*
X124756646Y-81562912D01*
X124756645Y-81562913D01*
X124706403Y-81697620D01*
X124706401Y-81697627D01*
X124700000Y-81757155D01*
X124700000Y-81855000D01*
X125700000Y-81855000D01*
X125700000Y-81085000D01*
X124700000Y-81085000D01*
X124700000Y-81182844D01*
X122268445Y-81182844D01*
X123538445Y-79912844D01*
X124700000Y-79912844D01*
X124706401Y-79972372D01*
X124706403Y-79972379D01*
X124756645Y-80107086D01*
X124756646Y-80107087D01*
X124770572Y-80125691D01*
X124794987Y-80191156D01*
X124780134Y-80259429D01*
X124770572Y-80274309D01*
X124756646Y-80292912D01*
X124756645Y-80292913D01*
X124706403Y-80427620D01*
X124706401Y-80427627D01*
X124700000Y-80487155D01*
X124700000Y-80585000D01*
X125700000Y-80585000D01*
X126200000Y-80585000D01*
X127200000Y-80585000D01*
X127200000Y-80487172D01*
X127199999Y-80487155D01*
X127193598Y-80427627D01*
X127193597Y-80427623D01*
X127143351Y-80292908D01*
X127129430Y-80274313D01*
X127105011Y-80208849D01*
X127119861Y-80140576D01*
X127129430Y-80125687D01*
X127143351Y-80107091D01*
X127193597Y-79972376D01*
X127193598Y-79972372D01*
X127199999Y-79912844D01*
X127200000Y-79912827D01*
X127200000Y-79815000D01*
X126200000Y-79815000D01*
X126200000Y-80585000D01*
X125700000Y-80585000D01*
X125700000Y-79815000D01*
X124700000Y-79815000D01*
X124700000Y-79912844D01*
X123538445Y-79912844D01*
X124548856Y-78902433D01*
X124610175Y-78868951D01*
X124679867Y-78873935D01*
X124735800Y-78915807D01*
X124760217Y-78981271D01*
X124752715Y-79033450D01*
X124706403Y-79157619D01*
X124706401Y-79157627D01*
X124700000Y-79217155D01*
X124700000Y-79315000D01*
X125700000Y-79315000D01*
X126200000Y-79315000D01*
X127200000Y-79315000D01*
X127200000Y-79217172D01*
X127199999Y-79217155D01*
X127193598Y-79157627D01*
X127193597Y-79157623D01*
X127143351Y-79022908D01*
X127129430Y-79004313D01*
X127105011Y-78938849D01*
X127119861Y-78870576D01*
X127129430Y-78855687D01*
X127143351Y-78837091D01*
X127193597Y-78702376D01*
X127193598Y-78702372D01*
X127199999Y-78642844D01*
X127200000Y-78642827D01*
X127200000Y-78545000D01*
X126200000Y-78545000D01*
X126200000Y-79315000D01*
X125700000Y-79315000D01*
X125700000Y-78401200D01*
X125719685Y-78334161D01*
X125772489Y-78288406D01*
X125824000Y-78277200D01*
X126814338Y-78277200D01*
X126815294Y-78277246D01*
X126820820Y-78277242D01*
X126820824Y-78277243D01*
X126883099Y-78277200D01*
X126883157Y-78277200D01*
X126943610Y-78277200D01*
X126944027Y-78277158D01*
X126944038Y-78277158D01*
X127004554Y-78265076D01*
X127004646Y-78265084D01*
X127004641Y-78265059D01*
X127064452Y-78253163D01*
X127064467Y-78253156D01*
X127064853Y-78253039D01*
X127064866Y-78253037D01*
X127121251Y-78229634D01*
X127121341Y-78229625D01*
X127121332Y-78229602D01*
X127154695Y-78215782D01*
X127178286Y-78206011D01*
X127178289Y-78206008D01*
X127178649Y-78205816D01*
X127178658Y-78205810D01*
X127178667Y-78205807D01*
X127229078Y-78172072D01*
X127280733Y-78137558D01*
X127280738Y-78137552D01*
X127281062Y-78137285D01*
X127281068Y-78137282D01*
X127323988Y-78094302D01*
X127367858Y-78050433D01*
X127367859Y-78050430D01*
X127371881Y-78046409D01*
X127372511Y-78045712D01*
X127469725Y-77948367D01*
X127469737Y-77948379D01*
X127469783Y-77948307D01*
X127491321Y-77926769D01*
X127512858Y-77905234D01*
X127512932Y-77905143D01*
X127513125Y-77904905D01*
X127513132Y-77904899D01*
X127547183Y-77853860D01*
X127581311Y-77802786D01*
X127581315Y-77802775D01*
X127581465Y-77802496D01*
X127581507Y-77802414D01*
X127581515Y-77802404D01*
X127604764Y-77746165D01*
X127628463Y-77688952D01*
X127628466Y-77688934D01*
X127628585Y-77688542D01*
X127628588Y-77688537D01*
X127640415Y-77628862D01*
X127640431Y-77628865D01*
X127640431Y-77628781D01*
X127652500Y-77568106D01*
X127652500Y-77568104D01*
X127652541Y-77567682D01*
X127652540Y-77567681D01*
X127652542Y-77567676D01*
X127652500Y-77506794D01*
X127652500Y-74423394D01*
X127628463Y-74302548D01*
X127581311Y-74188714D01*
X127581310Y-74188713D01*
X127581307Y-74188707D01*
X127512858Y-74086267D01*
X127512855Y-74086263D01*
X127425736Y-73999144D01*
X127425732Y-73999141D01*
X127323292Y-73930692D01*
X127323283Y-73930687D01*
X127209454Y-73883538D01*
X127209455Y-73883538D01*
X127209452Y-73883537D01*
X127209448Y-73883536D01*
X127209444Y-73883535D01*
X127126729Y-73867082D01*
X127064818Y-73834697D01*
X127063242Y-73833150D01*
X127057548Y-73827457D01*
X127057546Y-73827454D01*
X127057542Y-73827451D01*
X126942335Y-73741206D01*
X126942328Y-73741202D01*
X126807482Y-73690908D01*
X126807483Y-73690908D01*
X126747883Y-73684501D01*
X126747881Y-73684500D01*
X126747873Y-73684500D01*
X126747864Y-73684500D01*
X125152129Y-73684500D01*
X125152123Y-73684501D01*
X125092516Y-73690908D01*
X124957671Y-73741202D01*
X124957664Y-73741206D01*
X124842455Y-73827452D01*
X124842452Y-73827455D01*
X124756206Y-73942664D01*
X124756202Y-73942671D01*
X124706973Y-74074663D01*
X124705909Y-74077517D01*
X124699500Y-74137127D01*
X124699500Y-74137134D01*
X124699500Y-74137135D01*
X124699500Y-74832870D01*
X124699501Y-74832876D01*
X124705908Y-74892483D01*
X124718957Y-74927467D01*
X124723941Y-74997159D01*
X124690456Y-75058482D01*
X124629133Y-75091966D01*
X124602775Y-75094800D01*
X124053748Y-75094800D01*
X123986709Y-75075115D01*
X123961600Y-75053774D01*
X123955873Y-75047414D01*
X123955869Y-75047410D01*
X123802734Y-74936151D01*
X123802729Y-74936148D01*
X123629807Y-74859157D01*
X123629802Y-74859155D01*
X123484001Y-74828165D01*
X123444646Y-74819800D01*
X123255354Y-74819800D01*
X123222897Y-74826698D01*
X123070197Y-74859155D01*
X123070192Y-74859157D01*
X122897270Y-74936148D01*
X122897265Y-74936151D01*
X122744129Y-75047411D01*
X122617466Y-75188085D01*
X122522821Y-75352015D01*
X122522818Y-75352022D01*
X122472028Y-75508340D01*
X122464326Y-75532044D01*
X122444540Y-75720300D01*
X122464326Y-75908556D01*
X122464327Y-75908559D01*
X122522818Y-76088577D01*
X122522821Y-76088584D01*
X122594941Y-76213500D01*
X122611414Y-76281401D01*
X122588561Y-76347427D01*
X122533640Y-76390618D01*
X122487554Y-76399500D01*
X121276443Y-76399500D01*
X121209404Y-76379815D01*
X121188764Y-76363183D01*
X121173007Y-76347427D01*
X118911750Y-74086263D01*
X117100960Y-72275548D01*
X117067473Y-72214226D01*
X117065319Y-72200837D01*
X117047674Y-72032944D01*
X116989179Y-71852916D01*
X116894533Y-71688984D01*
X116881714Y-71674747D01*
X116810653Y-71595825D01*
X116780423Y-71532833D01*
X116789049Y-71463498D01*
X116815117Y-71425177D01*
X118422563Y-69817621D01*
X118483884Y-69784135D01*
X118510246Y-69781300D01*
X122006540Y-69781300D01*
X122073579Y-69800985D01*
G37*
%TD.AperFunction*%
%TA.AperFunction,Conductor*%
G36*
X119244095Y-76207615D02*
G01*
X119294579Y-76238221D01*
X119820472Y-76764092D01*
X120519088Y-77462679D01*
X120519091Y-77462682D01*
X120567257Y-77510849D01*
X120567262Y-77510853D01*
X120567267Y-77510858D01*
X120567273Y-77510862D01*
X120567277Y-77510866D01*
X120624694Y-77549229D01*
X120625077Y-77549485D01*
X120625078Y-77549486D01*
X120637988Y-77558112D01*
X120666945Y-77577461D01*
X120669387Y-77579191D01*
X120671170Y-77579955D01*
X120676035Y-77582110D01*
X120678167Y-77582814D01*
X120730068Y-77604310D01*
X120779546Y-77624805D01*
X120783044Y-77626403D01*
X120783503Y-77626576D01*
X120784119Y-77626718D01*
X120787898Y-77627329D01*
X120865103Y-77642684D01*
X120865107Y-77642685D01*
X120878317Y-77645312D01*
X120904394Y-77650500D01*
X120904397Y-77650500D01*
X120904407Y-77650502D01*
X120986549Y-77650500D01*
X123732248Y-77650500D01*
X123799287Y-77670185D01*
X123845042Y-77722989D01*
X123854986Y-77792147D01*
X123825961Y-77855703D01*
X123819929Y-77862180D01*
X121473260Y-80208849D01*
X119141181Y-82540928D01*
X119079858Y-82574413D01*
X119010166Y-82569429D01*
X118954233Y-82527557D01*
X118929816Y-82462093D01*
X118929500Y-82453247D01*
X118929500Y-79974314D01*
X118929523Y-79973830D01*
X118929521Y-79967985D01*
X118929522Y-79967981D01*
X118929500Y-79906374D01*
X118929500Y-79844994D01*
X118929499Y-79844989D01*
X118929478Y-79844781D01*
X118929478Y-79844767D01*
X118917355Y-79783936D01*
X118905463Y-79724148D01*
X118905461Y-79724145D01*
X118905461Y-79724141D01*
X118905400Y-79723938D01*
X118881933Y-79667344D01*
X118881915Y-79667300D01*
X118858313Y-79610318D01*
X118858208Y-79610123D01*
X118858204Y-79610114D01*
X118824442Y-79559626D01*
X118824450Y-79559620D01*
X118824415Y-79559586D01*
X118789860Y-79507869D01*
X118789717Y-79507696D01*
X118789715Y-79507694D01*
X118789713Y-79507691D01*
X118746802Y-79464811D01*
X118746805Y-79464807D01*
X118746769Y-79464778D01*
X118698675Y-79416683D01*
X118698297Y-79416341D01*
X117777852Y-78496561D01*
X117777855Y-78496557D01*
X117777819Y-78496528D01*
X117733735Y-78452444D01*
X117733565Y-78452303D01*
X117707130Y-78434654D01*
X117682551Y-78418243D01*
X117631286Y-78383989D01*
X117631285Y-78383988D01*
X117631274Y-78383981D01*
X117631091Y-78383883D01*
X117605982Y-78373493D01*
X117573685Y-78360129D01*
X117573649Y-78360101D01*
X117573645Y-78360113D01*
X117517452Y-78336837D01*
X117517450Y-78336836D01*
X117517437Y-78336831D01*
X117517244Y-78336772D01*
X117455603Y-78324534D01*
X117455564Y-78324526D01*
X117396597Y-78312798D01*
X117396382Y-78312777D01*
X117396381Y-78312777D01*
X117333405Y-78312800D01*
X116324000Y-78312800D01*
X116256961Y-78293115D01*
X116211206Y-78240311D01*
X116200000Y-78188800D01*
X116200000Y-78169000D01*
X116219685Y-78101961D01*
X116272489Y-78056206D01*
X116324000Y-78045000D01*
X117700000Y-78045000D01*
X117700000Y-77947172D01*
X117699999Y-77947155D01*
X117693598Y-77887627D01*
X117693595Y-77887616D01*
X117653160Y-77779206D01*
X117648175Y-77709515D01*
X117681659Y-77648191D01*
X117721887Y-77621312D01*
X117802109Y-77588082D01*
X117823279Y-77579314D01*
X117823279Y-77579313D01*
X117823286Y-77579311D01*
X117925733Y-77510858D01*
X118012858Y-77423733D01*
X118081311Y-77321286D01*
X118128463Y-77207452D01*
X118152500Y-77086606D01*
X118152500Y-76867681D01*
X118172185Y-76800642D01*
X118188805Y-76780014D01*
X118213311Y-76755501D01*
X118349861Y-76618907D01*
X118410916Y-76557833D01*
X118472234Y-76524338D01*
X118498611Y-76521500D01*
X118557644Y-76521500D01*
X118557646Y-76521500D01*
X118742803Y-76482144D01*
X118915730Y-76405151D01*
X119068871Y-76293888D01*
X119114751Y-76242932D01*
X119174238Y-76206284D01*
X119244095Y-76207615D01*
G37*
%TD.AperFunction*%
%TA.AperFunction,Conductor*%
G36*
X110530703Y-75537365D02*
G01*
X110558858Y-75572625D01*
X110594084Y-75638529D01*
X110594087Y-75638533D01*
X110594090Y-75638538D01*
X110651354Y-75708314D01*
X110678666Y-75772620D01*
X110679500Y-75786976D01*
X110679500Y-76326082D01*
X110679500Y-76473918D01*
X110679500Y-76473920D01*
X110679499Y-76473920D01*
X110708340Y-76618907D01*
X110708343Y-76618917D01*
X110764912Y-76755488D01*
X110764919Y-76755501D01*
X110847048Y-76878415D01*
X110847051Y-76878419D01*
X110951580Y-76982948D01*
X110951584Y-76982951D01*
X111074498Y-77065080D01*
X111074511Y-77065087D01*
X111126473Y-77086610D01*
X111211087Y-77121658D01*
X111211091Y-77121658D01*
X111211092Y-77121659D01*
X111356079Y-77150500D01*
X111356082Y-77150500D01*
X113973920Y-77150500D01*
X114071462Y-77131096D01*
X114118913Y-77121658D01*
X114255495Y-77065084D01*
X114313689Y-77026200D01*
X114378416Y-76982952D01*
X114535819Y-76825548D01*
X114597142Y-76792064D01*
X114666833Y-76797048D01*
X114722767Y-76838919D01*
X114747184Y-76904384D01*
X114747500Y-76913230D01*
X114747500Y-78679402D01*
X114747379Y-78681900D01*
X114747500Y-78747868D01*
X114747500Y-78808638D01*
X114747558Y-78809213D01*
X114747594Y-78809575D01*
X114747609Y-78809733D01*
X114759665Y-78869767D01*
X114759709Y-78869989D01*
X114771540Y-78929468D01*
X114771628Y-78929755D01*
X114771723Y-78930066D01*
X114771865Y-78930535D01*
X114795371Y-78986994D01*
X114795456Y-78987199D01*
X114818695Y-79043301D01*
X114818993Y-79043855D01*
X114819116Y-79044085D01*
X114819223Y-79044286D01*
X114819229Y-79044295D01*
X114819230Y-79044297D01*
X114853071Y-79094744D01*
X114853143Y-79094970D01*
X114853199Y-79094933D01*
X114885813Y-79143744D01*
X114887148Y-79145742D01*
X114887176Y-79145776D01*
X114887311Y-79145940D01*
X114887857Y-79146605D01*
X114930943Y-79189534D01*
X114977560Y-79236151D01*
X114979411Y-79237825D01*
X115122984Y-79380875D01*
X115166273Y-79424164D01*
X115166514Y-79424361D01*
X115166741Y-79424547D01*
X115167141Y-79424875D01*
X115167152Y-79424882D01*
X115167154Y-79424884D01*
X115177610Y-79431843D01*
X115217769Y-79458572D01*
X115217741Y-79458612D01*
X115217953Y-79458694D01*
X115268714Y-79492611D01*
X115268718Y-79492612D01*
X115268732Y-79492622D01*
X115269103Y-79492820D01*
X115269350Y-79492951D01*
X115269713Y-79493145D01*
X115269726Y-79493150D01*
X115269727Y-79493151D01*
X115326026Y-79516350D01*
X115326015Y-79516375D01*
X115326230Y-79516434D01*
X115382548Y-79539763D01*
X115382553Y-79539765D01*
X115383636Y-79540093D01*
X115443419Y-79551870D01*
X115443418Y-79551874D01*
X115443596Y-79551905D01*
X115503394Y-79563800D01*
X115503396Y-79563800D01*
X115503401Y-79563801D01*
X115503531Y-79563814D01*
X115503757Y-79563836D01*
X115504517Y-79563910D01*
X115504529Y-79563909D01*
X115504535Y-79563911D01*
X115565321Y-79563800D01*
X116576000Y-79563800D01*
X116643039Y-79583485D01*
X116688794Y-79636289D01*
X116700000Y-79687800D01*
X116700000Y-82231000D01*
X116680315Y-82298039D01*
X116627511Y-82343794D01*
X116576000Y-82355000D01*
X115288953Y-82355000D01*
X115221914Y-82335315D01*
X115201272Y-82318681D01*
X114065435Y-81182844D01*
X115200000Y-81182844D01*
X115206401Y-81242372D01*
X115206403Y-81242379D01*
X115256645Y-81377086D01*
X115256646Y-81377087D01*
X115270572Y-81395691D01*
X115294987Y-81461156D01*
X115280134Y-81529429D01*
X115270572Y-81544309D01*
X115256646Y-81562912D01*
X115256645Y-81562913D01*
X115206403Y-81697620D01*
X115206401Y-81697627D01*
X115200000Y-81757155D01*
X115200000Y-81855000D01*
X116200000Y-81855000D01*
X116200000Y-81085000D01*
X115200000Y-81085000D01*
X115200000Y-81182844D01*
X114065435Y-81182844D01*
X112795435Y-79912844D01*
X115200000Y-79912844D01*
X115206401Y-79972372D01*
X115206403Y-79972379D01*
X115256645Y-80107086D01*
X115256646Y-80107087D01*
X115270572Y-80125691D01*
X115294987Y-80191156D01*
X115280134Y-80259429D01*
X115270572Y-80274309D01*
X115256646Y-80292912D01*
X115256645Y-80292913D01*
X115206403Y-80427620D01*
X115206401Y-80427627D01*
X115200000Y-80487155D01*
X115200000Y-80585000D01*
X116200000Y-80585000D01*
X116200000Y-79815000D01*
X115200000Y-79815000D01*
X115200000Y-79912844D01*
X112795435Y-79912844D01*
X110361819Y-77479228D01*
X110328334Y-77417905D01*
X110325500Y-77391547D01*
X110325500Y-75631078D01*
X110345185Y-75564039D01*
X110397989Y-75518284D01*
X110467147Y-75508340D01*
X110530703Y-75537365D01*
G37*
%TD.AperFunction*%
%TA.AperFunction,Conductor*%
G36*
X113911362Y-72541766D02*
G01*
X113939071Y-72588064D01*
X113989092Y-72739016D01*
X114079660Y-72885850D01*
X114201650Y-73007840D01*
X114348484Y-73098408D01*
X114412505Y-73119622D01*
X114469948Y-73159393D01*
X114496772Y-73223908D01*
X114497500Y-73237327D01*
X114497500Y-74558922D01*
X114498097Y-74564985D01*
X114497905Y-74565003D01*
X114499500Y-74581187D01*
X114499500Y-74687770D01*
X114479815Y-74754809D01*
X114463181Y-74775451D01*
X113872782Y-75365849D01*
X113811459Y-75399334D01*
X113741767Y-75394350D01*
X113685834Y-75352478D01*
X113685504Y-75352035D01*
X113669162Y-75330000D01*
X112909618Y-75330000D01*
X112960064Y-75279554D01*
X113002851Y-75205445D01*
X113025000Y-75122787D01*
X113025000Y-75037213D01*
X113002851Y-74954555D01*
X112960064Y-74880446D01*
X112909618Y-74830000D01*
X112950000Y-74830000D01*
X113669160Y-74830000D01*
X113669160Y-74829999D01*
X113628347Y-74695458D01*
X113535497Y-74521747D01*
X113532111Y-74516680D01*
X113533665Y-74515641D01*
X113509759Y-74459361D01*
X113521547Y-74390493D01*
X113532441Y-74373540D01*
X113532111Y-74373320D01*
X113535497Y-74368252D01*
X113628347Y-74194541D01*
X113669160Y-74060000D01*
X112950000Y-74060000D01*
X112950000Y-74830000D01*
X112909618Y-74830000D01*
X112899554Y-74819936D01*
X112825445Y-74777149D01*
X112742787Y-74755000D01*
X112657213Y-74755000D01*
X112574555Y-74777149D01*
X112500446Y-74819936D01*
X112450000Y-74870382D01*
X112450000Y-74019618D01*
X112500446Y-74070064D01*
X112574555Y-74112851D01*
X112657213Y-74135000D01*
X112742787Y-74135000D01*
X112825445Y-74112851D01*
X112899554Y-74070064D01*
X112960064Y-74009554D01*
X113002851Y-73935445D01*
X113025000Y-73852787D01*
X113025000Y-73767213D01*
X113002851Y-73684555D01*
X112960064Y-73610446D01*
X112909618Y-73560000D01*
X113669160Y-73560000D01*
X113669160Y-73559999D01*
X113628347Y-73425458D01*
X113535496Y-73251746D01*
X113532110Y-73246678D01*
X113533784Y-73245559D01*
X113510081Y-73189746D01*
X113521874Y-73120879D01*
X113532839Y-73103818D01*
X113532523Y-73103607D01*
X113535904Y-73098544D01*
X113535910Y-73098538D01*
X113628814Y-72924727D01*
X113686024Y-72736132D01*
X113697962Y-72614914D01*
X113724122Y-72550128D01*
X113781157Y-72509769D01*
X113850957Y-72506652D01*
X113911362Y-72541766D01*
G37*
%TD.AperFunction*%
%TD*%
M02*
