%TF.GenerationSoftware,KiCad,Pcbnew,8.0.5*%
%TF.CreationDate,2024-10-08T14:31:27-07:00*%
%TF.ProjectId,USB_SPDTK2,5553425f-5350-4445-944b-322e6b696361,rev?*%
%TF.SameCoordinates,Original*%
%TF.FileFunction,Soldermask,Bot*%
%TF.FilePolarity,Negative*%
%FSLAX46Y46*%
G04 Gerber Fmt 4.6, Leading zero omitted, Abs format (unit mm)*
G04 Created by KiCad (PCBNEW 8.0.5) date 2024-10-08 14:31:27*
%MOMM*%
%LPD*%
G01*
G04 APERTURE LIST*
G04 Aperture macros list*
%AMRoundRect*
0 Rectangle with rounded corners*
0 $1 Rounding radius*
0 $2 $3 $4 $5 $6 $7 $8 $9 X,Y pos of 4 corners*
0 Add a 4 corners polygon primitive as box body*
4,1,4,$2,$3,$4,$5,$6,$7,$8,$9,$2,$3,0*
0 Add four circle primitives for the rounded corners*
1,1,$1+$1,$2,$3*
1,1,$1+$1,$4,$5*
1,1,$1+$1,$6,$7*
1,1,$1+$1,$8,$9*
0 Add four rect primitives between the rounded corners*
20,1,$1+$1,$2,$3,$4,$5,0*
20,1,$1+$1,$4,$5,$6,$7,0*
20,1,$1+$1,$6,$7,$8,$9,0*
20,1,$1+$1,$8,$9,$2,$3,0*%
G04 Aperture macros list end*
%ADD10R,1.000000X1.000000*%
%ADD11O,1.000000X1.000000*%
%ADD12C,3.600000*%
%ADD13C,5.600000*%
%ADD14C,2.374900*%
%ADD15C,0.990600*%
%ADD16O,0.900000X1.600000*%
%ADD17RoundRect,0.160000X-0.197500X-0.160000X0.197500X-0.160000X0.197500X0.160000X-0.197500X0.160000X0*%
%ADD18RoundRect,0.155000X0.212500X0.155000X-0.212500X0.155000X-0.212500X-0.155000X0.212500X-0.155000X0*%
%ADD19RoundRect,0.155000X-0.212500X-0.155000X0.212500X-0.155000X0.212500X0.155000X-0.212500X0.155000X0*%
%ADD20RoundRect,0.237500X-0.237500X0.300000X-0.237500X-0.300000X0.237500X-0.300000X0.237500X0.300000X0*%
%ADD21RoundRect,0.175000X0.325000X-0.175000X0.325000X0.175000X-0.325000X0.175000X-0.325000X-0.175000X0*%
%ADD22RoundRect,0.150000X0.150000X-0.200000X0.150000X0.200000X-0.150000X0.200000X-0.150000X-0.200000X0*%
%ADD23RoundRect,0.160000X0.160000X-0.197500X0.160000X0.197500X-0.160000X0.197500X-0.160000X-0.197500X0*%
%ADD24RoundRect,0.237500X0.300000X0.237500X-0.300000X0.237500X-0.300000X-0.237500X0.300000X-0.237500X0*%
%ADD25RoundRect,0.155000X-0.155000X0.212500X-0.155000X-0.212500X0.155000X-0.212500X0.155000X0.212500X0*%
%ADD26C,3.000000*%
%ADD27RoundRect,0.160000X0.197500X0.160000X-0.197500X0.160000X-0.197500X-0.160000X0.197500X-0.160000X0*%
%ADD28R,1.500000X0.600000*%
G04 APERTURE END LIST*
D10*
%TO.C,J3*%
X111430000Y-66190000D03*
D11*
X112700000Y-66190000D03*
X111430000Y-67460000D03*
X112700000Y-67460000D03*
X111430000Y-68730000D03*
X112700000Y-68730000D03*
X111430000Y-70000000D03*
X112700000Y-70000000D03*
X111430000Y-71270000D03*
X112700000Y-71270000D03*
X111430000Y-72540000D03*
X112700000Y-72540000D03*
X111430000Y-73810000D03*
X112700000Y-73810000D03*
X111430000Y-75080000D03*
X112700000Y-75080000D03*
%TD*%
D12*
%TO.C,H1*%
X119012000Y-110500000D03*
D13*
X119012000Y-110500000D03*
%TD*%
D14*
%TO.C,J2*%
X110525000Y-105740000D03*
D15*
X113065000Y-105740000D03*
D14*
X115605000Y-105740000D03*
X110525000Y-100025000D03*
X115605000Y-100025000D03*
D15*
X112049000Y-98120000D03*
X114081000Y-98120000D03*
%TD*%
D12*
%TO.C,H2*%
X130188000Y-110500000D03*
D13*
X130188000Y-110500000D03*
%TD*%
D16*
%TO.C,J1*%
X127300000Y-65125000D03*
X120700000Y-65125000D03*
%TD*%
D17*
%TO.C,R9*%
X135402500Y-99700000D03*
X136597500Y-99700000D03*
%TD*%
D18*
%TO.C,C11*%
X130535000Y-95700000D03*
X129400000Y-95700000D03*
%TD*%
D19*
%TO.C,C10*%
X123132500Y-97000000D03*
X124267500Y-97000000D03*
%TD*%
D18*
%TO.C,C9*%
X124267500Y-90300000D03*
X123132500Y-90300000D03*
%TD*%
D20*
%TO.C,C14*%
X114900000Y-70400000D03*
X114900000Y-72125000D03*
%TD*%
D21*
%TO.C,D2*%
X125550000Y-72500000D03*
D22*
X123850000Y-72500000D03*
X123850000Y-70500000D03*
X125750000Y-70500000D03*
%TD*%
D18*
%TO.C,C13*%
X129267500Y-97400000D03*
X128132500Y-97400000D03*
%TD*%
D23*
%TO.C,R18*%
X130500000Y-91197500D03*
X130500000Y-90002500D03*
%TD*%
D24*
%TO.C,FB1*%
X132662500Y-99200000D03*
X130937500Y-99200000D03*
%TD*%
D25*
%TO.C,C16*%
X127900000Y-84900000D03*
X127900000Y-86035000D03*
%TD*%
D26*
%TO.C,FID3*%
X109900000Y-111500000D03*
%TD*%
D23*
%TO.C,R15*%
X130200000Y-84697500D03*
X130200000Y-83502500D03*
%TD*%
D27*
%TO.C,R12*%
X113095000Y-87900000D03*
X111900000Y-87900000D03*
%TD*%
D23*
%TO.C,R14*%
X132200000Y-84597500D03*
X132200000Y-83402500D03*
%TD*%
D28*
%TO.C,U3*%
X116450000Y-85915000D03*
X116450000Y-84645000D03*
X116450000Y-83375000D03*
X116450000Y-82105000D03*
X116450000Y-80835000D03*
X116450000Y-79565000D03*
X116450000Y-78295000D03*
X116450000Y-77025000D03*
X116450000Y-75755000D03*
X116450000Y-74485000D03*
X125950000Y-74485000D03*
X125950000Y-75755000D03*
X125950000Y-77025000D03*
X125950000Y-78295000D03*
X125950000Y-79565000D03*
X125950000Y-80835000D03*
X125950000Y-82105000D03*
X125950000Y-83375000D03*
X125950000Y-84645000D03*
X125950000Y-85915000D03*
%TD*%
D23*
%TO.C,R11*%
X126900000Y-103497500D03*
X126900000Y-102302500D03*
%TD*%
D17*
%TO.C,R17*%
X134602500Y-93100000D03*
X135797500Y-93100000D03*
%TD*%
D23*
%TO.C,R13*%
X134000000Y-84572500D03*
X134000000Y-83377500D03*
%TD*%
D26*
%TO.C,FID4*%
X139400000Y-66000000D03*
%TD*%
M02*
